<?xml version="1.0" encoding="iso-8859-1"?>
<!-- Generator: Adobe Illustrator 19.2.1, SVG Export Plug-In . SVG Version: 6.00 Build 0)  -->
<svg version="1.1" xmlns="http://www.w3.org/2000/svg" xmlns:xlink="http://www.w3.org/1999/xlink" x="0px" y="0px"
	 viewBox="0 0 20.346 45.7" style="enable-background:new 0 0 20.346 45.7;" xml:space="preserve">
<g id="BURMA">
	<path id="Burma__x28_Myanmar_x29_" style="fill:#002A5C;" d="M14.546,36.1c1.6-2.1,0.3-3.9-0.9-5.5c-1.7-2.1-2-3.9-0.1-5.9
		c0.6-0.7,1.3-1.2,2-1.7c1.7-1.2,3.4-2.3,4.8-3.2c-1.5-1.3-3-2.1-3.5-3.3c-0.8-1.8-1.3-3.6-3.5-4.3c-0.5-0.2-1.1-1.4-1-1.9
		c0.4-1.2,1-2.4,1.8-3.4c1.7-2,1.4-5-1.3-6.9c-0.2,2.3-1.4,3-3.3,3.4c-1.1,0.2-2.1,1.8-2.8,3c-1.1,1.9-1.4,4.4-2.9,5.7
		c-2.7,2.3-2.5,5.5-3.8,8.2c-0.2,0.4,0.3,1.3,0.7,1.8c1,1.5,2.3,2.7,3,4.3c0.7,1.5,0.9,3.3,1.3,4.9c0.2,0.8,0.1,2,0.5,2.2
		c0.7,0.3,1.8,0.2,2.5-0.2c4.4-2.2,4.4-2.2,5.9,2.7l0.1,0.1c0,0.6,0.1,1.5,0.3,2.6c0.6,2.3,1.2,4.7,1.8,7c0.4-0.1,0.7-0.2,1-0.3
		c-0.6-2.3-1.3-4.7-1.9-7C14.946,37.4,14.746,36.6,14.546,36.1z"/>
</g>
<g id="Layer_1">
</g>
</svg>
