<?xml version="1.0" encoding="iso-8859-1"?>
<!-- Generator: Adobe Illustrator 19.2.1, SVG Export Plug-In . SVG Version: 6.00 Build 0)  -->
<svg version="1.1" xmlns="http://www.w3.org/2000/svg" xmlns:xlink="http://www.w3.org/1999/xlink" x="0px" y="0px"
	 viewBox="0 0 30.613 31.907" style="enable-background:new 0 0 30.613 31.907;" xml:space="preserve">
<g id="FRANCE">
	<path id="XMLID_1063_" style="fill:#008BB0;" d="M7,9.488c0.1-1.1,0.1-1.9,0.1-2.6c3.5-1,7.2-1.6,8.6-5.7c0.5-1.4,1.8-1.6,2.8-0.4
		c2.9,3.8,7,5.5,11.3,7.2c0.4,0.2,0.9,1.3,0.8,1.7c-0.9,1.9-1.8,3.8-3,5.5c-1,1.4-1.8,2.4-0.1,4c0.7,0.6,0.7,2.1,1,3.2
		c0.2,1.1,0.1,2.3,0.5,3.4c0.8,2.5-0.2,3.6-2.9,3.4c-1.9-0.2-3.7,0.1-5.6,0.1c-0.3,0-0.8,0.1-0.9,0.3c-3.1,4.7-6.9,0.8-10.4,0.8
		c-1.8,0-2.3-1.3-1.6-3.2c2.3-6.4,0-11.8-6.1-14.9c-0.6-0.3-1-1.1-1.5-1.7c0.7-0.5,1.4-1.3,2.1-1.4C3.5,8.988,5.1,9.288,7,9.488z"/>
</g>
<g id="Layer_1">
</g>
</svg>
