<?xml version="1.0" encoding="iso-8859-1"?>
<!-- Generator: Adobe Illustrator 19.2.1, SVG Export Plug-In . SVG Version: 6.00 Build 0)  -->
<svg version="1.1" xmlns="http://www.w3.org/2000/svg" xmlns:xlink="http://www.w3.org/1999/xlink" x="0px" y="0px"
	 viewBox="0 0 51.858 74.281" style="enable-background:new 0 0 51.858 74.281;" xml:space="preserve">
<g id="INDIA">
	<path id="XMLID_29_" style="fill:#002A5C;" d="M17.3,8.906c-1-1.8-2-3.2-2.7-4.8c-0.7-1.6-0.2-2.7,1.8-2.3c2.4,0.5,4.6,0.3,6.5-1.5
		c1-0.9,3,0.3,2.9,2.1c0,1.7,1.2,3.5-0.2,5.4c-0.5,0.7,0.7,3,1.6,4.2c0.9,1.1,2.3,1.8,3.6,2.7c-0.2,0.5-0.4,0.9-0.5,1.2
		c-1.4,2.9-1.3,3.2,1.4,4.6c5.5,2.8,11.2,5.3,17.4,6.1c0.8,0.1,2.3,2.5,2,3c-1.3,2.2,0.1,4.1,0.5,5.9c0.5,2.1,0.5,3.4-2.1,3.5
		c-1.3,0.1-2.3,0.6-2.6,2.2c-0.2,0.8-1,1.6-1.7,2.2c-3.5,3.1-7.1,6.1-10.7,9.1c-0.7,0.6-1.5,1-2.4,1.3c-2.3,0.7-3.1,2.2-3.1,4.5
		c0,2.5-0.3,5.1-0.4,7.6c-0.1,3.7-2.6,5.9-4.9,8.2c-0.3,0.3-1.5,0.2-2-0.2c-0.6-0.3-1-1.1-1.3-1.8c-1.7-4.3-3.3-8.7-4.9-13
		c-1.2-3.2-2.6-6.4-3.6-9.8c-0.6-2.2-0.7-4.6-0.9-6.9c-0.3-2.5-0.8-2.9-3.1-2c-3,1.2-5-0.2-5.3-3.5c-0.1-0.9-1.1-1.7-1.7-2.5
		c-0.3-0.5-0.6-0.9-0.9-1.4c0.5-0.3,1-0.7,1.6-0.9c0.7-0.2,1.5,0,2.2-0.1c2.6-0.1,3.1-0.9,2-3.2c-0.6-1.2-1.1-2.4-1.6-3.6
		c-0.9-2-0.3-3.4,2-3.5c2.1-0.1,3.4-1.2,4.4-2.8c1.7-2.9,3.4-5.8,5.2-8.7C16.4,10.006,16.9,9.406,17.3,8.906z"/>
</g>
<g id="Layer_1">
</g>
</svg>
