<?xml version="1.0" encoding="iso-8859-1"?>
<!-- Generator: Adobe Illustrator 19.2.1, SVG Export Plug-In . SVG Version: 6.00 Build 0)  -->
<svg version="1.1" xmlns="http://www.w3.org/2000/svg" xmlns:xlink="http://www.w3.org/1999/xlink" x="0px" y="0px"
	 viewBox="0 0 21.573 29.215" style="enable-background:new 0 0 21.573 29.215;" xml:space="preserve">
<g id="GERMANY">
	<path id="XMLID_25_" style="fill:#002A5C;" d="M13.126,29.166c-2.9-0.3-5.5-0.4-8-0.8c-0.3-0.1-0.9-1.7-0.6-2.3
		c1.2-2.3,0.1-2.8-1.9-3.4c-0.9-0.2-2-1.4-2.1-2.2c-0.5-2.9-1.2-5.9,0.9-8.8c0.9-1.3,0.7-3.4,1.2-5c0.2-0.7,1-1.6,1.5-1.7
		c2.2-0.1,2.9-1.2,2.7-3.2c-0.1-0.6,0.1-1.5,0.5-1.7s1.2,0.1,1.8,0.3c0.7,0.3,1.5,0.7,1.8,1.3c1.1,1.8,2.5,1.4,4.1,0.8
		c2.5-1.1,5.2,0.8,5.4,3.6c0.2,2.4,0.4,4.8,1,7.1c0.4,1.6,0,2.3-1.4,2.7c-0.9,0.3-1.7,0.7-2.5,1.1c-2.6,1.5-2.7,2.8-1.1,5.2
		c0.7,1,1.6,2.5,1.3,3.3C16.826,27.466,15.626,29.566,13.126,29.166z"/>
</g>
<g id="Layer_1">
</g>
</svg>
