<?xml version="1.0" encoding="utf-8"?>
<!-- Generator: Adobe Illustrator 19.2.1, SVG Export Plug-In . SVG Version: 6.00 Build 0)  -->
<svg version="1.1" id="Layer_1" xmlns="http://www.w3.org/2000/svg" xmlns:xlink="http://www.w3.org/1999/xlink" x="0px" y="0px"
	 viewBox="0 0 46.4 13.7" style="enable-background:new 0 0 46.4 13.7;" xml:space="preserve">
<metadata><?xpacket begin="﻿" id="W5M0MpCehiHzreSzNTczkc9d"?>
<x:xmpmeta xmlns:x="adobe:ns:meta/" x:xmptk="Adobe XMP Core 5.6-c111 79.158366, 2015/09/25-01:12:00        ">
   <rdf:RDF xmlns:rdf="http://www.w3.org/1999/02/22-rdf-syntax-ns#">
      <rdf:Description rdf:about=""/>
   </rdf:RDF>
</x:xmpmeta>
                                                                                                    
                                                                                                    
                                                                                                    
                                                                                                    
                                                                                                    
                                                                                                    
                                                                                                    
                                                                                                    
                                                                                                    
                                                                                                    
                                                                                                    
                                                                                                    
                                                                                                    
                                                                                                    
                                                                                                    
                                                                                                    
                                                                                                    
                                                                                                    
                                                                                                    
                                                                                                    
                           
<?xpacket end="w"?></metadata>
<style type="text/css">
	.st0{fill:#002A5C;}
</style>
<g id="MALAYSIA">
	<path class="st0" d="M29.8,9.5c-0.4,0.2-0.8,0.5-1.2,0.8c-1.1,1-2.2,1.9-3.3,2.9c0.2,0.1,0.8,0.6,1.3,0.5c2.9-0.3,5.7-0.8,8.6-1.2
		c0.3,0,0.7-0.4,0.9-0.7c1.1-2.3,2.1-4.7,3.1-7c-2.8,1.5-5.6,3-8.5,4.4C30.5,9.4,30.1,9.4,29.8,9.5z"/>
	<path class="st0" d="M43.4,0.3c-0.5-0.3-1.6-0.4-1.8-0.1c-0.9,1.4-1.6,3-2.4,4.6c1.2,0.1,2.4-0.1,3.4,0.2c2.4,0.6,3.6-0.3,3.8-2.4
		C45.3,1.8,44.4,0.9,43.4,0.3z"/>
	<path class="st0" d="M2.6,1.7C2,2,1.1,1.7,0.1,1.6c-0.8,4.5,3.5,9.5,8.4,10.8C7.7,9.2,7,6,6,3C5.5,1.7,4.4,0.7,2.6,1.7z"/>
</g>
<g id="Layer_1_1_">
</g>
</svg>
