<?xml version="1.0" encoding="iso-8859-1"?>
<!-- Generator: Adobe Illustrator 19.2.1, SVG Export Plug-In . SVG Version: 6.00 Build 0)  -->
<svg version="1.1" xmlns="http://www.w3.org/2000/svg" xmlns:xlink="http://www.w3.org/1999/xlink" x="0px" y="0px"
	 viewBox="0 0 39.175 45.2" style="enable-background:new 0 0 39.175 45.2;" xml:space="preserve">
<g id="JAPAN">
	<path style="fill:#002A5C;" d="M38.919,4.3c-3.4,0.2-5.2-2.2-7.1-4.3c-0.2,0.2-0.4,0.3-0.4,0.3c-0.1,0.2-0.1,0.5-0.2,0.7
		c-0.7,2.5-0.2,5.6-3.9,6.4c-0.5,0.1-0.7,2-0.8,3.1c0,0.3,0.7,0.7,1.1,1.1c0.6-0.6,1.3-1.1,1.7-1.8c0.7-1.4,1.5-1.4,2.8-0.7
		c0.7,0.4,1.8,0.7,2.4,0.4c1.7-0.9,3.2-2.1,4.6-3.4C39.319,5.8,38.919,4.3,38.919,4.3z"/>
	<path style="fill:#002A5C;" d="M27.119,14.7c-0.5,0.7-0.6,1.6-0.8,2.5c-0.3,1.8-0.1,4-1,5.4c-1.4,2.2-3.4,4.9-5.7,5.5
		c-2.2,0.5-2.7,1.5-3.6,3c-0.4,0.7-1.5,1.6-2.2,1.5c-4.3-0.6-7.6,1-10.1,4.8c1.1-0.3,2.1-0.6,3-1c1.6-0.4,3.1-0.9,4.6-1.1
		c0.8,0,2,0.5,2.2,1.1c0.7,2.2,1.9,1.7,2.9,0.6c1.7-1.8,3.6-2.3,6-2.4c3.2-0.2,4.3-1.5,4.8-4.6c0.4-2.5,0.6-5.3,1.8-7.5
		c1.4-2.6,1.3-4.9,0.5-7.4C29.119,13.6,28.019,13.7,27.119,14.7z"/>
	<path style="fill:#002A5C;" d="M1.919,38c-0.7,1-2.1,2-1.9,2.7c0.3,1.6,1.4,3,2.1,4.5C4.819,43.3,5.019,40.5,1.919,38z"/>
</g>
<g id="Layer_1">
</g>
</svg>
