<?xml version="1.0" encoding="utf-8"?>
<!-- Generator: Adobe Illustrator 19.2.1, SVG Export Plug-In . SVG Version: 6.00 Build 0)  -->
<svg version="1.1" id="Layer_1" xmlns="http://www.w3.org/2000/svg" xmlns:xlink="http://www.w3.org/1999/xlink" x="0px" y="0px"
	 viewBox="0 0 40.7 34.7" style="enable-background:new 0 0 40.7 34.7;" xml:space="preserve">
<metadata><?xpacket begin="﻿" id="W5M0MpCehiHzreSzNTczkc9d"?>
<x:xmpmeta xmlns:x="adobe:ns:meta/" x:xmptk="Adobe XMP Core 5.6-c111 79.158366, 2015/09/25-01:12:00        ">
   <rdf:RDF xmlns:rdf="http://www.w3.org/1999/02/22-rdf-syntax-ns#">
      <rdf:Description rdf:about=""/>
   </rdf:RDF>
</x:xmpmeta>
                                                                                                    
                                                                                                    
                                                                                                    
                                                                                                    
                                                                                                    
                                                                                                    
                                                                                                    
                                                                                                    
                                                                                                    
                                                                                                    
                                                                                                    
                                                                                                    
                                                                                                    
                                                                                                    
                                                                                                    
                                                                                                    
                                                                                                    
                                                                                                    
                                                                                                    
                                                                                                    
                           
<?xpacket end="w"?></metadata>
<style type="text/css">
	.st0{fill:#002A5C;}
</style>
<g id="SUDAN">
	<path id="XMLID_72_" class="st0" d="M40.7,10.8c-5,1.7-4.4,5.9-5.1,9.5c-0.3,1.7-1.2,3.4-2.1,4.9c-1.2,2-2.8,3.9-4.5,6.4
		c-0.3-1.5-0.6-2.5-0.7-3.6c-0.1-1.3-0.4-2.3-2-2.1c-1.4,0.1-1.7,0.8-1.5,2.2c0.3,2.3-1.7,3.7-4,3.2c-0.7-0.2-1.6-0.3-2.1,0.1
		c-3.1,2.4-6.1,1.4-8.9-0.4c-1.7-1-2.9-0.8-3.9,1c-0.5,0.9-1,1.7-1.7,2.7c-1.6-3.8-3.7-7-4.2-10.4c-0.3-2.1,1.8-4.6,2.8-6.9
		c0.4-0.9,1.3-1.6,1.4-2.5c0.2-2.4,0-4.8,0.1-7.2c0-0.7,0.5-1.9,0.9-2c2-0.5,2.1-1.9,2-3.4C7.1,0.6,8,0,9.6,0C18,0,26.4,0,34.8,0
		c1.9,0,2.6,0.8,2.5,2.8C37.4,5.6,37.8,8.4,40.7,10.8z"/>
</g>
<g id="Layer_1_1_">
</g>
</svg>
