<?xml version="1.0" encoding="utf-8"?>
<!-- Generator: Adobe Illustrator 19.1.0, SVG Export Plug-In . SVG Version: 6.00 Build 0)  -->
<svg version="1.1" id="Layer_2" xmlns="http://www.w3.org/2000/svg" xmlns:xlink="http://www.w3.org/1999/xlink" x="0px" y="0px"
	 viewBox="-499 963.4 223 77.4" style="enable-background:new -499 963.4 223 77.4;" xml:space="preserve">
<style type="text/css">
	.st0{fill:#008BB0;}
</style>
<title>CountryUNITED STATES</title>
<g id="United_States_2_">
	<path class="st0" d="M-277.5,972.1c-0.2-0.7-0.6-1.3-1.2-1.6c-0.9-0.1-1.9,0.1-2.7,0.5c-0.5,0.5-0.9,1.2-1,1.9
		c-1.5,4.1-4,5.9-8.3,5.9h-2.7c-2.6,0.1-4.1,1.3-5.1,3.7c-0.4,0.9-1.7,2.1-2.5,2.1c-2.7-0.1-4.3,1.1-6.1,3
		c-3.2,3.4-7.7,4.2-10.9,2.4c0.9-1.5,1.7-3,2.3-4.6c0.8-2.5-1.7-2.4-3.1-3c0.4-1.1,0.7-2.2,0.9-3.4c0.1-1.6-1.7-3-3-2.4
		s-3.7,5.2-3.6,6.6c0.2,1.6,0.2,3.3-0.2,4.9c-0.3,1-1.8,1.6-2.7,2.3c-0.5-0.8-1.3-1.5-1.4-2.3c-0.3-2.4,0-4.9-0.3-7.3
		c-0.3-2.9,0.8-5.2,3.6-6.1c1.5-0.5,3.1-0.7,4.7-1.1V973c-1.1-0.1-2.4-0.5-3.4-0.2c-1.9,0.6-4.1,0.1-5.6-1.2
		c-0.6-0.4-1.9-0.8-2.3-0.5c-2.4,2-5.1,1-8.3,0.8c1.7-1.8,3.2-3.3,4.4-4.6c-3.5-1.1-6.9-2.2-10.2-3.1c-1.4-0.5-2.8-0.7-4.3-0.8
		h-65.1c-1,0-1.9,0.1-2.9,0.2v7.2c-2-1.3-1.6-4.5-4.6-3.9c0,0.5,0,1,0.1,1.5c1.2,4.5,1.3,9.2,0.4,13.8c-0.6,2.6-1,5.2-0.1,7.8
		c0.3,0.8-0.1,1.7-0.1,2.5c-0.2,0.8-0.2,1.6,0,2.4c2.4,4.8,4.7,9.6,7.3,14.3c0.8,1.5,2.3,2.5,3.7,3.6c1.7,1.3,3.8,2.2,5.2,3.8
		c1.9,2,3.7,3.2,6.5,2.3c0.6-0.1,1.2-0.1,1.7,0.2c2.9,1.2,5.7,2.7,8.7,3.5c2.3,0.6,4.7,0.6,7,0c3.5-1.2,5.1-1.4,7.8,1.2
		c1.6,1.4,2.9,3.2,4.5,4.6c0.7,0.4,1.5,0.6,2.3,0.3c2.6-1.5,4.2-1.3,5.9,1.1c1.4,2,2.7,4.1,3.9,6.3c0.7,1.8,2.5,2.8,4.4,2.5
		c-1-4.1,1.2-6.3,4.5-7.8c0.2-0.1,0.4-0.3,0.6-0.5c3.6-2.8,7.5-2.8,11.5-1.3c1.1,0.5,2.4,0.3,3.3-0.6c1.4-1.2,3.2-1.9,5-2.2
		c2.4-0.2,4.9,0.3,7.4,0.4c4,0.2,6.4,2.7,6.5,6.6c0.4,3.3,2.5,6.2,5.5,7.6c0-2,0.3-3.9-0.1-5.7c-0.6-2.8-1.9-5.4-2.5-8.1
		c-0.3-1.5-0.3-3.9,0.6-4.8c3.4-3.4,7-6.5,10.9-9.3c2-1.4,2.6-2.6,2.1-4.9c-0.5-2.5-0.8-5.1-1.1-7.6c0.1-0.7,0.3-1.3,0.6-1.9
		c0.7,1.4,1.3,2.4,1.8,3.4c0.2,0,0.5-0.1,0.7-0.2c-0.2-1.3-0.3-2.6-0.5-3.9c0.2,0.1,0.5,0.2,0.7,0.4c0.8-0.7,2-1.1,2.3-1.9
		c1.2-3.4,3.3-5.6,6.9-6.2c1.3-0.2,2-0.9,2.2-2.5c0.3-2.6,1.2-5.1,4.3-6.1c1.4-0.5,2.7-1.2,3.9-2.1c0.5-0.4,0.8-1,0.8-1.7
		C-276.4,975.8-276.9,973.9-277.5,972.1z"/>
	<path class="st0" d="M-499,996.1c1.9,0.9,2.8,3,5.1,3.4C-494.4,997.5-497.2,995.7-499,996.1z"/>
</g>
</svg>
