<svg id="Layer_1" data-name="Layer 1" xmlns="http://www.w3.org/2000/svg" viewBox="0 0 228.22 298.27"><defs><style>.cls-1{fill:#002a5c;}</style></defs><title>CountryCANADA</title><g id="Fellows"><g id="Canada"><path class="cls-1" d="M318.42,311.59c-1.4-2.8-3.4-6.1-6-7.5a68.59,68.59,0,0,1-7.6-5.3c-1.4-1-2.2-2-1.5-3.9a3.61,3.61,0,0,0-.5-2.6c-1-2.3-2.2-4.6-3.4-6.9s-2.2-4.4-3.7-7.2a28.86,28.86,0,0,1-2.1,4.3,51.74,51.74,0,0,1-4.2,5.1,1.83,1.83,0,0,1-1.7.3c-1.7-2.5-5.2-3.6-4.9-7.5a14.76,14.76,0,0,0-.5-4.7,2.81,2.81,0,0,0-1.6-1.9,6.51,6.51,0,0,1-3.7-2.6c-1.5-1.7-3.6-4.2-5.3-4.1a23.2,23.2,0,0,1-7-.9c-1.9-.5-3.1.2-2.9,2.2,0.2,2.9.8,5.8,0.9,8.7a9.83,9.83,0,0,1-.8,5.1c-1.1,2.1-1.1,3.4.5,5.3,2.9,3.4,4.7,8.7.2,13.5a50.38,50.38,0,0,1-4.6,3.9,54.82,54.82,0,0,1,1.6,7.4,11.41,11.41,0,0,1-1.1,5.7c-0.9,2-2.3,1.9-4,.5-3.6-3.1-4.9-7.3-5.2-11.8-0.3-3.9-.1-3.5-4.2-4.3a20.8,20.8,0,0,1-10-5.1c-2.7-2.2-5.4-4.4-9.1-3.8-2,.4-2.7-0.2-3.1-2-0.2-1-.7-1.9-0.9-2.9a4.26,4.26,0,0,0-3.2-3.7c-0.7-.2-1.5-1.7-1.6-2.6-0.5-5.7,1.9-10.6,4.6-15.3,0.7-1.2,1.4-2.7,2.5-3.3a6.59,6.59,0,0,0,3.7-5.1,3.54,3.54,0,0,1,2.5-2.4c4.1-.2,5.1-3.1,6.3-6.1,1.2-3.2,2.6-6.2,4-9.6,2.5,2,4.8,1.9,6.9,0,1.8-1.7,4.9-3.1,4-5.8-1.2-3.5-.4-6.4.2-9.7,0.5-2.6-2.7-5.4-6.4-6.3-2.8-.7-3.5-0.2-3.5,2.7,0.1,5.2-1.7,9.8-4.3,14.1a6.81,6.81,0,0,1-1.2,1.2c-2-2.3-3.2-4.6-2.5-7.6a4.58,4.58,0,0,0-2.4-5.3c-1,1.5-2,2.8-3.4,4.7a19.78,19.78,0,0,1-.2-3c0.3-2.9,0-5.3-3.6-5.9a3,3,0,0,1-.5-2.1c0.1-.9,1.2-2,0.9-2.7a118.71,118.71,0,0,0-5.4-11.4,2,2,0,0,0-3.4-.3c-3.4,4.1-3.3,10.9-.1,15.1a14.16,14.16,0,0,1,3,6.6c0.2,2.4.3,5.4-2.9,6.8-0.5.2-.6,1.3-0.9,2s-0.5,1.4-.8,2.1c-0.3,0-.5-0.1-0.8-0.1,0-1.5.1-2.9,0-4.4-0.2-2.1-2-3-3.6-3.2-1.9-.2-1.8,1.6-1.8,2.9,0,1.5-.8,2-2.2,2.1-3.5.3-7.1,1.6-10-1.6a1.06,1.06,0,0,0-.5-0.2c-3.2.9-4.2-1.6-5.8-3.5s-5.2-1.9-6.9-.3c-1,.9-0.9,1.7-0.1,2.8,0.5,0.7,1,1.9.7,2.5-0.4,1.1-1.5,1.9-2.6,3.3-1.8-4.6-5-3.3-8.1-2.6a8.31,8.31,0,0,1-2.7.3c-2-.3-4-0.8-6.4-1.4a22.54,22.54,0,0,0,1.5-1.9c0.6-.8,1.6-2.3,1.4-2.5a7.14,7.14,0,0,0-3.3-2.2,27,27,0,0,1-13.8-5.8c-1.8-1.4-3.2-1.7-5,.1-0.7.7-2.2,0.9-3.3,1.3l-0.9-2.7a1.38,1.38,0,0,0-.7-0.7c-0.6,1-1.3,2-2.2,3.4-2-2.7-3.6-4.9-5.4-7.4a35.59,35.59,0,0,1-1.7,3.4c-0.6.8-1.6,2.1-2.5,0.5-1.2-2.2-2.6-1.6-4.1-.7s-2.6,1.8-3.9,2.7a2.88,2.88,0,0,1-2,.7c-3.4-1.2-5.4.7-7.1,3.1-1.2,1.7-2.5,1.7-4,.8s-2.7-2.3-4.2-3.1a12.13,12.13,0,0,0-3.7-1.1,19.42,19.42,0,0,0-.7,3.3v34.2c0,5.5,0,11,.1,16.5a4.26,4.26,0,0,0,1.6,2.6c1.7,1.5,3.7,2.8,5.4,4.2a19.17,19.17,0,0,1,1.8,2.2,30.5,30.5,0,0,1,3.7-3,2.2,2.2,0,0,1,2.1.2c3,4.1,6.7,7.8,8.6,12.7a9.9,9.9,0,0,0,3.3,3.8c2.6,2,2.9,3,1.6,6.1-0.4,1-.6,3,0,3.4,2.8,2.1,2,6.5,5.5,8,0.3,0.2.2,1.4,0.3,2.1,0.2,2.4,1,4.1,3.4,5a15.51,15.51,0,0,1,5.1,3.1,12.62,12.62,0,0,0,9,3.2c21-.2,41.9-0.1,62.9-0.1a41.23,41.23,0,0,0,5.2-.6,7.41,7.41,0,0,0,2.1,1.8,19.53,19.53,0,0,0,5.6,1.9c2.7,0.3,5.7,1.2,8.1-1.4,0.6-.7,2.5-0.8,3.4-0.4a61.5,61.5,0,0,1,6.6,3.7,1.33,1.33,0,0,1,.6,1c0.2,4.1,2.9,5.1,6.3,5.2,3,0.2,4.9,1.8,6.2,4.4,0.7,1.3.1,2.4-1.1,2.3-3-.4-3.5,1.3-3.8,3.6a6.28,6.28,0,0,1-1.2,1.8c-0.4.7-.8,1.4-1.4,2.3,3.1-1,5.8-1.7,8.7-2.6-2.1-1.5-.8-2.3.5-2.8s2.9-.6,4.3-1c1.1-.3,2.5-0.4,3.2-1.1a8.67,8.67,0,0,1,8-2.5c2.9,0.4,4.7-1.1,6.4-3a11.86,11.86,0,0,0,1.4-3.2c-1,0-1.7-.1-2.9-0.2,2.7-3.4,5-6.5,7.5-9.4a23.38,23.38,0,0,1,4.5-3.7,5.12,5.12,0,0,1,2.7-.9c2.7,0,5.4.4,8,.3a24.62,24.62,0,0,0,7.2-1.1c2.3-.9,4.1-2.7,6.3-3.8C317.92,316.59,319.72,314.19,318.42,311.59Z" transform="translate(-97.92 -55.02)"/><path class="cls-1" d="M231.82,97.79c1.9,4.6,4.8,6.3,9.8,5.5a4.68,4.68,0,0,1,1.7-.2c2.7,0.4,5.4,1,8.7,1.6-1.7,2.4-2.7,4-3.9,5.4a2.39,2.39,0,0,1-1.9.5c-1.7-.3-3.3-0.8-5-1.2-2.2-.6-2.5.5-2.3,2.4a17,17,0,0,0,3,7.8c2.2,3.1,1.4,6.2-1.5,8.7a16.21,16.21,0,0,0-3.7,4.5,2.51,2.51,0,0,0,.6,2.5c4.2,2.1,4.2,6.5,6.1,9.8a3.11,3.11,0,0,0-.4.6l-6.9-4.8c-0.2.2-.5,0.3-0.7,0.5a22,22,0,0,0,.4,3.6c0.7,3,1,5.7-2.8,7.1-1.8.6-1.7,5,0,5.2,3.3,0.4,6.3,2.6,9.9,1.3a11.07,11.07,0,0,1,9.4.8,3.23,3.23,0,0,0,2.7.2,35,35,0,0,0,5.3-4.9c0.9-1,.6-2.1-1.1-2.4-0.9-.2-1.8-0.6-2.7-0.9a24.3,24.3,0,0,1,1.3-3.8c0.7-1.3,2-2.4,2.4-3.7a10.64,10.64,0,0,1,3.6-5.5c2.8-2.3,4.3-5.1,2.6-9-0.6-1.5-.4-3.4-0.6-5.6-0.3-.2-0.9-0.8-2.2-1.8,2.2-.5,3.9-0.8,5.5-1.3a14.09,14.09,0,0,0,3.2-1.7,34.71,34.71,0,0,0,3.8-2.9,13.43,13.43,0,0,0,3.1-3.2c1-1.6,1.3-3.6,2.1-5.3a70.37,70.37,0,0,1,3.9-7.1c2.4-3.7,5-7.3,7.8-11.4a21.17,21.17,0,0,0-2.7-.3c-2.4-.2-2.8-0.7-1.4-2.7a12.44,12.44,0,0,1,3.9-3.7c4.5-2.2,6.8-6.4,9.6-10.2a3.06,3.06,0,0,0,.4-1.7c0.4-4.9-2.7-8-6.4-9.5-5.7-2.4-11.9-3.6-17.8-5.5a8.74,8.74,0,0,0-7.4.8c-1.9,1.1-3.9,2.7-5.9.2a0.84,0.84,0,0,0-.7-0.2c-6-.3-15,2.4-15.3,11.2a34.49,34.49,0,0,1-1.1,5.4h-0.8c-0.5-.7-0.8-1.5-1.4-2.2-1-1.2-2.1-2.2-3.1-3.3-0.9,1.1-2.3,2.1-2.8,3.4-1.6,3.7-4.7,5.5-8.2,6.7-6.2,2-6,5-4.5,10C228.52,91.09,230.42,94.39,231.82,97.79Z" transform="translate(-97.92 -55.02)"/><path class="cls-1" d="M287.42,242.29c1.7-1.2,3.3-.6,4.9,1.6,1.5,2,3.1,3.9,5.1,6.5a52.93,52.93,0,0,0,4-7.8c0.6-1.2.8-3-1-3.3-2.2-.4-3-2-4.1-3.6a14.45,14.45,0,0,0-3.1-3.4c-2-1.5-4.4-2.5-6.5-4-2.8-2-2.7-2.2,0-4.2,0.8-.6,1.9-1.9,1.7-2.6-1.1-4.4-2.7-8.5-7.6-10.4a8.93,8.93,0,0,1-3.9-3.8c-1-1.7-1.9-2.3-3.7-1.4-1.6.9-2.6,0.6-2.8-1.5a4.3,4.3,0,0,0-1-2.5,75.6,75.6,0,0,0-6.8-5.9c-0.4-.3-1.6.1-2.2,0.5-1.6,1-3,2.3-4.6,3.3-1.4.9-2.5,0.5-2.3-1.3,0.5-4-1.5-7.1-3-10.4-0.8-1.7-1.7-1.7-3.3-.9a8.83,8.83,0,0,0-5.2,6.5c-0.2.8-.7,1.6-1.2,2.9-2.5-3.5-3-6.6-1.5-10.1-4-.1-6.6,1.5-7.8,5.3a39.1,39.1,0,0,0-1.5,8.3c-0.2,3-.7,6.4,3.8,7a5.48,5.48,0,0,1-.4,1.2c-1.9,3.2-1.4,4.3,2.1,5.4,2.2,0.7,4.3,1.8,6.6,2.3,5.5,1.1,11.1,4.2,16.3-.5,1.6,0.9,3.3,1.5,4.4,2.7,1.3,1.4,2.6,3.2,2.7,5a2.73,2.73,0,0,0,1.6,2.6,49.06,49.06,0,0,1,5.4,3.9,7.58,7.58,0,0,1,1.4,9.2c-1.4,2.6-3.1,5-2.4,8.2,0.1,0.4-1,1.5-1.6,1.6-2.3.4-4.6,0.5-6.9,0.8-2.1.2-2.5,1.9-2.5,3.4s1.5,2.1,3,1.7c2-.5,4.1-1,6.7-1.7,1.8,2.4,6.8,2.9,7.1,7.8,3.8,3.4,8,6,13.9,6.8-2.3-3.3-4.4-6.1-6.4-8.9l0.5-.5c2,1.3,3.9,2.7,5.9,3.9a14.19,14.19,0,0,0,2.9,1c0.3-1.1,1-2.3.8-3.3-0.5-2.9-1.1-5.8-3.9-7.8a19.48,19.48,0,0,1-3.9-4.2C285.82,246,286,243.29,287.42,242.29Z" transform="translate(-97.92 -55.02)"/><path class="cls-1" d="M200.52,218.29a3.61,3.61,0,0,0-.9-2.6c-0.8-1-2.1-1.6-3.1-2.5-2.5-2.1-4.9-4.1-5.2-7.8a32.56,32.56,0,0,0-1.6-8.8c-0.6-2-2.2-3.6-3.6-5.2a2.22,2.22,0,0,0-2.2-.4c-0.5.2-.7,1.4-0.6,2.1,0.2,1.6.7,3.3,0.9,4.9,0.3,1.9.2,3.9-1.5,5.5-2-3.1-1.1-7.4-4.1-9.9a8.11,8.11,0,0,0-.8.6c-2.4,2.8-2.4,2.8-5,.1a3.75,3.75,0,0,0-3-.5c-1.3.2-2.5,1-4.2,1.7a21.49,21.49,0,0,0,.6-3.3,2.62,2.62,0,0,0-.9-1.8,2,2,0,0,0-1.8.2c-4.1,2.6-7.4,6-8.5,11.1-0.4,1.6-.4,2.6,1.3,3.1,2,0.6,3.9,1,6.5,1.7-1.7.9-3,1.5-4.2,2.3a10.1,10.1,0,0,0-1.3,1.6c0.6,0.5,1.2,1.4,1.8,1.4a27.2,27.2,0,0,0,5.7-.2c2.7-.4,4.8.7,7,1.8a4.25,4.25,0,0,1-.2,1.1c-1.5.3-3.1,0.7-4.7,1a21.26,21.26,0,0,0-4.4.7,11.09,11.09,0,0,0-2.4,2c1.1,1.2,2,3.1,3.3,3.5,2.4,0.6,4.4,1.2,5.5,3.6,0.3,0.5,1.1,1.3,1.6,1.2,3.6-.5,7.4-0.5,10.5-1.9,4.1-1.9,7.6-2.8,11.8-.6,1.2,0.6,2.9.3,4.3,0.4,0-1.3-.1-2.6-0.2-4.3a8.8,8.8,0,0,0,1.7-.6C199.32,219.19,200.52,218.69,200.52,218.29Z" transform="translate(-97.92 -55.02)"/><path class="cls-1" d="M221.12,121.09a4.17,4.17,0,0,1,1,.5q-0.75,1.35-1.2,2.1a9.49,9.49,0,0,0,1.9,10.2,7.09,7.09,0,0,0,7.6,1.8,4.74,4.74,0,0,0,2.6-2c2.2-3.6,4.2-7.3,6.2-11a2.9,2.9,0,0,0,.2-2.2c-2.4-2.8-2.9-6.2-3.4-9.5a7.24,7.24,0,0,0-3.6-5.6c-4-2.3-7-5.5-8-10.2a2,2,0,0,0-.6-1.3,12.09,12.09,0,0,0-3.8-.6c-0.4.1-.7,1.5-1,2.3a8.75,8.75,0,0,1-1,2.2c-0.5.6-1.4,0.9-1.6,1.5-2,5.2-4.2,10.3-2,15.9C215.62,118.29,216.72,121.59,221.12,121.09Z" transform="translate(-97.92 -55.02)"/><path class="cls-1" d="M242.52,178.09c2.4-.5,5-0.2,7.5-0.3a4.68,4.68,0,0,0,1.7-.2c3-1.1,4.2-2.9,3.9-5.6-0.4-3.2-2.6-6-5.3-6a24,24,0,0,0-8,1.3,15.12,15.12,0,0,1-6.7.8c-3.1-.3-4.9-2.2-6.6-4.3-0.8-1.1-1.6-2.3-2.4-3.5,0.7-3.7-.4-5.8-2.6-5.5a7.52,7.52,0,0,1-6-2.7c-0.9-1-3.4-1.2-4.9-.7s-1,3.4.7,4.9a10.14,10.14,0,0,0,3.2,1.8,8.65,8.65,0,0,1,6.3,7.9,42,42,0,0,0,.6,6.2,4.65,4.65,0,0,0,1.6,2.8C230.82,178,236.32,179.39,242.52,178.09Z" transform="translate(-97.92 -55.02)"/><path class="cls-1" d="M139.32,203.09c1.9,1.5,3.6,3.2,5.8,5.2,2.3-1.3,5.7-2,5.4-6a4.24,4.24,0,0,1,.6-1.4c2.1-5.1,5.9-8.6,10-11.9,0.6-.5,1.3-1.5,1.1-2.1a7.87,7.87,0,0,0-7-5.4c-1.3-.1-2.9,0-3.9-0.7-2.8-2-5.7-1.2-8.6-.8-1.9.3-2.7,1.1-1.6,3s0.9,3.8.1,5.9c-1.3,3.3-2.1,6.8-3.3,10.2C137.32,200.89,137.82,202,139.32,203.09Z" transform="translate(-97.92 -55.02)"/><path class="cls-1" d="M160.62,171.39a21.55,21.55,0,0,0,5.1.3c2.5-.1,5-0.5,7.5-0.7a4.12,4.12,0,0,1,.3.8c-1.3,1.2-2.8,2.2-4,3.5a2.67,2.67,0,0,0-.5,2.1,2.2,2.2,0,0,0,1.8.8A7.33,7.33,0,0,0,174,177a19.48,19.48,0,0,1,10-4c3.5-.4,4-1.1,4.5-4.5a11.73,11.73,0,0,0-.2-3.2c-0.3-2.1-1.3-2.5-3.1-1.6-0.5.2-1,.5-1.7,0.8-0.3-.8-0.6-1.5-0.8-2.2-0.4-1.9-.8-3.9-1.3-5.8A2.33,2.33,0,0,0,180,155a2,2,0,0,0-1.5,1.2,10.1,10.1,0,0,0-.3,4.2c0.7,2.6,1.8,5.2,2.9,8.1-3.3,0-5.7-.5-7.2-3.1a13.52,13.52,0,0,0-7-6.1c-2.8-1.1-3.8-.9-5,2.1-1,2.4-1.7,4.9-2.6,7.3C158.82,170.09,159.32,171.19,160.62,171.39Z" transform="translate(-97.92 -55.02)"/><path class="cls-1" d="M208.92,205.39c3.3-1.3,5-7.6,2.5-10.2-2.1-2.2-2.9-3.8-1.1-6.6,1.1-1.7.1-2.6-1.9-2.4a9.4,9.4,0,0,1-2.9,0c-1.2-.3-2.2-1.4-3.3.1s-1.7,3-.6,4.8a31.72,31.72,0,0,1,1.6,3.6,5.81,5.81,0,0,0-2.4.2c-0.8.1-1.5,0.3-2.3,0.4a8,8,0,0,0,1,2.3c2,2.4,4,4.9,6.2,7.1A4.14,4.14,0,0,0,208.92,205.39Z" transform="translate(-97.92 -55.02)"/><path class="cls-1" d="M306,338.79c-1,.8-1.8,1.8-2.8,2.1a6.34,6.34,0,0,1-6.9-1.6c-1.2-1.3-2-6.7-1.2-8.2,1.1-2.1.7-2.8-1.5-2.8-3.7,0-6.4,2-8.7,4.6a2.9,2.9,0,0,0-.3,1.1c3.6,1,3.6,1,3.7,4.9v0.2c0,2.2.8,3.5,3.3,3.2,1.5-.1,3,0,5,0-1.3,2.3-4.7,2.6-3.5,5.6,3.7-1.9,7.2-3.5,10.7-5.3a15.45,15.45,0,0,0,2.2-1.2C307.32,340.49,307.12,339.59,306,338.79Z" transform="translate(-97.92 -55.02)"/><path class="cls-1" d="M217.62,199.69a18,18,0,0,0,1.9-2c0.9-1.4,1.3-3.4,2.5-4.2,2.9-1.8,3.7-4.8,5.2-7.4,0.7-1.2.5-2.1-.9-2.5l-7.3-2c-1.1,1.3-2.5,2.5-3.2,3.9-1.9,3.9-.9,8,0.2,11.9C216.22,198.29,217.12,198.89,217.62,199.69Z" transform="translate(-97.92 -55.02)"/><path class="cls-1" d="M200.32,159.49c-3,.4-2.6,2.4-2.6,4.5,0,1.9.7,2.8,2.7,2.4,1.4-.3,1.8.5,1.8,1.7v2.2c0,1.8.7,3.1,2.7,3.1,1.8,0,3.5-.5,3.7-2.8s0.5-4.6.8-6.9h-0.2a11.33,11.33,0,0,0-.1-3.2c-0.5-1.3-1.1-3.1-2.1-3.5-1.2-.4-2.9.3-4.3,0.8C201.82,158.09,201.22,159.39,200.32,159.49Z" transform="translate(-97.92 -55.02)"/><path class="cls-1" d="M149.42,162.69c3.8-2.4,7.6-4.7,10.5-7.9,2.3-2.5,1.5-6.1,1.2-9.1-4.8-.4-7.7,1.4-10.1,5.2C148.82,154.69,149.52,158.49,149.42,162.69Z" transform="translate(-97.92 -55.02)"/><path class="cls-1" d="M326.12,334.39c-0.8-2.4-1.9-4.6-2.9-6.9a1.32,1.32,0,0,0-1.1-.3c-2.2.6-3.4-.3-4-2.5-0.7.2-1.3,0.4-2.2,0.7,0.7-2,1.2-3.7,1.8-5.4a7.54,7.54,0,0,1-1.3-.6c-2,4.4-4.1,8.8-6.2,13.4,3.4,0.4,6.2.8,9,1a5.68,5.68,0,0,0,2.9-.3c1.1-.4,1.6-0.3,1.8,1a17.23,17.23,0,0,0,.7,2.1C325.12,335.79,326.32,334.89,326.12,334.39Z" transform="translate(-97.92 -55.02)"/><path class="cls-1" d="M191.42,134.49c4.7-.8,7,1.9,9.6,4.2a9.76,9.76,0,0,0,2.9,1.1c0-8.1-6.4-15.7-13.7-16.1,0.3,1.4,0,3.1.8,4C192.72,129.59,194.12,131.39,191.42,134.49Z" transform="translate(-97.92 -55.02)"/><path class="cls-1" d="M254.42,258.39a11.41,11.41,0,0,0-1.1-1.1c-0.7-.5-1.7-0.9-1.9-1.5-1.1-3-5.5-6.4-8.6-6.5-0.4-.7-0.7-1.3-1.1-2a2,2,0,0,1-.7.1c-0.5,3.5-1,7.1-1.4,10.4,0.9,0.9,1.7,1.9,2.8,3.1,1.3-1.2,2.7-2.2,3.8-3.4,1.2-1.5,1.9-1.6,3.3-.1,0.8,0.9,2.3,1.3,3.6,1.8C253.42,259.29,253.92,258.69,254.42,258.39Z" transform="translate(-97.92 -55.02)"/><path class="cls-1" d="M254.92,189.69a5.43,5.43,0,0,0,1.5,2.5,3.33,3.33,0,0,0,2.1.9,39.34,39.34,0,0,0,4.8-.6c0,0.2.1,0.3,0.1,0.5a3.69,3.69,0,0,0,1.4-.8,1.89,1.89,0,0,0-.3-1.6c-1.8-2.3-3.7-4.5-7-4.6-0.9,0-2.6-.1-2.7.2A8.27,8.27,0,0,0,254.92,189.69Z" transform="translate(-97.92 -55.02)"/><path class="cls-1" d="M211.42,140.19c1-1,2.5-1.7,3-2.9,1.2-2.5-.2-4.7-1.9-6.5-0.8-.9-2.2-1.1-3.4-1.6A23.29,23.29,0,0,1,208,132a40.39,40.39,0,0,0,1.3,5.5A13.13,13.13,0,0,0,211.42,140.19Z" transform="translate(-97.92 -55.02)"/><path class="cls-1" d="M217.72,176.19c1-.3,1.8-1.7,3-3-1.4-2.1-2.4-4.1-3.9-5.3-0.9-.7-3.6,3-3.7,5C213,174.29,216,176.69,217.72,176.19Z" transform="translate(-97.92 -55.02)"/><path class="cls-1" d="M172.92,145.49c1.4,0.5,4.9-3.1,4.5-4.7-0.3-1.1-1.7-1.9-2.6-2.8-2.4.5-5.4,2.8-4.9,4.4A5.68,5.68,0,0,0,172.92,145.49Z" transform="translate(-97.92 -55.02)"/><path class="cls-1" d="M206.62,222.39c0.9,0.6,1.9.9,2.8,1.4a3.33,3.33,0,0,1,.3-0.6c0.9,0.3,1.7.8,2.5,1a2,2,0,0,0,1.7,0,2.24,2.24,0,0,0,.1-1.8,18.19,18.19,0,0,0-1.5-2.3c-2.9-4.1-3.2-4.1-6.1-.2C205.72,220.89,205.62,221.69,206.62,222.39Z" transform="translate(-97.92 -55.02)"/><path class="cls-1" d="M131.52,323.19c3.7,1.8,5.6,6.1,10.2,6.8C140.62,326.09,135.12,322.39,131.52,323.19Z" transform="translate(-97.92 -55.02)"/><path class="cls-1" d="M267.72,231.69c0.1-.3-1-1.1-1.5-1.7-0.9,1.1-1.9,2.3-3.1,3.7,0.9,1.1,1.6,2.4,2.1,2.3C267.62,235.59,267.22,233.29,267.72,231.69Z" transform="translate(-97.92 -55.02)"/><path class="cls-1" d="M187.72,189.39a29.19,29.19,0,0,0,2.3,3.5,31.71,31.71,0,0,0,1.4-3.7c0-.6-0.5-1.8-1-1.9a8.1,8.1,0,0,0-3.1.1A6.47,6.47,0,0,0,187.72,189.39Z" transform="translate(-97.92 -55.02)"/><path class="cls-1" d="M177.62,132.79a4.87,4.87,0,0,1,.1-1.2c-1.2-.6-2.5-1.8-3.3-1.5-1.1.4-1.8,2-2.6,3.1a6.07,6.07,0,0,1,.7,1C174.22,133.69,175.92,133.29,177.62,132.79Z" transform="translate(-97.92 -55.02)"/><path class="cls-1" d="M219.52,144.29c-0.5-.6-0.9-1.5-1.5-1.7a20.61,20.61,0,0,0-3.8-.5c0,2.8,1.7,2.8,3.3,2.9A4,4,0,0,0,219.52,144.29Z" transform="translate(-97.92 -55.02)"/><path class="cls-1" d="M246.92,267c1.3-1.1,2.3-2,3.8-3.3C247.32,263.39,246.62,264,246.92,267Z" transform="translate(-97.92 -55.02)"/><path class="cls-1" d="M118.92,308.29c0.1,0.9.3,1.9,0.5,2.9a4.41,4.41,0,0,0,1.4-.3c-0.2-.9-0.4-1.9-0.6-2.9C119.72,308.09,118.92,308.29,118.92,308.29Z" transform="translate(-97.92 -55.02)"/></g></g></svg>