<?xml version="1.0" encoding="iso-8859-1"?>
<!-- Generator: Adobe Illustrator 19.2.1, SVG Export Plug-In . SVG Version: 6.00 Build 0)  -->
<svg version="1.1" xmlns="http://www.w3.org/2000/svg" xmlns:xlink="http://www.w3.org/1999/xlink" x="0px" y="0px"
	 viewBox="0 0 28.424 28.944" style="enable-background:new 0 0 28.424 28.944;" xml:space="preserve">
<g id="EGYPT">
	<path id="XMLID_1067_" style="fill:#002A5C;" d="M22.724,12.244c-1-1.8-2.1-3.6-3.1-5.4c-0.2,0.1-0.4,0.1-0.6,0.2
		c0.4,1.3,0.5,2.8,1.2,4c2.1,4.1,4.4,8,6.4,12.1c0.8,1.7,1.2,3.6,1.8,5.6c-0.5,0-1.2,0.2-2,0.2c-7.5,0-15,0-22.4,0
		c-3,0-3.2-0.2-3.2-3.3c0-4,0.1-8,0-12c-0.1-2.4-0.3-4.8-0.7-7.1c-0.6-3.6,1-5.5,4.3-4.1c3.7,1.5,7.2,1.2,10.9,0.7
		c2.5-0.3,8.6-3.9,10.9-3c1.1,0.4-0.7,7.2-0.5,8.8c0.1,1.1-1.7,2.1-2.2,3.2C23.324,12.044,23.024,12.144,22.724,12.244z"/>
</g>
<g id="Layer_1">
</g>
</svg>
