<?xml version="1.0" encoding="iso-8859-1"?>
<!-- Generator: Adobe Illustrator 19.2.1, SVG Export Plug-In . SVG Version: 6.00 Build 0)  -->
<svg version="1.1" xmlns="http://www.w3.org/2000/svg" xmlns:xlink="http://www.w3.org/1999/xlink" x="0px" y="0px"
	 viewBox="0 0 26.838 28.367" style="enable-background:new 0 0 26.838 28.367;" xml:space="preserve">
<g id="ITALY">
	<path id="XMLID_1022_" style="fill:#008BB0;" d="M26.838,21.967c-2.6,0.6-4.3,1.5-1.8,5c-0.5,0.5-1,1-1.3,1.4
		c-2-3.6-3.6-7.1-7.9-9.1c-3.1-1.4-6.2-3.8-7.3-7.6c-0.7-2.4-3.1-3.5-5.3-2.4c-1.6,0.8-3,0.1-3.2-1.2c-0.2-1.3,0.4-3.4,1.3-3.9
		c3-1.7,6.3-3.3,9.6-4.1c1.5-0.4,3.5,1.1,5.2,1.8c-0.3,0.6-0.4,1.4-0.8,1.7c-2.7,1.8-3.1,4.5-1.2,7
		C17.739,15.067,21.338,19.567,26.838,21.967z"/>
</g>
<g id="Layer_1">
</g>
</svg>
