<?xml version="1.0" encoding="utf-8"?>
<!-- Generator: Adobe Illustrator 19.2.1, SVG Export Plug-In . SVG Version: 6.00 Build 0)  -->
<svg version="1.1" id="Layer_1" xmlns="http://www.w3.org/2000/svg" xmlns:xlink="http://www.w3.org/1999/xlink" x="0px" y="0px"
	 viewBox="0 0 76.5 49" style="enable-background:new 0 0 76.5 49;" xml:space="preserve">
<metadata><?xpacket begin="﻿" id="W5M0MpCehiHzreSzNTczkc9d"?>
<x:xmpmeta xmlns:x="adobe:ns:meta/" x:xmptk="Adobe XMP Core 5.6-c111 79.158366, 2015/09/25-01:12:00        ">
   <rdf:RDF xmlns:rdf="http://www.w3.org/1999/02/22-rdf-syntax-ns#">
      <rdf:Description rdf:about=""/>
   </rdf:RDF>
</x:xmpmeta>
                                                                                                    
                                                                                                    
                                                                                                    
                                                                                                    
                                                                                                    
                                                                                                    
                                                                                                    
                                                                                                    
                                                                                                    
                                                                                                    
                                                                                                    
                                                                                                    
                                                                                                    
                                                                                                    
                                                                                                    
                                                                                                    
                                                                                                    
                                                                                                    
                                                                                                    
                                                                                                    
                           
<?xpacket end="w"?></metadata>
<style type="text/css">
	.st0{fill:#008BB0;}
</style>
<g id="MEXICO">
	<path id="XMLID_1085_" class="st0" d="M14.1,24.4c-0.7-0.9-1.8-1.8-1.9-2.8c-0.1-2.2-1.4-3.2-3.1-4.1c-2-1.1-3.7-2.1-2.7-5
		c0.2-0.7-1.1-2.1-1.9-2.9C2.6,7.8,0.2,3.2,0,0c2.2,0.4,4.3,0.6,6.2,1.2c4.3,1.4,8.4,3.7,13.2,3c1-0.1,2-0.3,2.8-0.7
		c2.1-1.2,3.8-0.9,5.4,0.7c2,2,3.9,4.1,6,5.9c0.5,0.4,1.9,0.4,2.4,0c2-1.5,3.1-1.6,4.5,0.3s2.4,4,3.8,5.9c0.9,1.3,2,2.6,3.3,3.4
		c1.4,0.8,1.9,1.6,1.5,3.2c-1.7,6,0,11.4,3.7,16.1c1.6,1.9,4.1,3.1,6.9,2.5c1.5-0.3,2.9-0.8,4.4-1.1c2.2-0.5,3.5-1.6,4-3.9
		c0.7-2.8,4.8-4.6,7.4-3.3c0.5,0.2,1,1,1,1.4c-0.1,3.1-3.5,6.7-6.6,7.1c-4.1,0.5-4.1,0.5-3.4,4.1c-1.4,1-2.7,2-4.3,3.2
		c-2.8-1.9-6.1-3-9.9-1.6c-0.6,0.2-1.4-0.3-2.1-0.5c-4.8-1.9-9.6-3.8-14.3-5.9c-1.9-0.8-3.6-2-5.2-3.4c-0.7-0.7-0.8-2.1-1-3.2
		c-0.2-1,0-2.3-0.5-3.1c-1.8-2.7-3.8-5.2-5.8-7.8c-2.4-3-4.9-5.9-7.3-8.9c-1.5-1.8-3.1-3.6-4.6-5.5c-0.6-0.8-1.3-1.9-1.4-2.9
		c-0.4-2.3-2-3.3-4-4c-1.9-0.6-2.3,0.3-2,1.9c0.3,1.4,0.6,2.8,1.4,4c1.8,2.9,4.1,5.5,5.9,8.3c1.4,2.3,2.4,4.8,3.6,7.2
		C14.8,23.9,14.5,24.2,14.1,24.4z"/>
</g>
<g id="Layer_1_1_">
</g>
</svg>
