<svg id="PHILIPPINES" xmlns="http://www.w3.org/2000/svg" viewBox="0 0 15.02 32.55"><defs><style>.cls-1{fill:#008BB0;}</style></defs><title>CountryPHILIPPINES</title><g id="Philippines-2" data-name="Philippines"><path class="cls-1" d="M785,439a20.82,20.82,0,0,0-3.2-1.2c-2.8-.6-3.9-3.1-1.9-5.2s1.2-3.4-.3-4.9c-1.3-1.3-2.1-.8-2.4.7a19.86,19.86,0,0,0-.7,5.9c0.1,1.4.9,3.4,2,3.9,1.8,0.9,4.2.8,6.3,1.2A0.52,0.52,0,0,1,785,439Z" transform="translate(-776.47 -426.94)"/><path class="cls-1" d="M780.12,434.59a7,7,0,0,0,1.5,1.9,1.85,1.85,0,0,0,1.7.5,10.09,10.09,0,0,0,2.1-1.5,0.2,0.2,0,0,1-.1-0.2,7.54,7.54,0,0,0-1.3.6c-1,.6-2,0.2-2-0.9s-0.6-1.3-1.5-1.3C779.82,433.69,779.82,434.09,780.12,434.59Z" transform="translate(-776.47 -426.94)"/><path class="cls-1" d="M783.72,441.39c0,0.4.6,0.4,0.9,0.4s0.3-.1.2-0.3a2,2,0,0,0-.6-0.7,1,1,0,0,0-.7-0.2,2.41,2.41,0,0,0-.8.6v0.1c0.2-.1.3-0.1,0.5-0.2S783.62,440.89,783.72,441.39Z" transform="translate(-776.47 -426.94)"/><path class="cls-1" d="M785.12,439.59a6.53,6.53,0,0,0,1.1,1.2c0.9,0.6,1.3,3,.6,5.1a7.09,7.09,0,0,0,.1,4.8c0.4,1.3.7,0.8,0.8-.7a56.22,56.22,0,0,0,.2-5.8,8.83,8.83,0,0,0-.7-3.8c-0.6-.9-1.4-0.8-2.1-1.2A0.3,0.3,0,0,1,785.12,439.59Z" transform="translate(-776.47 -426.94)"/><path class="cls-1" d="M790.92,451.39c-3.2,1.1-6.1,2-9.2,2.9,0.1,0.2.2,0.5,0.3,0.7,0.3-.1.6-0.1,0.9-0.2,2.8-1,2.9-.8,3.5,2,0.3,1,1.4,1.8,2.1,2.7,0.3-.1.5-0.3,0.8-0.4C788.22,456.19,793.12,454.49,790.92,451.39Z" transform="translate(-776.47 -426.94)"/><path class="cls-1" d="M784.12,449.59c2.6-5.2,1.9-7.5-2-7-0.1,0-.3.2-0.2,0.3a9.56,9.56,0,0,1,1.7,6.6A0.27,0.27,0,0,0,784.12,449.59Z" transform="translate(-776.47 -426.94)"/></g></svg>