<?xml version="1.0" encoding="iso-8859-1"?>
<!-- Generator: Adobe Illustrator 19.2.1, SVG Export Plug-In . SVG Version: 6.00 Build 0)  -->
<svg version="1.1" xmlns="http://www.w3.org/2000/svg" xmlns:xlink="http://www.w3.org/1999/xlink" x="0px" y="0px"
	 viewBox="0 0 17.083 7.438" style="enable-background:new 0 0 17.083 7.438;" xml:space="preserve">
<g id="AUSTRIA">
	<path id="XMLID_972_" style="fill:#002A5C;" d="M0,4.9c1.6-0.2,3.3-0.1,4.8-0.6C5.9,4,7,3,7.7,2.1c1-1.1,1.4-2.5,3.5-1.8
		C12.4,0.7,14,0,15.4,0C16,0,16.9,0.2,17,0.6c0.2,0.5,0,1.3-0.2,2c-0.1,0.3-0.6,0.4-0.6,0.7c-0.4,1.4-0.2,2.8-2.1,3.5
		c-2.4,0.8-4.7,1-6.7-0.3c-1.6-1-3-1.3-4.8-0.7C1.9,6.1,0.9,5.7,0,5.6C0,5.4,0,5.1,0,4.9z"/>
</g>
<g id="Layer_1">
</g>
</svg>
