<?xml version="1.0" encoding="utf-8"?>
<!-- Generator: Adobe Illustrator 19.2.1, SVG Export Plug-In . SVG Version: 6.00 Build 0)  -->
<svg version="1.1" id="Layer_1" xmlns="http://www.w3.org/2000/svg" xmlns:xlink="http://www.w3.org/1999/xlink" x="0px" y="0px"
	 viewBox="0 0 46.4 18.9" style="enable-background:new 0 0 46.4 18.9;" xml:space="preserve">
<metadata><?xpacket begin="﻿" id="W5M0MpCehiHzreSzNTczkc9d"?>
<x:xmpmeta xmlns:x="adobe:ns:meta/" x:xmptk="Adobe XMP Core 5.6-c111 79.158366, 2015/09/25-01:12:00        ">
   <rdf:RDF xmlns:rdf="http://www.w3.org/1999/02/22-rdf-syntax-ns#">
      <rdf:Description rdf:about=""/>
   </rdf:RDF>
</x:xmpmeta>
                                                                                                    
                                                                                                    
                                                                                                    
                                                                                                    
                                                                                                    
                                                                                                    
                                                                                                    
                                                                                                    
                                                                                                    
                                                                                                    
                                                                                                    
                                                                                                    
                                                                                                    
                                                                                                    
                                                                                                    
                                                                                                    
                                                                                                    
                                                                                                    
                                                                                                    
                                                                                                    
                           
<?xpacket end="w"?></metadata>
<style type="text/css">
	.st0{fill:#002A5C;}
</style>
<g id="TURKEY">
	<path id="Turkey_2_" class="st0" d="M44.9,5C43.6,1.8,42,0.9,39,2.3c-4.4,2.1-8.7,1.9-12.8-0.6c-4-2.4-7.8-2.1-11.7,0.3
		c-1.1,0.7-2.7,0.7-4.1,1.1C9.5,3.4,8.6,3.5,7.7,3.9C7,4.2,6.2,4.6,5.5,5C5.7,4.1,5.8,3.1,6,1.9C4.5,1.3,2.6,0,2,0.5
		C1,1.4,0.7,3.2,0,5c0.5,0.9,0.9,1.7,1.3,2.4c-0.7,1,0.4,2.2,0.2,3.1c-0.5,1.7,0.2,2.7,0.8,4.1c1.1,2.6,3.5,2.5,5.4,3.3
		c0.9,0.4,2.1-0.1,3.2-0.1c1.4,0,3-0.4,3.9,0.2c1.6,1.1,3.2,1.3,4.6,0.5c2.2-1.3,4.2-1.4,6,0.3c3-3.6,7-1.4,10.4-2.3
		c3.5-0.9,7.1-1.2,10.6-1.8c0-2.3,0-4.8,0-7.6C46.1,6.7,45.4,6,44.9,5z"/>
</g>
<g id="Layer_1_1_">
</g>
</svg>
