<?xml version="1.0" encoding="utf-8"?>
<!-- Generator: Adobe Illustrator 19.2.1, SVG Export Plug-In . SVG Version: 6.00 Build 0)  -->
<svg version="1.1" id="Layer_1" xmlns="http://www.w3.org/2000/svg" xmlns:xlink="http://www.w3.org/1999/xlink" x="0px" y="0px"
	 viewBox="0 0 17.2 21.7" style="enable-background:new 0 0 17.2 21.7;" xml:space="preserve">
<metadata><?xpacket begin="﻿" id="W5M0MpCehiHzreSzNTczkc9d"?>
<x:xmpmeta xmlns:x="adobe:ns:meta/" x:xmptk="Adobe XMP Core 5.6-c111 79.158366, 2015/09/25-01:12:00        ">
   <rdf:RDF xmlns:rdf="http://www.w3.org/1999/02/22-rdf-syntax-ns#">
      <rdf:Description rdf:about=""/>
   </rdf:RDF>
</x:xmpmeta>
                                                                                                    
                                                                                                    
                                                                                                    
                                                                                                    
                                                                                                    
                                                                                                    
                                                                                                    
                                                                                                    
                                                                                                    
                                                                                                    
                                                                                                    
                                                                                                    
                                                                                                    
                                                                                                    
                                                                                                    
                                                                                                    
                                                                                                    
                                                                                                    
                                                                                                    
                                                                                                    
                           
<?xpacket end="w"?></metadata>
<style type="text/css">
	.st0{fill:#008BB0;}
</style>
<g id="UNITED_KINGDOM">
	<path id="United_Kingdom_2_" class="st0" d="M16.9,12.3c-0.1-0.1-0.3-0.3-0.4-0.3c-2.7-0.6-2.8-3.1-3.7-5.1
		c-0.5-1.2-1.5-2.1-2.3-3.1C9.5,2.5,8.3,1.3,7.2,0c-0.3,0.1-0.6,0.2-1,0.3c-0.5,0.1-1,0.2-1.4,0.3c-0.2,0-1.4,0.5-1.6,0.5
		c-1,0.2-1.3,0.2-2,0.4c0.2,1,1.2,1.7,2.1,2.4C4,4.4,5,4.9,5.4,5.6C5.9,6.3,6.2,7.5,6,8.3C5.9,8.7,4.6,9.1,3.8,9.1
		c-2,0-2.3,1.1-1.7,2.6C3,14,0.5,16.3,2.3,18.6c0.1,0.1-0.5,0.9-0.9,1.4c-0.5,0.6-1,1.2-1.4,1.7c4.6-0.8,9.4-1.5,14.1-2.3
		C15.8,19.1,17.9,13.7,16.9,12.3z"/>
</g>
<g id="Layer_1_1_">
</g>
</svg>
