<?xml version="1.0" encoding="utf-8"?>
<!-- Generator: Adobe Illustrator 19.2.1, SVG Export Plug-In . SVG Version: 6.00 Build 0)  -->
<svg version="1.1" id="Layer_1" xmlns="http://www.w3.org/2000/svg" xmlns:xlink="http://www.w3.org/1999/xlink" x="0px" y="0px"
	 viewBox="0 0 19.1 20.4" style="enable-background:new 0 0 19.1 20.4;" xml:space="preserve">
<metadata><?xpacket begin="﻿" id="W5M0MpCehiHzreSzNTczkc9d"?>
<x:xmpmeta xmlns:x="adobe:ns:meta/" x:xmptk="Adobe XMP Core 5.6-c111 79.158366, 2015/09/25-01:12:00        ">
   <rdf:RDF xmlns:rdf="http://www.w3.org/1999/02/22-rdf-syntax-ns#">
      <rdf:Description rdf:about=""/>
   </rdf:RDF>
</x:xmpmeta>
                                                                                                    
                                                                                                    
                                                                                                    
                                                                                                    
                                                                                                    
                                                                                                    
                                                                                                    
                                                                                                    
                                                                                                    
                                                                                                    
                                                                                                    
                                                                                                    
                                                                                                    
                                                                                                    
                                                                                                    
                                                                                                    
                                                                                                    
                                                                                                    
                                                                                                    
                                                                                                    
                           
<?xpacket end="w"?></metadata>
<style type="text/css">
	.st0{fill:#008BB0;}
</style>
<g id="THAILAND">
	<path id="XMLID_1023_" class="st0" d="M4,20.4c-0.4-2.8-0.8-5.6-1.4-8.4C2.3,10.4,1.9,8.7,1,7.3C0,5.7-0.6,4.1,0.7,2.8
		C1.9,1.6,3.6,0.6,5.2,0C6.1-0.4,8.1,2.7,8,4.1C7.9,4.8,7.8,5.6,7.8,6.3C7.8,6.5,8,6.7,8.2,7c1.6-0.5,3.1-1.1,4.7-1.4
		c2.6-0.5,3.7,0.4,4.3,2.9c0.3,1,0.8,1.9,1.3,2.9c1.2,2.3,0.6,3.6-1.9,3.6c-2.8,0-4.9,0.7-5.6,3.8c-0.1,0.3-1.8,0.7-2.3,0.3
		c-2.8-2.2-3-2.2-3.9,1.2C4.5,20.3,4.3,20.3,4,20.4z"/>
</g>
<g id="Layer_1_1_">
</g>
</svg>
