<?xml version="1.0" encoding="iso-8859-1"?>
<!-- Generator: Adobe Illustrator 19.2.1, SVG Export Plug-In . SVG Version: 6.00 Build 0)  -->
<svg version="1.1" xmlns="http://www.w3.org/2000/svg" xmlns:xlink="http://www.w3.org/1999/xlink" x="0px" y="0px"
	 viewBox="0 0 100.458 103.3" style="enable-background:new 0 0 100.458 103.3;" xml:space="preserve">
<g id="BRAZIL">
	<path id="XMLID_12_" style="fill:#008BB0;" d="M57.439,1.9c1.2,2.2,2.4,4.1,3.4,6.1c0.2,0.4-0.2,1.3-0.6,1.7
		c-1.3,1.7-0.5,2.6,1.1,2.7c2,0.1,3.3,0.7,3.8,2.7c3.7-1.5,7.7-0.2,10.2,3c0.3,0.4,1.1,0.6,1.7,0.7c1.6,0.2,3.3,0.4,4.9,0.6
		c1.4,0.2,2.9,0,4.1,0.5c2.1,0.8,4.1,1.9,6.1,2.9c1.3,0.7,2.4,1.8,3.8,2.2c3.3,1,5,3,4.4,6.4c-0.4,2.1-1.6,4.1-2.8,5.9
		c-2.3,3.4-4.9,6.5-7.2,9.8c-0.4,0.6-0.5,1.5-0.7,2.4c-0.7,4.5-1,9.1-2.3,13.4c-0.9,3-3.1,5.7-5,8.4c-0.5,0.7-1.6,0.9-2.5,1.3
		c-3.9,1.6-7.9,3-11.6,5c-2.4,1.3-3.8,3.6-3.7,6.6c0,1-0.4,2.1-0.8,3.1c-2.2,4.5-4.1,9.3-8.2,12.7c-1,0.8-1.5,2.3-2,3.3
		c-0.5-1.1-0.8-2.3-1.6-3.1c-1.9-1.8-4-3.4-6.2-4.9c-2.4-1.7-2.6-2.6-0.4-4.6c1.6-1.5,3.4-2.9,5.1-4.3c2.5-2,2.7-3.1,0.9-5.6
		c-0.2-0.3-0.7-0.7-0.7-1c0.1-3.2-2.4-4.9-4.1-7.1c-1-1.3-1.7-2.6-3.7-2.2c-0.3,0.1-1.3-0.9-1.3-1.3c0-2.1,0.3-4.3,0.3-6.4
		c0-1.6,0-3.3-0.3-4.9c-0.5-2.4-1.7-4.1-4.6-3.7c-1.4,0.2-2.2-0.6-2-2.2c0.3-2.6-0.4-4.4-3.3-5.2c-2.5-0.7-4.9-1.9-7.3-3
		c-1.5-0.7-2.4-1.7-2.2-3.7c0.3-3-0.5-3.5-3.5-2.7c-0.6,0.2-1.1,0.4-1.6,0.7c-0.4,0.2-0.8,0.5-1.3,0.8c-3.7,2.5-6.2,1.8-7.6-2.3
		c-0.5,0.2-1.1,0.3-1.5,0.5c-1.4,0.9-2.6,0.6-3.5-0.6c-1-1.4-1.9-2.9-2.9-4.3c-0.2-0.3-0.3-0.7-0.2-0.9c0.9-1.7,1.5-3.7,2.9-5
		c1.2-1.2,3.1-2,4.9-2.3c2-0.3,2.9-1.2,2.8-3c0-2.5-0.3-5-0.3-7.6c0-1,0.4-1.9,0.7-2.9c0.2-0.6,0.5-1.2,1-2.4
		c1.6,0.5,3.6,0.7,5.2,1.6c2.8,1.7,4.5-0.2,6.5-1.3c1.9-1,1.4-2.8,1.1-4.4c-0.1-0.3,0-0.6,0-0.8c3.3-1.1,6.5-2.1,10.1-3.2
		c0.1,0.9,0.7,2,0.4,3c-0.6,2.2,0.5,3.8,1.6,5.2c0.5,0.6,1.7,1.1,2.3,1c2.4-0.6,4.7-1.5,7-2.2c0.9-0.3,1.9-0.4,2.8-0.2
		c4.3,1,4.5,0.9,6.8-2.8C56.539,3,56.939,2.5,57.439,1.9z"/>
</g>
<g id="Layer_1">
</g>
</svg>
