<?xml version="1.0" encoding="iso-8859-1"?>
<!-- Generator: Adobe Illustrator 19.2.1, SVG Export Plug-In . SVG Version: 6.00 Build 0)  -->
<svg version="1.1" xmlns="http://www.w3.org/2000/svg" xmlns:xlink="http://www.w3.org/1999/xlink" x="0px" y="0px"
	 viewBox="0 0 20.9 126.31" style="enable-background:new 0 0 20.9 126.31;" xml:space="preserve">
<g id="CHILE">
	<path id="Chile_2_" style="fill:#008BB0;" d="M17.2,120c-0.1-1.3,0-2.7-0.1-4c-0.2-1.8-2.4-2.3-4.3-3.2c-1.7-1-3.7-1.7-5.1-3.1
		c-1.2-1.2-2.1-3-2.5-4.6c-0.4-1.7-1-4.3-0.1-5.4c2.5-3.3,2.2-7.1,3.3-10.6c1.2-3.9,0.3-8-0.1-12.1c-0.4-4,0.2-8.2,1-12.2
		c0.7-3,1.8-5.8,1.4-8.9c-0.1-0.7,0.5-1.5,0.7-2.3c0.7-2.8,2.1-5.7,2-8.5c-0.2-3.4-2-6.8,0.1-10.3c0.1-0.1,0-0.3,0-0.5
		c-0.6-2.9,0.8-5.3,2.4-7.4c1.4-1.7,1.9-3.4,1.7-5.5c-0.2-2-0.1-3.8,2.1-4.8c0.6-0.3,0.8-1.4,1.1-1.9C16,11,18.1,4.7,14.6,0
		c-0.4,1.4-1,2.3-0.9,3c1.1,5.7-0.3,11.2-1,16.8c-0.6,5.2-1.6,10.3-2.2,15.5c-0.5,3.4-0.4,6.8-0.9,10.1c-0.4,2.4-1.4,4.7-2.2,7.1
		C6.3,55.9,4.2,59.1,5.7,63c0.2,0.5-0.2,1.1-0.3,1.7c-0.7,3.9-1.5,7.7-2.2,11.6c0.2,0.1,0.4,0.1,0.6,0.2c0.1-0.4,0.1-1,0.4-1.3
		c0.5-0.6,1.1-1.1,1.7-1.7C6.3,74.2,7,74.9,7,75.7c0.1,1.1-0.4,2.1-0.5,3.2c-0.2,2-0.6,3.7-3.2,2.8c-0.9,2.7-1.7,5.3-2.5,7.9
		c0.8,0.4,1.6,0.8,2.7,1.3c-0.7,0.9-1.3,1.7-1.7,2.3C1,94.8,0,96.4,0,98c0,4.1,0.6,8.1,1,12.1c0,0.4,0.1,1,0.4,1.2
		c2.4,2.2,4.9,4.4,7.4,6.5c-1.3-0.7-2.8,0.3-4.2-0.6c0.1,0.4,0,0.6,0.1,0.7c3.4,4.6,8.2,7,13.6,8.4c0.6,0.1,1.5-0.6,2.2-1
		c0.1-0.3,0.2-0.7,0.4-0.9C16.6,124.9,17.2,122.2,17.2,120z"/>
</g>
<g id="Layer_1">
</g>
</svg>
