<?xml version="1.0" encoding="iso-8859-1"?>
<!-- Generator: Adobe Illustrator 19.2.1, SVG Export Plug-In . SVG Version: 6.00 Build 0)  -->
<svg version="1.1" xmlns="http://www.w3.org/2000/svg" xmlns:xlink="http://www.w3.org/1999/xlink" x="0px" y="0px"
	 viewBox="0 0 26.138 61.721" style="enable-background:new 0 0 26.138 61.721;" xml:space="preserve">
<g id="FINLAND">
	<path id="FINLAND_1_" style="fill:#002A5C;" d="M0.6,6.141c0.5,0.6,1,1.3,1.6,1.7c0.7,0.5,1.5,0.8,2.3,1c0.9,0.2,2.1,0,2.9,0.5
		c1.9,1.3,3.2,0.5,4.1-1.2c0.8-1.5,1.2-3.2,2-4.8c0.5-1,1.2-2.1,2.1-2.8c0.6-0.5,2-0.7,2.3-0.4c0.8,0.9,1.6,2.1,1.7,3.2
		c0.1,1.7-0.2,3.5-0.7,5.2c-0.7,2.7,0.4,4.7,2.1,6.4c1.1,1.1,1.4,2.2,0.5,3.5c-1.4,2.1-1.3,4.2-0.1,6.3c1.4,2.4,1.8,5,0.5,7.6
		c-0.3,0.6-0.5,1.4-0.3,1.9c1.3,2.6,2,5.1,1.5,8.1c-0.1,0.7,1,1.8,1.8,2.5c1.5,1.3,1.6,2.7,0.5,4.2c-2.3,3.1-4.7,6.1-7,9.1
		c-0.3,0.4-0.8,0.7-1.2,0.8c-3,0.9-6,1.7-9,2.6s-6.5-1.7-6.8-4.9c-0.2-2.6-0.7-5.1-0.7-7.7c0.1-1.7,0.6-3.7,1.6-5.1
		c2.4-3.3,5.2-6.3,7.9-9.3c1.8-2,1.9-3.9-0.3-5.5c-2.2-1.7-3.4-3.8-3-6.4c0.9-6.1-1-10.9-5.8-14.6c-0.5-0.4-0.7-1-1.1-1.5
		C0.2,6.441,0.4,6.241,0.6,6.141z"/>
</g>
<g id="Layer_1">
</g>
</svg>
