<?xml version="1.0" encoding="iso-8859-1"?>
<!-- Generator: Adobe Illustrator 19.2.1, SVG Export Plug-In . SVG Version: 6.00 Build 0)  -->
<svg version="1.1" xmlns="http://www.w3.org/2000/svg" xmlns:xlink="http://www.w3.org/1999/xlink" x="0px" y="0px"
	 viewBox="0 0 22.709 24.176" style="enable-background:new 0 0 22.709 24.176;" xml:space="preserve">
<g id="IRAQ">
	<path id="XMLID_32_" style="fill:#008BB0;" d="M22.709,21.076c-1,0.5-2,0.8-2.6,1.3c-2.2,2.1-4.1,2.4-6.6,0.7
		c-0.8-0.6-1.5-1.3-2.4-1.8c-3.1-2-6.2-3.8-9.2-5.8c-0.8-0.5-1.6-1.4-1.9-2.3c-0.1-0.6,0.7-1.8,1.3-2.1c3.5-1.4,4.5-4.1,5-7.6
		c0.2-1.3,1.9-3.2,3.1-3.4c1.5-0.3,3.9,0.3,4.9,1.5c1.5,1.8,3.9,3.7,1.8,6.9c-1.2,1.8,0.3,4,1.9,4.9c2.7,1.4,4,3.3,4,6.3
		C22.108,20.176,22.509,20.676,22.709,21.076z"/>
</g>
<g id="Layer_1">
</g>
</svg>
