<?xml version="1.0" encoding="iso-8859-1"?>
<!-- Generator: Adobe Illustrator 19.2.1, SVG Export Plug-In . SVG Version: 6.00 Build 0)  -->
<svg version="1.1" xmlns="http://www.w3.org/2000/svg" xmlns:xlink="http://www.w3.org/1999/xlink" x="0px" y="0px"
	 viewBox="0 0 8.675 14.014" style="enable-background:new 0 0 8.675 14.014;" xml:space="preserve">
<g id="IRELAND">
	<path id="XMLID_968_" style="fill:#008BB0;" d="M4.675,1c-0.6,2.8-0.1,4.3,2.4,4.8c0.5,0.1,1,1.6,0.9,2.5c-0.2,2.6-3.5,5.5-6.1,5.7
		c-1.5,0.1-2.1-0.3-1.8-2c0.3-1.6,0.1-3.3,0.2-5c0.1-1,0.3-2.1,0.8-2.8C1.875,3.1,3.075,2.4,4.675,1z"/>
	<path style="fill:#008BB0;" d="M8.675,3.2c-0.4-1.1-1-2.1-1.6-3.2c-0.5,0.2-1.1,0.4-1.6,0.6c0.5,1.2,0.9,2.4,1.3,3.6
		C7.475,3.9,8.675,3.3,8.675,3.2z"/>
</g>
<g id="Layer_1">
</g>
</svg>
