<?xml version="1.0" encoding="iso-8859-1"?>
<!-- Generator: Adobe Illustrator 19.2.1, SVG Export Plug-In . SVG Version: 6.00 Build 0)  -->
<svg version="1.1" xmlns="http://www.w3.org/2000/svg" xmlns:xlink="http://www.w3.org/1999/xlink" x="0px" y="0px"
	 viewBox="0 0 47.319 43.5" style="enable-background:new 0 0 47.319 43.5;" xml:space="preserve">
<g id="IRAN">
	<path id="XMLID_1086_" style="fill:#008BB0;" d="M0.019,0c2.8,4.1,5.6,2.8,8.2,0.8c4,7.6,11.2,12,19.8,5.9c1.3-0.9,3.7-1.4,5.1-0.9
		c3.2,1.2,6.1,3.1,9,5c0.5,0.3,0.6,1.8,0.5,2.7c-0.3,2.3-1.2,4.6-1.1,6.8c0.1,2,1.3,3.9,1.9,5.9c0.2,0.7,0.5,1.6,0.2,2.1
		c-1.2,2.5-0.9,4.3,1.2,6.1c2.1,1.8,2.1,1.8,2.5,4.4c-1.2,1.5-2.2,2.8-3.3,3.9c-0.5,0.5-1.4,0.8-2.1,0.8c-2-0.2-4-0.5-5.9-1.1
		c-1-0.3-2.1-1.2-2.5-2.1c-0.8-1.6-1.7-1.7-3.2-1.4c-5.7,1.2-10.9-1.2-13.4-6.5c-1-2.2-2.4-3.5-4.8-3.5c-2,0-2.9-1.1-2.9-2.9
		c0-2.5-1.2-4-3.3-5.1c-2.6-1.4-2.8-3.1-1.6-5.8c0.4-0.9,0.2-2.6-0.5-3.5C1.219,8.5-0.181,4.9,0.019,0z"/>
</g>
<g id="Layer_1">
</g>
</svg>
