<?xml version="1.0" encoding="utf-8"?>
<!-- Generator: Adobe Illustrator 19.2.1, SVG Export Plug-In . SVG Version: 6.00 Build 0)  -->
<svg version="1.1" id="Layer_1" xmlns="http://www.w3.org/2000/svg" xmlns:xlink="http://www.w3.org/1999/xlink" x="0px" y="0px"
	 viewBox="0 0 29.4 38.7" style="enable-background:new 0 0 29.4 38.7;" xml:space="preserve">
<metadata><?xpacket begin="﻿" id="W5M0MpCehiHzreSzNTczkc9d"?>
<x:xmpmeta xmlns:x="adobe:ns:meta/" x:xmptk="Adobe XMP Core 5.6-c111 79.158366, 2015/09/25-01:12:00        ">
   <rdf:RDF xmlns:rdf="http://www.w3.org/1999/02/22-rdf-syntax-ns#">
      <rdf:Description rdf:about=""/>
   </rdf:RDF>
</x:xmpmeta>
                                                                                                    
                                                                                                    
                                                                                                    
                                                                                                    
                                                                                                    
                                                                                                    
                                                                                                    
                                                                                                    
                                                                                                    
                                                                                                    
                                                                                                    
                                                                                                    
                                                                                                    
                                                                                                    
                                                                                                    
                                                                                                    
                                                                                                    
                                                                                                    
                                                                                                    
                                                                                                    
                           
<?xpacket end="w"?></metadata>
<style type="text/css">
	.st0{fill:#002A5C;}
</style>
<g id="NEW_ZELAND">
	<path class="st0" d="M13.1,20.4c-1.4,4.2-4.6,6.9-8.2,9.3c-1.8,1.2-3.2,3.1-4.6,4.8c-0.4,0.5-0.4,2.1,0,2.5
		c3.7,3.1,7.8,1.9,9.4-2.7c0.8-2.4,1.4-4.9,4.3-5.6c0.2,0,0.4-0.3,0.5-0.5c0.9-1.7,1.9-3.3,2.7-5c0.4-0.9,0.5-1.8,0.7-2.3
		c-1.4-0.8-2.4-1.4-3.6-2.1C14,19.2,13.4,19.7,13.1,20.4z"/>
	<path class="st0" d="M23.9,8c-2.1-1.3-4.2-2.9-4.8-5.7c-0.2-0.9-1-1.5-1.5-2.3c-0.2,0.1-0.5,0.3-0.7,0.4c2,4.2,6.2,8.1,1.6,13.3
		c3.7,1.2,3.5,3.9,2.5,6.8c2.8-1.1,3.5-3.6,4.6-5.7c0.5-0.9,1-1.7,1.5-2.5c0.7-1,1.5-2.1,2.3-3.1C27.1,8.7,25.2,8.8,23.9,8z"/>
</g>
<g id="Layer_1_1_">
</g>
</svg>
