<?xml version="1.0" encoding="utf-8"?>
<!-- Generator: Adobe Illustrator 19.2.1, SVG Export Plug-In . SVG Version: 6.00 Build 0)  -->
<svg version="1.1" id="Layer_1" xmlns="http://www.w3.org/2000/svg" xmlns:xlink="http://www.w3.org/1999/xlink" x="0px" y="0px"
	 viewBox="0 0 29.1 24" style="enable-background:new 0 0 29.1 24;" xml:space="preserve">
<metadata><?xpacket begin="﻿" id="W5M0MpCehiHzreSzNTczkc9d"?>
<x:xmpmeta xmlns:x="adobe:ns:meta/" x:xmptk="Adobe XMP Core 5.6-c111 79.158366, 2015/09/25-01:12:00        ">
   <rdf:RDF xmlns:rdf="http://www.w3.org/1999/02/22-rdf-syntax-ns#">
      <rdf:Description rdf:about=""/>
   </rdf:RDF>
</x:xmpmeta>
                                                                                                    
                                                                                                    
                                                                                                    
                                                                                                    
                                                                                                    
                                                                                                    
                                                                                                    
                                                                                                    
                                                                                                    
                                                                                                    
                                                                                                    
                                                                                                    
                                                                                                    
                                                                                                    
                                                                                                    
                                                                                                    
                                                                                                    
                                                                                                    
                                                                                                    
                                                                                                    
                           
<?xpacket end="w"?></metadata>
<style type="text/css">
	.st0{fill:#002A5C;}
</style>
<g id="NIGERIA">
	<path id="XMLID_1056_" class="st0" d="M5,0c2.6,0.5,4.5,0.6,6.2,1.2c2.8,1.1,5.6,0.7,8.5,0.5c2.7-0.1,5.5,1,8.2,1.7
		c1.1,0.3,1.6,1,0.8,2.3c-1.9,3.2-3.8,6.3-5.5,9.6c-0.9,1.7-2,2.8-4,2.8c-2.2,0-3.6,1.1-4.5,3.2c-1.4,3.3-6,3.7-8.1,0.8
		c-1.3-1.7-2.6-3.2-5-3.2c-0.5,0-1.2-1-1.4-1.6c-0.3-0.7-0.2-1.5-0.1-2.2C1,10.9,2.6,6.8,2.9,2.5C2.9,1.4,4.5,0.5,5,0z"/>
</g>
<g id="Layer_1_1_">
</g>
</svg>
