<?xml version="1.0" encoding="utf-8"?>
<!-- Generator: Adobe Illustrator 19.2.1, SVG Export Plug-In . SVG Version: 6.00 Build 0)  -->
<svg version="1.1" id="Layer_1" xmlns="http://www.w3.org/2000/svg" xmlns:xlink="http://www.w3.org/1999/xlink" x="0px" y="0px"
	 viewBox="0 0 39.7 38.6" style="enable-background:new 0 0 39.7 38.6;" xml:space="preserve">
<metadata><?xpacket begin="﻿" id="W5M0MpCehiHzreSzNTczkc9d"?>
<x:xmpmeta xmlns:x="adobe:ns:meta/" x:xmptk="Adobe XMP Core 5.6-c111 79.158366, 2015/09/25-01:12:00        ">
   <rdf:RDF xmlns:rdf="http://www.w3.org/1999/02/22-rdf-syntax-ns#">
      <rdf:Description rdf:about=""/>
   </rdf:RDF>
</x:xmpmeta>
                                                                                                    
                                                                                                    
                                                                                                    
                                                                                                    
                                                                                                    
                                                                                                    
                                                                                                    
                                                                                                    
                                                                                                    
                                                                                                    
                                                                                                    
                                                                                                    
                                                                                                    
                                                                                                    
                                                                                                    
                                                                                                    
                                                                                                    
                                                                                                    
                                                                                                    
                                                                                                    
                           
<?xpacket end="w"?></metadata>
<style type="text/css">
	.st0{fill:#008BB0;}
</style>
<g id="PAKISTAN">
	<path id="XMLID_1061_" class="st0" d="M4.3,30.9c-1.6-2.7-3-5-4.3-7.1c2.1-0.1,4.5-0.1,6.9-0.4c2.5-0.3,5.1-0.4,5.7-4
		c0.1-0.9,2-1.9,3.2-2.3c2-0.7,3.5-1.2,4.3-3.7s3.1-4.5,4.6-6.7c0.4-0.6,0.7-1.4,0.6-2c-0.7-2.6,0.7-3.3,2.8-3.6
		c1.3-0.3,2.6-0.6,3.9-0.9c2-0.4,3.5-0.1,4.5,2C37,3.3,38.5,4,39.7,5c-0.9,1.7-2.4,2.1-4.3,1.9c-1-0.1-2-0.4-3-0.3
		c-1.5,0.1-2.3,1-1.8,2.6c0.7,1.8,1.5,3.5,2.5,5.9c-1.7,2.8-3.6,6.3-5.8,9.6c-0.7,1.1-2.3,1.5-3.5,2.3c-1.3,0.8-2.6,1.6-3.8,2.6
		c-0.2,0.2-0.2,1.1,0,1.5c0.7,1.5,1.5,2.9,2.2,4.4c0.7,1.3,0,1.8-1.2,2c-1.6,0.3-3.1,1-4.7,1.1c-0.7,0.1-1.8-0.6-2.1-1.2
		c-1.3-2.8-3.4-3.3-6.2-2.8c-2,0.3-4,0.3-6,0.3c-0.7,0-1.3-0.6-2-0.9c0.5-0.6,0.9-1.3,1.5-1.8C2.4,31.8,3.2,31.5,4.3,30.9z"/>
</g>
<g id="Layer_1_1_">
</g>
</svg>
