<?xml version="1.0" encoding="utf-8"?>
<!-- Generator: Adobe Illustrator 19.2.1, SVG Export Plug-In . SVG Version: 6.00 Build 0)  -->
<svg version="1.1" id="Layer_1" xmlns="http://www.w3.org/2000/svg" xmlns:xlink="http://www.w3.org/1999/xlink" x="0px" y="0px"
	 viewBox="0 0 39 37.1" style="enable-background:new 0 0 39 37.1;" xml:space="preserve">
<metadata><?xpacket begin="﻿" id="W5M0MpCehiHzreSzNTczkc9d"?>
<x:xmpmeta xmlns:x="adobe:ns:meta/" x:xmptk="Adobe XMP Core 5.6-c111 79.158366, 2015/09/25-01:12:00        ">
   <rdf:RDF xmlns:rdf="http://www.w3.org/1999/02/22-rdf-syntax-ns#">
      <rdf:Description rdf:about=""/>
   </rdf:RDF>
</x:xmpmeta>
                                                                                                    
                                                                                                    
                                                                                                    
                                                                                                    
                                                                                                    
                                                                                                    
                                                                                                    
                                                                                                    
                                                                                                    
                                                                                                    
                                                                                                    
                                                                                                    
                                                                                                    
                                                                                                    
                                                                                                    
                                                                                                    
                                                                                                    
                                                                                                    
                                                                                                    
                                                                                                    
                           
<?xpacket end="w"?></metadata>
<style type="text/css">
	.st0{fill:#002A5C;}
</style>
<g id="LIBYA">
	<path id="XMLID_1083_" class="st0" d="M5.6,0c2.4,0.6,4.8,1.2,7.2,1.8c0.4,0.1,0.9,0.3,1.1,0.6c2,4,6.6,3.3,9.7,5.4
		c1.2,0.8,3.3-1.1,3.5-2.9c0.5-4.1,3.5-5.5,7.1-3.3C35.7,2.5,37.4,3,39,3.7c0,9.8,0,19.5,0,29.3c0,4.1-1.7,5.1-5.5,3.2
		c-5-2.6-10.1-5.1-15.1-7.8c-1.7-0.9-3.2-1-4.9,0c-0.8,0.5-2.2,0.5-3,0.1c-2.9-1.4-5.8-2.8-8.4-4.6c-1.5-1-2.5-2.5-2-4.9
		c0.6-2.5,0.5-5.3,0.4-7.9C0.4,7.6,0.7,4.5,4,2.4C4.6,1.9,4.9,0.9,5.6,0z"/>
</g>
<g id="Layer_1_1_">
</g>
</svg>
