<?xml version="1.0" encoding="iso-8859-1"?>
<!-- Generator: Adobe Illustrator 19.2.1, SVG Export Plug-In . SVG Version: 6.00 Build 0)  -->
<svg version="1.1" xmlns="http://www.w3.org/2000/svg" xmlns:xlink="http://www.w3.org/1999/xlink" x="0px" y="0px"
	 viewBox="0 0 52.095 51.419" style="enable-background:new 0 0 52.095 51.419;" xml:space="preserve">
<g id="ALGERIA">
	<path id="XMLID_2_" style="fill:#002A5C;" d="M34.595,0.746c1-0.2,1.9-0.4,2.9-0.5c1.6-0.1,3.6-0.6,4.5,0.2c1,0.8,1.7,3.4,1.1,4.4
		c-2.4,4.2-0.4,6.7,1.7,10.4c2.8,4.8,2.9,10.7,1.8,16.3c-0.5,2.8,1,5.8,3.7,6.7c0.7,0.2,1.2,1,1.8,1.5c-0.5,0.5-0.9,1.1-1.5,1.5
		c-4.1,2.7-8.2,5.4-12.3,8.1c-0.3,0.2-0.7,0.5-1,0.7c-3.4,2-4.7,1.8-7.8-0.5c-7.5-5.5-15.2-10.8-22.8-16.2c-1.5-1.1-3-2.1-4.5-3.2
		c-3.1-2.3-2.9-4.8,0.5-6.5c2.6-1.3,5.4-2.5,7.9-3.9c1-0.6,1.6-1.8,2.6-2.4c1.2-0.9,2.5-1.7,4-2.2c1.6-0.5,2.2-1.1,1.7-2.8
		c-0.5-1.7-1.1-3.4-1.2-5.1c0-1,0.6-2.7,1.4-3c4.6-1.9,9.1-4.1,14.3-3.9c0.3,0,0.7,0,1,0C34.595,0.546,34.595,0.646,34.595,0.746z"
		/>
</g>
<g id="Layer_1">
</g>
</svg>
