<?xml version="1.0" encoding="iso-8859-1"?>
<!-- Generator: Adobe Illustrator 19.2.1, SVG Export Plug-In . SVG Version: 6.00 Build 0)  -->
<svg version="1.1" xmlns="http://www.w3.org/2000/svg" xmlns:xlink="http://www.w3.org/1999/xlink" x="0px" y="0px"
	 viewBox="0 0 28.074 35.931" style="enable-background:new 0 0 28.074 35.931;" xml:space="preserve">
<g id="COLOMBIA">
	<path id="XMLID_1060_" style="fill:#008BB0;" d="M27.274,14.6c0.3,3.9,0.5,7.4,0.8,11c-1-0.1-2.4-0.4-3.7-0.5
		c-1.5-0.2-2.3,0.2-2.7,2c-0.4,2.2-0.1,4.2,0.6,6.3c0.8,2.4,0.2,2.9-2.3,2.3c-0.4-0.1-0.9-0.3-1.2-0.2c-3.2,1.1-5.1-0.6-6.8-3
		c-1.7-2.3-4.3-2.9-6.9-3.6c-1.6-0.5-3.3-1.2-4.7-2.1c-0.4-0.3-0.5-2.1-0.2-2.3c4.6-2.9,3.7-7.1,2.7-11.2c-0.6-2.5,0.5-4.1,1.8-5.7
		c0.7-0.9,1.6-1.7,2.2-2.7c1.2-2.3,2.8-3.5,5.5-3.6c1,0,2-0.8,3.1-1.3c-0.8,1.6-1.7,3.1-2.3,4.7c-0.3,0.7-0.1,1.7,0.2,2.3
		c0.7,1.5,1.5,2.9,2.6,4.2c0.6,0.7,1.7,1,2.6,1.4c1.2,0.5,2.5,1,3.7,1.5c0.8,0.3,1.6,0.6,2.5,0.7
		C25.774,14.7,26.674,14.6,27.274,14.6z"/>
</g>
<g id="Layer_1">
</g>
</svg>
