<?xml version="1.0" encoding="iso-8859-1"?>
<!-- Generator: Adobe Illustrator 19.2.1, SVG Export Plug-In . SVG Version: 6.00 Build 0)  -->
<svg version="1.1" xmlns="http://www.w3.org/2000/svg" xmlns:xlink="http://www.w3.org/1999/xlink" x="0px" y="0px"
	 viewBox="0 0 50.123 99.369" style="enable-background:new 0 0 50.123 99.369;" xml:space="preserve">
<g id="ARGENTINA">
	<path id="XMLID_1093_" style="fill:#008BB0;" d="M24.186,63.125c-2.4,1.7-4.1,3.4-4.4,6.3c-0.1,0.8-1.1,1.7-2,2.1
		c-1.9,1-3.5,2.4-3.3,4.5c0.2,1.4,1.5,2.8,2.7,3.8c1.8,1.5,1.9,2.6,0.3,4.3c-1.3,1.4-2.2,3-3.3,4.5c-0.4,0.6-0.6,1.5-1.2,1.9
		c-3,1.9-3.2,4.5-2.2,7.6c0.1,0.4,0.1,0.8,0.2,1.2c-1.5,0-2.9,0.1-4.3,0c-3.1-0.3-3.7-1-4-4.2c-0.1-0.6-0.4-1.2-0.9-1.6
		c-2-1.5-2.3-3.5-1-5.7c0.8-1.4,1.2-3,1.7-4.5c0.2-0.7,0.2-1.5,0.5-2.2c1.6-3.4,1.7-6.9,1.5-10.5c-0.4-5.6-1.2-11.2,0.1-16.8
		c0.2-0.9,0.6-1.7,0.8-2.6c0.3-1.5,0.5-2.9,0.9-4.4c0.4-1.6,0.8-3.2,1.1-4.9c0.7-3.6,2.8-6.9,1.3-10.8c-0.8-2.2-1.4-4.4,0-6.7
		c0.4-0.7,0.3-1.8,0.5-2.7c0.2-1.2,0.2-2.7,0.8-3.6c2.2-3.1,3.2-6.4,3.5-10.3c0.2-2.6,2.6-5.1,4.2-7.4c0.4-0.5,1.8-0.5,2.7-0.3
		s1.7,1,2.5,1.5c2.9-2.1,2.8-1.9,5.8,0.5c2.8,2.2,5.9,4,9,5.7c1.9,1,2.2,1.9,1.2,3.7c-1.6,2.7-1.3,3,1.7,3.7
		c4.8,1.1,6.4,0.3,8.3-4.2c0.1-0.2,0.3-0.3,0.7-0.6c1.1,1.9,0.4,3.1-1.1,4.3c-2,1.6-3.9,3.3-5.8,5.1c-3.7,3.4-3.8,8.1-4.5,12.6
		c-0.4,2.4-0.3,4.2,2,6.1c3.2,2.7,2,8.4-1.9,10c-2,0.8-4.3,1.3-6.5,1.3c-2.4,0-3.9,0.5-3.6,3.3c0,0.1,0,0.2,0,0.2
		c-0.4,4.3-0.8,4.5-5,3.6c-0.6-0.1-2.1,0.6-2.1,0.9c0.1,1.5,0.4,2.9,1,4.3C22.186,62.725,23.286,62.825,24.186,63.125z"/>
</g>
<g id="Layer_1">
</g>
</svg>
