<?xml version="1.0" encoding="iso-8859-1"?>
<!-- Generator: Adobe Illustrator 19.2.1, SVG Export Plug-In . SVG Version: 6.00 Build 0)  -->
<svg version="1.1" xmlns="http://www.w3.org/2000/svg" xmlns:xlink="http://www.w3.org/1999/xlink" x="0px" y="0px"
	 viewBox="0 0 102.783 95.509" style="enable-background:new 0 0 102.783 95.509;" xml:space="preserve">
<g id="AUSTRALIA">
	<path style="fill:#008BB0;" d="M102.278,42.6c-0.5-2.1-0.9-4-2.5-5.5c-1.6-1.6-3.6-2.9-3.8-5.6c0-0.3-0.8-0.6-1.2-1
		c-0.8-0.7-1.7-1.3-2.3-2.1c-1-1.3-1.6-3.4-2.9-4.1c-4.2-2.1-6.4-5.4-7-9.9c-0.2-1.3-0.5-2.6-1-3.8c-0.3-0.7-1.1-1.8-1.5-1.7
		c-2.7,0.6-2.3-1.5-2.8-3c-0.6-2-1.3-3.9-2-5.9c-0.3,0-0.7,0.1-1.1,0.1c-0.3,2.4-0.5,4.8-0.9,7.2c-0.5,2.9-1,5.7-1.8,8.5
		c-0.4,1.7-1.8,2.5-3.5,1.5c-3.5-1.9-7-3.9-10.3-6.1c-0.6-0.3-0.9-1.7-0.7-2.4c0.6-2,1.5-3.9,2.3-5.9c-1.6,0-3.1,0.2-4.5,0
		c-2.2-0.3-4-0.5-6.4-0.1c-4,0.7-5.2,3.3-6.6,6.2c-0.3,0.7-1.6,1.5-2.3,1.4c-1.1-0.1-2.1-1.1-3.2-1.6c-0.7-0.3-1.6-0.8-2.2-0.6
		c-3.3,1.1-6.1,3.6-7,6.5c-0.9,2.7-1.9,1.6-3.3,1.2c-0.6,1.4-1,2.9-1.8,4.1c-1.6,2.2-3.5,3.8-6.3,4.5c-3.8,1-7.7,2.1-11.1,4.1
		c-4,2.3-6.3,5.8-3,10.5c0.4,0.6,0.8,1.7,0.5,2.1c-2,2.7-0.1,4.9,0.7,7.2c1.2,3.5,2.4,6.9,3.3,10.4c0.3,1.2-0.2,2.6-0.4,3.9
		c-0.1,1.1-0.7,2.4-0.3,3c0.6,0.9,2,1.7,3.1,1.7c2-0.1,4.3-0.3,5.8-1.4c2.3-1.6,4.4-2.1,7-1.8c2.4,0.2,4.7,0.2,6-2.4
		c0.3-0.7,1.2-1.2,2-1.4c4.4-1.3,8.8-2.5,13.2-3.5c5.5-1.2,11.8,2.3,14.1,7.4c0.3,0.6,0.6,1.3,1.1,2.5c1.9-2,3.4-3.8,5-5.5
		c0.2,0.1,0.5,0.2,0.8,0.3c-0.3,1.7-0.5,3.3-0.7,5c0.3-0.2,0.9-0.4,1.2-0.5c1.5,2.8,3.2,5.2,4.3,7.9c1.4,3.4,4.5,3.9,7.3,5
		c2.1,0.8,3.3-0.3,4.7-1.4c0.3-0.3,0.9-0.4,1.3-0.5c1.7,3.6,3,3.8,6,1.2c1.1-1,2.6-1.6,4.1-2c1.5-0.3,2.3-1,2.6-2.5
		c0.4-2.2,1-4.4,1.9-6.4c1.5-3.1,3.6-6,4.7-9.2C102.578,53.2,103.378,48,102.278,42.6z"/>
	<path style="fill:#008BB0;" d="M88.378,88.3c-2.1-0.2-4.3-0.1-6.7-0.1c0.6,1.9,1.2,4,2,6c0.2,0.6,1.2,1.4,1.7,1.3
		c2.2-0.3,4.6-3.3,4.3-5.6C89.578,89.3,88.878,88.3,88.378,88.3z"/>
</g>
<g id="Layer_1">
</g>
</svg>
