<svg id="Layer_2" data-name="Layer 2" xmlns="http://www.w3.org/2000/svg" viewBox="0 0 259.65 199.3"><defs><style>.cls-1{fill:#002a5c;}</style></defs><title>CountryUNITED STATES</title><g id="United_States" data-name="United States"><path class="cls-1" d="M287,337.49a2.55,2.55,0,0,0-1.2-1.6,5,5,0,0,0-2.7.5,3.47,3.47,0,0,0-1,1.9c-1.5,4.1-4,5.9-8.3,5.9h-2.7c-2.6.1-4.1,1.3-5.1,3.7-0.4.9-1.7,2.1-2.5,2.1-2.7-.1-4.3,1.1-6.1,3-3.2,3.4-7.7,4.2-10.9,2.4a28.22,28.22,0,0,0,2.3-4.6c0.8-2.5-1.7-2.4-3.1-3a24.59,24.59,0,0,0,.9-3.4c0.1-1.6-1.7-3-3-2.4s-3.7,5.2-3.6,6.6a13.39,13.39,0,0,1-.2,4.9c-0.3,1-1.8,1.6-2.7,2.3-0.5-.8-1.3-1.5-1.4-2.3-0.3-2.4,0-4.9-.3-7.3-0.3-2.9.8-5.2,3.6-6.1,1.5-.5,3.1-0.7,4.7-1.1v-0.6c-1.1-.1-2.4-0.5-3.4-0.2a5.94,5.94,0,0,1-5.6-1.2c-0.6-.4-1.9-0.8-2.3-0.5-2.4,2-5.1,1-8.3.8,1.7-1.8,3.2-3.3,4.4-4.6-3.5-1.1-6.9-2.2-10.2-3.1a15.57,15.57,0,0,0-4.3-.8h-65.1a26.42,26.42,0,0,0-2.9.2v7.2c-2-1.3-1.6-4.5-4.6-3.9a7.57,7.57,0,0,0,.1,1.5,30.62,30.62,0,0,1,.4,13.8c-0.6,2.6-1,5.2-.1,7.8,0.3,0.8-.1,1.7-0.1,2.5a4.87,4.87,0,0,0,0,2.4c2.4,4.8,4.7,9.6,7.3,14.3,0.8,1.5,2.3,2.5,3.7,3.6,1.7,1.3,3.8,2.2,5.2,3.8,1.9,2,3.7,3.2,6.5,2.3a2.53,2.53,0,0,1,1.7.2c2.9,1.2,5.7,2.7,8.7,3.5a12.81,12.81,0,0,0,7,0c3.5-1.2,5.1-1.4,7.8,1.2,1.6,1.4,2.9,3.2,4.5,4.6a2.67,2.67,0,0,0,2.3.3c2.6-1.5,4.2-1.3,5.9,1.1a66.52,66.52,0,0,1,3.9,6.3,4,4,0,0,0,4.4,2.5c-1-4.1,1.2-6.3,4.5-7.8a2.65,2.65,0,0,0,.6-0.5c3.6-2.8,7.5-2.8,11.5-1.3a2.92,2.92,0,0,0,3.3-.6,10.71,10.71,0,0,1,5-2.2c2.4-.2,4.9.3,7.4,0.4,4,0.2,6.4,2.7,6.5,6.6a9.59,9.59,0,0,0,5.5,7.6c0-2,.3-3.9-0.1-5.7-0.6-2.8-1.9-5.4-2.5-8.1-0.3-1.5-.3-3.9.6-4.8a97.21,97.21,0,0,1,10.9-9.3c2-1.4,2.6-2.6,2.1-4.9-0.5-2.5-.8-5.1-1.1-7.6a4.94,4.94,0,0,1,.6-1.9c0.7,1.4,1.3,2.4,1.8,3.4a1.85,1.85,0,0,0,.7-0.2c-0.2-1.3-.3-2.6-0.5-3.9a4.35,4.35,0,0,1,.7.4c0.8-.7,2-1.1,2.3-1.9,1.2-3.4,3.3-5.6,6.9-6.2,1.3-.2,2-0.9,2.2-2.5,0.3-2.6,1.2-5.1,4.3-6.1a14.71,14.71,0,0,0,3.9-2.1,2,2,0,0,0,.8-1.7A51.18,51.18,0,0,0,287,337.49Z" transform="translate(-28.88 -206.89)"/><path class="cls-1" d="M123.62,297.59a8.36,8.36,0,0,1-3-2.9c-2.3-4.1-4.1-8.5-7.6-11.9-2.1-1.9-2.7-2.5-4.3-.2-1.9,2.6-2.6,1.7-4.2-.3a14.22,14.22,0,0,0-5.4-4.4c-1.9-.7-2.4-1.5-2.4-3.3v-19.7q0.15-16.5,0-33c0-1.1-.5-2.8-1.3-3.3-2.2-1.3-4.4-3.5-7.5-1.9a4.14,4.14,0,0,1-1.5-.2c-3.5-1-7-2.1-10.5-3a13.83,13.83,0,0,0-2.9-.1,6.1,6.1,0,0,1-5.3-2,3.35,3.35,0,0,0-3-.8c-1.8.7-2.6,0.2-3.5-1.4-1.7-2.9-4-3-6.2-.6a6.24,6.24,0,0,1-2.8,1.7,21.87,21.87,0,0,0-10.2,6.2,3.86,3.86,0,0,0-1.1,2.2c-0.8,4.1-2.9,6.5-7.3,6.8a2.59,2.59,0,0,0-1.8,1.6c-0.2.6,0.5,1.6,1,2.2,1.2,1.3,2.6,2.3,3.8,3.6a77.52,77.52,0,0,1,5.2,6.2,38.83,38.83,0,0,1,2.4,4.5c-3.7,1.4-4.8,1-6.6-1.4a2.05,2.05,0,0,0-1.9-.4,15.5,15.5,0,0,0-2.9,1.4c-4.9,2.7-4.8,2.6-2,7.2,1.5,2.5,3.5,2.9,6.1,2.9s5.2-.2,7.5-1.6c0.4-.3,1,0,1.6,0-0.2,1.2-.7,2.3-0.4,3,1,2,1.3,3.8-1,5.1-1.6.9-3.3,1.7-5,2.5a0.51,0.51,0,0,1-.5-0.1c-1.6-.7-2.5,0-3.1,1.5a18.19,18.19,0,0,1-1.6,3.1c-1.2,1.9-2.1,3.7-.1,5.8,0.5,0.5.4,1.5,0.6,2.3a4.68,4.68,0,0,0,5.4,3.8,2.65,2.65,0,0,1,3.3,2.9v2.8c2.1-.1,4.2-0.9,5.2-0.2,2,1.5,3.6.8,5.5,0.4,0.6-.1,1.1-0.3,1.9-0.5-0.5,1.5-1.2,2.6-1.2,3.8,0,3.1-1.7,5.1-3.9,6.9a60.25,60.25,0,0,1-5.6,4.4c-2.3,1.5-4.8,2.8-7.2,4.2a1.74,1.74,0,0,1,.3.7,11.76,11.76,0,0,0,2-.7c3-1.3,6-2.6,8.9-4.1A10.86,10.86,0,0,0,52,297c0.5-.5.7-1.2,1.2-1.6,2.8-2.4,5.7-4.8,8.6-7.2a12.06,12.06,0,0,0,2.1-2.4,2,2,0,0,0,.3-1.8c-1.3-1.9-.4-2.9,1-4.2,1.1-.9,1.7-2.4,2.6-3.6a23.87,23.87,0,0,1,2.8-3.5c0.4-.4,1.4-0.3,2.1-0.5-0.2.7-.2,1.8-0.7,2.2-2,1.6-1.9,3.9-2.1,6.1a2.16,2.16,0,0,0,1.3,1.2,54.57,54.57,0,0,0,6.4-3.2,2.26,2.26,0,0,0,.6-1.3c0.9-3.8,2.3-4.3,5.7-2.2,2.1,1.3,4.6,2.8,7,2.8a15.41,15.41,0,0,1,11,4.4c3.3,3.3,6.9,5.4,11.6,5.4a2.81,2.81,0,0,1,2.9,2.2c0.6,1.4,1.4,2.8,2.1,4.2,0.9,1.8,2,3.4,2.7,5.2a4.08,4.08,0,0,0,3.6,2.8A3.24,3.24,0,0,0,123.62,297.59Z" transform="translate(-28.88 -206.89)"/><path class="cls-1" d="M67.32,290.09c-1.2.5-2.5,0.9-3.7,1.5a1.8,1.8,0,0,0-.4,1.6,1.65,1.65,0,0,0,1.5.5c1.1-.8,2.1-1.8,3.2-2.7Z" transform="translate(-28.88 -206.89)"/><path class="cls-1" d="M65.52,361.49c1.9,0.9,2.8,3,5.1,3.4C70.12,362.89,67.32,361.09,65.52,361.49Z" transform="translate(-28.88 -206.89)"/></g></svg>