<?xml version="1.0" encoding="utf-8"?>
<!-- Generator: Adobe Illustrator 19.2.1, SVG Export Plug-In . SVG Version: 6.00 Build 0)  -->
<svg version="1.1" id="Layer_1" xmlns="http://www.w3.org/2000/svg" xmlns:xlink="http://www.w3.org/1999/xlink" x="0px" y="0px"
	 viewBox="0 0 9.2 15.6" style="enable-background:new 0 0 9.2 15.6;" xml:space="preserve">
<metadata><?xpacket begin="﻿" id="W5M0MpCehiHzreSzNTczkc9d"?>
<x:xmpmeta xmlns:x="adobe:ns:meta/" x:xmptk="Adobe XMP Core 5.6-c111 79.158366, 2015/09/25-01:12:00        ">
   <rdf:RDF xmlns:rdf="http://www.w3.org/1999/02/22-rdf-syntax-ns#">
      <rdf:Description rdf:about=""/>
   </rdf:RDF>
</x:xmpmeta>
                                                                                                    
                                                                                                    
                                                                                                    
                                                                                                    
                                                                                                    
                                                                                                    
                                                                                                    
                                                                                                    
                                                                                                    
                                                                                                    
                                                                                                    
                                                                                                    
                                                                                                    
                                                                                                    
                                                                                                    
                                                                                                    
                                                                                                    
                                                                                                    
                                                                                                    
                                                                                                    
                           
<?xpacket end="w"?></metadata>
<style type="text/css">
	.st0{fill:#008BB0;}
</style>
<g id="SCOTLAND">
	<path id="Scotland" class="st0" d="M6.5,14.5c0.4-0.1,0.6-0.1,1-0.2c0.3-0.1,0.6-0.1,0.8-0.1c-0.5-0.6-0.7-0.9-1.1-1.5
		c-0.5-1,0.9-2.9,1.5-4.4c0.1,0,0.1-0.1,0.1-0.2c0.9-3,0.5-3.5-2.6-3c-0.6,0.1-1.1,0-2,0c0.7-1.6,1.2-3,2.1-5.1
		C4.4,0.6,2.7,0.6,2,1.4c-3,3.5-2.5,8.7,0.7,12C3,13.8,3.3,14.6,3.1,15c-0.2,0.5-0.2,0.3-0.2,0.6c0.9-0.2,1.8-0.7,2.8-0.9
		C5.9,14.7,6.3,14.5,6.5,14.5z"/>
</g>
<g id="Layer_1_1_">
</g>
</svg>
