<?xml version="1.0" encoding="utf-8"?>
<!-- Generator: Adobe Illustrator 19.2.1, SVG Export Plug-In . SVG Version: 6.00 Build 0)  -->
<svg version="1.1" id="Layer_1" xmlns="http://www.w3.org/2000/svg" xmlns:xlink="http://www.w3.org/1999/xlink" x="0px" y="0px"
	 viewBox="0 0 52.8 42" style="enable-background:new 0 0 52.8 42;" xml:space="preserve">
<metadata><?xpacket begin="﻿" id="W5M0MpCehiHzreSzNTczkc9d"?>
<x:xmpmeta xmlns:x="adobe:ns:meta/" x:xmptk="Adobe XMP Core 5.6-c111 79.158366, 2015/09/25-01:12:00        ">
   <rdf:RDF xmlns:rdf="http://www.w3.org/1999/02/22-rdf-syntax-ns#">
      <rdf:Description rdf:about=""/>
   </rdf:RDF>
</x:xmpmeta>
                                                                                                    
                                                                                                    
                                                                                                    
                                                                                                    
                                                                                                    
                                                                                                    
                                                                                                    
                                                                                                    
                                                                                                    
                                                                                                    
                                                                                                    
                                                                                                    
                                                                                                    
                                                                                                    
                                                                                                    
                                                                                                    
                                                                                                    
                                                                                                    
                                                                                                    
                                                                                                    
                           
<?xpacket end="w"?></metadata>
<style type="text/css">
	.st0{fill:#008BB0;}
</style>
<g id="SAUDI_ARABIA">
	<path id="XMLID_62_" class="st0" d="M19.6,42c-0.8-1.3-1.5-2.7-2.5-4c-1-1.4-2.4-2.5-3.3-4c-1.1-1.6-2.2-3.3-2.6-5.1
		c-0.6-2.5-1.2-4.8-3.5-6.3C6.9,22,6.3,21,5.8,20.1c-1.8-3-3.5-6-5.3-9c-1-1.5-0.6-2.1,1-2.7c1.8-0.7,3.6-1.6,5.3-2.5
		c2.2-1.3,0.3-2.7-0.1-4c2.8-2.2,5.3-2.6,8.2-0.7c3,1.9,5.7,4.3,8.6,6.3c1,0.7,2.5,1.4,3.6,1.3c5.5-0.5,7.9,3.8,11,6.9
		c0.8,0.8,0.7,2.6,1.3,3.7c1.3,2.3,2.7,4.4,4.3,6.5c0.4,0.5,1.2,0.8,1.9,1c1.3,0.3,2.7,0.4,3.9,0.8c1.1,0.4,2.7,0.8,3.1,1.7
		c0.7,1.4-1.3,4.8-2.8,5.3c-3.6,1-7.2,1.9-10.8,2.7c-2.5,0.5-4.9,0.9-6.4,3.3c-0.4,0.6-1.4,1-2.1,1c-2.1-0.1-4.3-0.5-6.4-0.6
		c-1.4-0.1-2.7,0.2-4.1,0.2C19.8,41.6,19.7,41.8,19.6,42z"/>
</g>
<g id="Layer_1_1_">
</g>
</svg>
