<?xml version="1.0" encoding="iso-8859-1"?>
<!-- Generator: Adobe Illustrator 19.2.1, SVG Export Plug-In . SVG Version: 6.00 Build 0)  -->
<svg version="1.1" xmlns="http://www.w3.org/2000/svg" xmlns:xlink="http://www.w3.org/1999/xlink" x="0px" y="0px"
	 viewBox="0 0 14.852 20.224" style="enable-background:new 0 0 14.852 20.224;" xml:space="preserve">
<g id="GREECE">
	<path style="fill:#008BB0;" d="M7.251,5.811c1.2,0.7,5.3-2.9,6.4-2.3c-1-3,0.2-2.1,1.2-3.5c-1.6-0.1-7.4,0.5-8.8,1
		c-1.8,0.6-3.8,1.4-5.1,2.7c-2.4,2.4,0.1,10,3.5,12c1-1.8,1.8-3.4,2.4-4.5C6.251,8.711,7.952,8.911,7.251,5.811z"/>
	<path style="fill:#008BB0;" d="M5.652,19.611c1.1,0.2,2.3,0.7,2.9,0.6c2.2-0.2,4.1-0.7,6.3-1c-0.9-0.2-2-0.5-3.6-1
		C9.052,18.811,7.452,19.211,5.652,19.611z"/>
</g>
<g id="Layer_1">
</g>
</svg>
