<?xml version="1.0" encoding="iso-8859-1"?>
<!-- Generator: Adobe Illustrator 19.2.1, SVG Export Plug-In . SVG Version: 6.00 Build 0)  -->
<svg version="1.1" xmlns="http://www.w3.org/2000/svg" xmlns:xlink="http://www.w3.org/1999/xlink" x="0px" y="0px"
	 viewBox="0 0 18.249 24" style="enable-background:new 0 0 18.249 24;" xml:space="preserve">
<g id="CAMEROON">
	<path id="XMLID_13_" style="fill:#002A5C;" d="M18.249,24c-5.1-0.1-9.5-0.2-13.9-0.3c-0.2,0-0.6,0.1-0.7-0.1
		c-1.3-2.1-3.2-4.2-3.6-6.5c-0.4-2.1,1.7-3.6,4.1-3.7c2.3-0.1,3.7-1.2,4.6-3.5c1-2.7,2.6-5.2,4-7.7c0.4-0.7,1.1-1.3,2-2.2
		c0.4,1.2,0.6,1.9,0.8,2.7c-3.4,1.7-3.5,1.9-1.1,4.7c1.5,1.8,1.8,3.3,0.5,5.3c-1.4,2.2-1.2,4.5,0.4,6.7
		C16.449,20.9,17.249,22.4,18.249,24z"/>
</g>
<g id="Layer_1">
</g>
</svg>
