<?xml version="1.0" encoding="utf-8"?>
<!-- Generator: Adobe Illustrator 19.2.1, SVG Export Plug-In . SVG Version: 6.00 Build 0)  -->
<svg version="1.1" id="Layer_1" xmlns="http://www.w3.org/2000/svg" xmlns:xlink="http://www.w3.org/1999/xlink" x="0px" y="0px"
	 viewBox="0 0 30.4 24" style="enable-background:new 0 0 30.4 24;" xml:space="preserve">
<metadata><?xpacket begin="﻿" id="W5M0MpCehiHzreSzNTczkc9d"?>
<x:xmpmeta xmlns:x="adobe:ns:meta/" x:xmptk="Adobe XMP Core 5.6-c111 79.158366, 2015/09/25-01:12:00        ">
   <rdf:RDF xmlns:rdf="http://www.w3.org/1999/02/22-rdf-syntax-ns#">
      <rdf:Description rdf:about=""/>
   </rdf:RDF>
</x:xmpmeta>
                                                                                                    
                                                                                                    
                                                                                                    
                                                                                                    
                                                                                                    
                                                                                                    
                                                                                                    
                                                                                                    
                                                                                                    
                                                                                                    
                                                                                                    
                                                                                                    
                                                                                                    
                                                                                                    
                                                                                                    
                                                                                                    
                                                                                                    
                                                                                                    
                                                                                                    
                                                                                                    
                           
<?xpacket end="w"?></metadata>
<style type="text/css">
	.st0{fill:#002A5C;}
</style>
<g id="SPAIN">
	<path id="XMLID_1048_" class="st0" d="M30.4,5.7c-1,0.7-2,1.6-3.2,2.1c-2.9,1.2-5,4.4-4.8,7.6c0.1,1-0.3,2.2-0.9,2.9
		c-1.9,2.2-3.7,4.7-7.2,4.4c-0.7-0.1-1.7-0.2-2.2,0.2c-2.2,2-3.7,0.8-5.6-0.7c-1.5-1.1-1.9-1.9-1.6-3.6C5.6,15,6.3,11.3,6.7,7.7
		c0.1-0.8-0.9-1.9-1.6-2.4C4.2,4.7,2.8,4.6,1.8,4C1,3.5,0.6,2.5,0,1.8C1,1.2,2,0,3,0c4.6,0.1,9.1,0.3,13.7,0.8
		c1.4,0.2,2.6,1.5,3.9,1.9C23.3,3.5,26,4,28.8,4.6c0.4,0.1,0.8,0.2,1.1,0.3C30.2,5.2,30.3,5.5,30.4,5.7z"/>
</g>
<g id="Layer_1_1_">
</g>
</svg>
