<?xml version="1.0" encoding="utf-8"?>
<!-- Generator: Adobe Illustrator 19.1.0, SVG Export Plug-In . SVG Version: 6.00 Build 0)  -->
<svg version="1.1" id="Layer_2" xmlns="http://www.w3.org/2000/svg" xmlns:xlink="http://www.w3.org/1999/xlink" x="0px" y="0px"
	 viewBox="-490 1005.7 96.4 97.2" style="enable-background:new -490 1005.7 96.4 97.2;" xml:space="preserve">
<style type="text/css">
	.st0{fill:#002A5C;}
</style>
<title>CountryUNITED STATES</title>
<path class="st0" d="M-395.3,1096.4c-1.2-0.7-2.3-1.7-3-2.9c-2.3-4.1-4.1-8.5-7.6-11.9c-2.1-1.9-2.7-2.5-4.3-0.2
	c-1.9,2.6-2.6,1.7-4.2-0.3c-1.4-1.9-3.3-3.4-5.4-4.4c-1.9-0.7-2.4-1.5-2.4-3.3v-19.7c0.1-11,0.1-22,0-33c0-1.1-0.5-2.8-1.3-3.3
	c-2.2-1.3-4.4-3.5-7.5-1.9c-0.5,0-1,0-1.5-0.2c-3.5-1-7-2.1-10.5-3c-1-0.1-1.9-0.2-2.9-0.1c-2,0.2-4-0.5-5.3-2c-0.8-0.7-1.9-1-3-0.8
	c-1.8,0.7-2.6,0.2-3.5-1.4c-1.7-2.9-4-3-6.2-0.6c-0.8,0.8-1.7,1.4-2.8,1.7c-3.9,1.1-7.4,3.2-10.2,6.2c-0.6,0.6-1,1.4-1.1,2.2
	c-0.8,4.1-2.9,6.5-7.3,6.8c-0.8,0.2-1.5,0.8-1.8,1.6c-0.2,0.6,0.5,1.6,1,2.2c1.2,1.3,2.6,2.3,3.8,3.6c1.8,2,3.6,4,5.2,6.2
	c0.9,1.4,1.7,2.9,2.4,4.5c-3.7,1.4-4.8,1-6.6-1.4c-0.5-0.4-1.2-0.6-1.9-0.4c-1,0.4-2,0.8-2.9,1.4c-4.9,2.7-4.8,2.6-2,7.2
	c1.5,2.5,3.5,2.9,6.1,2.9s5.2-0.2,7.5-1.6c0.4-0.3,1,0,1.6,0c-0.2,1.2-0.7,2.3-0.4,3c1,2,1.3,3.8-1,5.1c-1.6,0.9-3.3,1.7-5,2.5
	c-0.2,0.1-0.4,0-0.5-0.1c-1.6-0.7-2.5,0-3.1,1.5c-0.4,1.1-1,2.1-1.6,3.1c-1.2,1.9-2.1,3.7-0.1,5.8c0.5,0.5,0.4,1.5,0.6,2.3
	c0.4,2.5,2.9,4.2,5.4,3.8c1.4-0.4,2.9,0.5,3.2,1.9c0.1,0.3,0.1,0.7,0.1,1v2.8c2.1-0.1,4.2-0.9,5.2-0.2c2,1.5,3.6,0.8,5.5,0.4
	c0.6-0.1,1.1-0.3,1.9-0.5c-0.5,1.5-1.2,2.6-1.2,3.8c0,3.1-1.7,5.1-3.9,6.9c-1.8,1.6-3.6,3-5.6,4.4c-2.3,1.5-4.8,2.8-7.2,4.2
	c0.2,0.2,0.3,0.4,0.3,0.7c0.7-0.2,1.4-0.4,2-0.7c3-1.3,6-2.6,8.9-4.1c0.9-0.6,1.8-1.4,2.5-2.3c0.5-0.5,0.7-1.2,1.2-1.6
	c2.8-2.4,5.7-4.8,8.6-7.2c0.8-0.7,1.5-1.5,2.1-2.4c0.4-0.5,0.5-1.2,0.3-1.8c-1.3-1.9-0.4-2.9,1-4.2c1.1-0.9,1.7-2.4,2.6-3.6
	c0.8-1.3,1.8-2.4,2.8-3.5c0.4-0.4,1.4-0.3,2.1-0.5c-0.2,0.7-0.2,1.8-0.7,2.2c-2,1.6-1.9,3.9-2.1,6.1c0.2,0.6,0.7,1,1.3,1.2
	c2.2-0.9,4.3-2,6.4-3.2c0.3-0.4,0.5-0.8,0.6-1.3c0.9-3.8,2.3-4.3,5.7-2.2c2.1,1.3,4.6,2.8,7,2.8c4.1-0.1,8.1,1.5,11,4.4
	c3.3,3.3,6.9,5.4,11.6,5.4c1.4-0.1,2.6,0.9,2.9,2.2c0.6,1.4,1.4,2.8,2.1,4.2c0.9,1.8,2,3.4,2.7,5.2c0.5,1.6,1.9,2.7,3.6,2.8
	C-393.2,1099.3-393.7,1097.3-395.3,1096.4z"/>
<path class="st0" d="M-451.6,1088.9c-1.2,0.5-2.5,0.9-3.7,1.5c-0.4,0.4-0.5,1-0.4,1.6c0.4,0.4,0.9,0.6,1.5,0.5
	c1.1-0.8,2.1-1.8,3.2-2.7L-451.6,1088.9z"/>
</svg>
