<?xml version="1.0" encoding="utf-8"?>
<!-- Generator: Adobe Illustrator 19.1.0, SVG Export Plug-In . SVG Version: 6.00 Build 0)  -->
<svg version="1.1" xmlns="http://www.w3.org/2000/svg" xmlns:xlink="http://www.w3.org/1999/xlink" x="0px" y="0px"
	 viewBox="0 0 316.1 27.8" style="enable-background:new 0 0 316.1 27.8;" xml:space="preserve">
<style type="text/css">
	.st0{fill:#2B328F;}
</style>
<g id="Layer_1">
	<g>
		<path class="st0" d="M9.3,7C9.2,6.5,9.1,6,9,5.6C8.8,5.2,8.6,4.9,8.4,4.7C8.2,4.5,7.9,4.3,7.7,4.2C7.4,4.1,7.2,4,6.9,4
			C6.2,4,5.6,4.3,5.3,4.7c-0.4,0.5-0.6,1.1-0.6,2c0,0.8,0.2,1.5,0.7,2.1c0.4,0.6,1,1.3,1.7,1.9c0.7,0.6,1.4,1.3,2.2,2
			c0.8,0.7,1.5,1.4,2.2,2.2c0.7,0.8,1.2,1.7,1.7,2.6c0.4,1,0.7,2.1,0.7,3.3c0,1.1-0.2,2.1-0.5,3s-0.8,1.6-1.4,2.2
			c-0.6,0.6-1.4,1-2.2,1.3c-0.9,0.3-1.8,0.4-2.9,0.4s-2-0.2-2.8-0.6c-0.8-0.4-1.5-0.9-2.1-1.6c-0.6-0.7-1-1.5-1.3-2.4S0,21.3,0,20.3
			l4.2-0.6C4.3,21,4.6,22,5.1,22.7c0.5,0.7,1.1,1,1.8,1c0.8,0,1.4-0.2,1.9-0.6c0.5-0.4,0.7-1,0.7-1.8c0-0.9-0.2-1.7-0.7-2.4
			c-0.4-0.7-1-1.4-1.7-2c-0.7-0.6-1.4-1.3-2.2-1.9s-1.5-1.4-2.2-2.1c-0.7-0.8-1.2-1.6-1.7-2.6C0.7,9.2,0.4,8,0.4,6.7
			c0-2.2,0.6-3.8,1.8-5C3.4,0.6,5.1,0,7.3,0c0.9,0,1.7,0.2,2.4,0.5c0.7,0.3,1.3,0.8,1.9,1.4c0.5,0.6,0.9,1.3,1.3,2.1
			c0.3,0.8,0.5,1.7,0.6,2.6L9.3,7z"/>
		<path class="st0" d="M17.1,6.9c0-0.9,0.1-1.8,0.4-2.7c0.3-0.8,0.7-1.6,1.3-2.2c0.6-0.6,1.3-1.1,2.1-1.5C21.8,0.2,22.8,0,24,0
			c1.2,0,2.2,0.2,3,0.5c0.9,0.4,1.6,0.9,2.1,1.5c0.6,0.6,1,1.4,1.3,2.2c0.3,0.8,0.4,1.7,0.4,2.7v13.9c0,0.9-0.1,1.8-0.4,2.7
			c-0.3,0.8-0.7,1.6-1.3,2.2c-0.6,0.6-1.3,1.1-2.1,1.5s-1.9,0.5-3,0.5c-1.2,0-2.2-0.2-3-0.5s-1.6-0.9-2.1-1.5
			c-0.6-0.6-1-1.4-1.3-2.2c-0.3-0.8-0.4-1.7-0.4-2.7V6.9z M21.6,20.7c0,1,0.2,1.8,0.5,2.3c0.3,0.5,1,0.7,1.9,0.7
			c0.9,0,1.5-0.2,1.9-0.7c0.3-0.5,0.5-1.2,0.5-2.3V7c0-1-0.2-1.8-0.5-2.3C25.5,4.3,24.9,4,24,4c-0.9,0-1.5,0.2-1.9,0.7
			C21.8,5.3,21.6,6,21.6,7V20.7z"/>
		<path class="st0" d="M35.1,0.4h4.5v20.4c0,2,0.8,3,2.4,3s2.4-1,2.4-3V0.4h4.5v20.2c0,2.3-0.6,4.1-1.8,5.4c-1.2,1.2-2.9,1.8-5,1.8
			c-2.1,0-3.8-0.6-5-1.8c-1.2-1.2-1.8-3-1.8-5.4V0.4z"/>
		<path class="st0" d="M55.7,4.4h-4.3v-4h13.1v4h-4.3v23h-4.5V4.4z"/>
		<path class="st0" d="M67.1,27.4v-27h4.5v11h4.8v-11h4.5v27h-4.5v-12h-4.8v12H67.1z"/>
		<path class="st0" d="M92.9,27.4v-27h4.5v10h0.1l4.7-10h4.5l-4.8,10.1l5.4,17h-4.5L99,14.8H99l-1.6,3v9.6H92.9z"/>
		<path class="st0" d="M109.1,6.9c0-0.9,0.1-1.8,0.4-2.7c0.3-0.8,0.7-1.6,1.3-2.2c0.6-0.6,1.3-1.1,2.1-1.5c0.9-0.4,1.9-0.5,3-0.5
			s2.2,0.2,3,0.5c0.9,0.4,1.6,0.9,2.1,1.5c0.6,0.6,1,1.4,1.3,2.2c0.3,0.8,0.4,1.7,0.4,2.7v13.9c0,0.9-0.1,1.8-0.4,2.7
			c-0.3,0.8-0.7,1.6-1.3,2.2c-0.6,0.6-1.3,1.1-2.1,1.5c-0.9,0.4-1.9,0.5-3,0.5s-2.2-0.2-3-0.5c-0.9-0.4-1.6-0.9-2.1-1.5
			c-0.6-0.6-1-1.4-1.3-2.2c-0.3-0.8-0.4-1.7-0.4-2.7V6.9z M113.6,20.7c0,1,0.2,1.8,0.5,2.3c0.3,0.5,1,0.7,1.9,0.7s1.5-0.2,1.9-0.7
			c0.3-0.5,0.5-1.2,0.5-2.3V7c0-1-0.2-1.8-0.5-2.3c-0.3-0.5-1-0.7-1.9-0.7s-1.5,0.2-1.9,0.7c-0.3,0.5-0.5,1.2-0.5,2.3V20.7z"/>
		<path class="st0" d="M131.6,27.4h-4.5v-27h6.3c2.5,0,4.4,0.6,5.7,1.8c1.3,1.2,1.9,3.3,1.9,6.1c0,1.1-0.1,2-0.3,2.8
			c-0.2,0.8-0.4,1.4-0.7,2s-0.6,1-1,1.3c-0.4,0.3-0.8,0.6-1.1,0.7l3.8,12.2H137l-3.2-11.2c-0.3,0.1-0.6,0.1-1.1,0.1s-0.8,0-1.2,0
			V27.4z M131.6,12.5h1.6c0.6,0,1.1-0.1,1.5-0.2c0.4-0.1,0.8-0.3,1-0.7c0.3-0.3,0.5-0.8,0.6-1.3c0.1-0.5,0.2-1.2,0.2-2
			c0-1.6-0.3-2.7-0.8-3.3c-0.5-0.6-1.4-0.9-2.6-0.9h-1.6V12.5z"/>
		<path class="st0" d="M145.1,27.4v-27h12v4h-7.5v7h5.8v4h-5.8v7.9h8v4H145.1z"/>
		<path class="st0" d="M163.7,27.4h-4.3l4.8-27h5.5l4.8,27h-4.3l-0.8-6h-4.9L163.7,27.4z M165.1,17.4h3.6l-1.8-11.6h-0.1L165.1,17.4
			z"/>
		<path class="st0" d="M176.8,17v-4.4h4.2V17H176.8z M176.8,27.4V23h4.2v4.4H176.8z"/>
		<path class="st0" d="M197.3,6h-3.5V3.5c1-0.5,2-1.1,2.8-1.6c0.9-0.6,1.7-1.2,2.4-1.8h2.3v27.4h-4V6z"/>
		<path class="st0" d="M217,27.4v-27h12.5v4h-8v7h6v4h-6v12H217z"/>
		<path class="st0" d="M233,27.4v-27h12v4h-7.5v7h5.8v4h-5.8v7.9h8v4H233z"/>
		<path class="st0" d="M248.8,27.4v-27h4.5v23h7v4H248.8z"/>
		<path class="st0" d="M262.8,27.4v-27h4.5v23h7v4H262.8z"/>
		<path class="st0" d="M277,6.9c0-0.9,0.1-1.8,0.4-2.7c0.3-0.8,0.7-1.6,1.3-2.2c0.6-0.6,1.3-1.1,2.1-1.5c0.9-0.4,1.9-0.5,3-0.5
			s2.2,0.2,3,0.5c0.9,0.4,1.6,0.9,2.1,1.5c0.6,0.6,1,1.4,1.3,2.2c0.3,0.8,0.4,1.7,0.4,2.7v13.9c0,0.9-0.1,1.8-0.4,2.7
			c-0.3,0.8-0.7,1.6-1.3,2.2c-0.6,0.6-1.3,1.1-2.1,1.5c-0.9,0.4-1.9,0.5-3,0.5s-2.2-0.2-3-0.5c-0.9-0.4-1.6-0.9-2.1-1.5
			c-0.6-0.6-1-1.4-1.3-2.2c-0.3-0.8-0.4-1.7-0.4-2.7V6.9z M281.4,20.7c0,1,0.2,1.8,0.5,2.3c0.3,0.5,1,0.7,1.9,0.7s1.5-0.2,1.9-0.7
			c0.3-0.5,0.5-1.2,0.5-2.3V7c0-1-0.2-1.8-0.5-2.3c-0.3-0.5-1-0.7-1.9-0.7s-1.5,0.2-1.9,0.7c-0.3,0.5-0.5,1.2-0.5,2.3V20.7z"/>
		<path class="st0" d="M302.7,0.4h3.7l3,17.2h0.1L312,0.4h4.2l-4.6,27h-3.7l-3.2-17.9h-0.1l-3,17.9h-3.7l-4.9-27h4.2l2.7,17.2h0.1
			L302.7,0.4z"/>
	</g>
</g>
<g id="Layer_2">
</g>
</svg>
