<?xml version="1.0" encoding="utf-8"?>
<!-- Generator: Adobe Illustrator 19.1.0, SVG Export Plug-In . SVG Version: 6.00 Build 0)  -->
<svg version="1.1" xmlns="http://www.w3.org/2000/svg" xmlns:xlink="http://www.w3.org/1999/xlink" x="0px" y="0px"
	 viewBox="0 0 256.5 27.8" style="enable-background:new 0 0 256.5 27.8;" xml:space="preserve">
<style type="text/css">
	.st0{fill:#2B328F;}
</style>
<g id="Layer_1">
	<g>
		<path class="st0" d="M6.2,13.7h7.3v13.7h-2.2l-0.8-2c-0.7,0.8-1.3,1.4-2,1.8C7.9,27.6,7,27.8,6,27.8c-1.8,0-3.2-0.6-4.3-1.8
			C0.6,24.7,0,23,0,20.9V6.9C0,6,0.1,5.1,0.4,4.2C0.7,3.4,1.1,2.6,1.6,2c0.5-0.6,1.2-1.1,2-1.5C4.5,0.2,5.4,0,6.6,0
			c1.1,0,2.1,0.2,2.9,0.6C10.3,1,11,1.5,11.6,2.2c0.6,0.7,1,1.5,1.3,2.4c0.3,0.9,0.4,1.8,0.4,2.8v1.7H9c0-1,0-1.8-0.1-2.5
			C8.8,6,8.6,5.5,8.4,5.1C8.2,4.7,7.9,4.4,7.6,4.3C7.3,4.1,6.9,4,6.4,4C5.9,4,5.4,4.2,5,4.7C4.7,5.1,4.5,5.9,4.5,7v13.9
			c0,0.9,0.2,1.6,0.5,2.1c0.3,0.5,0.9,0.8,1.6,0.8c0.9,0,1.5-0.3,1.9-0.9C8.8,22.3,9,21.3,9,20v-2.6H6.2V13.7z"/>
		<path class="st0" d="M22.5,27.4H18v-27h6.3c2.5,0,4.4,0.6,5.7,1.8c1.3,1.2,1.9,3.3,1.9,6.1c0,1.1-0.1,2-0.3,2.8
			c-0.2,0.8-0.4,1.4-0.7,2c-0.3,0.5-0.6,1-1,1.3c-0.4,0.3-0.8,0.6-1.1,0.7l3.8,12.2h-4.5l-3.2-11.2c-0.3,0.1-0.6,0.1-1.1,0.1
			c-0.4,0-0.8,0-1.2,0V27.4z M22.5,12.5H24c0.6,0,1.1-0.1,1.5-0.2c0.4-0.1,0.8-0.3,1-0.7c0.3-0.3,0.5-0.8,0.6-1.3
			c0.1-0.5,0.2-1.2,0.2-2c0-1.6-0.3-2.7-0.8-3.3c-0.5-0.6-1.4-0.9-2.6-0.9h-1.6V12.5z"/>
		<path class="st0" d="M36,27.4v-27h12v4h-7.5v7h5.8v4h-5.8v7.9h8v4H36z"/>
		<path class="st0" d="M52,27.4v-27h12v4h-7.5v7h5.8v4h-5.8v7.9h8v4H52z"/>
		<path class="st0" d="M77,9.4V7.3c0-1.1-0.2-2-0.6-2.5C75.9,4.3,75.4,4,74.8,4c-0.9,0-1.5,0.2-1.9,0.7C72.6,5.3,72.4,6,72.4,7v13.7
			c0,1,0.2,1.8,0.5,2.3c0.3,0.5,1,0.7,1.9,0.7c0.8,0,1.4-0.2,1.7-0.7c0.3-0.5,0.5-1.1,0.5-2v-3.3h4.5v3.1c0,0.9-0.1,1.8-0.4,2.7
			c-0.3,0.8-0.7,1.6-1.2,2.2c-0.5,0.6-1.2,1.1-2.1,1.5c-0.8,0.4-1.8,0.5-2.9,0.5c-1.2,0-2.2-0.2-3-0.5c-0.9-0.4-1.6-0.9-2.1-1.5
			c-0.6-0.6-1-1.4-1.3-2.2c-0.3-0.8-0.4-1.7-0.4-2.7V6.9c0-0.9,0.1-1.8,0.4-2.7c0.3-0.8,0.7-1.6,1.3-2.2c0.6-0.6,1.3-1.1,2.1-1.5
			c0.9-0.4,1.9-0.5,3-0.5c1.1,0,2.1,0.2,2.9,0.6c0.8,0.4,1.5,0.9,2.1,1.6s0.9,1.5,1.2,2.4c0.3,0.9,0.4,1.8,0.4,2.8v2H77z"/>
		<path class="st0" d="M86,27.4v-27h12v4h-7.5v7h5.8v4h-5.8v7.9h8v4H86z"/>
		<path class="st0" d="M101.7,17v-4.4h4.2V17H101.7z M101.7,27.4V23h4.2v4.4H101.7z"/>
		<path class="st0" d="M117.3,27.4v-3.6c1.4-2.1,2.6-4,3.7-5.7c1.1-1.7,2-3.2,2.7-4.5c0.7-1.3,1.3-2.6,1.6-3.7
			c0.4-1.1,0.6-2.2,0.6-3.2c0-1.1-0.2-1.9-0.5-2.3c-0.4-0.5-0.9-0.7-1.5-0.7c-0.7,0-1.3,0.3-1.6,0.8s-0.5,1.2-0.5,2v1.8h-4.2V7
			c0-1,0.1-1.9,0.4-2.8s0.7-1.6,1.3-2.2c0.6-0.6,1.3-1.1,2.1-1.5c0.8-0.4,1.8-0.5,2.8-0.5c0.9,0,1.7,0.2,2.5,0.5
			c0.7,0.3,1.4,0.8,1.9,1.3c0.5,0.6,0.9,1.2,1.2,1.9c0.3,0.7,0.4,1.5,0.4,2.2c0,1.1-0.1,2.1-0.3,3.1c-0.2,1-0.6,2.2-1.2,3.5
			c-0.6,1.3-1.4,2.8-2.5,4.6c-1.1,1.7-2.5,3.9-4.2,6.4h7.9v3.8H117.3z"/>
		<path class="st0" d="M141.9,27.4v-27h12.5v4h-8v7h6v4h-6v12H141.9z"/>
		<path class="st0" d="M157.9,27.4v-27h12v4h-7.5v7h5.8v4h-5.8v7.9h8v4H157.9z"/>
		<path class="st0" d="M173.6,27.4v-27h4.5v23h7v4H173.6z"/>
		<path class="st0" d="M187.6,27.4v-27h4.5v23h7v4H187.6z"/>
		<path class="st0" d="M201.9,6.9c0-0.9,0.1-1.8,0.4-2.7c0.3-0.8,0.7-1.6,1.3-2.2c0.6-0.6,1.3-1.1,2.1-1.5c0.9-0.4,1.9-0.5,3-0.5
			c1.2,0,2.2,0.2,3,0.5c0.9,0.4,1.6,0.9,2.1,1.5c0.6,0.6,1,1.4,1.3,2.2c0.3,0.8,0.4,1.7,0.4,2.7v13.9c0,0.9-0.1,1.8-0.4,2.7
			c-0.3,0.8-0.7,1.6-1.3,2.2c-0.6,0.6-1.3,1.1-2.1,1.5s-1.9,0.5-3,0.5c-1.2,0-2.2-0.2-3-0.5s-1.6-0.9-2.1-1.5
			c-0.6-0.6-1-1.4-1.3-2.2c-0.3-0.8-0.4-1.7-0.4-2.7V6.9z M206.3,20.7c0,1,0.2,1.8,0.5,2.3c0.3,0.5,1,0.7,1.9,0.7
			c0.9,0,1.5-0.2,1.9-0.7c0.3-0.5,0.5-1.2,0.5-2.3V7c0-1-0.2-1.8-0.5-2.3c-0.3-0.5-1-0.7-1.9-0.7c-0.9,0-1.5,0.2-1.9,0.7
			c-0.3,0.5-0.5,1.2-0.5,2.3V20.7z"/>
		<path class="st0" d="M227.6,0.4h3.7l3,17.2h0.1l2.5-17.2h4.2l-4.6,27h-3.7l-3.2-17.9h-0.1l-3,17.9h-3.7l-4.9-27h4.2l2.7,17.2h0.1
			L227.6,0.4z"/>
		<path class="st0" d="M252,7c0-0.6-0.2-1.1-0.3-1.4c-0.2-0.4-0.3-0.7-0.6-0.9c-0.2-0.2-0.5-0.4-0.7-0.5c-0.3-0.1-0.5-0.1-0.8-0.1
			c-0.7,0-1.3,0.2-1.7,0.7c-0.4,0.5-0.6,1.1-0.6,2c0,0.8,0.2,1.5,0.7,2.1c0.4,0.6,1,1.3,1.7,1.9c0.7,0.6,1.4,1.3,2.2,2
			c0.8,0.7,1.5,1.4,2.2,2.2c0.7,0.8,1.2,1.7,1.7,2.6c0.4,1,0.7,2.1,0.7,3.3c0,1.1-0.2,2.1-0.5,3s-0.8,1.6-1.4,2.2
			c-0.6,0.6-1.4,1-2.2,1.3c-0.9,0.3-1.8,0.4-2.9,0.4s-2-0.2-2.8-0.6c-0.8-0.4-1.5-0.9-2.1-1.6c-0.6-0.7-1-1.5-1.3-2.4
			s-0.5-1.9-0.5-2.9l4.2-0.6c0.1,1.4,0.4,2.4,0.9,3.1c0.5,0.7,1.1,1,1.8,1c0.8,0,1.4-0.2,1.9-0.6c0.5-0.4,0.7-1,0.7-1.8
			c0-0.9-0.2-1.7-0.7-2.4c-0.4-0.7-1-1.4-1.7-2c-0.7-0.6-1.4-1.3-2.2-1.9s-1.5-1.4-2.2-2.1c-0.7-0.8-1.2-1.6-1.7-2.6
			c-0.4-1-0.7-2.1-0.7-3.4c0-2.2,0.6-3.8,1.8-5c1.2-1.2,2.9-1.7,5.1-1.7c0.9,0,1.7,0.2,2.4,0.5c0.7,0.3,1.3,0.8,1.9,1.4
			c0.5,0.6,0.9,1.3,1.3,2.1c0.3,0.8,0.5,1.7,0.6,2.6L252,7z"/>
	</g>
</g>
<g id="Layer_2">
</g>
</svg>
