<?xml version="1.0" encoding="utf-8"?>
<!-- Generator: Adobe Illustrator 19.1.0, SVG Export Plug-In . SVG Version: 6.00 Build 0)  -->
<svg version="1.1" xmlns="http://www.w3.org/2000/svg" xmlns:xlink="http://www.w3.org/1999/xlink" x="0px" y="0px"
	 viewBox="0 0 234.5 27.8" style="enable-background:new 0 0 234.5 27.8;" xml:space="preserve">
<style type="text/css">
	.st0{fill:#2B328F;}
</style>
<g id="Layer_1">
	<g>
		<path class="st0" d="M0,23.7h0.9c0.9,0,1.5-0.2,1.8-0.6c0.3-0.4,0.5-0.9,0.5-1.7V0.4h4.5V22c0,0.9-0.1,1.7-0.3,2.4s-0.5,1.3-1,1.8
			c-0.5,0.5-1.1,0.9-1.9,1.2c-0.8,0.3-1.8,0.4-3.1,0.4H0V23.7z"/>
		<path class="st0" d="M14.7,27.4h-4.3l4.8-27h5.5l4.8,27h-4.3l-0.8-6h-4.9L14.7,27.4z M16.1,17.4h3.6L17.9,5.8h-0.1L16.1,17.4z"/>
		<path class="st0" d="M28,27.4v-27h6.4c2.8,0,4.8,0.6,6.1,1.8c1.3,1.2,2,3.3,2,6.1c0,1.4-0.2,2.7-0.5,3.7s-0.8,1.8-1.5,2.5
			c-0.7,0.6-1.5,1.1-2.5,1.4c-1,0.3-2.2,0.4-3.6,0.4h-1.9v11.1H28z M32.5,12.5h1.7c0.7,0,1.3-0.1,1.8-0.2c0.5-0.1,0.9-0.3,1.2-0.7
			c0.3-0.3,0.5-0.8,0.6-1.3C38,9.8,38,9.1,38,8.3c0-0.8-0.1-1.5-0.2-2c-0.1-0.5-0.3-1-0.6-1.3c-0.3-0.3-0.7-0.5-1.2-0.7
			c-0.5-0.1-1.1-0.2-1.8-0.2h-1.7V12.5z"/>
		<path class="st0" d="M48.6,27.4h-4.3l4.8-27h5.5l4.8,27h-4.3l-0.8-6h-4.9L48.6,27.4z M50.1,17.4h3.6L51.9,5.8h-0.1L50.1,17.4z"/>
		<path class="st0" d="M62,27.4v-27h4.1l5.4,15.5h0.1V0.4h4v27h-3.9l-5.7-16.9h-0.1v16.9H62z"/>
		<path class="st0" d="M79.7,17v-4.4H84V17H79.7z M79.7,27.4V23H84v4.4H79.7z"/>
		<path class="st0" d="M95.9,4.2V0.4h11.7V3l-5.3,24.4h-4.2l5.2-23.2H95.9z"/>
		<path class="st0" d="M120,27.4v-27h12.5v4h-8v7h6v4h-6v12H120z"/>
		<path class="st0" d="M136,27.4v-27h12v4h-7.5v7h5.8v4h-5.8v7.9h8v4H136z"/>
		<path class="st0" d="M151.7,27.4v-27h4.5v23h7v4H151.7z"/>
		<path class="st0" d="M165.7,27.4v-27h4.5v23h7v4H165.7z"/>
		<path class="st0" d="M179.9,6.9c0-0.9,0.1-1.8,0.4-2.7c0.3-0.8,0.7-1.6,1.3-2.2c0.6-0.6,1.3-1.1,2.1-1.5c0.9-0.4,1.9-0.5,3-0.5
			c1.2,0,2.2,0.2,3,0.5c0.9,0.4,1.6,0.9,2.1,1.5c0.6,0.6,1,1.4,1.3,2.2c0.3,0.8,0.4,1.7,0.4,2.7v13.9c0,0.9-0.1,1.8-0.4,2.7
			c-0.3,0.8-0.7,1.6-1.3,2.2c-0.6,0.6-1.3,1.1-2.1,1.5s-1.9,0.5-3,0.5c-1.2,0-2.2-0.2-3-0.5s-1.6-0.9-2.1-1.5
			c-0.6-0.6-1-1.4-1.3-2.2c-0.3-0.8-0.4-1.7-0.4-2.7V6.9z M184.4,20.7c0,1,0.2,1.8,0.5,2.3c0.3,0.5,1,0.7,1.9,0.7
			c0.9,0,1.5-0.2,1.9-0.7c0.3-0.5,0.5-1.2,0.5-2.3V7c0-1-0.2-1.8-0.5-2.3c-0.3-0.5-1-0.7-1.9-0.7c-0.9,0-1.5,0.2-1.9,0.7
			c-0.3,0.5-0.5,1.2-0.5,2.3V20.7z"/>
		<path class="st0" d="M205.7,0.4h3.7l3,17.2h0.1l2.5-17.2h4.2l-4.6,27h-3.7l-3.2-17.9h-0.1l-3,17.9h-3.7l-4.9-27h4.2l2.7,17.2h0.1
			L205.7,0.4z"/>
		<path class="st0" d="M230.1,7c0-0.6-0.2-1.1-0.3-1.4c-0.2-0.4-0.3-0.7-0.6-0.9c-0.2-0.2-0.5-0.4-0.7-0.5c-0.3-0.1-0.5-0.1-0.8-0.1
			c-0.7,0-1.3,0.2-1.7,0.7c-0.4,0.5-0.6,1.1-0.6,2c0,0.8,0.2,1.5,0.7,2.1c0.4,0.6,1,1.3,1.7,1.9c0.7,0.6,1.4,1.3,2.2,2
			c0.8,0.7,1.5,1.4,2.2,2.2c0.7,0.8,1.2,1.7,1.7,2.6c0.4,1,0.7,2.1,0.7,3.3c0,1.1-0.2,2.1-0.5,3c-0.3,0.9-0.8,1.6-1.4,2.2
			c-0.6,0.6-1.4,1-2.2,1.3c-0.9,0.3-1.8,0.4-2.9,0.4c-1,0-2-0.2-2.8-0.6c-0.8-0.4-1.5-0.9-2.1-1.6c-0.6-0.7-1-1.5-1.3-2.4
			c-0.3-0.9-0.5-1.9-0.5-2.9l4.2-0.6c0.1,1.4,0.4,2.4,0.9,3.1c0.5,0.7,1.1,1,1.8,1c0.8,0,1.4-0.2,1.9-0.6c0.5-0.4,0.7-1,0.7-1.8
			c0-0.9-0.2-1.7-0.7-2.4c-0.4-0.7-1-1.4-1.7-2c-0.7-0.6-1.4-1.3-2.2-1.9c-0.8-0.6-1.5-1.4-2.2-2.1c-0.7-0.8-1.2-1.6-1.7-2.6
			c-0.4-1-0.7-2.1-0.7-3.4c0-2.2,0.6-3.8,1.8-5c1.2-1.2,2.9-1.7,5.1-1.7c0.9,0,1.7,0.2,2.4,0.5c0.7,0.3,1.3,0.8,1.9,1.4
			c0.5,0.6,0.9,1.3,1.3,2.1s0.5,1.7,0.6,2.6L230.1,7z"/>
	</g>
</g>
<g id="Layer_2">
</g>
</svg>
