<?xml version="1.0" encoding="utf-8"?>
<!-- Generator: Adobe Illustrator 19.1.0, SVG Export Plug-In . SVG Version: 6.00 Build 0)  -->
<svg version="1.1" xmlns="http://www.w3.org/2000/svg" xmlns:xlink="http://www.w3.org/1999/xlink" x="0px" y="0px"
	 viewBox="0 0 215.9 27.8" style="enable-background:new 0 0 215.9 27.8;" xml:space="preserve">
<style type="text/css">
	.st0{fill:#2B328F;}
</style>
<g id="Layer_1">
	<g>
		<path class="st0" d="M0,27.4v-27h4.5v27H0z"/>
		<path class="st0" d="M13.9,27.4H9.4v-27h6.3c2.5,0,4.4,0.6,5.7,1.8c1.3,1.2,1.9,3.3,1.9,6.1c0,1.1-0.1,2-0.3,2.8
			c-0.2,0.8-0.4,1.4-0.7,2c-0.3,0.5-0.6,1-1,1.3c-0.4,0.3-0.8,0.6-1.1,0.7l3.8,12.2h-4.5l-3.2-11.2c-0.3,0.1-0.6,0.1-1.1,0.1
			c-0.4,0-0.8,0-1.2,0V27.4z M13.9,12.5h1.6c0.6,0,1.1-0.1,1.5-0.2c0.4-0.1,0.8-0.3,1-0.7c0.3-0.3,0.5-0.8,0.6-1.3
			c0.1-0.5,0.2-1.2,0.2-2c0-1.6-0.3-2.7-0.8-3.3c-0.5-0.6-1.4-0.9-2.6-0.9h-1.6V12.5z"/>
		<path class="st0" d="M30,27.4h-4.3l4.8-27H36l4.8,27h-4.3l-0.8-6h-4.9L30,27.4z M31.4,17.4H35L33.3,5.8h-0.1L31.4,17.4z"/>
		<path class="st0" d="M43.4,27.4v-27h4.1L53,15.8H53V0.4h4v27h-3.9l-5.7-16.9h-0.1v16.9H43.4z"/>
		<path class="st0" d="M61.1,17v-4.4h4.2V17H61.1z M61.1,27.4V23h4.2v4.4H61.1z"/>
		<path class="st0" d="M76.8,19.9c0-1.6,0.2-3,0.5-4.2c0.3-1.1,1.1-2,2.2-2.8c-0.8-0.6-1.4-1.4-1.8-2.4c-0.4-1-0.6-2-0.6-3
			c0-2.6,0.5-4.5,1.6-5.8C79.9,0.6,81.3,0,83.2,0c1.8,0,3.3,0.6,4.4,1.8c1.1,1.2,1.6,3.1,1.6,5.8c0,1-0.2,2.1-0.6,3
			c-0.4,1-1,1.8-1.8,2.4c1.1,0.7,1.8,1.6,2.2,2.8c0.3,1.1,0.5,2.5,0.5,4.2c0,2.6-0.5,4.5-1.6,5.9c-1.1,1.3-2.6,2-4.8,2
			c-2.1,0-3.7-0.7-4.8-2C77.4,24.4,76.8,22.5,76.8,19.9z M83.2,24.1c0.9,0,1.5-0.4,1.8-1.2c0.3-0.8,0.5-1.9,0.5-3.3
			c0-1.4-0.2-2.5-0.5-3.3c-0.3-0.8-0.9-1.2-1.8-1.2c-0.9,0-1.5,0.4-1.8,1.2c-0.3,0.8-0.5,1.9-0.5,3.3c0,1.4,0.2,2.5,0.5,3.3
			C81.7,23.7,82.3,24.1,83.2,24.1z M83.2,11.1c0.7,0,1.2-0.3,1.5-0.9c0.3-0.6,0.5-1.5,0.5-2.8c0-1.3-0.2-2.3-0.5-2.8
			c-0.3-0.6-0.8-0.9-1.5-0.9c-0.7,0-1.2,0.3-1.5,0.9c-0.3,0.6-0.5,1.5-0.5,2.8c0,1.3,0.1,2.3,0.5,2.8C82,10.8,82.5,11.1,83.2,11.1z"
			/>
		<path class="st0" d="M101.3,27.4v-27h12.5v4h-8v7h6v4h-6v12H101.3z"/>
		<path class="st0" d="M117.3,27.4v-27h12v4h-7.5v7h5.8v4h-5.8v7.9h8v4H117.3z"/>
		<path class="st0" d="M133.1,27.4v-27h4.5v23h7v4H133.1z"/>
		<path class="st0" d="M147.1,27.4v-27h4.5v23h7v4H147.1z"/>
		<path class="st0" d="M161.3,6.9c0-0.9,0.1-1.8,0.4-2.7c0.3-0.8,0.7-1.6,1.3-2.2c0.6-0.6,1.3-1.1,2.1-1.5c0.9-0.4,1.9-0.5,3-0.5
			s2.2,0.2,3,0.5c0.9,0.4,1.6,0.9,2.1,1.5c0.6,0.6,1,1.4,1.3,2.2c0.3,0.8,0.4,1.7,0.4,2.7v13.9c0,0.9-0.1,1.8-0.4,2.7
			c-0.3,0.8-0.7,1.6-1.3,2.2c-0.6,0.6-1.3,1.1-2.1,1.5c-0.9,0.4-1.9,0.5-3,0.5s-2.2-0.2-3-0.5c-0.9-0.4-1.6-0.9-2.1-1.5
			c-0.6-0.6-1-1.4-1.3-2.2c-0.3-0.8-0.4-1.7-0.4-2.7V6.9z M165.8,20.7c0,1,0.2,1.8,0.5,2.3c0.3,0.5,1,0.7,1.9,0.7s1.5-0.2,1.9-0.7
			c0.3-0.5,0.5-1.2,0.5-2.3V7c0-1-0.2-1.8-0.5-2.3c-0.3-0.5-1-0.7-1.9-0.7s-1.5,0.2-1.9,0.7c-0.3,0.5-0.5,1.2-0.5,2.3V20.7z"/>
		<path class="st0" d="M187,0.4h3.7l3,17.2h0.1l2.5-17.2h4.2l-4.6,27h-3.7l-3.2-17.9h-0.1l-3,17.9h-3.7l-4.9-27h4.2l2.7,17.2h0.1
			L187,0.4z"/>
		<path class="st0" d="M211.4,7c0-0.6-0.2-1.1-0.3-1.4c-0.2-0.4-0.3-0.7-0.6-0.9c-0.2-0.2-0.5-0.4-0.7-0.5c-0.3-0.1-0.5-0.1-0.8-0.1
			c-0.7,0-1.3,0.2-1.7,0.7c-0.4,0.5-0.6,1.1-0.6,2c0,0.8,0.2,1.5,0.7,2.1c0.4,0.6,1,1.3,1.7,1.9c0.7,0.6,1.4,1.3,2.2,2
			c0.8,0.7,1.5,1.4,2.2,2.2c0.7,0.8,1.2,1.7,1.7,2.6c0.4,1,0.7,2.1,0.7,3.3c0,1.1-0.2,2.1-0.5,3c-0.3,0.9-0.8,1.6-1.4,2.2
			c-0.6,0.6-1.4,1-2.2,1.3c-0.9,0.3-1.8,0.4-2.9,0.4c-1,0-2-0.2-2.8-0.6c-0.8-0.4-1.5-0.9-2.1-1.6c-0.6-0.7-1-1.5-1.3-2.4
			c-0.3-0.9-0.5-1.9-0.5-2.9l4.2-0.6c0.1,1.4,0.4,2.4,0.9,3.1c0.5,0.7,1.1,1,1.8,1c0.8,0,1.4-0.2,1.9-0.6c0.5-0.4,0.7-1,0.7-1.8
			c0-0.9-0.2-1.7-0.7-2.4c-0.4-0.7-1-1.4-1.7-2c-0.7-0.6-1.4-1.3-2.2-1.9c-0.8-0.6-1.5-1.4-2.2-2.1c-0.7-0.8-1.2-1.6-1.7-2.6
			c-0.4-1-0.7-2.1-0.7-3.4c0-2.2,0.6-3.8,1.8-5c1.2-1.2,2.9-1.7,5.1-1.7c0.9,0,1.7,0.2,2.4,0.5c0.7,0.3,1.3,0.8,1.9,1.4
			c0.5,0.6,0.9,1.3,1.3,2.1s0.5,1.7,0.6,2.6L211.4,7z"/>
	</g>
</g>
<g id="Layer_2">
</g>
</svg>
