<?xml version="1.0" encoding="utf-8"?>
<!-- Generator: Adobe Illustrator 19.1.0, SVG Export Plug-In . SVG Version: 6.00 Build 0)  -->
<svg version="1.1" xmlns="http://www.w3.org/2000/svg" xmlns:xlink="http://www.w3.org/1999/xlink" x="0px" y="0px"
	 viewBox="0 0 307 27.8" style="enable-background:new 0 0 307 27.8;" xml:space="preserve">
<style type="text/css">
	.st0{fill:#2B328F;}
</style>
<g id="Layer_1">
	<g>
		<path class="st0" d="M0,0.4h6.6c2.4,0,4.2,0.6,5.3,1.8c1.1,1.2,1.7,3,1.7,5.3c0,0.6-0.1,1.2-0.2,1.7c-0.1,0.6-0.3,1.1-0.6,1.6
			c-0.3,0.5-0.6,0.9-1,1.3c-0.4,0.4-0.9,0.7-1.4,0.9c1.2,0.5,2,1.3,2.7,2.3s0.9,2.4,0.9,4.1c0,1.1-0.1,2.2-0.4,3.1
			c-0.3,0.9-0.7,1.8-1.2,2.5c-0.6,0.7-1.3,1.2-2.2,1.6c-0.9,0.4-2,0.6-3.2,0.6H0V0.4z M4.5,11.5h1.6c0.8,0,1.5-0.3,2.1-0.9
			C8.8,10,9.1,9.1,9.1,8c0-2.5-1-3.8-2.9-3.8H4.5V11.5z M4.5,23.6h1.9c1.2,0,2-0.3,2.5-1c0.5-0.7,0.7-1.7,0.7-3.1
			c0-1.4-0.3-2.4-0.8-3.1c-0.6-0.7-1.5-1-2.8-1H4.5V23.6z"/>
		<path class="st0" d="M20.6,27.4h-4.3l4.8-27h5.5l4.8,27h-4.3l-0.8-6h-4.9L20.6,27.4z M22,17.4h3.6L23.9,5.8h-0.1L22,17.4z"/>
		<path class="st0" d="M34,27.4v-27h4.1l5.4,15.5h0.1V0.4h4v27h-3.9l-5.7-16.9H38v16.9H34z"/>
		<path class="st0" d="M58.1,13.7h7.3v13.7h-2.2l-0.8-2c-0.7,0.8-1.3,1.4-2,1.8c-0.6,0.4-1.5,0.6-2.5,0.6c-1.8,0-3.2-0.6-4.3-1.8
			C52.5,24.7,52,23,52,20.9V6.9c0-0.9,0.1-1.8,0.4-2.7c0.3-0.8,0.7-1.6,1.2-2.2c0.5-0.6,1.2-1.1,2-1.5C56.5,0.2,57.4,0,58.5,0
			c1.1,0,2.1,0.2,2.9,0.6C62.3,1,63,1.5,63.6,2.2c0.6,0.7,1,1.5,1.3,2.4s0.4,1.8,0.4,2.8v1.7H61c0-1,0-1.8-0.1-2.5
			c-0.1-0.7-0.3-1.2-0.5-1.6c-0.2-0.4-0.5-0.7-0.8-0.8C59.2,4.1,58.9,4,58.4,4c-0.6,0-1,0.2-1.4,0.6c-0.4,0.4-0.6,1.2-0.6,2.3v13.9
			c0,0.9,0.2,1.6,0.5,2.1c0.3,0.5,0.9,0.8,1.6,0.8c0.9,0,1.5-0.3,1.9-0.9c0.4-0.6,0.5-1.5,0.5-2.9v-2.6h-2.8V13.7z"/>
		<path class="st0" d="M69.8,27.4v-27h4.5v23h7v4H69.8z"/>
		<path class="st0" d="M86.6,27.4h-4.3l4.8-27h5.5l4.8,27H93l-0.8-6h-4.9L86.6,27.4z M88,17.4h3.6L89.8,5.8h-0.1L88,17.4z"/>
		<path class="st0" d="M100,0.4h6.6c2.3,0,4.1,0.7,5.3,2c1.2,1.3,1.8,3.4,1.8,6.2v10.7c0,2.8-0.6,4.9-1.8,6.2c-1.2,1.3-2.9,2-5.3,2
			H100V0.4z M104.4,23.6h1.5c1.2,0,2-0.3,2.5-0.8c0.5-0.5,0.7-1.5,0.7-3V8c0-1.4-0.2-2.4-0.7-3c-0.5-0.5-1.3-0.8-2.5-0.8h-1.5V23.6z
			"/>
		<path class="st0" d="M118,27.4v-27h12v4h-7.5v7h5.8v4h-5.8v7.9h8v4H118z"/>
		<path class="st0" d="M142.1,7c0-0.6-0.2-1.1-0.3-1.4c-0.2-0.4-0.3-0.7-0.6-0.9c-0.2-0.2-0.5-0.4-0.7-0.5c-0.3-0.1-0.5-0.1-0.8-0.1
			c-0.7,0-1.3,0.2-1.7,0.7c-0.4,0.5-0.6,1.1-0.6,2c0,0.8,0.2,1.5,0.7,2.1c0.4,0.6,1,1.3,1.7,1.9c0.7,0.6,1.4,1.3,2.2,2
			c0.8,0.7,1.5,1.4,2.2,2.2c0.7,0.8,1.2,1.7,1.7,2.6c0.4,1,0.7,2.1,0.7,3.3c0,1.1-0.2,2.1-0.5,3c-0.3,0.9-0.8,1.6-1.4,2.2
			c-0.6,0.6-1.4,1-2.2,1.3c-0.9,0.3-1.8,0.4-2.9,0.4c-1,0-2-0.2-2.8-0.6c-0.8-0.4-1.5-0.9-2.1-1.6c-0.6-0.7-1-1.5-1.3-2.4
			c-0.3-0.9-0.5-1.9-0.5-2.9l4.2-0.6c0.1,1.4,0.4,2.4,0.9,3.1s1.1,1,1.8,1c0.8,0,1.4-0.2,1.9-0.6c0.5-0.4,0.7-1,0.7-1.8
			c0-0.9-0.2-1.7-0.7-2.4c-0.4-0.7-1-1.4-1.7-2c-0.7-0.6-1.4-1.3-2.2-1.9c-0.8-0.6-1.5-1.4-2.2-2.1c-0.7-0.8-1.2-1.6-1.7-2.6
			c-0.4-1-0.7-2.1-0.7-3.4c0-2.2,0.6-3.8,1.8-5c1.2-1.2,2.9-1.7,5.1-1.7c0.9,0,1.7,0.2,2.4,0.5c0.7,0.3,1.3,0.8,1.9,1.4
			c0.5,0.6,0.9,1.3,1.3,2.1c0.3,0.8,0.5,1.7,0.6,2.6L142.1,7z"/>
		<path class="st0" d="M149.9,27.4v-27h4.5v11h4.8v-11h4.5v27h-4.5v-12h-4.8v12H149.9z"/>
		<path class="st0" d="M167.6,17v-4.4h4.2V17H167.6z M167.6,27.4V23h4.2v4.4H167.6z"/>
		<path class="st0" d="M188.1,6h-3.5V3.5c1-0.5,2-1.1,2.8-1.6c0.9-0.6,1.7-1.2,2.4-1.8h2.3v27.4h-4V6z"/>
		<path class="st0" d="M207.9,27.4v-27h12.5v4h-8v7h6v4h-6v12H207.9z"/>
		<path class="st0" d="M223.9,27.4v-27h12v4h-7.5v7h5.8v4h-5.8v7.9h8v4H223.9z"/>
		<path class="st0" d="M239.6,27.4v-27h4.5v23h7v4H239.6z"/>
		<path class="st0" d="M253.6,27.4v-27h4.5v23h7v4H253.6z"/>
		<path class="st0" d="M267.8,6.9c0-0.9,0.1-1.8,0.4-2.7c0.3-0.8,0.7-1.6,1.3-2.2c0.6-0.6,1.3-1.1,2.1-1.5c0.9-0.4,1.9-0.5,3-0.5
			c1.2,0,2.2,0.2,3,0.5c0.9,0.4,1.6,0.9,2.1,1.5c0.6,0.6,1,1.4,1.3,2.2c0.3,0.8,0.4,1.7,0.4,2.7v13.9c0,0.9-0.1,1.8-0.4,2.7
			c-0.3,0.8-0.7,1.6-1.3,2.2c-0.6,0.6-1.3,1.1-2.1,1.5s-1.9,0.5-3,0.5c-1.2,0-2.2-0.2-3-0.5s-1.6-0.9-2.1-1.5
			c-0.6-0.6-1-1.4-1.3-2.2c-0.3-0.8-0.4-1.7-0.4-2.7V6.9z M272.3,20.7c0,1,0.2,1.8,0.5,2.3c0.3,0.5,1,0.7,1.9,0.7
			c0.9,0,1.5-0.2,1.9-0.7c0.3-0.5,0.5-1.2,0.5-2.3V7c0-1-0.2-1.8-0.5-2.3c-0.3-0.5-1-0.7-1.9-0.7c-0.9,0-1.5,0.2-1.9,0.7
			c-0.3,0.5-0.5,1.2-0.5,2.3V20.7z"/>
		<path class="st0" d="M293.6,0.4h3.7l3,17.2h0.1l2.5-17.2h4.2l-4.6,27h-3.7l-3.2-17.9h-0.1l-3,17.9h-3.7l-4.9-27h4.2l2.7,17.2h0.1
			L293.6,0.4z"/>
	</g>
</g>
<g id="Layer_2">
</g>
</svg>
