<?xml version="1.0" encoding="utf-8"?>
<!-- Generator: Adobe Illustrator 19.1.0, SVG Export Plug-In . SVG Version: 6.00 Build 0)  -->
<svg version="1.1" xmlns="http://www.w3.org/2000/svg" xmlns:xlink="http://www.w3.org/1999/xlink" x="0px" y="0px"
	 viewBox="0 0 318.4 27.8" style="enable-background:new 0 0 318.4 27.8;" xml:space="preserve">
<style type="text/css">
	.st0{fill:#2B328F;}
</style>
<g id="Layer_1">
	<g>
		<path class="st0" d="M0,27.4v-27h4.1l5.4,15.5h0.1V0.4h4v27H9.8L4.1,10.5H4v16.9H0z"/>
		<path class="st0" d="M18,27.4v-27h12v4h-7.5v7h5.8v4h-5.8v7.9h8v4H18z"/>
		<path class="st0" d="M41.7,0.4h3.7l3,17.2h0.1L51,0.4h4.2l-4.6,27h-3.7L43.6,9.5h-0.1l-3,17.9h-3.7l-4.9-27H36l2.7,17.2h0.1
			L41.7,0.4z"/>
		<path class="st0" d="M66.4,4.4v-4h11.8v4.4L70,23.4h8.2v4H65.4V23l8.3-18.6H66.4z"/>
		<path class="st0" d="M82,27.4v-27h12v4h-7.5v7h5.8v4h-5.8v7.9h8v4H82z"/>
		<path class="st0" d="M97.7,27.4v-27h4.5v23h7v4H97.7z"/>
		<path class="st0" d="M114.5,27.4h-4.3l4.8-27h5.5l4.8,27H121l-0.8-6h-4.9L114.5,27.4z M116,17.4h3.6l-1.8-11.6h-0.1L116,17.4z"/>
		<path class="st0" d="M127.9,27.4v-27h4.1l5.4,15.5h0.1V0.4h4v27h-3.9L132,10.5H132v16.9H127.9z"/>
		<path class="st0" d="M145.9,0.4h6.6c2.3,0,4.1,0.7,5.3,2c1.2,1.3,1.8,3.4,1.8,6.2v10.7c0,2.8-0.6,4.9-1.8,6.2
			c-1.2,1.3-2.9,2-5.3,2h-6.6V0.4z M150.4,23.6h1.5c1.2,0,2-0.3,2.5-0.8c0.5-0.5,0.7-1.5,0.7-3V8c0-1.4-0.2-2.4-0.7-3
			c-0.5-0.5-1.3-0.8-2.5-0.8h-1.5V23.6z"/>
		<path class="st0" d="M163.6,17v-4.4h4.2V17H163.6z M163.6,27.4V23h4.2v4.4H163.6z"/>
		<path class="st0" d="M186.1,20.9h-7.8v-3.4l7.6-17.1h4.3v17.1h2.4v3.4h-2.4v6.5h-4.1V20.9z M186.2,17.4V6.9h-0.1l-4.4,10.6H186.2z
			"/>
		<path class="st0" d="M203.9,27.4v-27h12.5v4h-8v7h6v4h-6v12H203.9z"/>
		<path class="st0" d="M219.9,27.4v-27h12v4h-7.5v7h5.8v4h-5.8v7.9h8v4H219.9z"/>
		<path class="st0" d="M235.6,27.4v-27h4.5v23h7v4H235.6z"/>
		<path class="st0" d="M249.6,27.4v-27h4.5v23h7v4H249.6z"/>
		<path class="st0" d="M263.8,6.9c0-0.9,0.1-1.8,0.4-2.7c0.3-0.8,0.7-1.6,1.3-2.2c0.6-0.6,1.3-1.1,2.1-1.5c0.9-0.4,1.9-0.5,3-0.5
			c1.2,0,2.2,0.2,3,0.5c0.9,0.4,1.6,0.9,2.1,1.5c0.6,0.6,1,1.4,1.3,2.2c0.3,0.8,0.4,1.7,0.4,2.7v13.9c0,0.9-0.1,1.8-0.4,2.7
			c-0.3,0.8-0.7,1.6-1.3,2.2c-0.6,0.6-1.3,1.1-2.1,1.5c-0.9,0.4-1.9,0.5-3,0.5c-1.2,0-2.2-0.2-3-0.5s-1.6-0.9-2.1-1.5
			c-0.6-0.6-1-1.4-1.3-2.2c-0.3-0.8-0.4-1.7-0.4-2.7V6.9z M268.3,20.7c0,1,0.2,1.8,0.5,2.3c0.3,0.5,1,0.7,1.9,0.7
			c0.9,0,1.5-0.2,1.9-0.7c0.3-0.5,0.5-1.2,0.5-2.3V7c0-1-0.2-1.8-0.5-2.3c-0.3-0.5-1-0.7-1.9-0.7c-0.9,0-1.5,0.2-1.9,0.7
			c-0.3,0.5-0.5,1.2-0.5,2.3V20.7z"/>
		<path class="st0" d="M289.6,0.4h3.7l3,17.2h0.1l2.5-17.2h4.2l-4.6,27h-3.7l-3.2-17.9h-0.1l-3,17.9h-3.7l-4.9-27h4.2l2.7,17.2h0.1
			L289.6,0.4z"/>
		<path class="st0" d="M314,7c0-0.6-0.2-1.1-0.3-1.4c-0.2-0.4-0.3-0.7-0.6-0.9s-0.5-0.4-0.7-0.5c-0.3-0.1-0.5-0.1-0.8-0.1
			c-0.7,0-1.3,0.2-1.7,0.7c-0.4,0.5-0.6,1.1-0.6,2c0,0.8,0.2,1.5,0.7,2.1c0.4,0.6,1,1.3,1.7,1.9c0.7,0.6,1.4,1.3,2.2,2
			c0.8,0.7,1.5,1.4,2.2,2.2c0.7,0.8,1.2,1.7,1.7,2.6c0.4,1,0.7,2.1,0.7,3.3c0,1.1-0.2,2.1-0.5,3c-0.3,0.9-0.8,1.6-1.4,2.2
			c-0.6,0.6-1.4,1-2.2,1.3c-0.9,0.3-1.8,0.4-2.9,0.4c-1,0-2-0.2-2.8-0.6c-0.8-0.4-1.5-0.9-2.1-1.6c-0.6-0.7-1-1.5-1.3-2.4
			c-0.3-0.9-0.5-1.9-0.5-2.9l4.2-0.6c0.1,1.4,0.4,2.4,0.9,3.1c0.5,0.7,1.1,1,1.8,1c0.8,0,1.4-0.2,1.9-0.6c0.5-0.4,0.7-1,0.7-1.8
			c0-0.9-0.2-1.7-0.7-2.4c-0.4-0.7-1-1.4-1.7-2c-0.7-0.6-1.4-1.3-2.2-1.9c-0.8-0.6-1.5-1.4-2.2-2.1c-0.7-0.8-1.2-1.6-1.7-2.6
			c-0.4-1-0.7-2.1-0.7-3.4c0-2.2,0.6-3.8,1.8-5c1.2-1.2,2.9-1.7,5.1-1.7c0.9,0,1.7,0.2,2.4,0.5c0.7,0.3,1.3,0.8,1.9,1.4
			c0.5,0.6,0.9,1.3,1.3,2.1s0.5,1.7,0.6,2.6L314,7z"/>
	</g>
</g>
<g id="Layer_2">
</g>
</svg>
