<?xml version="1.0" encoding="utf-8"?>
<!-- Generator: Adobe Illustrator 19.1.0, SVG Export Plug-In . SVG Version: 6.00 Build 0)  -->
<svg version="1.1" id="Layer_1" xmlns="http://www.w3.org/2000/svg" xmlns:xlink="http://www.w3.org/1999/xlink" x="0px" y="0px"
	 viewBox="-456.5 383.2 252 27.8" style="enable-background:new -456.5 383.2 252 27.8;" xml:space="preserve">
<style type="text/css">
	.st0{fill:#2B328F;}
</style>
<g id="Layer_2">
</g>
<g>
	<path class="st0" d="M-453.6,410.6v-27h4.2l5.5,15.4h0.1v-15.4h4.1v27h-3.9l-5.7-16.8h-0.1v16.8H-453.6z"/>
	<path class="st0" d="M-434.9,410.6v-27h4.5v27H-434.9z"/>
	<path class="st0" d="M-419.2,396.9h7.3v13.7h-2.2l-0.8-2c-0.7,0.8-1.3,1.4-2,1.8c-0.6,0.4-1.5,0.6-2.6,0.6c-1.8,0-3.2-0.6-4.3-1.8
		c-1.1-1.2-1.7-2.9-1.7-5.1v-13.9c0-0.9,0.1-1.8,0.4-2.7c0.3-0.8,0.7-1.6,1.2-2.2c0.5-0.6,1.2-1.1,2-1.5c0.8-0.4,1.8-0.5,2.9-0.5
		c1.1,0,2.1,0.2,2.9,0.6c0.8,0.4,1.6,0.9,2.1,1.6c0.6,0.7,1,1.5,1.3,2.4c0.3,0.9,0.4,1.8,0.4,2.8v1.7h-4.3c0-1,0-1.8-0.1-2.5
		c-0.1-0.7-0.3-1.2-0.5-1.6c-0.2-0.4-0.5-0.7-0.8-0.8s-0.7-0.2-1.1-0.2c-0.6,0-1,0.2-1.4,0.6c-0.4,0.4-0.6,1.2-0.6,2.3v13.9
		c0,0.9,0.2,1.6,0.5,2.1c0.3,0.5,0.9,0.8,1.6,0.8c0.9,0,1.6-0.3,1.9-0.9c0.4-0.6,0.5-1.5,0.5-2.9v-2.6h-2.9V396.9z"/>
	<path class="st0" d="M-407.3,410.6v-27h12v4h-7.5v6.9h5.8v4h-5.8v7.9h8v4H-407.3z"/>
	<path class="st0" d="M-386.7,410.6h-4.5v-27h6.3c2.5,0,4.4,0.6,5.7,1.8c1.3,1.2,1.9,3.3,1.9,6.1c0,1.1-0.1,2-0.3,2.8
		c-0.2,0.8-0.4,1.4-0.7,2c-0.3,0.5-0.6,1-1,1.3c-0.4,0.3-0.8,0.6-1.1,0.7l3.8,12.2h-4.6l-3.2-11.2c-0.3,0.1-0.6,0.1-1.1,0.1
		c-0.4,0-0.8,0-1.2,0V410.6z M-386.7,395.7h1.6c0.6,0,1.1-0.1,1.5-0.2c0.4-0.1,0.8-0.3,1-0.7c0.3-0.3,0.5-0.8,0.6-1.3
		c0.1-0.5,0.2-1.2,0.2-2c0-1.6-0.3-2.7-0.8-3.3c-0.5-0.6-1.4-0.9-2.6-0.9h-1.6V395.7z"/>
	<path class="st0" d="M-372.5,410.6v-27h4.5v27H-372.5z"/>
	<path class="st0" d="M-360.5,410.6h-4.3l4.8-27h5.6l4.8,27h-4.3l-0.8-6h-4.9L-360.5,410.6z M-359,400.6h3.6l-1.8-11.6h-0.1
		L-359,400.6z"/>
	<path class="st0" d="M-347.3,400.2v-4.4h4.3v4.4H-347.3z M-347.3,410.6v-4.4h4.3v4.4H-347.3z"/>
	<path class="st0" d="M-326.7,389.2h-3.5v-2.5c1-0.5,2-1.1,2.9-1.6c0.9-0.6,1.7-1.2,2.5-1.8h2.3v27.3h-4.1V389.2z"/>
	<path class="st0" d="M-306.8,410.6v-27h12.5v4h-8v6.9h6v4h-6v12H-306.8z"/>
	<path class="st0" d="M-290.7,410.6v-27h12v4h-7.5v6.9h5.8v4h-5.8v7.9h8v4H-290.7z"/>
	<path class="st0" d="M-274.9,410.6v-27h4.5v22.9h7.1v4H-274.9z"/>
	<path class="st0" d="M-260.8,410.6v-27h4.5v22.9h7.1v4H-260.8z"/>
	<path class="st0" d="M-246.5,390.2c0-0.9,0.1-1.8,0.4-2.7c0.3-0.8,0.7-1.6,1.3-2.2c0.6-0.6,1.3-1.1,2.1-1.5
		c0.9-0.4,1.9-0.5,3.1-0.5s2.2,0.2,3.1,0.5c0.9,0.4,1.6,0.9,2.1,1.5c0.6,0.6,1,1.4,1.3,2.2c0.3,0.8,0.4,1.7,0.4,2.7v13.9
		c0,0.9-0.1,1.8-0.4,2.7c-0.3,0.8-0.7,1.6-1.3,2.2c-0.6,0.6-1.3,1.1-2.1,1.5c-0.9,0.4-1.9,0.5-3.1,0.5s-2.2-0.2-3.1-0.5
		c-0.9-0.4-1.6-0.9-2.1-1.5c-0.6-0.6-1-1.4-1.3-2.2c-0.3-0.8-0.4-1.7-0.4-2.7V390.2z M-242,404c0,1,0.2,1.8,0.5,2.3s1,0.7,1.9,0.7
		s1.5-0.2,1.9-0.7c0.3-0.5,0.5-1.2,0.5-2.3v-13.7c0-1-0.2-1.8-0.5-2.3c-0.3-0.5-1-0.7-1.9-0.7s-1.5,0.2-1.9,0.7
		c-0.3,0.5-0.5,1.2-0.5,2.3V404z"/>
	<path class="st0" d="M-220.6,383.6h3.7l3,17.2h0.1l2.5-17.2h4.2l-4.6,27h-3.8l-3.3-17.8h-0.1l-3,17.8h-3.8l-5-27h4.2l2.8,17.2h0.1
		L-220.6,383.6z"/>
</g>
</svg>
