<?xml version="1.0" encoding="utf-8"?>
<!-- Generator: Adobe Illustrator 19.1.0, SVG Export Plug-In . SVG Version: 6.00 Build 0)  -->
<svg version="1.1" xmlns="http://www.w3.org/2000/svg" xmlns:xlink="http://www.w3.org/1999/xlink" x="0px" y="0px"
	 viewBox="0 0 249.1 27.8" style="enable-background:new 0 0 249.1 27.8;" xml:space="preserve">
<style type="text/css">
	.st0{fill:#2B328F;}
</style>
<g id="Layer_1">
	<g>
		<path class="st0" d="M0,27.4v-27h12.5v4h-8v7h6v4h-6v12H0z"/>
		<path class="st0" d="M16.6,27.4v-27h4.5v27H16.6z"/>
		<path class="st0" d="M26,27.4v-27h4.1l5.4,15.5h0.1V0.4h4v27h-3.9l-5.7-16.9H30v16.9H26z"/>
		<path class="st0" d="M43.8,27.4v-27h4.5v23h7v4H43.8z"/>
		<path class="st0" d="M60.6,27.4h-4.3l4.8-27h5.5l4.8,27h-4.3l-0.8-6h-4.9L60.6,27.4z M62,17.4h3.6L63.9,5.8h-0.1L62,17.4z"/>
		<path class="st0" d="M74,27.4v-27h4.1l5.4,15.5h0.1V0.4h4v27h-3.9l-5.7-16.9H78v16.9H74z"/>
		<path class="st0" d="M92,0.4h6.6c2.3,0,4.1,0.7,5.3,2c1.2,1.3,1.8,3.4,1.8,6.2v10.7c0,2.8-0.6,4.9-1.8,6.2c-1.2,1.3-2.9,2-5.3,2
			H92V0.4z M96.4,23.6H98c1.2,0,2-0.3,2.5-0.8c0.5-0.5,0.7-1.5,0.7-3V8c0-1.4-0.2-2.4-0.7-3C100,4.5,99.2,4.2,98,4.2h-1.5V23.6z"/>
		<path class="st0" d="M109.7,17v-4.4h4.2V17H109.7z M109.7,27.4V23h4.2v4.4H109.7z"/>
		<path class="st0" d="M130.2,6h-3.5V3.5c1-0.5,2-1.1,2.8-1.6c0.9-0.6,1.7-1.2,2.4-1.8h2.3v27.4h-4V6z"/>
		<path class="st0" d="M149.9,27.4v-27h12.5v4h-8v7h6v4h-6v12H149.9z"/>
		<path class="st0" d="M165.9,27.4v-27h12v4h-7.5v7h5.8v4h-5.8v7.9h8v4H165.9z"/>
		<path class="st0" d="M181.7,27.4v-27h4.5v23h7v4H181.7z"/>
		<path class="st0" d="M195.7,27.4v-27h4.5v23h7v4H195.7z"/>
		<path class="st0" d="M209.9,6.9c0-0.9,0.1-1.8,0.4-2.7c0.3-0.8,0.7-1.6,1.3-2.2c0.6-0.6,1.3-1.1,2.1-1.5c0.9-0.4,1.9-0.5,3-0.5
			c1.2,0,2.2,0.2,3,0.5c0.9,0.4,1.6,0.9,2.1,1.5c0.6,0.6,1,1.4,1.3,2.2c0.3,0.8,0.4,1.7,0.4,2.7v13.9c0,0.9-0.1,1.8-0.4,2.7
			c-0.3,0.8-0.7,1.6-1.3,2.2c-0.6,0.6-1.3,1.1-2.1,1.5s-1.9,0.5-3,0.5c-1.2,0-2.2-0.2-3-0.5s-1.6-0.9-2.1-1.5
			c-0.6-0.6-1-1.4-1.3-2.2c-0.3-0.8-0.4-1.7-0.4-2.7V6.9z M214.4,20.7c0,1,0.2,1.8,0.5,2.3c0.3,0.5,1,0.7,1.9,0.7
			c0.9,0,1.5-0.2,1.9-0.7c0.3-0.5,0.5-1.2,0.5-2.3V7c0-1-0.2-1.8-0.5-2.3c-0.3-0.5-1-0.7-1.9-0.7c-0.9,0-1.5,0.2-1.9,0.7
			c-0.3,0.5-0.5,1.2-0.5,2.3V20.7z"/>
		<path class="st0" d="M235.6,0.4h3.7l3,17.2h0.1l2.5-17.2h4.2l-4.6,27h-3.7l-3.2-17.9h-0.1l-3,17.9h-3.7l-4.9-27h4.2l2.7,17.2h0.1
			L235.6,0.4z"/>
	</g>
</g>
<g id="Layer_2">
</g>
</svg>
