<?xml version="1.0" encoding="utf-8"?>
<!-- Generator: Adobe Illustrator 19.1.0, SVG Export Plug-In . SVG Version: 6.00 Build 0)  -->
<svg version="1.1" xmlns="http://www.w3.org/2000/svg" xmlns:xlink="http://www.w3.org/1999/xlink" x="0px" y="0px"
	 viewBox="0 0 291.3 27.8" style="enable-background:new 0 0 291.3 27.8;" xml:space="preserve">
<style type="text/css">
	.st0{fill:#2B328F;}
</style>
<g id="Layer_1">
	<g>
		<path class="st0" d="M18.1,0.4v27h-3.9V6.3h-0.1l-4,21.1H8L4,6.3H3.9v21.1H0v-27h5.9L9,16.2h0.1l3.2-15.8H18.1z"/>
		<path class="st0" d="M24.8,27.4h-4.3l4.8-27h5.5l4.8,27h-4.3l-0.8-6h-4.9L24.8,27.4z M26.3,17.4h3.6L28.1,5.8H28L26.3,17.4z"/>
		<path class="st0" d="M47.2,9.4V7.3c0-1.1-0.2-2-0.6-2.5C46.1,4.3,45.6,4,45.1,4c-0.9,0-1.5,0.2-1.9,0.7C42.9,5.3,42.7,6,42.7,7
			v13.7c0,1,0.2,1.8,0.5,2.3c0.3,0.5,1,0.7,1.9,0.7c0.8,0,1.4-0.2,1.7-0.7c0.3-0.5,0.5-1.1,0.5-2v-3.3h4.5v3.1
			c0,0.9-0.1,1.8-0.4,2.7c-0.3,0.8-0.7,1.6-1.2,2.2c-0.5,0.6-1.2,1.1-2.1,1.5c-0.8,0.4-1.8,0.5-2.9,0.5c-1.2,0-2.2-0.2-3-0.5
			c-0.9-0.4-1.6-0.9-2.1-1.5c-0.6-0.6-1-1.4-1.3-2.2c-0.3-0.8-0.4-1.7-0.4-2.7V6.9c0-0.9,0.1-1.8,0.4-2.7c0.3-0.8,0.7-1.6,1.3-2.2
			c0.6-0.6,1.3-1.1,2.1-1.5c0.9-0.4,1.9-0.5,3-0.5c1.1,0,2.1,0.2,2.9,0.6c0.8,0.4,1.5,0.9,2.1,1.6s0.9,1.5,1.2,2.4
			c0.3,0.9,0.4,1.8,0.4,2.8v2H47.2z"/>
		<path class="st0" d="M56.2,27.4v-27h12v4h-7.5v7h5.8v4h-5.8v7.9h8v4H56.2z"/>
		<path class="st0" d="M72.2,0.4h6.6c2.3,0,4.1,0.7,5.3,2c1.2,1.3,1.8,3.4,1.8,6.2v10.7c0,2.8-0.6,4.9-1.8,6.2s-2.9,2-5.3,2h-6.6
			V0.4z M76.7,23.6h1.5c1.2,0,2-0.3,2.5-0.8c0.5-0.5,0.7-1.5,0.7-3V8c0-1.4-0.2-2.4-0.7-3c-0.5-0.5-1.3-0.8-2.5-0.8h-1.5V23.6z"/>
		<path class="st0" d="M90.2,6.9c0-0.9,0.1-1.8,0.4-2.7c0.3-0.8,0.7-1.6,1.3-2.2c0.6-0.6,1.3-1.1,2.1-1.5C94.9,0.2,95.9,0,97,0
			s2.2,0.2,3,0.5c0.9,0.4,1.6,0.9,2.1,1.5c0.6,0.6,1,1.4,1.3,2.2c0.3,0.8,0.4,1.7,0.4,2.7v13.9c0,0.9-0.1,1.8-0.4,2.7
			c-0.3,0.8-0.7,1.6-1.3,2.2c-0.6,0.6-1.3,1.1-2.1,1.5c-0.9,0.4-1.9,0.5-3,0.5s-2.2-0.2-3-0.5c-0.9-0.4-1.6-0.9-2.1-1.5
			c-0.6-0.6-1-1.4-1.3-2.2c-0.3-0.8-0.4-1.7-0.4-2.7V6.9z M94.7,20.7c0,1,0.2,1.8,0.5,2.3c0.3,0.5,1,0.7,1.9,0.7s1.5-0.2,1.9-0.7
			c0.3-0.5,0.5-1.2,0.5-2.3V7c0-1-0.2-1.8-0.5-2.3C98.6,4.3,98,4,97,4s-1.5,0.2-1.9,0.7C94.8,5.3,94.7,6,94.7,7V20.7z"/>
		<path class="st0" d="M108.2,27.4v-27h4.1l5.4,15.5h0.1V0.4h4v27H118l-5.7-16.9h-0.1v16.9H108.2z"/>
		<path class="st0" d="M126.8,27.4v-27h4.5v27H126.8z"/>
		<path class="st0" d="M138.8,27.4h-4.3l4.8-27h5.5l4.8,27h-4.3l-0.8-6h-4.9L138.8,27.4z M140.2,17.4h3.6l-1.8-11.6H142L140.2,17.4z
			"/>
		<path class="st0" d="M151.9,17v-4.4h4.2V17H151.9z M151.9,27.4V23h4.2v4.4H151.9z"/>
		<path class="st0" d="M172.4,6h-3.5V3.5c1-0.5,2-1.1,2.8-1.6c0.9-0.6,1.7-1.2,2.4-1.8h2.3v27.4h-4V6z"/>
		<path class="st0" d="M192.1,27.4v-27h12.5v4h-8v7h6v4h-6v12H192.1z"/>
		<path class="st0" d="M208.1,27.4v-27h12v4h-7.5v7h5.8v4h-5.8v7.9h8v4H208.1z"/>
		<path class="st0" d="M223.9,27.4v-27h4.5v23h7v4H223.9z"/>
		<path class="st0" d="M237.9,27.4v-27h4.5v23h7v4H237.9z"/>
		<path class="st0" d="M252.1,6.9c0-0.9,0.1-1.8,0.4-2.7c0.3-0.8,0.7-1.6,1.3-2.2c0.6-0.6,1.3-1.1,2.1-1.5c0.9-0.4,1.9-0.5,3-0.5
			s2.2,0.2,3,0.5c0.9,0.4,1.6,0.9,2.1,1.5c0.6,0.6,1,1.4,1.3,2.2c0.3,0.8,0.4,1.7,0.4,2.7v13.9c0,0.9-0.1,1.8-0.4,2.7
			c-0.3,0.8-0.7,1.6-1.3,2.2c-0.6,0.6-1.3,1.1-2.1,1.5c-0.9,0.4-1.9,0.5-3,0.5s-2.2-0.2-3-0.5c-0.9-0.4-1.6-0.9-2.1-1.5
			c-0.6-0.6-1-1.4-1.3-2.2c-0.3-0.8-0.4-1.7-0.4-2.7V6.9z M256.6,20.7c0,1,0.2,1.8,0.5,2.3c0.3,0.5,1,0.7,1.9,0.7s1.5-0.2,1.9-0.7
			c0.3-0.5,0.5-1.2,0.5-2.3V7c0-1-0.2-1.8-0.5-2.3c-0.3-0.5-1-0.7-1.9-0.7s-1.5,0.2-1.9,0.7c-0.3,0.5-0.5,1.2-0.5,2.3V20.7z"/>
		<path class="st0" d="M277.8,0.4h3.7l3,17.2h0.1l2.5-17.2h4.2l-4.6,27H283l-3.2-17.9h-0.1l-3,17.9h-3.7l-4.9-27h4.2l2.7,17.2h0.1
			L277.8,0.4z"/>
	</g>
</g>
<g id="Layer_2">
</g>
</svg>
