<?xml version="1.0" encoding="utf-8"?>
<!-- Generator: Adobe Illustrator 19.1.0, SVG Export Plug-In . SVG Version: 6.00 Build 0)  -->
<svg version="1.1" xmlns="http://www.w3.org/2000/svg" xmlns:xlink="http://www.w3.org/1999/xlink" x="0px" y="0px"
	 viewBox="0 0 280.2 27.8" style="enable-background:new 0 0 280.2 27.8;" xml:space="preserve">
<style type="text/css">
	.st0{fill:#2B328F;}
</style>
<g id="Layer_1">
	<g>
		<path class="st0" d="M4.3,4.4H0v-4h13.1v4H8.8v23H4.3V4.4z"/>
		<path class="st0" d="M15.7,27.4v-27h4.5v11h4.8v-11h4.5v27h-4.5v-12h-4.8v12H15.7z"/>
		<path class="st0" d="M36.3,27.4H32l4.8-27h5.5l4.8,27h-4.3l-0.8-6h-4.9L36.3,27.4z M37.8,17.4h3.6L39.6,5.8h-0.1L37.8,17.4z"/>
		<path class="st0" d="M50.3,27.4v-27h4.5v27H50.3z"/>
		<path class="st0" d="M59.5,27.4v-27H64v23h7v4H59.5z"/>
		<path class="st0" d="M76.3,27.4H72l4.8-27h5.5l4.8,27h-4.3l-0.8-6h-4.9L76.3,27.4z M77.8,17.4h3.6L79.6,5.8h-0.1L77.8,17.4z"/>
		<path class="st0" d="M89.7,27.4v-27h4.1l5.4,15.5h0.1V0.4h4v27h-3.9l-5.7-16.9h-0.1v16.9H89.7z"/>
		<path class="st0" d="M107.7,0.4h6.6c2.3,0,4.1,0.7,5.3,2c1.2,1.3,1.8,3.4,1.8,6.2v10.7c0,2.8-0.6,4.9-1.8,6.2s-2.9,2-5.3,2h-6.6
			V0.4z M112.2,23.6h1.5c1.2,0,2-0.3,2.5-0.8c0.5-0.5,0.7-1.5,0.7-3V8c0-1.4-0.2-2.4-0.7-3c-0.5-0.5-1.3-0.8-2.5-0.8h-1.5V23.6z"/>
		<path class="st0" d="M125.4,17v-4.4h4.2V17H125.4z M125.4,27.4V23h4.2v4.4H125.4z"/>
		<path class="st0" d="M145.2,19.6v1.8c0,0.8,0.2,1.5,0.5,2c0.3,0.5,0.8,0.7,1.5,0.7c0.6,0,1.2-0.2,1.5-0.7c0.4-0.5,0.6-1.3,0.6-2.4
			v-2.1c0-1.5-0.3-2.5-0.9-3s-1.6-0.8-2.9-0.8v-3.7c0.6,0,1.2-0.1,1.7-0.2c0.5-0.1,0.8-0.3,1.1-0.7c0.3-0.3,0.5-0.7,0.6-1.3
			c0.1-0.5,0.2-1.2,0.2-2c0-1.3-0.1-2.2-0.4-2.8c-0.3-0.6-0.7-0.8-1.4-0.8c-0.6,0-1.1,0.2-1.5,0.6c-0.4,0.4-0.5,1.1-0.5,2.2v1.1h-4
			V6.3c0-0.9,0.1-1.8,0.4-2.5s0.7-1.4,1.2-2c0.5-0.6,1.2-1,1.9-1.3s1.6-0.5,2.6-0.5c1,0,1.8,0.2,2.5,0.6c0.7,0.4,1.3,0.9,1.8,1.5
			c0.5,0.6,0.9,1.4,1.1,2.2c0.2,0.8,0.4,1.7,0.4,2.6c0,1.6-0.2,2.8-0.5,3.8c-0.4,1-1.1,1.8-2.3,2.4c0.6,0.3,1.2,0.7,1.6,1.1
			c0.4,0.4,0.7,0.9,1,1.4s0.4,1.1,0.5,1.8s0.1,1.5,0.1,2.4c0,2.7-0.5,4.7-1.6,6c-1,1.3-2.7,1.9-4.9,1.9c-1.8,0-3.3-0.5-4.4-1.6
			c-1.1-1-1.6-2.7-1.6-5v-1.6H145.2z"/>
		<path class="st0" d="M165.6,27.4v-27h12.5v4h-8v7h6v4h-6v12H165.6z"/>
		<path class="st0" d="M181.6,27.4v-27h12v4h-7.5v7h5.8v4h-5.8v7.9h8v4H181.6z"/>
		<path class="st0" d="M197.4,27.4v-27h4.5v23h7v4H197.4z"/>
		<path class="st0" d="M211.4,27.4v-27h4.5v23h7v4H211.4z"/>
		<path class="st0" d="M225.6,6.9c0-0.9,0.1-1.8,0.4-2.7c0.3-0.8,0.7-1.6,1.3-2.2c0.6-0.6,1.3-1.1,2.1-1.5c0.9-0.4,1.9-0.5,3-0.5
			c1.2,0,2.2,0.2,3,0.5c0.9,0.4,1.6,0.9,2.1,1.5c0.6,0.6,1,1.4,1.3,2.2c0.3,0.8,0.4,1.7,0.4,2.7v13.9c0,0.9-0.1,1.8-0.4,2.7
			c-0.3,0.8-0.7,1.6-1.3,2.2c-0.6,0.6-1.3,1.1-2.1,1.5s-1.9,0.5-3,0.5c-1.2,0-2.2-0.2-3-0.5s-1.6-0.9-2.1-1.5
			c-0.6-0.6-1-1.4-1.3-2.2c-0.3-0.8-0.4-1.7-0.4-2.7V6.9z M230.1,20.7c0,1,0.2,1.8,0.5,2.3c0.3,0.5,1,0.7,1.9,0.7
			c0.9,0,1.5-0.2,1.9-0.7c0.3-0.5,0.5-1.2,0.5-2.3V7c0-1-0.2-1.8-0.5-2.3c-0.3-0.5-1-0.7-1.9-0.7c-0.9,0-1.5,0.2-1.9,0.7
			c-0.3,0.5-0.5,1.2-0.5,2.3V20.7z"/>
		<path class="st0" d="M251.4,0.4h3.7l3,17.2h0.1l2.5-17.2h4.2l-4.6,27h-3.7l-3.2-17.9h-0.1l-3,17.9h-3.7l-4.9-27h4.2l2.7,17.2h0.1
			L251.4,0.4z"/>
		<path class="st0" d="M275.8,7c0-0.6-0.2-1.1-0.3-1.4c-0.2-0.4-0.3-0.7-0.6-0.9c-0.2-0.2-0.5-0.4-0.7-0.5c-0.3-0.1-0.5-0.1-0.8-0.1
			c-0.7,0-1.3,0.2-1.7,0.7c-0.4,0.5-0.6,1.1-0.6,2c0,0.8,0.2,1.5,0.7,2.1c0.4,0.6,1,1.3,1.7,1.9c0.7,0.6,1.4,1.3,2.2,2
			c0.8,0.7,1.5,1.4,2.2,2.2c0.7,0.8,1.2,1.7,1.7,2.6c0.4,1,0.7,2.1,0.7,3.3c0,1.1-0.2,2.1-0.5,3c-0.3,0.9-0.8,1.6-1.4,2.2
			c-0.6,0.6-1.4,1-2.2,1.3c-0.9,0.3-1.8,0.4-2.9,0.4c-1,0-2-0.2-2.8-0.6c-0.8-0.4-1.5-0.9-2.1-1.6c-0.6-0.7-1-1.5-1.3-2.4
			c-0.3-0.9-0.5-1.9-0.5-2.9l4.2-0.6c0.1,1.4,0.4,2.4,0.9,3.1c0.5,0.7,1.1,1,1.8,1c0.8,0,1.4-0.2,1.9-0.6c0.5-0.4,0.7-1,0.7-1.8
			c0-0.9-0.2-1.7-0.7-2.4c-0.4-0.7-1-1.4-1.7-2c-0.7-0.6-1.4-1.3-2.2-1.9c-0.8-0.6-1.5-1.4-2.2-2.1c-0.7-0.8-1.2-1.6-1.7-2.6
			c-0.4-1-0.7-2.1-0.7-3.4c0-2.2,0.6-3.8,1.8-5c1.2-1.2,2.9-1.7,5.1-1.7c0.9,0,1.7,0.2,2.4,0.5c0.7,0.3,1.3,0.8,1.9,1.4
			c0.5,0.6,0.9,1.3,1.3,2.1s0.5,1.7,0.6,2.6L275.8,7z"/>
	</g>
</g>
<g id="Layer_2">
</g>
</svg>
