<?xml version="1.0" encoding="utf-8"?>
<!-- Generator: Adobe Illustrator 19.1.0, SVG Export Plug-In . SVG Version: 6.00 Build 0)  -->
<svg version="1.1" xmlns="http://www.w3.org/2000/svg" xmlns:xlink="http://www.w3.org/1999/xlink" x="0px" y="0px"
	 viewBox="0 0 240 27.8" style="enable-background:new 0 0 240 27.8;" xml:space="preserve">
<style type="text/css">
	.st0{fill:#2B328F;}
</style>
<g id="Layer_1">
	<g>
		<path class="st0" d="M18.1,0.4v27h-3.9V6.3h-0.1l-4,21.1H8L4,6.3H3.9v21.1H0v-27h5.9L9,16.2h0.1l3.2-15.8H18.1z"/>
		<path class="st0" d="M24.8,27.4h-4.3l4.8-27h5.5l4.8,27h-4.3l-0.8-6h-4.9L24.8,27.4z M26.3,17.4h3.6L28.1,5.8H28L26.3,17.4z"/>
		<path class="st0" d="M38,27.4v-27h4.5v23h7v4H38z"/>
		<path class="st0" d="M54.8,27.4h-4.3l4.8-27h5.5l4.8,27h-4.3l-0.8-6h-4.9L54.8,27.4z M56.3,17.4h3.6L58.1,5.8H58L56.3,17.4z"/>
		<path class="st0" d="M74.6,0.4h3.7l3,17.2h0.1l2.5-17.2H88l-4.6,27h-3.7L76.5,9.5h-0.1l-3,17.9h-3.7l-4.9-27h4.2l2.7,17.2h0.1
			L74.6,0.4z"/>
		<path class="st0" d="M91.5,27.4v-27H96v27H91.5z"/>
		<path class="st0" d="M100.6,17v-4.4h4.2V17H100.6z M100.6,27.4V23h4.2v4.4H100.6z"/>
		<path class="st0" d="M121.1,6h-3.5V3.5c1-0.5,2-1.1,2.8-1.6c0.9-0.6,1.7-1.2,2.4-1.8h2.3v27.4h-4V6z"/>
		<path class="st0" d="M140.8,27.4v-27h12.5v4h-8v7h6v4h-6v12H140.8z"/>
		<path class="st0" d="M156.8,27.4v-27h12v4h-7.5v7h5.8v4h-5.8v7.9h8v4H156.8z"/>
		<path class="st0" d="M172.6,27.4v-27h4.5v23h7v4H172.6z"/>
		<path class="st0" d="M186.6,27.4v-27h4.5v23h7v4H186.6z"/>
		<path class="st0" d="M200.8,6.9c0-0.9,0.1-1.8,0.4-2.7c0.3-0.8,0.7-1.6,1.3-2.2c0.6-0.6,1.3-1.1,2.1-1.5c0.9-0.4,1.9-0.5,3-0.5
			c1.2,0,2.2,0.2,3,0.5c0.9,0.4,1.6,0.9,2.1,1.5c0.6,0.6,1,1.4,1.3,2.2c0.3,0.8,0.4,1.7,0.4,2.7v13.9c0,0.9-0.1,1.8-0.4,2.7
			c-0.3,0.8-0.7,1.6-1.3,2.2c-0.6,0.6-1.3,1.1-2.1,1.5s-1.9,0.5-3,0.5c-1.2,0-2.2-0.2-3-0.5s-1.6-0.9-2.1-1.5
			c-0.6-0.6-1-1.4-1.3-2.2c-0.3-0.8-0.4-1.7-0.4-2.7V6.9z M205.3,20.7c0,1,0.2,1.8,0.5,2.3c0.3,0.5,1,0.7,1.9,0.7
			c0.9,0,1.5-0.2,1.9-0.7c0.3-0.5,0.5-1.2,0.5-2.3V7c0-1-0.2-1.8-0.5-2.3c-0.3-0.5-1-0.7-1.9-0.7c-0.9,0-1.5,0.2-1.9,0.7
			c-0.3,0.5-0.5,1.2-0.5,2.3V20.7z"/>
		<path class="st0" d="M226.6,0.4h3.7l3,17.2h0.1l2.5-17.2h4.2l-4.6,27h-3.7l-3.2-17.9h-0.1l-3,17.9h-3.7l-4.9-27h4.2l2.7,17.2h0.1
			L226.6,0.4z"/>
	</g>
</g>
<g id="Layer_2">
</g>
</svg>
