<?xml version="1.0" encoding="utf-8"?>
<!-- Generator: Adobe Illustrator 19.1.0, SVG Export Plug-In . SVG Version: 6.00 Build 0)  -->
<svg version="1.1" xmlns="http://www.w3.org/2000/svg" xmlns:xlink="http://www.w3.org/1999/xlink" x="0px" y="0px"
	 viewBox="0 0 249.4 27.8" style="enable-background:new 0 0 249.4 27.8;" xml:space="preserve">
<style type="text/css">
	.st0{fill:#2B328F;}
</style>
<g id="Layer_1">
	<g>
		<path class="st0" d="M0,27.4v-27h4.5v10h0.1l4.7-10h4.5L8.9,10.4l5.4,17H9.8L6.1,14.8H6l-1.6,3v9.6H0z"/>
		<path class="st0" d="M16.2,0.4h4.5v20.4c0,2,0.8,3,2.4,3s2.4-1,2.4-3V0.4h4.5v20.2c0,2.3-0.6,4.1-1.8,5.4c-1.2,1.2-2.9,1.8-5,1.8
			s-3.8-0.6-5-1.8c-1.2-1.2-1.8-3-1.8-5.4V0.4z"/>
		<path class="st0" d="M41.9,0.4h3.7l3,17.2h0.1l2.5-17.2h4.2l-4.6,27H47L43.8,9.5h-0.1l-3,17.9H37L32,0.4h4.2l2.7,17.2H39L41.9,0.4
			z"/>
		<path class="st0" d="M59.5,27.4h-4.3l4.8-27h5.5l4.8,27h-4.3l-0.8-6h-4.9L59.5,27.4z M60.9,17.4h3.6L62.7,5.8h-0.1L60.9,17.4z"/>
		<path class="st0" d="M73.5,27.4v-27h4.5v27H73.5z"/>
		<path class="st0" d="M85.5,4.4h-4.3v-4h13.1v4h-4.3v23h-4.5V4.4z"/>
		<path class="st0" d="M94.6,17v-4.4h4.2V17H94.6z M94.6,27.4V23h4.2v4.4H94.6z"/>
		<path class="st0" d="M118.6,7.6V6.3c0-1.7-0.6-2.6-1.9-2.6c-1.4,0-2.1,0.9-2.1,2.6v6.3c0.3-0.3,0.6-0.6,0.8-0.8s0.5-0.4,0.8-0.6
			c0.3-0.1,0.6-0.3,0.9-0.3s0.7-0.1,1.2-0.1c0.6,0,1.3,0.1,1.8,0.3c0.6,0.2,1.1,0.5,1.5,1s0.8,1,1,1.7c0.3,0.7,0.4,1.5,0.4,2.5v3.2
			c0,2.9-0.5,5-1.5,6.3c-1,1.3-2.6,2-4.9,2s-3.9-0.6-4.9-1.8c-1-1.2-1.5-3.1-1.5-5.6v-13c0-2.6,0.5-4.4,1.5-5.6
			c1-1.2,2.6-1.8,4.9-1.8c0.9,0,1.7,0.1,2.4,0.4c0.7,0.3,1.3,0.7,1.8,1.3c0.5,0.5,0.9,1.2,1.2,1.9c0.3,0.7,0.4,1.5,0.4,2.4v1.6
			H118.6z M114.6,21.5c0,1.7,0.7,2.6,2.1,2.6s2.1-0.9,2.1-2.6V17c0-0.9-0.2-1.5-0.5-1.9c-0.3-0.4-0.8-0.6-1.4-0.6
			c-0.4,0-0.8,0.1-1.3,0.4c-0.4,0.3-0.8,0.6-1,0.8V21.5z"/>
		<path class="st0" d="M134.8,27.4v-27h12.5v4h-8v7h6v4h-6v12H134.8z"/>
		<path class="st0" d="M150.8,27.4v-27h12v4h-7.5v7h5.8v4h-5.8v7.9h8v4H150.8z"/>
		<path class="st0" d="M166.6,27.4v-27h4.5v23h7v4H166.6z"/>
		<path class="st0" d="M180.6,27.4v-27h4.5v23h7v4H180.6z"/>
		<path class="st0" d="M194.8,6.9c0-0.9,0.1-1.8,0.4-2.7c0.3-0.8,0.7-1.6,1.3-2.2c0.6-0.6,1.3-1.1,2.1-1.5c0.9-0.4,1.9-0.5,3-0.5
			c1.2,0,2.2,0.2,3,0.5c0.9,0.4,1.6,0.9,2.1,1.5c0.6,0.6,1,1.4,1.3,2.2c0.3,0.8,0.4,1.7,0.4,2.7v13.9c0,0.9-0.1,1.8-0.4,2.7
			c-0.3,0.8-0.7,1.6-1.3,2.2c-0.6,0.6-1.3,1.1-2.1,1.5s-1.9,0.5-3,0.5c-1.2,0-2.2-0.2-3-0.5s-1.6-0.9-2.1-1.5
			c-0.6-0.6-1-1.4-1.3-2.2c-0.3-0.8-0.4-1.7-0.4-2.7V6.9z M199.3,20.7c0,1,0.2,1.8,0.5,2.3c0.3,0.5,1,0.7,1.9,0.7
			c0.9,0,1.5-0.2,1.9-0.7c0.3-0.5,0.5-1.2,0.5-2.3V7c0-1-0.2-1.8-0.5-2.3c-0.3-0.5-1-0.7-1.9-0.7c-0.9,0-1.5,0.2-1.9,0.7
			c-0.3,0.5-0.5,1.2-0.5,2.3V20.7z"/>
		<path class="st0" d="M220.5,0.4h3.7l3,17.2h0.1l2.5-17.2h4.2l-4.6,27h-3.7l-3.2-17.9h-0.1l-3,17.9h-3.7l-4.9-27h4.2l2.7,17.2h0.1
			L220.5,0.4z"/>
		<path class="st0" d="M244.9,7c0-0.6-0.2-1.1-0.3-1.4c-0.2-0.4-0.3-0.7-0.6-0.9c-0.2-0.2-0.5-0.4-0.7-0.5c-0.3-0.1-0.5-0.1-0.8-0.1
			c-0.7,0-1.3,0.2-1.7,0.7c-0.4,0.5-0.6,1.1-0.6,2c0,0.8,0.2,1.5,0.7,2.1c0.4,0.6,1,1.3,1.7,1.9c0.7,0.6,1.4,1.3,2.2,2
			c0.8,0.7,1.5,1.4,2.2,2.2c0.7,0.8,1.2,1.7,1.7,2.6c0.4,1,0.7,2.1,0.7,3.3c0,1.1-0.2,2.1-0.5,3s-0.8,1.6-1.4,2.2
			c-0.6,0.6-1.4,1-2.2,1.3c-0.9,0.3-1.8,0.4-2.9,0.4s-2-0.2-2.8-0.6c-0.8-0.4-1.5-0.9-2.1-1.6c-0.6-0.7-1-1.5-1.3-2.4
			s-0.5-1.9-0.5-2.9l4.2-0.6c0.1,1.4,0.4,2.4,0.9,3.1c0.5,0.7,1.1,1,1.8,1c0.8,0,1.4-0.2,1.9-0.6c0.5-0.4,0.7-1,0.7-1.8
			c0-0.9-0.2-1.7-0.7-2.4c-0.4-0.7-1-1.4-1.7-2c-0.7-0.6-1.4-1.3-2.2-1.9s-1.5-1.4-2.2-2.1c-0.7-0.8-1.2-1.6-1.7-2.6
			c-0.4-1-0.7-2.1-0.7-3.4c0-2.2,0.6-3.8,1.8-5c1.2-1.2,2.9-1.7,5.1-1.7c0.9,0,1.7,0.2,2.4,0.5c0.7,0.3,1.3,0.8,1.9,1.4
			c0.5,0.6,0.9,1.3,1.3,2.1c0.3,0.8,0.5,1.7,0.6,2.6L244.9,7z"/>
	</g>
</g>
<g id="Layer_2">
</g>
</svg>
