<?xml version="1.0" encoding="utf-8"?>
<!-- Generator: Adobe Illustrator 19.1.0, SVG Export Plug-In . SVG Version: 6.00 Build 0)  -->
<svg version="1.1" xmlns="http://www.w3.org/2000/svg" xmlns:xlink="http://www.w3.org/1999/xlink" x="0px" y="0px"
	 viewBox="0 0 459 27.8" style="enable-background:new 0 0 459 27.8;" xml:space="preserve">
<style type="text/css">
	.st0{fill:#2B328F;}
</style>
<g id="Layer_1">
	<g>
		<path class="st0" d="M0,0.4h4.5v20.4c0,2,0.8,3,2.4,3s2.4-1,2.4-3V0.4h4.5v20.2c0,2.3-0.6,4.1-1.8,5.4c-1.2,1.2-2.9,1.8-5,1.8
			c-2.1,0-3.8-0.6-5-1.8c-1.2-1.2-1.8-3-1.8-5.4V0.4z"/>
		<path class="st0" d="M18,27.4v-27h4.1l5.4,15.5h0.1V0.4h4v27h-3.9l-5.7-16.9H22v16.9H18z"/>
		<path class="st0" d="M36.6,27.4v-27h4.5v27H36.6z"/>
		<path class="st0" d="M48.6,4.4h-4.3v-4h13.1v4h-4.3v23h-4.5V4.4z"/>
		<path class="st0" d="M60,27.4v-27h12v4h-7.5v7h5.8v4h-5.8v7.9h8v4H60z"/>
		<path class="st0" d="M76,0.4h6.6c2.3,0,4.1,0.7,5.3,2c1.2,1.3,1.8,3.4,1.8,6.2v10.7c0,2.8-0.6,4.9-1.8,6.2c-1.2,1.3-2.9,2-5.3,2
			H76V0.4z M80.5,23.6H82c1.2,0,2-0.3,2.5-0.8s0.7-1.5,0.7-3V8c0-1.4-0.2-2.4-0.7-3C84,4.5,83.2,4.2,82,4.2h-1.5V23.6z"/>
		<path class="st0" d="M104.6,27.4h-4.3l4.8-27h5.5l4.8,27H111l-0.8-6h-4.9L104.6,27.4z M106,17.4h3.6l-1.8-11.6h-0.1L106,17.4z"/>
		<path class="st0" d="M122.4,27.4H118v-27h6.3c2.5,0,4.4,0.6,5.7,1.8c1.3,1.2,1.9,3.3,1.9,6.1c0,1.1-0.1,2-0.3,2.8
			c-0.2,0.8-0.4,1.4-0.7,2c-0.3,0.5-0.6,1-1,1.3c-0.4,0.3-0.8,0.6-1.1,0.7l3.8,12.2h-4.5l-3.2-11.2c-0.3,0.1-0.6,0.1-1.1,0.1
			c-0.4,0-0.8,0-1.2,0V27.4z M122.4,12.5h1.6c0.6,0,1.1-0.1,1.5-0.2c0.4-0.1,0.8-0.3,1-0.7c0.3-0.3,0.5-0.8,0.6-1.3
			c0.1-0.5,0.2-1.2,0.2-2c0-1.6-0.3-2.7-0.8-3.3s-1.4-0.9-2.6-0.9h-1.6V12.5z"/>
		<path class="st0" d="M138.5,27.4h-4.3l4.8-27h5.5l4.8,27H145l-0.8-6h-4.9L138.5,27.4z M140,17.4h3.6l-1.8-11.6h-0.1L140,17.4z"/>
		<path class="st0" d="M151.9,0.4h6.6c2.4,0,4.2,0.6,5.3,1.8c1.1,1.2,1.7,3,1.7,5.3c0,0.6-0.1,1.2-0.2,1.7c-0.1,0.6-0.3,1.1-0.6,1.6
			s-0.6,0.9-1,1.3s-0.9,0.7-1.4,0.9c1.2,0.5,2,1.3,2.7,2.3c0.6,1,0.9,2.4,0.9,4.1c0,1.1-0.1,2.2-0.4,3.1c-0.3,0.9-0.7,1.8-1.2,2.5
			c-0.6,0.7-1.3,1.2-2.2,1.6c-0.9,0.4-2,0.6-3.2,0.6h-7.1V0.4z M156.4,11.5h1.6c0.8,0,1.5-0.3,2.1-0.9C160.7,10,161,9.1,161,8
			c0-2.5-1-3.8-2.9-3.8h-1.7V11.5z M156.4,23.6h1.9c1.2,0,2-0.3,2.5-1c0.5-0.7,0.7-1.7,0.7-3.1c0-1.4-0.3-2.4-0.8-3.1
			c-0.6-0.7-1.5-1-2.8-1h-1.4V23.6z"/>
		<path class="st0" d="M177.9,27.4v-27h12v4h-7.5v7h5.8v4h-5.8v7.9h8v4H177.9z"/>
		<path class="st0" d="M211.8,0.4v27h-3.9V6.3h-0.1l-4,21.1h-2.2l-4-21.1h-0.1v21.1h-3.9v-27h5.9l3.2,15.8h0.1l3.2-15.8H211.8z"/>
		<path class="st0" d="M216.5,27.4v-27h4.5v27H216.5z"/>
		<path class="st0" d="M230.4,27.4h-4.5v-27h6.3c2.5,0,4.4,0.6,5.7,1.8c1.3,1.2,1.9,3.3,1.9,6.1c0,1.1-0.1,2-0.3,2.8
			c-0.2,0.8-0.4,1.4-0.7,2c-0.3,0.5-0.6,1-1,1.3c-0.4,0.3-0.8,0.6-1.1,0.7l3.8,12.2h-4.5l-3.2-11.2c-0.3,0.1-0.6,0.1-1.1,0.1
			s-0.8,0-1.2,0V27.4z M230.4,12.5h1.6c0.6,0,1.1-0.1,1.5-0.2c0.4-0.1,0.8-0.3,1-0.7c0.3-0.3,0.5-0.8,0.6-1.3c0.1-0.5,0.2-1.2,0.2-2
			c0-1.6-0.3-2.7-0.8-3.3s-1.4-0.9-2.6-0.9h-1.6V12.5z"/>
		<path class="st0" d="M246.5,27.4h-4.3l4.8-27h5.5l4.8,27H253l-0.8-6h-4.9L246.5,27.4z M247.9,17.4h3.6l-1.8-11.6h-0.1L247.9,17.4z
			"/>
		<path class="st0" d="M261.1,4.4h-4.3v-4h13.1v4h-4.3v23h-4.5V4.4z"/>
		<path class="st0" d="M272.6,27.4v-27h12v4H277v7h5.8v4H277v7.9h8v4H272.6z"/>
		<path class="st0" d="M296.7,7c0-0.6-0.2-1.1-0.3-1.4c-0.2-0.4-0.3-0.7-0.6-0.9c-0.2-0.2-0.5-0.4-0.7-0.5c-0.3-0.1-0.5-0.1-0.8-0.1
			c-0.7,0-1.3,0.2-1.7,0.7c-0.4,0.5-0.6,1.1-0.6,2c0,0.8,0.2,1.5,0.7,2.1c0.4,0.6,1,1.3,1.7,1.9s1.4,1.3,2.2,2
			c0.8,0.7,1.5,1.4,2.2,2.2s1.2,1.7,1.7,2.6c0.4,1,0.7,2.1,0.7,3.3c0,1.1-0.2,2.1-0.5,3c-0.3,0.9-0.8,1.6-1.4,2.2
			c-0.6,0.6-1.4,1-2.2,1.3c-0.9,0.3-1.8,0.4-2.9,0.4c-1,0-2-0.2-2.8-0.6c-0.8-0.4-1.5-0.9-2.1-1.6s-1-1.5-1.3-2.4s-0.5-1.9-0.5-2.9
			l4.2-0.6c0.1,1.4,0.4,2.4,0.9,3.1s1.1,1,1.8,1c0.8,0,1.4-0.2,1.9-0.6c0.5-0.4,0.7-1,0.7-1.8c0-0.9-0.2-1.7-0.7-2.4
			c-0.4-0.7-1-1.4-1.7-2c-0.7-0.6-1.4-1.3-2.2-1.9c-0.8-0.6-1.5-1.4-2.2-2.1c-0.7-0.8-1.2-1.6-1.7-2.6s-0.7-2.1-0.7-3.4
			c0-2.2,0.6-3.8,1.8-5c1.2-1.2,2.9-1.7,5.1-1.7c0.9,0,1.7,0.2,2.4,0.5s1.3,0.8,1.9,1.4c0.5,0.6,0.9,1.3,1.3,2.1s0.5,1.7,0.6,2.6
			L296.7,7z"/>
		<path class="st0" d="M304.2,17v-4.4h4.2V17H304.2z M304.2,27.4V23h4.2v4.4H304.2z"/>
		<path class="st0" d="M320,19.9c0-1.6,0.2-3,0.5-4.2s1.1-2,2.2-2.8c-0.8-0.6-1.4-1.4-1.8-2.4c-0.4-1-0.6-2-0.6-3
			c0-2.6,0.5-4.5,1.6-5.8s2.5-1.8,4.4-1.8c1.8,0,3.3,0.6,4.4,1.8s1.6,3.1,1.6,5.8c0,1-0.2,2.1-0.6,3c-0.4,1-1,1.8-1.8,2.4
			c1.1,0.7,1.8,1.6,2.2,2.8s0.5,2.5,0.5,4.2c0,2.6-0.5,4.5-1.6,5.9c-1.1,1.3-2.6,2-4.8,2c-2.1,0-3.7-0.7-4.8-2
			C320.5,24.4,320,22.5,320,19.9z M326.3,24.1c0.9,0,1.5-0.4,1.8-1.2s0.5-1.9,0.5-3.3c0-1.4-0.2-2.5-0.5-3.3s-0.9-1.2-1.8-1.2
			s-1.5,0.4-1.8,1.2s-0.5,1.9-0.5,3.3c0,1.4,0.2,2.5,0.5,3.3S325.5,24.1,326.3,24.1z M326.3,11.1c0.7,0,1.2-0.3,1.5-0.9
			c0.3-0.6,0.5-1.5,0.5-2.8c0-1.3-0.2-2.3-0.5-2.8c-0.3-0.6-0.8-0.9-1.5-0.9s-1.2,0.3-1.5,0.9s-0.5,1.5-0.5,2.8
			c0,1.3,0.2,2.3,0.5,2.8S325.6,11.1,326.3,11.1z"/>
		<path class="st0" d="M344.5,27.4v-27h12.5v4h-8v7h6v4h-6v12H344.5z"/>
		<path class="st0" d="M360.5,27.4v-27h12v4h-7.5v7h5.8v4h-5.8v7.9h8v4H360.5z"/>
		<path class="st0" d="M376.2,27.4v-27h4.5v23h7v4H376.2z"/>
		<path class="st0" d="M390.2,27.4v-27h4.5v23h7v4H390.2z"/>
		<path class="st0" d="M404.4,6.9c0-0.9,0.1-1.8,0.4-2.7c0.3-0.8,0.7-1.6,1.3-2.2c0.6-0.6,1.3-1.1,2.1-1.5c0.9-0.4,1.9-0.5,3-0.5
			c1.2,0,2.2,0.2,3,0.5c0.9,0.4,1.6,0.9,2.1,1.5c0.6,0.6,1,1.4,1.3,2.2c0.3,0.8,0.4,1.7,0.4,2.7v13.9c0,0.9-0.1,1.8-0.4,2.7
			c-0.3,0.8-0.7,1.6-1.3,2.2c-0.6,0.6-1.3,1.1-2.1,1.5s-1.9,0.5-3,0.5c-1.2,0-2.2-0.2-3-0.5c-0.9-0.4-1.6-0.9-2.1-1.5
			c-0.6-0.6-1-1.4-1.3-2.2c-0.3-0.8-0.4-1.7-0.4-2.7V6.9z M408.9,20.7c0,1,0.2,1.8,0.5,2.3c0.3,0.5,1,0.7,1.9,0.7
			c0.9,0,1.5-0.2,1.9-0.7s0.5-1.2,0.5-2.3V7c0-1-0.2-1.8-0.5-2.3s-1-0.7-1.9-0.7c-0.9,0-1.5,0.2-1.9,0.7c-0.3,0.5-0.5,1.2-0.5,2.3
			V20.7z"/>
		<path class="st0" d="M430.2,0.4h3.7l3,17.2h0.1l2.5-17.2h4.2l-4.6,27h-3.7l-3.2-17.9H432l-3,17.9h-3.7l-4.9-27h4.2l2.7,17.2h0.1
			L430.2,0.4z"/>
		<path class="st0" d="M454.6,7c0-0.6-0.2-1.1-0.3-1.4c-0.2-0.4-0.3-0.7-0.6-0.9c-0.2-0.2-0.5-0.4-0.7-0.5c-0.3-0.1-0.5-0.1-0.8-0.1
			c-0.7,0-1.3,0.2-1.7,0.7c-0.4,0.5-0.6,1.1-0.6,2c0,0.8,0.2,1.5,0.7,2.1c0.4,0.6,1,1.3,1.7,1.9s1.4,1.3,2.2,2
			c0.8,0.7,1.5,1.4,2.2,2.2s1.2,1.7,1.7,2.6c0.4,1,0.7,2.1,0.7,3.3c0,1.1-0.2,2.1-0.5,3c-0.3,0.9-0.8,1.6-1.4,2.2
			c-0.6,0.6-1.4,1-2.2,1.3c-0.9,0.3-1.8,0.4-2.9,0.4c-1,0-2-0.2-2.8-0.6c-0.8-0.4-1.5-0.9-2.1-1.6s-1-1.5-1.3-2.4s-0.5-1.9-0.5-2.9
			l4.2-0.6c0.1,1.4,0.4,2.4,0.9,3.1s1.1,1,1.8,1c0.8,0,1.4-0.2,1.9-0.6c0.5-0.4,0.7-1,0.7-1.8c0-0.9-0.2-1.7-0.7-2.4
			c-0.4-0.7-1-1.4-1.7-2c-0.7-0.6-1.4-1.3-2.2-1.9c-0.8-0.6-1.5-1.4-2.2-2.1c-0.7-0.8-1.2-1.6-1.7-2.6s-0.7-2.1-0.7-3.4
			c0-2.2,0.6-3.8,1.8-5c1.2-1.2,2.9-1.7,5.1-1.7c0.9,0,1.7,0.2,2.4,0.5s1.3,0.8,1.9,1.4c0.5,0.6,0.9,1.3,1.3,2.1s0.5,1.7,0.6,2.6
			L454.6,7z"/>
	</g>
</g>
<g id="Layer_2">
</g>
</svg>
