<?xml version="1.0" encoding="utf-8"?>
<!-- Generator: Adobe Illustrator 19.1.0, SVG Export Plug-In . SVG Version: 6.00 Build 0)  -->
<svg version="1.1" xmlns="http://www.w3.org/2000/svg" xmlns:xlink="http://www.w3.org/1999/xlink" x="0px" y="0px"
	 viewBox="0 0 220.6 27.8" style="enable-background:new 0 0 220.6 27.8;" xml:space="preserve">
<style type="text/css">
	.st0{fill:#2B328F;}
</style>
<g id="Layer_1">
	<g>
		<path class="st0" d="M0,27.4v-27h4.5v27H0z"/>
		<path class="st0" d="M12,4.4H7.7v-4h13.1v4h-4.3v23H12V4.4z"/>
		<path class="st0" d="M25.3,27.4H21l4.8-27h5.5l4.8,27h-4.3l-0.8-6h-4.9L25.3,27.4z M26.8,17.4h3.6L28.6,5.8h-0.1L26.8,17.4z"/>
		<path class="st0" d="M38.5,27.4v-27H43v23h7v4H38.5z"/>
		<path class="st0" d="M58.8,27.4h-4.5V16.2L49,0.4h4.5l3.1,10.3h0.1l3-10.3h4.5l-5.4,15.8V27.4z"/>
		<path class="st0" d="M65.8,17v-4.4H70V17H65.8z M65.8,27.4V23H70v4.4H65.8z"/>
		<path class="st0" d="M85.7,19.6v2.2c0,0.7,0.2,1.3,0.5,1.7c0.4,0.4,0.8,0.6,1.4,0.6c0.7,0,1.2-0.2,1.6-0.7
			c0.4-0.5,0.6-1.3,0.6-2.6v-6.1c0-0.9-0.2-1.5-0.6-1.9c-0.4-0.4-0.8-0.6-1.3-0.6c-0.7,0-1.2,0.2-1.6,0.6c-0.4,0.4-0.6,0.9-0.8,1.5
			h-3.5c0-1,0.1-2.1,0.1-3c0-1,0.1-2,0.1-3.1c0-1.1,0-2.2,0.1-3.5s0-2.7,0-4.3h10.8l-0.1,3.8h-7L85.9,10l0.1,0.1
			c0.6-0.7,1.1-1.1,1.6-1.3c0.5-0.2,1.1-0.3,1.8-0.3c1.7,0,3,0.6,3.7,1.9s1.1,3,1.1,5.3v3.7c0,2.8-0.5,5-1.4,6.3
			c-0.9,1.4-2.5,2.1-4.6,2.1c-0.9,0-1.8-0.1-2.5-0.3c-0.8-0.2-1.5-0.6-2-1c-0.6-0.5-1-1.1-1.3-1.9s-0.5-1.7-0.5-2.9v-2.1H85.7z"/>
		<path class="st0" d="M106,27.4v-27h12.5v4h-8v7h6v4h-6v12H106z"/>
		<path class="st0" d="M122,27.4v-27h12v4h-7.5v7h5.8v4h-5.8v7.9h8v4H122z"/>
		<path class="st0" d="M137.8,27.4v-27h4.5v23h7v4H137.8z"/>
		<path class="st0" d="M151.8,27.4v-27h4.5v23h7v4H151.8z"/>
		<path class="st0" d="M166,6.9c0-0.9,0.1-1.8,0.4-2.7c0.3-0.8,0.7-1.6,1.3-2.2c0.6-0.6,1.3-1.1,2.1-1.5c0.9-0.4,1.9-0.5,3-0.5
			c1.2,0,2.2,0.2,3,0.5c0.9,0.4,1.6,0.9,2.1,1.5c0.6,0.6,1,1.4,1.3,2.2c0.3,0.8,0.4,1.7,0.4,2.7v13.9c0,0.9-0.1,1.8-0.4,2.7
			c-0.3,0.8-0.7,1.6-1.3,2.2c-0.6,0.6-1.3,1.1-2.1,1.5s-1.9,0.5-3,0.5c-1.2,0-2.2-0.2-3-0.5s-1.6-0.9-2.1-1.5
			c-0.6-0.6-1-1.4-1.3-2.2c-0.3-0.8-0.4-1.7-0.4-2.7V6.9z M170.5,20.7c0,1,0.2,1.8,0.5,2.3c0.3,0.5,1,0.7,1.9,0.7
			c0.9,0,1.5-0.2,1.9-0.7c0.3-0.5,0.5-1.2,0.5-2.3V7c0-1-0.2-1.8-0.5-2.3c-0.3-0.5-1-0.7-1.9-0.7c-0.9,0-1.5,0.2-1.9,0.7
			c-0.3,0.5-0.5,1.2-0.5,2.3V20.7z"/>
		<path class="st0" d="M191.7,0.4h3.7l3,17.2h0.1L201,0.4h4.2l-4.6,27h-3.7l-3.2-17.9h-0.1l-3,17.9h-3.7l-4.9-27h4.2l2.7,17.2h0.1
			L191.7,0.4z"/>
		<path class="st0" d="M216.2,7c0-0.6-0.2-1.1-0.3-1.4c-0.2-0.4-0.3-0.7-0.6-0.9c-0.2-0.2-0.5-0.4-0.7-0.5C214.3,4.1,214,4,213.8,4
			c-0.7,0-1.3,0.2-1.7,0.7c-0.4,0.5-0.6,1.1-0.6,2c0,0.8,0.2,1.5,0.7,2.1c0.4,0.6,1,1.3,1.7,1.9c0.7,0.6,1.4,1.3,2.2,2
			c0.8,0.7,1.5,1.4,2.2,2.2c0.7,0.8,1.2,1.7,1.7,2.6c0.4,1,0.7,2.1,0.7,3.3c0,1.1-0.2,2.1-0.5,3s-0.8,1.6-1.4,2.2
			c-0.6,0.6-1.4,1-2.2,1.3c-0.9,0.3-1.8,0.4-2.9,0.4s-2-0.2-2.8-0.6c-0.8-0.4-1.5-0.9-2.1-1.6c-0.6-0.7-1-1.5-1.3-2.4
			s-0.5-1.9-0.5-2.9l4.2-0.6c0.1,1.4,0.4,2.4,0.9,3.1c0.5,0.7,1.1,1,1.8,1c0.8,0,1.4-0.2,1.9-0.6c0.5-0.4,0.7-1,0.7-1.8
			c0-0.9-0.2-1.7-0.7-2.4c-0.4-0.7-1-1.4-1.7-2c-0.7-0.6-1.4-1.3-2.2-1.9s-1.5-1.4-2.2-2.1c-0.7-0.8-1.2-1.6-1.7-2.6
			c-0.4-1-0.7-2.1-0.7-3.4c0-2.2,0.6-3.8,1.8-5c1.2-1.2,2.9-1.7,5.1-1.7c0.9,0,1.7,0.2,2.4,0.5c0.7,0.3,1.3,0.8,1.9,1.4
			c0.5,0.6,0.9,1.3,1.3,2.1c0.3,0.8,0.5,1.7,0.6,2.6L216.2,7z"/>
	</g>
</g>
<g id="Layer_2">
</g>
</svg>
