<?xml version="1.0" encoding="utf-8"?>
<!-- Generator: Adobe Illustrator 19.1.0, SVG Export Plug-In . SVG Version: 6.00 Build 0)  -->
<svg version="1.1" xmlns="http://www.w3.org/2000/svg" xmlns:xlink="http://www.w3.org/1999/xlink" x="0px" y="0px"
	 viewBox="0 0 228.5 27.8" style="enable-background:new 0 0 228.5 27.8;" xml:space="preserve">
<style type="text/css">
	.st0{fill:#2B328F;}
</style>
<g id="Layer_1">
	<g>
		<path class="st0" d="M0,6.9C0,6,0.1,5.1,0.4,4.2C0.7,3.4,1.1,2.6,1.7,2c0.6-0.6,1.3-1.1,2.1-1.5C4.6,0.2,5.7,0,6.8,0
			s2.2,0.2,3,0.5C10.7,0.9,11.4,1.4,12,2c0.6,0.6,1,1.4,1.3,2.2c0.3,0.8,0.4,1.7,0.4,2.7v13.9c0,0.9-0.1,1.8-0.4,2.7
			c-0.3,0.8-0.7,1.6-1.3,2.2c-0.6,0.6-1.3,1.1-2.1,1.5c-0.9,0.4-1.9,0.5-3,0.5s-2.2-0.2-3-0.5s-1.6-0.9-2.1-1.5
			c-0.6-0.6-1-1.4-1.3-2.2C0.1,22.7,0,21.8,0,20.9V6.9z M4.5,20.7c0,1,0.2,1.8,0.5,2.3c0.3,0.5,1,0.7,1.9,0.7s1.5-0.2,1.9-0.7
			c0.3-0.5,0.5-1.2,0.5-2.3V7c0-1-0.2-1.8-0.5-2.3C8.4,4.3,7.8,4,6.8,4S5.3,4.3,5,4.8C4.6,5.3,4.5,6,4.5,7V20.7z"/>
		<path class="st0" d="M35.9,0.4v27H32V6.3h-0.1l-4,21.1h-2.2l-4-21.1h-0.1v21.1h-3.9v-27h5.9l3.2,15.8h0.1L30,0.4H35.9z"/>
		<path class="st0" d="M42.6,27.4h-4.3l4.8-27h5.5l4.8,27h-4.3l-0.8-6h-4.9L42.6,27.4z M44,17.4h3.6L45.9,5.8h-0.1L44,17.4z"/>
		<path class="st0" d="M56,27.4v-27h4.1l5.4,15.5h0.1V0.4h4v27h-3.9l-5.7-16.9H60v16.9H56z"/>
		<path class="st0" d="M73.7,17v-4.4h4.2V17H73.7z M73.7,27.4V23h4.2v4.4H73.7z"/>
		<path class="st0" d="M93.5,19.6v1.8c0,0.8,0.2,1.5,0.5,2c0.3,0.5,0.8,0.7,1.5,0.7c0.6,0,1.2-0.2,1.5-0.7c0.4-0.5,0.6-1.3,0.6-2.4
			v-2.1c0-1.5-0.3-2.5-0.9-3S95.2,15,93.8,15v-3.7c0.6,0,1.2-0.1,1.7-0.2c0.5-0.1,0.8-0.3,1.1-0.7s0.5-0.7,0.6-1.3
			c0.1-0.5,0.2-1.2,0.2-2c0-1.3-0.1-2.2-0.4-2.8c-0.3-0.6-0.7-0.8-1.4-0.8c-0.6,0-1.1,0.2-1.5,0.6c-0.4,0.4-0.5,1.1-0.5,2.2v1.1h-4
			V6.3c0-0.9,0.1-1.8,0.4-2.5c0.3-0.8,0.7-1.4,1.2-2c0.5-0.6,1.2-1,1.9-1.3C93.8,0.2,94.7,0,95.7,0c1,0,1.8,0.2,2.5,0.6
			c0.7,0.4,1.3,0.9,1.8,1.5s0.9,1.4,1.1,2.2c0.2,0.8,0.4,1.7,0.4,2.6c0,1.6-0.2,2.8-0.5,3.8c-0.4,1-1.1,1.8-2.3,2.4
			c0.6,0.3,1.2,0.7,1.6,1.1c0.4,0.4,0.8,0.9,1,1.4s0.4,1.1,0.5,1.8s0.1,1.5,0.1,2.4c0,2.7-0.5,4.7-1.6,6c-1,1.3-2.7,1.9-4.9,1.9
			c-1.8,0-3.3-0.5-4.4-1.6c-1.1-1-1.6-2.7-1.6-5v-1.6H93.5z"/>
		<path class="st0" d="M113.9,27.4v-27h12.5v4h-8v7h6v4h-6v12H113.9z"/>
		<path class="st0" d="M129.9,27.4v-27h12v4h-7.5v7h5.8v4h-5.8v7.9h8v4H129.9z"/>
		<path class="st0" d="M145.7,27.4v-27h4.5v23h7v4H145.7z"/>
		<path class="st0" d="M159.7,27.4v-27h4.5v23h7v4H159.7z"/>
		<path class="st0" d="M173.9,6.9c0-0.9,0.1-1.8,0.4-2.7c0.3-0.8,0.7-1.6,1.3-2.2c0.6-0.6,1.3-1.1,2.1-1.5c0.9-0.4,1.9-0.5,3-0.5
			s2.2,0.2,3,0.5c0.9,0.4,1.6,0.9,2.1,1.5c0.6,0.6,1,1.4,1.3,2.2c0.3,0.8,0.4,1.7,0.4,2.7v13.9c0,0.9-0.1,1.8-0.4,2.7
			c-0.3,0.8-0.7,1.6-1.3,2.2c-0.6,0.6-1.3,1.1-2.1,1.5s-1.9,0.5-3,0.5s-2.2-0.2-3-0.5c-0.9-0.4-1.6-0.9-2.1-1.5
			c-0.6-0.6-1-1.4-1.3-2.2c-0.3-0.8-0.4-1.7-0.4-2.7V6.9z M178.4,20.7c0,1,0.2,1.8,0.5,2.3c0.3,0.5,1,0.7,1.9,0.7s1.5-0.2,1.9-0.7
			c0.3-0.5,0.5-1.2,0.5-2.3V7c0-1-0.2-1.8-0.5-2.3c-0.3-0.5-1-0.7-1.9-0.7s-1.5,0.2-1.9,0.7c-0.3,0.5-0.5,1.2-0.5,2.3V20.7z"/>
		<path class="st0" d="M199.6,0.4h3.7l3,17.2h0.1l2.5-17.2h4.2l-4.6,27h-3.7l-3.2-17.9h-0.1l-3,17.9h-3.7l-4.9-27h4.2l2.7,17.2h0.1
			L199.6,0.4z"/>
		<path class="st0" d="M224,7c0-0.6-0.2-1.1-0.3-1.4c-0.2-0.4-0.3-0.7-0.6-0.9c-0.2-0.2-0.5-0.4-0.7-0.5c-0.3-0.1-0.5-0.1-0.8-0.1
			c-0.7,0-1.3,0.2-1.7,0.7c-0.4,0.5-0.6,1.1-0.6,2c0,0.8,0.2,1.5,0.7,2.1c0.4,0.6,1,1.3,1.7,1.9c0.7,0.6,1.4,1.3,2.2,2
			c0.8,0.7,1.5,1.4,2.2,2.2c0.7,0.8,1.2,1.7,1.7,2.6c0.4,1,0.7,2.1,0.7,3.3c0,1.1-0.2,2.1-0.5,3s-0.8,1.6-1.4,2.2
			c-0.6,0.6-1.4,1-2.2,1.3c-0.9,0.3-1.8,0.4-2.9,0.4c-1,0-2-0.2-2.8-0.6s-1.5-0.9-2.1-1.6c-0.6-0.7-1-1.5-1.3-2.4
			c-0.3-0.9-0.5-1.9-0.5-2.9l4.2-0.6c0.1,1.4,0.4,2.4,0.9,3.1c0.5,0.7,1.1,1,1.8,1c0.8,0,1.4-0.2,1.9-0.6c0.5-0.4,0.7-1,0.7-1.8
			c0-0.9-0.2-1.7-0.7-2.4c-0.4-0.7-1-1.4-1.7-2c-0.7-0.6-1.4-1.3-2.2-1.9c-0.8-0.6-1.5-1.4-2.2-2.1c-0.7-0.8-1.2-1.6-1.7-2.6
			c-0.4-1-0.7-2.1-0.7-3.4c0-2.2,0.6-3.8,1.8-5c1.2-1.2,2.9-1.7,5.1-1.7c0.9,0,1.7,0.2,2.4,0.5c0.7,0.3,1.3,0.8,1.9,1.4
			c0.5,0.6,0.9,1.3,1.3,2.1c0.3,0.8,0.5,1.7,0.6,2.6L224,7z"/>
	</g>
</g>
<g id="Layer_2">
</g>
</svg>
