<?xml version="1.0" encoding="utf-8"?>
<!-- Generator: Adobe Illustrator 19.1.0, SVG Export Plug-In . SVG Version: 6.00 Build 0)  -->
<svg version="1.1" xmlns="http://www.w3.org/2000/svg" xmlns:xlink="http://www.w3.org/1999/xlink" x="0px" y="0px"
	 viewBox="0 0 272.7 27.8" style="enable-background:new 0 0 272.7 27.8;" xml:space="preserve">
<style type="text/css">
	.st0{fill:#2B328F;}
</style>
<g id="Layer_1">
	<g>
		<path class="st0" d="M0,27.4v-27h4.5v23h7v4H0z"/>
		<path class="st0" d="M14.2,27.4v-27h12v4h-7.5v7h5.8v4h-5.8v7.9h8v4H14.2z"/>
		<path class="st0" d="M30.2,0.4h6.6c2.4,0,4.2,0.6,5.3,1.8c1.1,1.2,1.7,3,1.7,5.3c0,0.6-0.1,1.2-0.2,1.7c-0.1,0.6-0.3,1.1-0.6,1.6
			c-0.3,0.5-0.6,0.9-1,1.3c-0.4,0.4-0.9,0.7-1.4,0.9c1.2,0.5,2,1.3,2.7,2.3s0.9,2.4,0.9,4.1c0,1.1-0.1,2.2-0.4,3.1
			c-0.3,0.9-0.7,1.8-1.2,2.5c-0.6,0.7-1.3,1.2-2.2,1.6c-0.9,0.4-2,0.6-3.2,0.6h-7.1V0.4z M34.7,11.5h1.6c0.8,0,1.5-0.3,2.1-0.9
			C39,10,39.3,9.1,39.3,8c0-2.5-1-3.8-2.9-3.8h-1.7V11.5z M34.7,23.6h1.9c1.2,0,2-0.3,2.5-1c0.5-0.7,0.7-1.7,0.7-3.1
			c0-1.4-0.3-2.4-0.8-3.1c-0.6-0.7-1.5-1-2.8-1h-1.4V23.6z"/>
		<path class="st0" d="M50.8,27.4h-4.3l4.8-27h5.5l4.8,27h-4.3l-0.8-6h-4.9L50.8,27.4z M52.2,17.4h3.6L54.1,5.8H54L52.2,17.4z"/>
		<path class="st0" d="M64.2,27.4v-27h4.1l5.4,15.5h0.1V0.4h4v27H74l-5.7-16.9h-0.1v16.9H64.2z"/>
		<path class="st0" d="M82.2,6.9c0-0.9,0.1-1.8,0.4-2.7c0.3-0.8,0.7-1.6,1.3-2.2c0.6-0.6,1.3-1.1,2.1-1.5C86.8,0.2,87.8,0,89,0
			s2.2,0.2,3,0.5c0.9,0.4,1.6,0.9,2.1,1.5c0.6,0.6,1,1.4,1.3,2.2c0.3,0.8,0.4,1.7,0.4,2.7v13.9c0,0.9-0.1,1.8-0.4,2.7
			c-0.3,0.8-0.7,1.6-1.3,2.2c-0.6,0.6-1.3,1.1-2.1,1.5c-0.9,0.4-1.9,0.5-3,0.5s-2.2-0.2-3-0.5c-0.9-0.4-1.6-0.9-2.1-1.5
			c-0.6-0.6-1-1.4-1.3-2.2c-0.3-0.8-0.4-1.7-0.4-2.7V6.9z M86.6,20.7c0,1,0.2,1.8,0.5,2.3c0.3,0.5,1,0.7,1.9,0.7s1.5-0.2,1.9-0.7
			c0.3-0.5,0.5-1.2,0.5-2.3V7c0-1-0.2-1.8-0.5-2.3C90.6,4.3,89.9,4,89,4s-1.5,0.2-1.9,0.7C86.8,5.3,86.6,6,86.6,7V20.7z"/>
		<path class="st0" d="M100.2,27.4v-27h4.1l5.4,15.5h0.1V0.4h4v27H110l-5.7-16.9h-0.1v16.9H100.2z"/>
		<path class="st0" d="M117.9,17v-4.4h4.2V17H117.9z M117.9,27.4V23h4.2v4.4H117.9z"/>
		<path class="st0" d="M133.6,27.4v-3.6c1.4-2.1,2.6-4,3.7-5.7c1.1-1.7,2-3.2,2.7-4.5c0.7-1.3,1.3-2.6,1.6-3.7
			c0.4-1.1,0.6-2.2,0.6-3.2c0-1.1-0.2-1.9-0.5-2.3c-0.4-0.5-0.9-0.7-1.5-0.7c-0.7,0-1.3,0.3-1.6,0.8s-0.5,1.2-0.5,2v1.8h-4.2V7
			c0-1,0.1-1.9,0.4-2.8s0.7-1.6,1.3-2.2c0.6-0.6,1.3-1.1,2.1-1.5c0.8-0.4,1.8-0.5,2.8-0.5c0.9,0,1.7,0.2,2.5,0.5
			c0.7,0.3,1.4,0.8,1.9,1.3c0.5,0.6,0.9,1.2,1.2,1.9c0.3,0.7,0.4,1.5,0.4,2.2c0,1.1-0.1,2.1-0.3,3.1c-0.2,1-0.6,2.2-1.2,3.5
			c-0.6,1.3-1.4,2.8-2.5,4.6c-1.1,1.7-2.5,3.9-4.2,6.4h7.9v3.8H133.6z"/>
		<path class="st0" d="M158.1,27.4v-27h12.5v4h-8v7h6v4h-6v12H158.1z"/>
		<path class="st0" d="M174.1,27.4v-27h12v4h-7.5v7h5.8v4h-5.8v7.9h8v4H174.1z"/>
		<path class="st0" d="M189.9,27.4v-27h4.5v23h7v4H189.9z"/>
		<path class="st0" d="M203.9,27.4v-27h4.5v23h7v4H203.9z"/>
		<path class="st0" d="M218.1,6.9c0-0.9,0.1-1.8,0.4-2.7c0.3-0.8,0.7-1.6,1.3-2.2c0.6-0.6,1.3-1.1,2.1-1.5c0.9-0.4,1.9-0.5,3-0.5
			c1.2,0,2.2,0.2,3,0.5c0.9,0.4,1.6,0.9,2.1,1.5c0.6,0.6,1,1.4,1.3,2.2c0.3,0.8,0.4,1.7,0.4,2.7v13.9c0,0.9-0.1,1.8-0.4,2.7
			c-0.3,0.8-0.7,1.6-1.3,2.2c-0.6,0.6-1.3,1.1-2.1,1.5s-1.9,0.5-3,0.5c-1.2,0-2.2-0.2-3-0.5s-1.6-0.9-2.1-1.5
			c-0.6-0.6-1-1.4-1.3-2.2c-0.3-0.8-0.4-1.7-0.4-2.7V6.9z M222.6,20.7c0,1,0.2,1.8,0.5,2.3c0.3,0.5,1,0.7,1.9,0.7
			c0.9,0,1.5-0.2,1.9-0.7c0.3-0.5,0.5-1.2,0.5-2.3V7c0-1-0.2-1.8-0.5-2.3c-0.3-0.5-1-0.7-1.9-0.7c-0.9,0-1.5,0.2-1.9,0.7
			c-0.3,0.5-0.5,1.2-0.5,2.3V20.7z"/>
		<path class="st0" d="M243.8,0.4h3.7l3,17.2h0.1l2.5-17.2h4.2l-4.6,27h-3.7l-3.2-17.9h-0.1l-3,17.9h-3.7l-4.9-27h4.2l2.7,17.2h0.1
			L243.8,0.4z"/>
		<path class="st0" d="M268.2,7c0-0.6-0.2-1.1-0.3-1.4c-0.2-0.4-0.3-0.7-0.6-0.9c-0.2-0.2-0.5-0.4-0.7-0.5c-0.3-0.1-0.5-0.1-0.8-0.1
			c-0.7,0-1.3,0.2-1.7,0.7c-0.4,0.5-0.6,1.1-0.6,2c0,0.8,0.2,1.5,0.7,2.1c0.4,0.6,1,1.3,1.7,1.9c0.7,0.6,1.4,1.3,2.2,2
			c0.8,0.7,1.5,1.4,2.2,2.2c0.7,0.8,1.2,1.7,1.7,2.6c0.4,1,0.7,2.1,0.7,3.3c0,1.1-0.2,2.1-0.5,3s-0.8,1.6-1.4,2.2
			c-0.6,0.6-1.4,1-2.2,1.3c-0.9,0.3-1.8,0.4-2.9,0.4s-2-0.2-2.8-0.6c-0.8-0.4-1.5-0.9-2.1-1.6c-0.6-0.7-1-1.5-1.3-2.4
			s-0.5-1.9-0.5-2.9l4.2-0.6c0.1,1.4,0.4,2.4,0.9,3.1c0.5,0.7,1.1,1,1.8,1c0.8,0,1.4-0.2,1.9-0.6c0.5-0.4,0.7-1,0.7-1.8
			c0-0.9-0.2-1.7-0.7-2.4c-0.4-0.7-1-1.4-1.7-2c-0.7-0.6-1.4-1.3-2.2-1.9s-1.5-1.4-2.2-2.1c-0.7-0.8-1.2-1.6-1.7-2.6
			c-0.4-1-0.7-2.1-0.7-3.4c0-2.2,0.6-3.8,1.8-5c1.2-1.2,2.9-1.7,5.1-1.7c0.9,0,1.7,0.2,2.4,0.5c0.7,0.3,1.3,0.8,1.9,1.4
			c0.5,0.6,0.9,1.3,1.3,2.1c0.3,0.8,0.5,1.7,0.6,2.6L268.2,7z"/>
	</g>
</g>
<g id="Layer_2">
</g>
</svg>
