<?xml version="1.0" encoding="utf-8"?>
<!-- Generator: Adobe Illustrator 19.1.0, SVG Export Plug-In . SVG Version: 6.00 Build 0)  -->
<svg version="1.1" xmlns="http://www.w3.org/2000/svg" xmlns:xlink="http://www.w3.org/1999/xlink" x="0px" y="0px"
	 viewBox="0 0 291.6 27.8" style="enable-background:new 0 0 291.6 27.8;" xml:space="preserve">
<style type="text/css">
	.st0{fill:#2B328F;}
</style>
<g id="Layer_1">
	<g>
		<path class="st0" d="M9.3,7C9.2,6.5,9.1,6,9,5.6C8.8,5.2,8.6,4.9,8.4,4.7C8.2,4.5,7.9,4.3,7.7,4.2C7.4,4.1,7.2,4,6.9,4
			C6.2,4,5.6,4.3,5.3,4.7c-0.4,0.5-0.6,1.1-0.6,2c0,0.8,0.2,1.5,0.7,2.1c0.4,0.6,1,1.3,1.7,1.9c0.7,0.6,1.4,1.3,2.2,2
			c0.8,0.7,1.5,1.4,2.2,2.2c0.7,0.8,1.2,1.7,1.7,2.6c0.4,1,0.7,2.1,0.7,3.3c0,1.1-0.2,2.1-0.5,3c-0.3,0.9-0.8,1.6-1.4,2.2
			c-0.6,0.6-1.4,1-2.2,1.3c-0.9,0.3-1.8,0.4-2.9,0.4c-1,0-2-0.2-2.8-0.6c-0.8-0.4-1.5-0.9-2.1-1.6c-0.6-0.7-1-1.5-1.3-2.4
			C0.2,22.3,0,21.3,0,20.3l4.2-0.6C4.3,21,4.6,22,5.1,22.7c0.5,0.7,1.1,1,1.8,1c0.8,0,1.4-0.2,1.9-0.6c0.5-0.4,0.7-1,0.7-1.8
			c0-0.9-0.2-1.7-0.7-2.4c-0.4-0.7-1-1.4-1.7-2c-0.7-0.6-1.4-1.3-2.2-1.9c-0.8-0.6-1.5-1.4-2.2-2.1c-0.7-0.8-1.2-1.6-1.7-2.6
			C0.7,9.2,0.4,8,0.4,6.7c0-2.2,0.6-3.8,1.8-5C3.4,0.6,5.1,0,7.3,0c0.9,0,1.7,0.2,2.4,0.5c0.7,0.3,1.3,0.8,1.9,1.4
			c0.5,0.6,0.9,1.3,1.3,2.1s0.5,1.7,0.6,2.6L9.3,7z"/>
		<path class="st0" d="M21.6,27.4h-4.5v-27h6.3c2.5,0,4.4,0.6,5.7,1.8C30.3,3.4,31,5.5,31,8.3c0,1.1-0.1,2-0.3,2.8
			c-0.2,0.8-0.4,1.4-0.7,2s-0.6,1-1,1.3c-0.4,0.3-0.8,0.6-1.1,0.7l3.8,12.2h-4.5l-3.2-11.2c-0.3,0.1-0.6,0.1-1.1,0.1s-0.8,0-1.2,0
			V27.4z M21.6,12.5h1.6c0.6,0,1.1-0.1,1.5-0.2c0.4-0.1,0.8-0.3,1-0.7c0.3-0.3,0.5-0.8,0.6-1.3c0.1-0.5,0.2-1.2,0.2-2
			c0-1.6-0.3-2.7-0.8-3.3c-0.5-0.6-1.4-0.9-2.6-0.9h-1.6V12.5z"/>
		<path class="st0" d="M35.7,27.4v-27h4.5v27H35.7z"/>
		<path class="st0" d="M44.6,19.1v-3.4h8.8v3.4H44.6z"/>
		<path class="st0" d="M56.9,27.4v-27h4.5v23h7v4H56.9z"/>
		<path class="st0" d="M73.7,27.4h-4.3l4.8-27h5.5l4.8,27h-4.3l-0.8-6h-4.9L73.7,27.4z M75.2,17.4h3.6L77,5.8h-0.1L75.2,17.4z"/>
		<path class="st0" d="M87.1,27.4v-27h4.1l5.4,15.5h0.1V0.4h4v27h-3.9l-5.7-16.9h-0.1v16.9H87.1z"/>
		<path class="st0" d="M104.9,27.4v-27h4.5v10h0.1l4.7-10h4.5l-4.8,10.1l5.4,17h-4.5L111,14.8h-0.1l-1.6,3v9.6H104.9z"/>
		<path class="st0" d="M123.7,27.4h-4.3l4.8-27h5.5l4.8,27h-4.3l-0.8-6h-4.9L123.7,27.4z M125.1,17.4h3.6L127,5.8h-0.1L125.1,17.4z"
			/>
		<path class="st0" d="M136.8,17v-4.4h4.2V17H136.8z M136.8,27.4V23h4.2v4.4H136.8z"/>
		<path class="st0" d="M152.5,27.4v-3.6c1.4-2.1,2.6-4,3.7-5.7c1.1-1.7,2-3.2,2.7-4.5s1.3-2.6,1.6-3.7c0.4-1.1,0.6-2.2,0.6-3.2
			c0-1.1-0.2-1.9-0.5-2.3c-0.4-0.5-0.9-0.7-1.5-0.7c-0.7,0-1.3,0.3-1.6,0.8c-0.4,0.5-0.5,1.2-0.5,2v1.8h-4.2V7c0-1,0.1-1.9,0.5-2.8
			c0.3-0.8,0.7-1.6,1.3-2.2c0.6-0.6,1.3-1.1,2.1-1.5c0.8-0.4,1.8-0.5,2.8-0.5c0.9,0,1.7,0.2,2.5,0.5c0.7,0.3,1.4,0.8,1.9,1.3
			c0.5,0.6,0.9,1.2,1.2,1.9c0.3,0.7,0.4,1.5,0.4,2.2c0,1.1-0.1,2.1-0.3,3.1s-0.6,2.2-1.2,3.5c-0.6,1.3-1.4,2.8-2.5,4.6
			c-1.1,1.7-2.5,3.9-4.2,6.4h7.9v3.8H152.5z"/>
		<path class="st0" d="M177,27.4v-27h12.5v4h-8v7h6v4h-6v12H177z"/>
		<path class="st0" d="M193,27.4v-27h12v4h-7.5v7h5.8v4h-5.8v7.9h8v4H193z"/>
		<path class="st0" d="M208.8,27.4v-27h4.5v23h7v4H208.8z"/>
		<path class="st0" d="M222.8,27.4v-27h4.5v23h7v4H222.8z"/>
		<path class="st0" d="M237,6.9c0-0.9,0.1-1.8,0.4-2.7c0.3-0.8,0.7-1.6,1.3-2.2c0.6-0.6,1.3-1.1,2.1-1.5c0.9-0.4,1.9-0.5,3-0.5
			s2.2,0.2,3,0.5c0.9,0.4,1.6,0.9,2.1,1.5c0.6,0.6,1,1.4,1.3,2.2c0.3,0.8,0.4,1.7,0.4,2.7v13.9c0,0.9-0.1,1.8-0.4,2.7
			c-0.3,0.8-0.7,1.6-1.3,2.2c-0.6,0.6-1.3,1.1-2.1,1.5c-0.9,0.4-1.9,0.5-3,0.5s-2.2-0.2-3-0.5c-0.9-0.4-1.6-0.9-2.1-1.5
			c-0.6-0.6-1-1.4-1.3-2.2c-0.3-0.8-0.4-1.7-0.4-2.7V6.9z M241.5,20.7c0,1,0.2,1.8,0.5,2.3c0.3,0.5,1,0.7,1.9,0.7s1.5-0.2,1.9-0.7
			c0.3-0.5,0.5-1.2,0.5-2.3V7c0-1-0.2-1.8-0.5-2.3c-0.3-0.5-1-0.7-1.9-0.7s-1.5,0.2-1.9,0.7c-0.3,0.5-0.5,1.2-0.5,2.3V20.7z"/>
		<path class="st0" d="M262.7,0.4h3.7l3,17.2h0.1L272,0.4h4.2l-4.6,27h-3.7l-3.2-17.9h-0.1l-3,17.9h-3.7l-4.9-27h4.2l2.7,17.2h0.1
			L262.7,0.4z"/>
		<path class="st0" d="M287.1,7c0-0.6-0.2-1.1-0.3-1.4c-0.2-0.4-0.3-0.7-0.6-0.9c-0.2-0.2-0.5-0.4-0.7-0.5C285.2,4.1,285,4,284.8,4
			c-0.7,0-1.3,0.2-1.7,0.7c-0.4,0.5-0.6,1.1-0.6,2c0,0.8,0.2,1.5,0.7,2.1c0.4,0.6,1,1.3,1.7,1.9c0.7,0.6,1.4,1.3,2.2,2
			c0.8,0.7,1.5,1.4,2.2,2.2c0.7,0.8,1.2,1.7,1.7,2.6c0.4,1,0.7,2.1,0.7,3.3c0,1.1-0.2,2.1-0.5,3c-0.3,0.9-0.8,1.6-1.4,2.2
			c-0.6,0.6-1.4,1-2.2,1.3c-0.9,0.3-1.8,0.4-2.9,0.4c-1,0-2-0.2-2.8-0.6c-0.8-0.4-1.5-0.9-2.1-1.6c-0.6-0.7-1-1.5-1.3-2.4
			c-0.3-0.9-0.5-1.9-0.5-2.9l4.2-0.6c0.1,1.4,0.4,2.4,0.9,3.1c0.5,0.7,1.1,1,1.8,1c0.8,0,1.4-0.2,1.9-0.6c0.5-0.4,0.7-1,0.7-1.8
			c0-0.9-0.2-1.7-0.7-2.4c-0.4-0.7-1-1.4-1.7-2c-0.7-0.6-1.4-1.3-2.2-1.9c-0.8-0.6-1.5-1.4-2.2-2.1c-0.7-0.8-1.2-1.6-1.7-2.6
			c-0.4-1-0.7-2.1-0.7-3.4c0-2.2,0.6-3.8,1.8-5c1.2-1.2,2.9-1.7,5.1-1.7c0.9,0,1.7,0.2,2.4,0.5c0.7,0.3,1.3,0.8,1.9,1.4
			c0.5,0.6,0.9,1.3,1.3,2.1s0.5,1.7,0.6,2.6L287.1,7z"/>
	</g>
</g>
<g id="Layer_2">
</g>
</svg>
