<?xml version="1.0" encoding="utf-8"?>
<!-- Generator: Adobe Illustrator 19.1.0, SVG Export Plug-In . SVG Version: 6.00 Build 0)  -->
<svg version="1.1" xmlns="http://www.w3.org/2000/svg" xmlns:xlink="http://www.w3.org/1999/xlink" x="0px" y="0px"
	 viewBox="0 0 234.5 27.8" style="enable-background:new 0 0 234.5 27.8;" xml:space="preserve">
<style type="text/css">
	.st0{fill:#2B328F;}
</style>
<g id="Layer_1">
	<g>
		<path class="st0" d="M0,27.4v-27h12v4H4.5v7h5.8v4H4.5v7.9h8v4H0z"/>
		<path class="st0" d="M22.1,13.7h7.3v13.7h-2.2l-0.8-2c-0.7,0.8-1.3,1.4-2,1.8c-0.6,0.4-1.5,0.6-2.5,0.6c-1.8,0-3.2-0.6-4.3-1.8
			C16.5,24.7,16,23,16,20.9V6.9c0-0.9,0.1-1.8,0.4-2.7c0.3-0.8,0.7-1.6,1.2-2.2c0.5-0.6,1.2-1.1,2-1.5C20.5,0.2,21.4,0,22.5,0
			c1.1,0,2.1,0.2,2.9,0.6C26.3,1,27,1.5,27.6,2.2c0.6,0.7,1,1.5,1.3,2.4c0.3,0.9,0.4,1.8,0.4,2.8v1.7H25c0-1,0-1.8-0.1-2.5
			c-0.1-0.7-0.3-1.2-0.5-1.6c-0.2-0.4-0.5-0.7-0.8-0.8C23.2,4.1,22.9,4,22.4,4c-0.6,0-1,0.2-1.4,0.6c-0.4,0.4-0.6,1.2-0.6,2.3v13.9
			c0,0.9,0.2,1.6,0.5,2.1c0.3,0.5,0.9,0.8,1.6,0.8c0.9,0,1.5-0.3,1.9-0.9c0.4-0.6,0.5-1.5,0.5-2.9v-2.6h-2.8V13.7z"/>
		<path class="st0" d="M42,27.4h-4.5V16.2L32.2,0.4h4.5l3.1,10.3h0.1l3-10.3h4.5L42,16.2V27.4z"/>
		<path class="st0" d="M50,27.4v-27h6.4c2.8,0,4.8,0.6,6.1,1.8c1.3,1.2,2,3.3,2,6.1c0,1.4-0.2,2.7-0.5,3.7c-0.3,1-0.8,1.8-1.5,2.5
			c-0.7,0.6-1.5,1.1-2.5,1.4c-1,0.3-2.2,0.4-3.6,0.4h-1.9v11.1H50z M54.4,12.5h1.7c0.7,0,1.3-0.1,1.8-0.2c0.5-0.1,0.9-0.3,1.2-0.7
			c0.3-0.3,0.5-0.8,0.6-1.3c0.1-0.5,0.2-1.2,0.2-2c0-0.8-0.1-1.5-0.2-2s-0.3-1-0.6-1.3c-0.3-0.3-0.7-0.5-1.2-0.7
			c-0.5-0.1-1.1-0.2-1.8-0.2h-1.7V12.5z"/>
		<path class="st0" d="M70.6,4.4h-4.3v-4h13.1v4H75v23h-4.5V4.4z"/>
		<path class="st0" d="M79.7,17v-4.4h4.2V17H79.7z M79.7,27.4V23h4.2v4.4H79.7z"/>
		<path class="st0" d="M103.7,7.6V6.3c0-1.7-0.6-2.6-1.9-2.6c-1.4,0-2.1,0.9-2.1,2.6v6.3c0.3-0.3,0.6-0.6,0.8-0.8s0.5-0.4,0.8-0.6
			c0.3-0.1,0.6-0.3,0.9-0.3c0.3-0.1,0.7-0.1,1.2-0.1c0.6,0,1.3,0.1,1.8,0.3c0.6,0.2,1.1,0.5,1.5,1c0.4,0.4,0.8,1,1,1.7
			c0.3,0.7,0.4,1.5,0.4,2.5v3.2c0,2.9-0.5,5-1.5,6.3c-1,1.3-2.6,2-4.9,2c-2.3,0-3.9-0.6-4.9-1.8c-1-1.2-1.5-3.1-1.5-5.6v-13
			c0-2.6,0.5-4.4,1.5-5.6c1-1.2,2.6-1.8,4.9-1.8c0.9,0,1.7,0.1,2.4,0.4c0.7,0.3,1.3,0.7,1.8,1.3c0.5,0.5,0.9,1.2,1.2,1.9
			c0.3,0.7,0.4,1.5,0.4,2.4v1.6H103.7z M99.7,21.5c0,1.7,0.7,2.6,2.1,2.6c1.4,0,2.1-0.9,2.1-2.6V17c0-0.9-0.2-1.5-0.5-1.9
			c-0.3-0.4-0.8-0.6-1.3-0.6c-0.4,0-0.8,0.1-1.3,0.4c-0.4,0.3-0.8,0.6-1,0.8V21.5z"/>
		<path class="st0" d="M119.9,27.4v-27h12.5v4h-8v7h6v4h-6v12H119.9z"/>
		<path class="st0" d="M135.9,27.4v-27h12v4h-7.5v7h5.8v4h-5.8v7.9h8v4H135.9z"/>
		<path class="st0" d="M151.7,27.4v-27h4.5v23h7v4H151.7z"/>
		<path class="st0" d="M165.7,27.4v-27h4.5v23h7v4H165.7z"/>
		<path class="st0" d="M179.9,6.9c0-0.9,0.1-1.8,0.4-2.7c0.3-0.8,0.7-1.6,1.3-2.2c0.6-0.6,1.3-1.1,2.1-1.5c0.9-0.4,1.9-0.5,3-0.5
			s2.2,0.2,3,0.5c0.9,0.4,1.6,0.9,2.1,1.5c0.6,0.6,1,1.4,1.3,2.2c0.3,0.8,0.4,1.7,0.4,2.7v13.9c0,0.9-0.1,1.8-0.4,2.7
			c-0.3,0.8-0.7,1.6-1.3,2.2c-0.6,0.6-1.3,1.1-2.1,1.5c-0.9,0.4-1.9,0.5-3,0.5s-2.2-0.2-3-0.5c-0.9-0.4-1.6-0.9-2.1-1.5
			c-0.6-0.6-1-1.4-1.3-2.2c-0.3-0.8-0.4-1.7-0.4-2.7V6.9z M184.4,20.7c0,1,0.2,1.8,0.5,2.3c0.3,0.5,1,0.7,1.9,0.7s1.5-0.2,1.9-0.7
			c0.3-0.5,0.5-1.2,0.5-2.3V7c0-1-0.2-1.8-0.5-2.3c-0.3-0.5-1-0.7-1.9-0.7s-1.5,0.2-1.9,0.7c-0.3,0.5-0.5,1.2-0.5,2.3V20.7z"/>
		<path class="st0" d="M205.6,0.4h3.7l3,17.2h0.1l2.5-17.2h4.2l-4.6,27h-3.7l-3.2-17.9h-0.1l-3,17.9h-3.7l-4.9-27h4.2l2.7,17.2h0.1
			L205.6,0.4z"/>
		<path class="st0" d="M230,7c0-0.6-0.2-1.1-0.3-1.4c-0.2-0.4-0.3-0.7-0.6-0.9c-0.2-0.2-0.5-0.4-0.7-0.5c-0.3-0.1-0.5-0.1-0.8-0.1
			c-0.7,0-1.3,0.2-1.7,0.7c-0.4,0.5-0.6,1.1-0.6,2c0,0.8,0.2,1.5,0.7,2.1c0.4,0.6,1,1.3,1.7,1.9c0.7,0.6,1.4,1.3,2.2,2
			c0.8,0.7,1.5,1.4,2.2,2.2c0.7,0.8,1.2,1.7,1.7,2.6c0.4,1,0.7,2.1,0.7,3.3c0,1.1-0.2,2.1-0.5,3c-0.3,0.9-0.8,1.6-1.4,2.2
			c-0.6,0.6-1.4,1-2.2,1.3c-0.9,0.3-1.8,0.4-2.9,0.4c-1,0-2-0.2-2.8-0.6c-0.8-0.4-1.5-0.9-2.1-1.6c-0.6-0.7-1-1.5-1.3-2.4
			c-0.3-0.9-0.5-1.9-0.5-2.9l4.2-0.6c0.1,1.4,0.4,2.4,0.9,3.1c0.5,0.7,1.1,1,1.8,1c0.8,0,1.4-0.2,1.9-0.6c0.5-0.4,0.7-1,0.7-1.8
			c0-0.9-0.2-1.7-0.7-2.4c-0.4-0.7-1-1.4-1.7-2c-0.7-0.6-1.4-1.3-2.2-1.9c-0.8-0.6-1.5-1.4-2.2-2.1c-0.7-0.8-1.2-1.6-1.7-2.6
			c-0.4-1-0.7-2.1-0.7-3.4c0-2.2,0.6-3.8,1.8-5c1.2-1.2,2.9-1.7,5.1-1.7c0.9,0,1.7,0.2,2.4,0.5c0.7,0.3,1.3,0.8,1.9,1.4
			c0.5,0.6,0.9,1.3,1.3,2.1s0.5,1.7,0.6,2.6L230,7z"/>
	</g>
</g>
<g id="Layer_2">
</g>
</svg>
