<?xml version="1.0" encoding="utf-8"?>
<!-- Generator: Adobe Illustrator 19.1.0, SVG Export Plug-In . SVG Version: 6.00 Build 0)  -->
<svg version="1.1" xmlns="http://www.w3.org/2000/svg" xmlns:xlink="http://www.w3.org/1999/xlink" x="0px" y="0px"
	 viewBox="0 0 262.4 27.8" style="enable-background:new 0 0 262.4 27.8;" xml:space="preserve">
<style type="text/css">
	.st0{fill:#2B328F;}
</style>
<g id="Layer_1">
	<g>
		<path class="st0" d="M6.2,13.7h7.3v13.7h-2.2l-0.8-2c-0.7,0.8-1.3,1.4-2,1.8C7.9,27.6,7,27.8,6,27.8c-1.8,0-3.2-0.6-4.3-1.8
			C0.6,24.7,0,23,0,20.9V6.9C0,6,0.1,5.1,0.4,4.2C0.7,3.4,1.1,2.6,1.6,2c0.5-0.6,1.2-1.1,2-1.5C4.5,0.2,5.4,0,6.6,0
			c1.1,0,2.1,0.2,2.9,0.6C10.3,1,11,1.5,11.6,2.2c0.6,0.7,1,1.5,1.3,2.4c0.3,0.9,0.4,1.8,0.4,2.8v1.7H9c0-1,0-1.8-0.1-2.5
			C8.8,6,8.6,5.5,8.4,5.1C8.2,4.7,7.9,4.4,7.6,4.3C7.3,4.1,6.9,4,6.4,4C5.9,4,5.4,4.2,5,4.7C4.7,5.1,4.5,5.9,4.5,7v13.9
			c0,0.9,0.2,1.6,0.5,2.1c0.3,0.5,0.9,0.8,1.6,0.8c0.9,0,1.5-0.3,1.9-0.9C8.8,22.3,9,21.3,9,20v-2.6H6.2V13.7z"/>
		<path class="st0" d="M18,27.4v-27h12v4h-7.5v7h5.8v4h-5.8v7.9h8v4H18z"/>
		<path class="st0" d="M38.4,27.4H34v-27h6.3c2.5,0,4.4,0.6,5.7,1.8c1.3,1.2,1.9,3.3,1.9,6.1c0,1.1-0.1,2-0.3,2.8
			c-0.2,0.8-0.4,1.4-0.7,2s-0.6,1-1,1.3c-0.4,0.3-0.8,0.6-1.1,0.7l3.8,12.2h-4.5l-3.2-11.2c-0.3,0.1-0.6,0.1-1.1,0.1s-0.8,0-1.2,0
			V27.4z M38.4,12.5H40c0.6,0,1.1-0.1,1.5-0.2c0.4-0.1,0.8-0.3,1-0.7c0.3-0.3,0.5-0.8,0.6-1.3c0.1-0.5,0.2-1.2,0.2-2
			c0-1.6-0.3-2.7-0.8-3.3c-0.5-0.6-1.4-0.9-2.6-0.9h-1.6V12.5z"/>
		<path class="st0" d="M69.9,0.4v27H66V6.3h-0.1l-4,21.1h-2.2l-4-21.1h-0.1v21.1h-3.9v-27h5.9l3.2,15.8h0.1L64,0.4H69.9z"/>
		<path class="st0" d="M76.6,27.4h-4.3l4.8-27h5.5l4.8,27H83l-0.8-6h-4.9L76.6,27.4z M78,17.4h3.6L79.8,5.8h-0.1L78,17.4z"/>
		<path class="st0" d="M90,27.4v-27h4.1l5.4,15.5h0.1V0.4h4v27h-3.9l-5.7-16.9H94v16.9H90z"/>
		<path class="st0" d="M116,27.4h-4.5V16.2l-5.4-15.8h4.5l3.1,10.3h0.1l3-10.3h4.5L116,16.2V27.4z"/>
		<path class="st0" d="M123,17v-4.4h4.2V17H123z M123,27.4V23h4.2v4.4H123z"/>
		<path class="st0" d="M143.5,6H140V3.5c1-0.5,2-1.1,2.8-1.6c0.9-0.6,1.7-1.2,2.4-1.8h2.3v27.4h-4V6z"/>
		<path class="st0" d="M163.2,27.4v-27h12.5v4h-8v7h6v4h-6v12H163.2z"/>
		<path class="st0" d="M179.2,27.4v-27h12v4h-7.5v7h5.8v4h-5.8v7.9h8v4H179.2z"/>
		<path class="st0" d="M195,27.4v-27h4.5v23h7v4H195z"/>
		<path class="st0" d="M209,27.4v-27h4.5v23h7v4H209z"/>
		<path class="st0" d="M223.2,6.9c0-0.9,0.1-1.8,0.4-2.7c0.3-0.8,0.7-1.6,1.3-2.2c0.6-0.6,1.3-1.1,2.1-1.5c0.9-0.4,1.9-0.5,3-0.5
			c1.2,0,2.2,0.2,3,0.5c0.9,0.4,1.6,0.9,2.1,1.5c0.6,0.6,1,1.4,1.3,2.2c0.3,0.8,0.4,1.7,0.4,2.7v13.9c0,0.9-0.1,1.8-0.4,2.7
			c-0.3,0.8-0.7,1.6-1.3,2.2c-0.6,0.6-1.3,1.1-2.1,1.5s-1.9,0.5-3,0.5c-1.2,0-2.2-0.2-3-0.5s-1.6-0.9-2.1-1.5
			c-0.6-0.6-1-1.4-1.3-2.2c-0.3-0.8-0.4-1.7-0.4-2.7V6.9z M227.7,20.7c0,1,0.2,1.8,0.5,2.3c0.3,0.5,1,0.7,1.9,0.7
			c0.9,0,1.5-0.2,1.9-0.7c0.3-0.5,0.5-1.2,0.5-2.3V7c0-1-0.2-1.8-0.5-2.3C231.6,4.3,231,4,230,4c-0.9,0-1.5,0.2-1.9,0.7
			c-0.3,0.5-0.5,1.2-0.5,2.3V20.7z"/>
		<path class="st0" d="M248.9,0.4h3.7l3,17.2h0.1l2.5-17.2h4.2l-4.6,27h-3.7l-3.2-17.9h-0.1l-3,17.9H244l-4.9-27h4.2l2.7,17.2h0.1
			L248.9,0.4z"/>
	</g>
</g>
<g id="Layer_2">
</g>
</svg>
