<?xml version="1.0" encoding="utf-8"?>
<!-- Generator: Adobe Illustrator 19.1.0, SVG Export Plug-In . SVG Version: 6.00 Build 0)  -->
<svg version="1.1" xmlns="http://www.w3.org/2000/svg" xmlns:xlink="http://www.w3.org/1999/xlink" x="0px" y="0px"
	 viewBox="0 0 248.8 27.8" style="enable-background:new 0 0 248.8 27.8;" xml:space="preserve">
<style type="text/css">
	.st0{fill:#2B328F;}
</style>
<g id="Layer_1">
	<g>
		<path class="st0" d="M4.3,27.4H0l4.8-27h5.5l4.8,27h-4.3l-0.8-6H5.1L4.3,27.4z M5.8,17.4h3.6L7.6,5.8H7.5L5.8,17.4z"/>
		<path class="st0" d="M17.5,27.4v-27H22v23h7v4H17.5z"/>
		<path class="st0" d="M37.9,13.7h7.3v13.7H43l-0.8-2c-0.7,0.8-1.3,1.4-2,1.8c-0.6,0.4-1.5,0.6-2.5,0.6c-1.8,0-3.2-0.6-4.3-1.8
			c-1.1-1.2-1.7-2.9-1.7-5.1V6.9c0-0.9,0.1-1.8,0.4-2.7c0.3-0.8,0.7-1.6,1.2-2.2c0.5-0.6,1.2-1.1,2-1.5C36.2,0.2,37.2,0,38.3,0
			c1.1,0,2.1,0.2,2.9,0.6C42,1,42.7,1.5,43.3,2.2c0.6,0.7,1,1.5,1.3,2.4S45,6.4,45,7.4v1.7h-4.2c0-1,0-1.8-0.1-2.5
			c-0.1-0.7-0.3-1.2-0.5-1.6c-0.2-0.4-0.5-0.7-0.8-0.8C39,4.1,38.6,4,38.2,4c-0.6,0-1,0.2-1.4,0.6c-0.4,0.4-0.6,1.2-0.6,2.3v13.9
			c0,0.9,0.2,1.6,0.5,2.1c0.3,0.5,0.9,0.8,1.6,0.8c0.9,0,1.5-0.3,1.9-0.9c0.4-0.6,0.5-1.5,0.5-2.9v-2.6h-2.8V13.7z"/>
		<path class="st0" d="M49.7,27.4v-27h12v4h-7.5v7h5.8v4h-5.8v7.9h8v4H49.7z"/>
		<path class="st0" d="M70.2,27.4h-4.5v-27H72c2.5,0,4.4,0.6,5.7,1.8c1.3,1.2,1.9,3.3,1.9,6.1c0,1.1-0.1,2-0.3,2.8
			c-0.2,0.8-0.4,1.4-0.7,2c-0.3,0.5-0.6,1-1,1.3c-0.4,0.3-0.8,0.6-1.1,0.7l3.8,12.2h-4.5l-3.2-11.2c-0.3,0.1-0.6,0.1-1.1,0.1
			c-0.4,0-0.8,0-1.2,0V27.4z M70.2,12.5h1.6c0.6,0,1.1-0.1,1.5-0.2c0.4-0.1,0.8-0.3,1-0.7c0.3-0.3,0.5-0.8,0.6-1.3
			C75,9.8,75,9.1,75,8.3c0-1.6-0.3-2.7-0.8-3.3c-0.5-0.6-1.4-0.9-2.6-0.9h-1.6V12.5z"/>
		<path class="st0" d="M84.3,27.4v-27h4.5v27H84.3z"/>
		<path class="st0" d="M96.3,27.4H92l4.8-27h5.5l4.8,27h-4.3l-0.8-6h-4.9L96.3,27.4z M97.7,17.4h3.6L99.6,5.8h-0.1L97.7,17.4z"/>
		<path class="st0" d="M109.4,17v-4.4h4.2V17H109.4z M109.4,27.4V23h4.2v4.4H109.4z"/>
		<path class="st0" d="M129.9,6h-3.5V3.5c1-0.5,2-1.1,2.8-1.6c0.9-0.6,1.7-1.2,2.4-1.8h2.3v27.4h-4V6z"/>
		<path class="st0" d="M149.6,27.4v-27h12.5v4h-8v7h6v4h-6v12H149.6z"/>
		<path class="st0" d="M165.6,27.4v-27h12v4h-7.5v7h5.8v4h-5.8v7.9h8v4H165.6z"/>
		<path class="st0" d="M181.4,27.4v-27h4.5v23h7v4H181.4z"/>
		<path class="st0" d="M195.4,27.4v-27h4.5v23h7v4H195.4z"/>
		<path class="st0" d="M209.6,6.9c0-0.9,0.1-1.8,0.4-2.7c0.3-0.8,0.7-1.6,1.3-2.2c0.6-0.6,1.3-1.1,2.1-1.5c0.9-0.4,1.9-0.5,3-0.5
			c1.2,0,2.2,0.2,3,0.5c0.9,0.4,1.6,0.9,2.1,1.5c0.6,0.6,1,1.4,1.3,2.2c0.3,0.8,0.4,1.7,0.4,2.7v13.9c0,0.9-0.1,1.8-0.4,2.7
			c-0.3,0.8-0.7,1.6-1.3,2.2c-0.6,0.6-1.3,1.1-2.1,1.5c-0.9,0.4-1.9,0.5-3,0.5c-1.2,0-2.2-0.2-3-0.5c-0.9-0.4-1.6-0.9-2.1-1.5
			c-0.6-0.6-1-1.4-1.3-2.2c-0.3-0.8-0.4-1.7-0.4-2.7V6.9z M214.1,20.7c0,1,0.2,1.8,0.5,2.3c0.3,0.5,1,0.7,1.9,0.7
			c0.9,0,1.5-0.2,1.9-0.7c0.3-0.5,0.5-1.2,0.5-2.3V7c0-1-0.2-1.8-0.5-2.3c-0.3-0.5-1-0.7-1.9-0.7c-0.9,0-1.5,0.2-1.9,0.7
			c-0.3,0.5-0.5,1.2-0.5,2.3V20.7z"/>
		<path class="st0" d="M235.3,0.4h3.7l3,17.2h0.1l2.5-17.2h4.2l-4.6,27h-3.7l-3.2-17.9h-0.1l-3,17.9h-3.7l-4.9-27h4.2l2.7,17.2h0.1
			L235.3,0.4z"/>
	</g>
</g>
<g id="Layer_2">
</g>
</svg>
