<?xml version="1.0" encoding="utf-8"?>
<!-- Generator: Adobe Illustrator 19.1.0, SVG Export Plug-In . SVG Version: 6.00 Build 0)  -->
<svg version="1.1" xmlns="http://www.w3.org/2000/svg" xmlns:xlink="http://www.w3.org/1999/xlink" x="0px" y="0px"
	 viewBox="0 0 320.5 27.8" style="enable-background:new 0 0 320.5 27.8;" xml:space="preserve">
<style type="text/css">
	.st0{fill:#2B328F;}
</style>
<g id="Layer_1">
	<g>
		<path class="st0" d="M0,27.4v-27h6.4c2.8,0,4.8,0.6,6.1,1.8c1.3,1.2,2,3.3,2,6.1c0,1.4-0.2,2.7-0.5,3.7c-0.3,1-0.8,1.8-1.5,2.5
			c-0.7,0.6-1.5,1.1-2.5,1.4c-1,0.3-2.2,0.4-3.6,0.4H4.5v11.1H0z M4.5,12.5h1.7c0.7,0,1.3-0.1,1.8-0.2c0.5-0.1,0.9-0.3,1.2-0.7
			c0.3-0.3,0.5-0.8,0.6-1.3c0.1-0.5,0.2-1.2,0.2-2c0-0.8-0.1-1.5-0.2-2c-0.1-0.5-0.3-1-0.6-1.3C8.9,4.8,8.5,4.5,8,4.4
			C7.5,4.3,6.9,4.2,6.2,4.2H4.5V12.5z"/>
		<path class="st0" d="M18,27.4v-27h4.5v11h4.8v-11h4.5v27h-4.5v-12h-4.8v12H18z"/>
		<path class="st0" d="M36.6,27.4v-27h4.5v27H36.6z"/>
		<path class="st0" d="M45.8,27.4v-27h4.5v23h7v4H45.8z"/>
		<path class="st0" d="M60.6,27.4v-27h4.5v27H60.6z"/>
		<path class="st0" d="M70,27.4v-27h6.4c2.8,0,4.8,0.6,6.1,1.8c1.3,1.2,2,3.3,2,6.1c0,1.4-0.2,2.7-0.5,3.7c-0.3,1-0.8,1.8-1.5,2.5
			c-0.7,0.6-1.5,1.1-2.5,1.4c-1,0.3-2.2,0.4-3.6,0.4h-1.9v11.1H70z M74.5,12.5h1.7c0.7,0,1.3-0.1,1.8-0.2c0.5-0.1,0.9-0.3,1.2-0.7
			c0.3-0.3,0.5-0.8,0.6-1.3C80,9.8,80,9.1,80,8.3c0-0.8-0.1-1.5-0.2-2c-0.1-0.5-0.3-1-0.6-1.3c-0.3-0.3-0.7-0.5-1.2-0.7
			c-0.5-0.1-1.1-0.2-1.8-0.2h-1.7V12.5z"/>
		<path class="st0" d="M88,27.4v-27h6.4c2.8,0,4.8,0.6,6.1,1.8c1.3,1.2,2,3.3,2,6.1c0,1.4-0.2,2.7-0.5,3.7c-0.3,1-0.8,1.8-1.5,2.5
			c-0.7,0.6-1.5,1.1-2.5,1.4c-1,0.3-2.2,0.4-3.6,0.4h-1.9v11.1H88z M92.5,12.5h1.7c0.7,0,1.3-0.1,1.8-0.2c0.5-0.1,0.9-0.3,1.2-0.7
			c0.3-0.3,0.5-0.8,0.6-1.3C98,9.8,98,9.1,98,8.3c0-0.8-0.1-1.5-0.2-2c-0.1-0.5-0.3-1-0.6-1.3c-0.3-0.3-0.7-0.5-1.2-0.7
			c-0.5-0.1-1.1-0.2-1.8-0.2h-1.7V12.5z"/>
		<path class="st0" d="M106.6,27.4v-27h4.5v27H106.6z"/>
		<path class="st0" d="M116,27.4v-27h4.1l5.4,15.5h0.1V0.4h4v27h-3.9l-5.7-16.9H120v16.9H116z"/>
		<path class="st0" d="M134,27.4v-27h12v4h-7.5v7h5.8v4h-5.8v7.9h8v4H134z"/>
		<path class="st0" d="M158.1,7c0-0.6-0.2-1.1-0.3-1.4c-0.2-0.4-0.3-0.7-0.6-0.9s-0.5-0.4-0.7-0.5C156.2,4.1,156,4,155.8,4
			c-0.7,0-1.3,0.2-1.7,0.7c-0.4,0.5-0.6,1.1-0.6,2c0,0.8,0.2,1.5,0.7,2.1c0.4,0.6,1,1.3,1.7,1.9c0.7,0.6,1.4,1.3,2.2,2
			c0.8,0.7,1.5,1.4,2.2,2.2c0.7,0.8,1.2,1.7,1.7,2.6c0.4,1,0.7,2.1,0.7,3.3c0,1.1-0.2,2.1-0.5,3c-0.3,0.9-0.8,1.6-1.4,2.2
			c-0.6,0.6-1.4,1-2.2,1.3c-0.9,0.3-1.8,0.4-2.9,0.4c-1,0-2-0.2-2.8-0.6c-0.8-0.4-1.5-0.9-2.1-1.6c-0.6-0.7-1-1.5-1.3-2.4
			c-0.3-0.9-0.5-1.9-0.5-2.9l4.2-0.6c0.1,1.4,0.4,2.4,0.9,3.1c0.5,0.7,1.1,1,1.8,1c0.8,0,1.4-0.2,1.9-0.6c0.5-0.4,0.7-1,0.7-1.8
			c0-0.9-0.2-1.7-0.7-2.4c-0.4-0.7-1-1.4-1.7-2c-0.7-0.6-1.4-1.3-2.2-1.9c-0.8-0.6-1.5-1.4-2.2-2.1c-0.7-0.8-1.2-1.6-1.7-2.6
			c-0.4-1-0.7-2.1-0.7-3.4c0-2.2,0.6-3.8,1.8-5c1.2-1.2,2.9-1.7,5.1-1.7c0.9,0,1.7,0.2,2.4,0.5c0.7,0.3,1.3,0.8,1.9,1.4
			c0.5,0.6,0.9,1.3,1.3,2.1s0.5,1.7,0.6,2.6L158.1,7z"/>
		<path class="st0" d="M165.7,17v-4.4h4.2V17H165.7z M165.7,27.4V23h4.2v4.4H165.7z"/>
		<path class="st0" d="M188.1,20.9h-7.8v-3.4l7.6-17.1h4.3v17.1h2.4v3.4h-2.4v6.5h-4.1V20.9z M188.2,17.4V6.9h-0.1l-4.4,10.6H188.2z
			"/>
		<path class="st0" d="M205.9,27.4v-27h12.5v4h-8v7h6v4h-6v12H205.9z"/>
		<path class="st0" d="M221.9,27.4v-27h12v4h-7.5v7h5.8v4h-5.8v7.9h8v4H221.9z"/>
		<path class="st0" d="M237.7,27.4v-27h4.5v23h7v4H237.7z"/>
		<path class="st0" d="M251.7,27.4v-27h4.5v23h7v4H251.7z"/>
		<path class="st0" d="M265.9,6.9c0-0.9,0.1-1.8,0.4-2.7c0.3-0.8,0.7-1.6,1.3-2.2c0.6-0.6,1.3-1.1,2.1-1.5c0.9-0.4,1.9-0.5,3-0.5
			c1.2,0,2.2,0.2,3,0.5c0.9,0.4,1.6,0.9,2.1,1.5c0.6,0.6,1,1.4,1.3,2.2c0.3,0.8,0.4,1.7,0.4,2.7v13.9c0,0.9-0.1,1.8-0.4,2.7
			c-0.3,0.8-0.7,1.6-1.3,2.2c-0.6,0.6-1.3,1.1-2.1,1.5c-0.9,0.4-1.9,0.5-3,0.5c-1.2,0-2.2-0.2-3-0.5s-1.6-0.9-2.1-1.5
			c-0.6-0.6-1-1.4-1.3-2.2c-0.3-0.8-0.4-1.7-0.4-2.7V6.9z M270.4,20.7c0,1,0.2,1.8,0.5,2.3c0.3,0.5,1,0.7,1.9,0.7
			c0.9,0,1.5-0.2,1.9-0.7c0.3-0.5,0.5-1.2,0.5-2.3V7c0-1-0.2-1.8-0.5-2.3c-0.3-0.5-1-0.7-1.9-0.7c-0.9,0-1.5,0.2-1.9,0.7
			c-0.3,0.5-0.5,1.2-0.5,2.3V20.7z"/>
		<path class="st0" d="M291.6,0.4h3.7l3,17.2h0.1l2.5-17.2h4.2l-4.6,27h-3.7l-3.2-17.9h-0.1l-3,17.9h-3.7l-4.9-27h4.2l2.7,17.2h0.1
			L291.6,0.4z"/>
		<path class="st0" d="M316,7c0-0.6-0.2-1.1-0.3-1.4c-0.2-0.4-0.3-0.7-0.6-0.9s-0.5-0.4-0.7-0.5c-0.3-0.1-0.5-0.1-0.8-0.1
			c-0.7,0-1.3,0.2-1.7,0.7c-0.4,0.5-0.6,1.1-0.6,2c0,0.8,0.2,1.5,0.7,2.1c0.4,0.6,1,1.3,1.7,1.9c0.7,0.6,1.4,1.3,2.2,2
			c0.8,0.7,1.5,1.4,2.2,2.2c0.7,0.8,1.2,1.7,1.7,2.6c0.4,1,0.7,2.1,0.7,3.3c0,1.1-0.2,2.1-0.5,3c-0.3,0.9-0.8,1.6-1.4,2.2
			c-0.6,0.6-1.4,1-2.2,1.3c-0.9,0.3-1.8,0.4-2.9,0.4c-1,0-2-0.2-2.8-0.6c-0.8-0.4-1.5-0.9-2.1-1.6c-0.6-0.7-1-1.5-1.3-2.4
			c-0.3-0.9-0.5-1.9-0.5-2.9l4.2-0.6c0.1,1.4,0.4,2.4,0.9,3.1c0.5,0.7,1.1,1,1.8,1c0.8,0,1.4-0.2,1.9-0.6c0.5-0.4,0.7-1,0.7-1.8
			c0-0.9-0.2-1.7-0.7-2.4c-0.4-0.7-1-1.4-1.7-2c-0.7-0.6-1.4-1.3-2.2-1.9c-0.8-0.6-1.5-1.4-2.2-2.1c-0.7-0.8-1.2-1.6-1.7-2.6
			c-0.4-1-0.7-2.1-0.7-3.4c0-2.2,0.6-3.8,1.8-5c1.2-1.2,2.9-1.7,5.1-1.7c0.9,0,1.7,0.2,2.4,0.5c0.7,0.3,1.3,0.8,1.9,1.4
			c0.5,0.6,0.9,1.3,1.3,2.1s0.5,1.7,0.6,2.6L316,7z"/>
	</g>
</g>
<g id="Layer_2">
</g>
</svg>
