<?xml version="1.0" encoding="utf-8"?>
<!-- Generator: Adobe Illustrator 19.1.0, SVG Export Plug-In . SVG Version: 6.00 Build 0)  -->
<svg version="1.1" xmlns="http://www.w3.org/2000/svg" xmlns:xlink="http://www.w3.org/1999/xlink" x="0px" y="0px"
	 viewBox="0 0 289 27.8" style="enable-background:new 0 0 289 27.8;" xml:space="preserve">
<style type="text/css">
	.st0{fill:#2B328F;}
</style>
<g id="Layer_1">
	<g>
		<path class="st0" d="M0,27.4v-27h4.5v11h4.8v-11h4.5v27H9.2v-12H4.5v12H0z"/>
		<path class="st0" d="M18,6.9c0-0.9,0.1-1.8,0.4-2.7c0.3-0.8,0.7-1.6,1.3-2.2c0.6-0.6,1.3-1.1,2.1-1.5c0.9-0.4,1.9-0.5,3-0.5
			c1.2,0,2.2,0.2,3,0.5C28.7,0.9,29.4,1.4,30,2c0.6,0.6,1,1.4,1.3,2.2c0.3,0.8,0.4,1.7,0.4,2.7v13.9c0,0.9-0.1,1.8-0.4,2.7
			c-0.3,0.8-0.7,1.6-1.3,2.2c-0.6,0.6-1.3,1.1-2.1,1.5c-0.9,0.4-1.9,0.5-3,0.5c-1.2,0-2.2-0.2-3-0.5s-1.6-0.9-2.1-1.5
			c-0.6-0.6-1-1.4-1.3-2.2c-0.3-0.8-0.4-1.7-0.4-2.7V6.9z M22.5,20.7c0,1,0.2,1.8,0.5,2.3c0.3,0.5,1,0.7,1.9,0.7
			c0.9,0,1.5-0.2,1.9-0.7c0.3-0.5,0.5-1.2,0.5-2.3V7c0-1-0.2-1.8-0.5-2.3c-0.3-0.5-1-0.7-1.9-0.7c-0.9,0-1.5,0.2-1.9,0.7
			C22.6,5.3,22.5,6,22.5,7V20.7z"/>
		<path class="st0" d="M36,27.4v-27h4.1l5.4,15.5h0.1V0.4h4v27h-3.9l-5.7-16.9H40v16.9H36z"/>
		<path class="st0" d="M60.1,13.7h7.3v13.7h-2.2l-0.8-2c-0.7,0.8-1.3,1.4-2,1.8S61,27.8,60,27.8c-1.8,0-3.2-0.6-4.3-1.8
			C54.5,24.7,54,23,54,20.9V6.9c0-0.9,0.1-1.8,0.4-2.7c0.3-0.8,0.7-1.6,1.2-2.2c0.5-0.6,1.2-1.1,2-1.5C58.5,0.2,59.4,0,60.5,0
			s2.1,0.2,2.9,0.6C64.3,1,65,1.5,65.6,2.2c0.6,0.7,1,1.5,1.3,2.4s0.4,1.8,0.4,2.8v1.7H63c0-1,0-1.8-0.1-2.5
			c-0.1-0.7-0.3-1.2-0.5-1.6c-0.2-0.4-0.5-0.7-0.8-0.8C61.2,4.1,60.9,4,60.4,4c-0.6,0-1,0.2-1.4,0.6c-0.4,0.4-0.6,1.2-0.6,2.3v13.9
			c0,0.9,0.2,1.6,0.5,2.1c0.3,0.5,0.9,0.8,1.6,0.8c0.9,0,1.5-0.3,1.9-0.9c0.4-0.6,0.5-1.5,0.5-2.9v-2.6h-2.8V13.7z"/>
		<path class="st0" d="M79.8,27.4v-27h4.5v10h0.1l4.7-10h4.5l-4.8,10.1l5.4,17h-4.5l-3.6-12.6h-0.1l-1.6,3v9.6H79.8z"/>
		<path class="st0" d="M96,6.9c0-0.9,0.1-1.8,0.4-2.7c0.3-0.8,0.7-1.6,1.3-2.2c0.6-0.6,1.3-1.1,2.1-1.5c0.9-0.4,1.9-0.5,3-0.5
			s2.2,0.2,3,0.5c0.9,0.4,1.6,0.9,2.1,1.5c0.6,0.6,1,1.4,1.3,2.2c0.3,0.8,0.4,1.7,0.4,2.7v13.9c0,0.9-0.1,1.8-0.4,2.7
			c-0.3,0.8-0.7,1.6-1.3,2.2c-0.6,0.6-1.3,1.1-2.1,1.5c-0.9,0.4-1.9,0.5-3,0.5s-2.2-0.2-3-0.5s-1.6-0.9-2.1-1.5
			c-0.6-0.6-1-1.4-1.3-2.2c-0.3-0.8-0.4-1.7-0.4-2.7V6.9z M100.4,20.7c0,1,0.2,1.8,0.5,2.3c0.3,0.5,1,0.7,1.9,0.7s1.5-0.2,1.9-0.7
			c0.3-0.5,0.5-1.2,0.5-2.3V7c0-1-0.2-1.8-0.5-2.3c-0.3-0.5-1-0.7-1.9-0.7s-1.5,0.2-1.9,0.7c-0.3,0.5-0.5,1.2-0.5,2.3V20.7z"/>
		<path class="st0" d="M114,27.4v-27h4.1l5.4,15.5h0.1V0.4h4v27h-3.9l-5.7-16.9H118v16.9H114z"/>
		<path class="st0" d="M138.1,13.7h7.3v13.7h-2.2l-0.8-2c-0.7,0.8-1.3,1.4-2,1.8c-0.6,0.4-1.5,0.6-2.5,0.6c-1.8,0-3.2-0.6-4.3-1.8
			c-1.1-1.2-1.7-2.9-1.7-5.1V6.9c0-0.9,0.1-1.8,0.4-2.7c0.3-0.8,0.7-1.6,1.2-2.2c0.5-0.6,1.2-1.1,2-1.5c0.8-0.4,1.8-0.5,2.9-0.5
			c1.1,0,2.1,0.2,2.9,0.6c0.8,0.4,1.5,0.9,2.1,1.6c0.6,0.7,1,1.5,1.3,2.4c0.3,0.9,0.4,1.8,0.4,2.8v1.7H141c0-1,0-1.8-0.1-2.5
			c-0.1-0.7-0.3-1.2-0.5-1.6c-0.2-0.4-0.5-0.7-0.8-0.8c-0.3-0.1-0.7-0.2-1.1-0.2c-0.6,0-1,0.2-1.4,0.6c-0.4,0.4-0.6,1.2-0.6,2.3
			v13.9c0,0.9,0.2,1.6,0.5,2.1c0.3,0.5,0.9,0.8,1.6,0.8c0.9,0,1.5-0.3,1.9-0.9c0.4-0.6,0.5-1.5,0.5-2.9v-2.6h-2.8V13.7z"/>
		<path class="st0" d="M149.7,17v-4.4h4.2V17H149.7z M149.7,27.4V23h4.2v4.4H149.7z"/>
		<path class="st0" d="M170.2,6h-3.5V3.5c1-0.5,2-1.1,2.8-1.6c0.9-0.6,1.7-1.2,2.4-1.8h2.3v27.4h-4V6z"/>
		<path class="st0" d="M189.9,27.4v-27h12.5v4h-8v7h6v4h-6v12H189.9z"/>
		<path class="st0" d="M205.9,27.4v-27h12v4h-7.5v7h5.8v4h-5.8v7.9h8v4H205.9z"/>
		<path class="st0" d="M221.7,27.4v-27h4.5v23h7v4H221.7z"/>
		<path class="st0" d="M235.7,27.4v-27h4.5v23h7v4H235.7z"/>
		<path class="st0" d="M249.9,6.9c0-0.9,0.1-1.8,0.4-2.7c0.3-0.8,0.7-1.6,1.3-2.2c0.6-0.6,1.3-1.1,2.1-1.5c0.9-0.4,1.9-0.5,3-0.5
			s2.2,0.2,3,0.5c0.9,0.4,1.6,0.9,2.1,1.5c0.6,0.6,1,1.4,1.3,2.2c0.3,0.8,0.4,1.7,0.4,2.7v13.9c0,0.9-0.1,1.8-0.4,2.7
			c-0.3,0.8-0.7,1.6-1.3,2.2c-0.6,0.6-1.3,1.1-2.1,1.5s-1.9,0.5-3,0.5s-2.2-0.2-3-0.5c-0.9-0.4-1.6-0.9-2.1-1.5
			c-0.6-0.6-1-1.4-1.3-2.2c-0.3-0.8-0.4-1.7-0.4-2.7V6.9z M254.3,20.7c0,1,0.2,1.8,0.5,2.3c0.3,0.5,1,0.7,1.9,0.7s1.5-0.2,1.9-0.7
			c0.3-0.5,0.5-1.2,0.5-2.3V7c0-1-0.2-1.8-0.5-2.3c-0.3-0.5-1-0.7-1.9-0.7s-1.5,0.2-1.9,0.7c-0.3,0.5-0.5,1.2-0.5,2.3V20.7z"/>
		<path class="st0" d="M275.6,0.4h3.7l3,17.2h0.1l2.5-17.2h4.2l-4.6,27h-3.7l-3.2-17.9h-0.1l-3,17.9h-3.7l-4.9-27h4.2l2.7,17.2h0.1
			L275.6,0.4z"/>
	</g>
</g>
<g id="Layer_2">
</g>
</svg>
