<?xml version="1.0" encoding="utf-8"?>
<!-- Generator: Adobe Illustrator 19.1.0, SVG Export Plug-In . SVG Version: 6.00 Build 0)  -->
<svg version="1.1" xmlns="http://www.w3.org/2000/svg" xmlns:xlink="http://www.w3.org/1999/xlink" x="0px" y="0px"
	 viewBox="0 0 231.1 27.8" style="enable-background:new 0 0 231.1 27.8;" xml:space="preserve">
<style type="text/css">
	.st0{fill:#2B328F;}
</style>
<g id="Layer_1">
	<g>
		<path class="st0" d="M0,0.4h6.6c2.4,0,4.2,0.6,5.3,1.8c1.1,1.2,1.7,3,1.7,5.3c0,0.6-0.1,1.2-0.2,1.7c-0.1,0.6-0.3,1.1-0.6,1.6
			c-0.3,0.5-0.6,0.9-1,1.3c-0.4,0.4-0.9,0.7-1.4,0.9c1.2,0.5,2,1.3,2.7,2.3s0.9,2.4,0.9,4.1c0,1.1-0.1,2.2-0.4,3.1
			c-0.3,0.9-0.7,1.8-1.2,2.5c-0.6,0.7-1.3,1.2-2.2,1.6c-0.9,0.4-2,0.6-3.2,0.6H0V0.4z M4.5,11.5h1.6c0.8,0,1.5-0.3,2.1-0.9
			C8.8,10,9.1,9.1,9.1,8c0-2.5-1-3.8-2.9-3.8H4.5V11.5z M4.5,23.6h1.9c1.2,0,2-0.3,2.5-1c0.5-0.7,0.7-1.7,0.7-3.1
			c0-1.4-0.3-2.4-0.8-3.1c-0.6-0.7-1.5-1-2.8-1H4.5V23.6z"/>
		<path class="st0" d="M18,0.4h4.5v20.4c0,2,0.8,3,2.4,3s2.4-1,2.4-3V0.4h4.5v20.2c0,2.3-0.6,4.1-1.8,5.4c-1.2,1.2-2.9,1.8-5,1.8
			c-2.1,0-3.8-0.6-5-1.8c-1.2-1.2-1.8-3-1.8-5.4V0.4z"/>
		<path class="st0" d="M40.5,27.4H36v-27h6.3c2.5,0,4.4,0.6,5.7,1.8c1.3,1.2,1.9,3.3,1.9,6.1c0,1.1-0.1,2-0.3,2.8
			c-0.2,0.8-0.4,1.4-0.7,2c-0.3,0.5-0.6,1-1,1.3c-0.4,0.3-0.8,0.6-1.1,0.7l3.8,12.2h-4.5l-3.2-11.2c-0.3,0.1-0.6,0.1-1.1,0.1
			c-0.4,0-0.8,0-1.2,0V27.4z M40.5,12.5H42c0.6,0,1.1-0.1,1.5-0.2c0.4-0.1,0.8-0.3,1-0.7c0.3-0.3,0.5-0.8,0.6-1.3
			c0.1-0.5,0.2-1.2,0.2-2c0-1.6-0.3-2.7-0.8-3.3c-0.5-0.6-1.4-0.9-2.6-0.9h-1.6V12.5z"/>
		<path class="st0" d="M71.9,0.4v27H68V6.3h-0.1l-4,21.1h-2.2l-4-21.1h-0.1v21.1h-3.9v-27h5.9l3.2,15.8h0.1L66,0.4H71.9z"/>
		<path class="st0" d="M78.6,27.4h-4.3l4.8-27h5.5l4.8,27h-4.3l-0.8-6h-4.9L78.6,27.4z M80,17.4h3.6L81.9,5.8h-0.1L80,17.4z"/>
		<path class="st0" d="M91.7,17v-4.4h4.2V17H91.7z M91.7,27.4V23h4.2v4.4H91.7z"/>
		<path class="st0" d="M112.2,6h-3.5V3.5c1-0.5,2-1.1,2.8-1.6c0.9-0.6,1.7-1.2,2.4-1.8h2.3v27.4h-4V6z"/>
		<path class="st0" d="M131.9,27.4v-27h12.5v4h-8v7h6v4h-6v12H131.9z"/>
		<path class="st0" d="M147.9,27.4v-27h12v4h-7.5v7h5.8v4h-5.8v7.9h8v4H147.9z"/>
		<path class="st0" d="M163.7,27.4v-27h4.5v23h7v4H163.7z"/>
		<path class="st0" d="M177.7,27.4v-27h4.5v23h7v4H177.7z"/>
		<path class="st0" d="M191.9,6.9c0-0.9,0.1-1.8,0.4-2.7c0.3-0.8,0.7-1.6,1.3-2.2c0.6-0.6,1.3-1.1,2.1-1.5c0.9-0.4,1.9-0.5,3-0.5
			c1.2,0,2.2,0.2,3,0.5c0.9,0.4,1.6,0.9,2.1,1.5c0.6,0.6,1,1.4,1.3,2.2c0.3,0.8,0.4,1.7,0.4,2.7v13.9c0,0.9-0.1,1.8-0.4,2.7
			c-0.3,0.8-0.7,1.6-1.3,2.2c-0.6,0.6-1.3,1.1-2.1,1.5c-0.9,0.4-1.9,0.5-3,0.5c-1.2,0-2.2-0.2-3-0.5c-0.9-0.4-1.6-0.9-2.1-1.5
			c-0.6-0.6-1-1.4-1.3-2.2c-0.3-0.8-0.4-1.7-0.4-2.7V6.9z M196.4,20.7c0,1,0.2,1.8,0.5,2.3c0.3,0.5,1,0.7,1.9,0.7
			c0.9,0,1.5-0.2,1.9-0.7c0.3-0.5,0.5-1.2,0.5-2.3V7c0-1-0.2-1.8-0.5-2.3c-0.3-0.5-1-0.7-1.9-0.7c-0.9,0-1.5,0.2-1.9,0.7
			c-0.3,0.5-0.5,1.2-0.5,2.3V20.7z"/>
		<path class="st0" d="M217.6,0.4h3.7l3,17.2h0.1l2.5-17.2h4.2l-4.6,27h-3.7l-3.2-17.9h-0.1l-3,17.9h-3.7l-4.9-27h4.2l2.7,17.2h0.1
			L217.6,0.4z"/>
	</g>
</g>
<g id="Layer_2">
</g>
</svg>
