<?xml version="1.0" encoding="utf-8"?>
<!-- Generator: Adobe Illustrator 19.1.0, SVG Export Plug-In . SVG Version: 6.00 Build 0)  -->
<svg version="1.1" xmlns="http://www.w3.org/2000/svg" xmlns:xlink="http://www.w3.org/1999/xlink" x="0px" y="0px"
	 viewBox="0 0 279.9 27.8" style="enable-background:new 0 0 279.9 27.8;" xml:space="preserve">
<style type="text/css">
	.st0{fill:#2B328F;}
</style>
<g id="Layer_1">
	<g>
		<path class="st0" d="M0,27.4v-27h4.5v27H0z"/>
		<path class="st0" d="M13.9,27.4H9.4v-27h6.3c2.5,0,4.4,0.6,5.7,1.8c1.3,1.2,1.9,3.3,1.9,6.1c0,1.1-0.1,2-0.3,2.8
			c-0.2,0.8-0.4,1.4-0.7,2c-0.3,0.5-0.6,1-1,1.3c-0.4,0.3-0.8,0.6-1.1,0.7l3.8,12.2h-4.5l-3.2-11.2c-0.3,0.1-0.6,0.1-1.1,0.1
			c-0.4,0-0.8,0-1.2,0V27.4z M13.9,12.5h1.6c0.6,0,1.1-0.1,1.5-0.2c0.4-0.1,0.8-0.3,1-0.7c0.3-0.3,0.5-0.8,0.6-1.3
			c0.1-0.5,0.2-1.2,0.2-2c0-1.6-0.3-2.7-0.8-3.3c-0.5-0.6-1.4-0.9-2.6-0.9h-1.6V12.5z"/>
		<path class="st0" d="M27.4,27.4v-27h12v4h-7.5v7h5.8v4h-5.8v7.9h8v4H27.4z"/>
		<path class="st0" d="M43.2,27.4v-27h4.5v23h7v4H43.2z"/>
		<path class="st0" d="M60,27.4h-4.3l4.8-27H66l4.8,27h-4.3l-0.8-6h-4.9L60,27.4z M61.4,17.4H65L63.2,5.8h-0.1L61.4,17.4z"/>
		<path class="st0" d="M73.4,27.4v-27h4.1l5.4,15.5H83V0.4h4v27h-3.9l-5.7-16.9h-0.1v16.9H73.4z"/>
		<path class="st0" d="M91.4,0.4H98c2.3,0,4.1,0.7,5.3,2c1.2,1.3,1.8,3.4,1.8,6.2v10.7c0,2.8-0.6,4.9-1.8,6.2c-1.2,1.3-2.9,2-5.3,2
			h-6.6V0.4z M95.8,23.6h1.5c1.2,0,2-0.3,2.5-0.8c0.5-0.5,0.7-1.5,0.7-3V8c0-1.4-0.2-2.4-0.7-3c-0.5-0.5-1.3-0.8-2.5-0.8h-1.5V23.6z
			"/>
		<path class="st0" d="M109.1,17v-4.4h4.2V17H109.1z M109.1,27.4V23h4.2v4.4H109.1z"/>
		<path class="st0" d="M129.5,6H126V3.5c1-0.5,2-1.1,2.8-1.6c0.9-0.6,1.7-1.2,2.4-1.8h2.3v27.4h-4V6z"/>
		<path class="st0" d="M140.8,7.4c0-2.6,0.5-4.4,1.5-5.6c1-1.2,2.6-1.8,4.9-1.8s3.9,0.6,4.9,1.8c1,1.2,1.5,3.1,1.5,5.6v13
			c0,2.6-0.5,4.4-1.5,5.6c-1,1.2-2.6,1.8-4.9,1.8s-3.9-0.6-4.9-1.8c-1-1.2-1.5-3.1-1.5-5.6V7.4z M149.2,6.3c0-1.7-0.7-2.6-2.1-2.6
			s-2.1,0.9-2.1,2.6v15.3c0,1.7,0.7,2.6,2.1,2.6s2.1-0.9,2.1-2.6V6.3z"/>
		<path class="st0" d="M165.3,27.4v-27h12.5v4h-8v7h6v4h-6v12H165.3z"/>
		<path class="st0" d="M181.3,27.4v-27h12v4h-7.5v7h5.8v4h-5.8v7.9h8v4H181.3z"/>
		<path class="st0" d="M197,27.4v-27h4.5v23h7v4H197z"/>
		<path class="st0" d="M211,27.4v-27h4.5v23h7v4H211z"/>
		<path class="st0" d="M225.3,6.9c0-0.9,0.1-1.8,0.4-2.7c0.3-0.8,0.7-1.6,1.3-2.2c0.6-0.6,1.3-1.1,2.1-1.5c0.9-0.4,1.9-0.5,3-0.5
			s2.2,0.2,3,0.5c0.9,0.4,1.6,0.9,2.1,1.5c0.6,0.6,1,1.4,1.3,2.2c0.3,0.8,0.4,1.7,0.4,2.7v13.9c0,0.9-0.1,1.8-0.4,2.7
			c-0.3,0.8-0.7,1.6-1.3,2.2c-0.6,0.6-1.3,1.1-2.1,1.5c-0.9,0.4-1.9,0.5-3,0.5s-2.2-0.2-3-0.5c-0.9-0.4-1.6-0.9-2.1-1.5
			c-0.6-0.6-1-1.4-1.3-2.2c-0.3-0.8-0.4-1.7-0.4-2.7V6.9z M229.7,20.7c0,1,0.2,1.8,0.5,2.3c0.3,0.5,1,0.7,1.9,0.7s1.5-0.2,1.9-0.7
			c0.3-0.5,0.5-1.2,0.5-2.3V7c0-1-0.2-1.8-0.5-2.3c-0.3-0.5-1-0.7-1.9-0.7s-1.5,0.2-1.9,0.7c-0.3,0.5-0.5,1.2-0.5,2.3V20.7z"/>
		<path class="st0" d="M251,0.4h3.7l3,17.2h0.1l2.5-17.2h4.2l-4.6,27h-3.7l-3.2-17.9h-0.1l-3,17.9H246l-4.9-27h4.2l2.7,17.2h0.1
			L251,0.4z"/>
		<path class="st0" d="M275.4,7c0-0.6-0.2-1.1-0.3-1.4c-0.2-0.4-0.3-0.7-0.6-0.9c-0.2-0.2-0.5-0.4-0.7-0.5C273.5,4.1,273.3,4,273,4
			c-0.7,0-1.3,0.2-1.7,0.7c-0.4,0.5-0.6,1.1-0.6,2c0,0.8,0.2,1.5,0.7,2.1c0.4,0.6,1,1.3,1.7,1.9c0.7,0.6,1.4,1.3,2.2,2
			c0.8,0.7,1.5,1.4,2.2,2.2c0.7,0.8,1.2,1.7,1.7,2.6c0.4,1,0.7,2.1,0.7,3.3c0,1.1-0.2,2.1-0.5,3s-0.8,1.6-1.4,2.2
			c-0.6,0.6-1.4,1-2.2,1.3c-0.9,0.3-1.8,0.4-2.9,0.4s-2-0.2-2.8-0.6c-0.8-0.4-1.5-0.9-2.1-1.6c-0.6-0.7-1-1.5-1.3-2.4
			s-0.5-1.9-0.5-2.9l4.2-0.6c0.1,1.4,0.4,2.4,0.9,3.1c0.5,0.7,1.1,1,1.8,1c0.8,0,1.4-0.2,1.9-0.6c0.5-0.4,0.7-1,0.7-1.8
			c0-0.9-0.2-1.7-0.7-2.4c-0.4-0.7-1-1.4-1.7-2c-0.7-0.6-1.4-1.3-2.2-1.9s-1.5-1.4-2.2-2.1c-0.7-0.8-1.2-1.6-1.7-2.6
			c-0.4-1-0.7-2.1-0.7-3.4c0-2.2,0.6-3.8,1.8-5c1.2-1.2,2.9-1.7,5.1-1.7c0.9,0,1.7,0.2,2.4,0.5c0.7,0.3,1.3,0.8,1.9,1.4
			c0.5,0.6,0.9,1.3,1.3,2.1c0.3,0.8,0.5,1.7,0.6,2.6L275.4,7z"/>
	</g>
</g>
<g id="Layer_2">
</g>
</svg>
