<?xml version="1.0" encoding="utf-8"?>
<!-- Generator: Adobe Illustrator 19.1.0, SVG Export Plug-In . SVG Version: 6.00 Build 0)  -->
<svg version="1.1" xmlns="http://www.w3.org/2000/svg" xmlns:xlink="http://www.w3.org/1999/xlink" x="0px" y="0px"
	 viewBox="0 0 277.8 27.8" style="enable-background:new 0 0 277.8 27.8;" xml:space="preserve">
<style type="text/css">
	.st0{fill:#2B328F;}
</style>
<g id="Layer_1">
	<g>
		<path class="st0" d="M0,27.4v-27h6.4c2.8,0,4.8,0.6,6.1,1.8c1.3,1.2,2,3.3,2,6.1c0,1.4-0.2,2.7-0.5,3.7s-0.8,1.8-1.5,2.5
			c-0.7,0.6-1.5,1.1-2.5,1.4c-1,0.3-2.2,0.4-3.6,0.4H4.5v11.1H0z M4.5,12.5h1.7c0.7,0,1.3-0.1,1.8-0.2c0.5-0.1,0.9-0.3,1.2-0.7
			c0.3-0.3,0.5-0.8,0.6-1.3c0.1-0.5,0.2-1.2,0.2-2c0-0.8-0.1-1.5-0.2-2s-0.3-1-0.6-1.3C8.9,4.8,8.5,4.5,8,4.4
			C7.5,4.3,6.9,4.2,6.2,4.2H4.5V12.5z"/>
		<path class="st0" d="M20.6,27.4h-4.3l4.8-27h5.5l4.8,27h-4.3l-0.8-6h-4.9L20.6,27.4z M22,17.4h3.6L23.9,5.8h-0.1L22,17.4z"/>
		<path class="st0" d="M33.8,27.4v-27h4.5v10h0.1l4.7-10h4.5l-4.8,10.1l5.4,17h-4.5l-3.6-12.6h-0.1l-1.6,3v9.6H33.8z"/>
		<path class="st0" d="M50.6,27.4v-27H55v27H50.6z"/>
		<path class="st0" d="M68.1,7c0-0.6-0.2-1.1-0.3-1.4c-0.2-0.4-0.3-0.7-0.6-0.9c-0.2-0.2-0.5-0.4-0.7-0.5C66.2,4.1,66,4,65.7,4
			c-0.7,0-1.3,0.2-1.7,0.7c-0.4,0.5-0.6,1.1-0.6,2c0,0.8,0.2,1.5,0.7,2.1c0.4,0.6,1,1.3,1.7,1.9c0.7,0.6,1.4,1.3,2.2,2
			c0.8,0.7,1.5,1.4,2.2,2.2c0.7,0.8,1.2,1.7,1.7,2.6c0.4,1,0.7,2.1,0.7,3.3c0,1.1-0.2,2.1-0.5,3c-0.3,0.9-0.8,1.6-1.4,2.2
			c-0.6,0.6-1.4,1-2.2,1.3s-1.8,0.4-2.9,0.4c-1,0-2-0.2-2.8-0.6c-0.8-0.4-1.5-0.9-2.1-1.6c-0.6-0.7-1-1.5-1.3-2.4s-0.5-1.9-0.5-2.9
			l4.2-0.6c0.1,1.4,0.4,2.4,0.9,3.1s1.1,1,1.8,1c0.8,0,1.4-0.2,1.9-0.6c0.5-0.4,0.7-1,0.7-1.8c0-0.9-0.2-1.7-0.7-2.4
			c-0.4-0.7-1-1.4-1.7-2c-0.7-0.6-1.4-1.3-2.2-1.9s-1.5-1.4-2.2-2.1c-0.7-0.8-1.2-1.6-1.7-2.6c-0.4-1-0.7-2.1-0.7-3.4
			c0-2.2,0.6-3.8,1.8-5C62.2,0.6,64,0,66.2,0c0.9,0,1.7,0.2,2.4,0.5c0.7,0.3,1.3,0.8,1.9,1.4c0.5,0.6,0.9,1.3,1.3,2.1
			s0.5,1.7,0.6,2.6L68.1,7z"/>
		<path class="st0" d="M78.5,4.4h-4.3v-4h13.1v4H83v23h-4.5V4.4z"/>
		<path class="st0" d="M91.9,27.4h-4.3l4.8-27h5.5l4.8,27h-4.3l-0.8-6h-4.9L91.9,27.4z M93.3,17.4h3.6L95.2,5.8h-0.1L93.3,17.4z"/>
		<path class="st0" d="M105.3,27.4v-27h4.1l5.4,15.5h0.1V0.4h4v27h-3.9l-5.7-16.9h-0.1v16.9H105.3z"/>
		<path class="st0" d="M123,17v-4.4h4.2V17H123z M123,27.4V23h4.2v4.4H123z"/>
		<path class="st0" d="M138.8,19.9c0-1.6,0.2-3,0.5-4.2s1.1-2,2.2-2.8c-0.8-0.6-1.4-1.4-1.8-2.4c-0.4-1-0.6-2-0.6-3
			c0-2.6,0.5-4.5,1.6-5.8c1.1-1.2,2.5-1.8,4.4-1.8c1.8,0,3.3,0.6,4.4,1.8c1.1,1.2,1.6,3.1,1.6,5.8c0,1-0.2,2.1-0.6,3
			c-0.4,1-1,1.8-1.8,2.4c1.1,0.7,1.8,1.6,2.2,2.8s0.5,2.5,0.5,4.2c0,2.6-0.5,4.5-1.6,5.9c-1.1,1.3-2.6,2-4.8,2c-2.1,0-3.7-0.7-4.8-2
			C139.3,24.4,138.8,22.5,138.8,19.9z M145.1,24.1c0.9,0,1.5-0.4,1.8-1.2s0.5-1.9,0.5-3.3c0-1.4-0.2-2.5-0.5-3.3s-0.9-1.2-1.8-1.2
			c-0.9,0-1.5,0.4-1.8,1.2s-0.5,1.9-0.5,3.3c0,1.4,0.2,2.5,0.5,3.3S144.2,24.1,145.1,24.1z M145.1,11.1c0.7,0,1.2-0.3,1.5-0.9
			c0.3-0.6,0.5-1.5,0.5-2.8c0-1.3-0.2-2.3-0.5-2.8c-0.3-0.6-0.8-0.9-1.5-0.9c-0.7,0-1.2,0.3-1.5,0.9c-0.3,0.6-0.5,1.5-0.5,2.8
			c0,1.3,0.1,2.3,0.5,2.8C143.9,10.8,144.4,11.1,145.1,11.1z"/>
		<path class="st0" d="M163.2,27.4v-27h12.5v4h-8v7h6v4h-6v12H163.2z"/>
		<path class="st0" d="M179.2,27.4v-27h12v4h-7.5v7h5.8v4h-5.8v7.9h8v4H179.2z"/>
		<path class="st0" d="M195,27.4v-27h4.5v23h7v4H195z"/>
		<path class="st0" d="M209,27.4v-27h4.5v23h7v4H209z"/>
		<path class="st0" d="M223.2,6.9c0-0.9,0.1-1.8,0.4-2.7c0.3-0.8,0.7-1.6,1.3-2.2c0.6-0.6,1.3-1.1,2.1-1.5c0.9-0.4,1.9-0.5,3-0.5
			s2.2,0.2,3,0.5c0.9,0.4,1.6,0.9,2.1,1.5c0.6,0.6,1,1.4,1.3,2.2c0.3,0.8,0.4,1.7,0.4,2.7v13.9c0,0.9-0.1,1.8-0.4,2.7
			c-0.3,0.8-0.7,1.6-1.3,2.2c-0.6,0.6-1.3,1.1-2.1,1.5s-1.9,0.5-3,0.5s-2.2-0.2-3-0.5c-0.9-0.4-1.6-0.9-2.1-1.5
			c-0.6-0.6-1-1.4-1.3-2.2s-0.4-1.7-0.4-2.7V6.9z M227.7,20.7c0,1,0.2,1.8,0.5,2.3c0.3,0.5,1,0.7,1.9,0.7s1.5-0.2,1.9-0.7
			c0.3-0.5,0.5-1.2,0.5-2.3V7c0-1-0.2-1.8-0.5-2.3C231.6,4.3,231,4,230,4s-1.5,0.2-1.9,0.7c-0.3,0.5-0.5,1.2-0.5,2.3V20.7z"/>
		<path class="st0" d="M248.9,0.4h3.7l3,17.2h0.1l2.5-17.2h4.2l-4.6,27h-3.7l-3.2-17.9h-0.1l-3,17.9H244l-4.9-27h4.2l2.7,17.2h0.1
			L248.9,0.4z"/>
		<path class="st0" d="M273.3,7c0-0.6-0.2-1.1-0.3-1.4c-0.2-0.4-0.3-0.7-0.6-0.9c-0.2-0.2-0.5-0.4-0.7-0.5C271.5,4.1,271.2,4,271,4
			c-0.7,0-1.3,0.2-1.7,0.7c-0.4,0.5-0.6,1.1-0.6,2c0,0.8,0.2,1.5,0.7,2.1c0.4,0.6,1,1.3,1.7,1.9c0.7,0.6,1.4,1.3,2.2,2
			c0.8,0.7,1.5,1.4,2.2,2.2c0.7,0.8,1.2,1.7,1.7,2.6c0.4,1,0.7,2.1,0.7,3.3c0,1.1-0.2,2.1-0.5,3c-0.3,0.9-0.8,1.6-1.4,2.2
			c-0.6,0.6-1.4,1-2.2,1.3s-1.8,0.4-2.9,0.4c-1,0-2-0.2-2.8-0.6c-0.8-0.4-1.5-0.9-2.1-1.6c-0.6-0.7-1-1.5-1.3-2.4
			c-0.3-0.9-0.5-1.9-0.5-2.9l4.2-0.6c0.1,1.4,0.4,2.4,0.9,3.1c0.5,0.7,1.1,1,1.8,1c0.8,0,1.4-0.2,1.9-0.6c0.5-0.4,0.7-1,0.7-1.8
			c0-0.9-0.2-1.7-0.7-2.4c-0.4-0.7-1-1.4-1.7-2c-0.7-0.6-1.4-1.3-2.2-1.9c-0.8-0.6-1.5-1.4-2.2-2.1c-0.7-0.8-1.2-1.6-1.7-2.6
			c-0.4-1-0.7-2.1-0.7-3.4c0-2.2,0.6-3.8,1.8-5c1.2-1.2,2.9-1.7,5.1-1.7c0.9,0,1.7,0.2,2.4,0.5c0.7,0.3,1.3,0.8,1.9,1.4
			c0.5,0.6,0.9,1.3,1.3,2.1c0.3,0.8,0.5,1.7,0.6,2.6L273.3,7z"/>
	</g>
</g>
<g id="Layer_2">
</g>
</svg>
