<?xml version="1.0" encoding="utf-8"?>
<!-- Generator: Adobe Illustrator 19.1.0, SVG Export Plug-In . SVG Version: 6.00 Build 0)  -->
<svg version="1.1" xmlns="http://www.w3.org/2000/svg" xmlns:xlink="http://www.w3.org/1999/xlink" x="0px" y="0px"
	 viewBox="0 0 264.5 27.8" style="enable-background:new 0 0 264.5 27.8;" xml:space="preserve">
<style type="text/css">
	.st0{fill:#2B328F;}
</style>
<g id="Layer_1">
	<g>
		<path class="st0" d="M0,23.7h0.9c0.9,0,1.5-0.2,1.8-0.6c0.3-0.4,0.5-0.9,0.5-1.7V0.4h4.5V22c0,0.9-0.1,1.7-0.3,2.4s-0.5,1.3-1,1.8
			c-0.5,0.5-1.1,0.9-1.9,1.2c-0.8,0.3-1.8,0.4-3.1,0.4H0V23.7z"/>
		<path class="st0" d="M14.7,27.4h-4.3l4.8-27h5.5l4.8,27h-4.3l-0.8-6h-4.9L14.7,27.4z M16.1,17.4h3.6L17.9,5.8h-0.1L16.1,17.4z"/>
		<path class="st0" d="M45.9,0.4v27H42V6.3H42l-4,21.1h-2.2l-4-21.1h-0.1v21.1h-3.9v-27h5.9l3.2,15.8h0.1l3.2-15.8H45.9z"/>
		<path class="st0" d="M52.6,27.4h-4.3l4.8-27h5.5l4.8,27h-4.3l-0.8-6h-4.9L52.6,27.4z M54.1,17.4h3.6L55.9,5.8h-0.1L54.1,17.4z"/>
		<path class="st0" d="M66.6,27.4v-27h4.5v27H66.6z"/>
		<path class="st0" d="M85,9.4V7.3c0-1.1-0.2-2-0.6-2.5C83.9,4.3,83.4,4,82.9,4C82,4,81.3,4.3,81,4.8C80.7,5.3,80.5,6,80.5,7v13.7
			c0,1,0.2,1.8,0.5,2.3c0.3,0.5,1,0.7,1.9,0.7c0.8,0,1.4-0.2,1.7-0.7s0.5-1.1,0.5-2v-3.3h4.5v3.1c0,0.9-0.1,1.8-0.4,2.7
			c-0.3,0.8-0.7,1.6-1.2,2.2c-0.5,0.6-1.2,1.1-2.1,1.5s-1.8,0.5-2.9,0.5c-1.2,0-2.2-0.2-3-0.5s-1.6-0.9-2.1-1.5
			c-0.6-0.6-1-1.4-1.3-2.2c-0.3-0.8-0.4-1.7-0.4-2.7V6.9c0-0.9,0.1-1.8,0.4-2.7c0.3-0.8,0.7-1.6,1.3-2.2c0.6-0.6,1.3-1.1,2.1-1.5
			c0.9-0.4,1.9-0.5,3-0.5c1.1,0,2.1,0.2,2.9,0.6c0.8,0.4,1.5,0.9,2.1,1.6s0.9,1.5,1.2,2.4c0.3,0.9,0.4,1.8,0.4,2.8v2H85z"/>
		<path class="st0" d="M96.6,27.4h-4.3l4.8-27h5.5l4.8,27h-4.3l-0.8-6h-4.9L96.6,27.4z M98.1,17.4h3.6L99.9,5.8h-0.1L98.1,17.4z"/>
		<path class="st0" d="M109.7,17v-4.4h4.2V17H109.7z M109.7,27.4V23h4.2v4.4H109.7z"/>
		<path class="st0" d="M133.7,7.6V6.3c0-1.7-0.6-2.6-1.9-2.6c-1.4,0-2.1,0.9-2.1,2.6v6.3c0.3-0.3,0.6-0.6,0.8-0.8s0.5-0.4,0.8-0.6
			c0.3-0.1,0.6-0.3,0.9-0.3s0.7-0.1,1.2-0.1c0.6,0,1.3,0.1,1.8,0.3c0.6,0.2,1.1,0.5,1.5,1s0.8,1,1,1.7c0.3,0.7,0.4,1.5,0.4,2.5v3.2
			c0,2.9-0.5,5-1.5,6.3c-1,1.3-2.6,2-4.9,2s-3.9-0.6-4.9-1.8c-1-1.2-1.5-3.1-1.5-5.6v-13c0-2.6,0.5-4.4,1.5-5.6
			c1-1.2,2.6-1.8,4.9-1.8c0.9,0,1.7,0.1,2.4,0.4c0.7,0.3,1.3,0.7,1.8,1.3c0.5,0.5,0.9,1.2,1.2,1.9c0.3,0.7,0.4,1.5,0.4,2.4v1.6
			H133.7z M129.7,21.5c0,1.7,0.7,2.6,2.1,2.6s2.1-0.9,2.1-2.6V17c0-0.9-0.2-1.5-0.5-1.9c-0.3-0.4-0.8-0.6-1.4-0.6
			c-0.4,0-0.8,0.1-1.3,0.4c-0.4,0.3-0.8,0.6-1,0.8V21.5z"/>
		<path class="st0" d="M150,27.4v-27h12.5v4h-8v7h6v4h-6v12H150z"/>
		<path class="st0" d="M165.9,27.4v-27h12v4h-7.5v7h5.8v4h-5.8v7.9h8v4H165.9z"/>
		<path class="st0" d="M181.7,27.4v-27h4.5v23h7v4H181.7z"/>
		<path class="st0" d="M195.7,27.4v-27h4.5v23h7v4H195.7z"/>
		<path class="st0" d="M209.9,6.9c0-0.9,0.1-1.8,0.4-2.7c0.3-0.8,0.7-1.6,1.3-2.2c0.6-0.6,1.3-1.1,2.1-1.5c0.9-0.4,1.9-0.5,3-0.5
			s2.2,0.2,3,0.5c0.9,0.4,1.6,0.9,2.1,1.5c0.6,0.6,1,1.4,1.3,2.2c0.3,0.8,0.4,1.7,0.4,2.7v13.9c0,0.9-0.1,1.8-0.4,2.7
			c-0.3,0.8-0.7,1.6-1.3,2.2c-0.6,0.6-1.3,1.1-2.1,1.5c-0.9,0.4-1.9,0.5-3,0.5s-2.2-0.2-3-0.5c-0.9-0.4-1.6-0.9-2.1-1.5
			c-0.6-0.6-1-1.4-1.3-2.2c-0.3-0.8-0.4-1.7-0.4-2.7V6.9z M214.4,20.7c0,1,0.2,1.8,0.5,2.3c0.3,0.5,1,0.7,1.9,0.7s1.5-0.2,1.9-0.7
			c0.3-0.5,0.5-1.2,0.5-2.3V7c0-1-0.2-1.8-0.5-2.3c-0.3-0.5-1-0.7-1.9-0.7s-1.5,0.2-1.9,0.7c-0.3,0.5-0.5,1.2-0.5,2.3V20.7z"/>
		<path class="st0" d="M235.7,0.4h3.7l3,17.2h0.1l2.5-17.2h4.2l-4.6,27h-3.7l-3.2-17.9h-0.1l-3,17.9h-3.7l-4.9-27h4.2l2.7,17.2h0.1
			L235.7,0.4z"/>
		<path class="st0" d="M260.1,7c0-0.6-0.2-1.1-0.3-1.4c-0.2-0.4-0.3-0.7-0.6-0.9c-0.2-0.2-0.5-0.4-0.7-0.5c-0.3-0.1-0.5-0.1-0.8-0.1
			c-0.7,0-1.3,0.2-1.7,0.7c-0.4,0.5-0.6,1.1-0.6,2c0,0.8,0.2,1.5,0.7,2.1c0.4,0.6,1,1.3,1.7,1.9c0.7,0.6,1.4,1.3,2.2,2
			c0.8,0.7,1.5,1.4,2.2,2.2c0.7,0.8,1.2,1.7,1.7,2.6c0.4,1,0.7,2.1,0.7,3.3c0,1.1-0.2,2.1-0.5,3s-0.8,1.6-1.4,2.2
			c-0.6,0.6-1.4,1-2.2,1.3c-0.9,0.3-1.8,0.4-2.9,0.4s-2-0.2-2.8-0.6c-0.8-0.4-1.5-0.9-2.1-1.6c-0.6-0.7-1-1.5-1.3-2.4
			s-0.5-1.9-0.5-2.9l4.2-0.6c0.1,1.4,0.4,2.4,0.9,3.1c0.5,0.7,1.1,1,1.8,1c0.8,0,1.4-0.2,1.9-0.6c0.5-0.4,0.7-1,0.7-1.8
			c0-0.9-0.2-1.7-0.7-2.4c-0.4-0.7-1-1.4-1.7-2c-0.7-0.6-1.4-1.3-2.2-1.9s-1.5-1.4-2.2-2.1c-0.7-0.8-1.2-1.6-1.7-2.6
			c-0.4-1-0.7-2.1-0.7-3.4c0-2.2,0.6-3.8,1.8-5c1.2-1.2,2.9-1.7,5.1-1.7c0.9,0,1.7,0.2,2.4,0.5c0.7,0.3,1.3,0.8,1.9,1.4
			c0.5,0.6,0.9,1.3,1.3,2.1c0.3,0.8,0.5,1.7,0.6,2.6L260.1,7z"/>
	</g>
</g>
<g id="Layer_2">
</g>
</svg>
