<?xml version="1.0" encoding="utf-8"?>
<!-- Generator: Adobe Illustrator 19.1.0, SVG Export Plug-In . SVG Version: 6.00 Build 0)  -->
<svg version="1.1" id="Layer_1" xmlns="http://www.w3.org/2000/svg" xmlns:xlink="http://www.w3.org/1999/xlink" x="0px" y="0px"
	 viewBox="-247 96.9 727.7 601.1" style="enable-background:new -247 96.9 727.7 601.1;" xml:space="preserve">
<style type="text/css">
	.st0{fill:#CECECE;}
</style>
<g id="NO_FELLOWS">
	<path class="st0" d="M21.1,178.1c1.9,5.3,3.4,10.8,7.8,14.8c0.6,0.5,0.9,2.3,0.5,2.9c-1.4,2.1-1.1,3.8,0.7,5.4
		c0.8,0.6,1.1,1.7,1.9,2.3s1.8,1.2,2.7,1.2c0.4,0,1-1.4,1.2-2.3c0.6-2.5,1-5.2,1.7-7.7c0.5-1.9,2-3.6,2.1-5.4c0.3-4,1.7-7.1,5.2-9.1
		c0.7-0.5,1.3-1,2-1.5c-0.6-0.9-0.9-1.4-1.2-1.7c-3-4.1-6.1-8.1-9.2-12.1c-0.5-0.6-1.6-1.2-2.2-1c-0.9,0.4-1.8,1.2-2.1,2.1
		c-0.5,1.4-0.5,2.9-2.6,3c-2,0.2-2.9-0.7-3.4-2.5c-0.3-1.2-1.1-1.5-2.2-0.7c-0.8,0.6-1.6,1.2-2.5,1.7c-1.5,1-2,2.2-1.6,4
		C20.4,173.7,20.3,176,21.1,178.1z"/>
	<path class="st0" d="M128,256.9c1.7,0.7,3.4,1.4,3.5,3.7c0,0.4,0.7,1,1.1,1.1c2.4,0.3,4.7,0.5,7.1,0.8c0.1-0.3,0.2-0.5,0.4-0.7
		c-0.5-0.8-0.9-1.5-1.5-2.2c-3.9-4.6-4-9.5-1.4-14.8c1.9-3.9,3.5-7.9,5.3-11.8c0.4-1,0.9-2,1.5-2.8c4.4-5.7,9.3-10.8,15.9-14
		c2.3-1.2,4.5-2.6,6.7-3.9c3.6-2.1,4.1-4.1,1.8-7.7c-3.6,0.4-4,0.8-6.8,3.2c-1.1,1-2.5,2.2-3.9,2.4c-5.1,0.7-9.1,3.1-12.7,6.4
		c-2.1,2-4.3,4-6.5,5.8c-1.2,1-1.6,2.1-1.4,3.7c0.1,1.3-0.3,2.9-1,4.1c-1.2,2.1-2.8,4-4.4,6.2c2.2,0.9,1.8,2,0.8,3.4
		c-2,2.9-4.7,5.7-4.1,9.8c0,0.5-0.7,1.2-1.2,1.7C125.3,253.1,125.6,255.8,128,256.9z"/>
	<path class="st0" d="M230.2,159.3c2.2,1.4,2.6,3.7,3,6c0.5,2.4,0.8,4.9,1.9,7.1c2,3.9,5.6,6,9.5,7.7c2.8,1.2,5.9-0.7,6.3-3.6
		c0.7-5.7,0.5-11.2-2.2-16.5c-2.6-5-4.9-10.2-7.3-15.4c-0.3,0.1-0.6,0.2-1,0.3c0,0-0.1,0-0.2,0c-5.8,2.5-7.6,8.2-10.6,12.8
		C229.4,158,229.8,159,230.2,159.3z"/>
	<path class="st0" d="M118,562.2c-1.9,2.6-3.9,5.2-7.2,6.2c-4,1.3-4.7,2.2-3.6,6.3c0.7,2.7,0.5,5-1.2,7.3c-1.6,2-0.7,9.4,1.1,11.1
		c0.2,0.1,0.4,0.3,0.6,0.4c2.3,1.5,5.8,0.3,6.6-2.6c2.4-8.4,4.7-16.8,6.9-25.2c0.5-1.9,0.6-4.1-1.5-5.9
		C119,560.8,118.4,561.5,118,562.2z"/>
	<path class="st0" d="M-45.3,302.5c0.4-0.5,0.4-1.7,0.1-2.5c-0.6-2-1.6-3.9-2.7-6.7c-1.1-0.5-2.7-0.4-4.3,1.1
		c-1.3,1.4-2.7,2-4.6,0.8c-0.4-0.3-1.5-0.1-2,0.2c-3.3,2-3.3,2-5.9-0.6c-0.2-0.2-0.5-0.6-0.7-0.6c-1.2,0.1-2.5-0.1-3.5,0.4
		c-0.7,0.3-1.2,1.6-1.2,2.5c0,0.5,1.2,1,1.9,1.5c0.9,0.7,1.7,1.3,2.6,2c-0.8,0.7-1.6,1.4-2.4,2.1c-0.1,0.1-0.1,0.3-0.2,0.5
		c1.1,1.4,5.4,1.3,2.3,4.7c5.2,2.4,10.1,3.3,14.9-0.4C-49,305.9-47.1,304.3-45.3,302.5z"/>
	<path class="st0" d="M46,170.1c0.8,1,3.1,1.6,4.6,1.4c2.9-0.3,6.6-0.4,8.3-2.2c4.2-4.4,3.3-8.2-1.9-11.7c-0.6-0.5-1.3-0.8-1.9-1.2
		c-3.1-1.7-3.7-3.1-5.7,1.4c-0.1,0.3-0.3,0.6-0.5,0.9c-0.7-0.5-1.2-0.7-1.5-0.9c-1.7-2.5-3.5-2.5-6-0.9c-4.2,2.5-4.7,2.6-2,6.6
		C41.1,165.9,44,167.6,46,170.1z"/>
	<path class="st0" d="M294.9,515.8c-0.6-0.1-1.6,0.2-1.9,0.6c-0.9,1.4-1.8,2.9-2.3,4.4c-0.7,2.1-2.2,2.7-4.2,2.7
		c-1,0-2.2-0.3-2.9,0.1c-2.6,1.5-5.1,1.1-7.5-0.5c-2,4.2,1.9,6.5,2.5,9.7c0,0.3,1,0.5,1.5,0.6c2.3,0.3,4.7,0.5,7,0.9
		c1.6,0.2,3.7,1.5,4.7,0.9c1.3-0.7,1.4-3,2.2-4.6c0.6-1.2,1.5-2.2,2.1-3.3c0.8-1.4,1.3-3,2-4.8c-0.5-1.5-1.1-3.5-1.9-5.5
		C296,516.5,295.4,515.9,294.9,515.8z"/>
	<path class="st0" d="M350.6,224.9c0.4,0.3,0.8,0.8,1.1,1.3c0.7,1.2,1.5,1.1,2.7,0.7c2.1-0.7,4.3-1.3,6.4-1.2c5.4,0.2,6-0.1,6.8-5.4
		c0.1-0.5,0-1.5-0.4-1.7c-3.9-2.1-7.1-5.7-12-5.2c-2.5-0.3-5-0.1-5.8,2.2C348.3,218.7,347.2,222.2,350.6,224.9z"/>
	<path class="st0" d="M380.7,551.5c-2-1.6-4-3.3-6-4.9c-1.6-1.2-2.1-2.5-0.2-4c-1.8-1-3.8-1.4-4.6-2.6c-2.3-3.5-6-4.1-9.3-5.4
		c-1.1-0.4-1.8-0.3-2,0.6c-0.4-0.2-0.8-0.3-1.2-0.3c0-0.6-0.9-1.3-1.5-1.7c-0.9-0.5-1.9-0.6-2.8-1c-3.9-1.6-5.1-1.3-8.1,1.7
		c-1.5,1.5-3.2,1.4-4.4-0.4c-0.4-0.6-0.7-1.3-1-2c-1.2,0.8-2.3,1.5-3.4,2.3c0.4,2.5,2.4,1.2,3.7,1.7c2.8,1.1,5.5,2.3,8.2,3.4
		c3.8,1.6,4.9,5,2.7,8.2c2.1,0.1,4.3,0.3,6.7,0.5c0.4,0,0.8-0.1,1.1-0.3c0,0.1,0,0.2,0,0.3c0.1,0.7,1.2,1.7,2,1.9
		c0.8,0.1,2.3-0.3,2.7-0.9c2.4-3.5,6.5-3.9,9-0.4c2.3,3.3,5.4,4.7,9.5,4.7C381.4,552.3,381.1,551.8,380.7,551.5z"/>
	<path class="st0" d="M261.9,187.4c2.7-0.9,3.8-4.3,2-6.6c-1.5-1.9-3.1-3.7-4.7-5.5c-2-2.2-3.6-1.8-4.5,1.1
		c-0.9,3.1-1.8,6.3-2.6,9.4c-0.4,1.6-0.8,3.1-1.3,5.3C254.9,189.8,258.4,188.6,261.9,187.4z"/>
	<path class="st0" d="M-151.8,612.1c-5.5-3.6-5.7-5.6-7,3c-0.8,5.2-0.7,5.2,4.2,7c3.7,1.4,6.8-0.5,6.8-4
		C-147.2,614.7-149.9,613.5-151.8,612.1z"/>
	<path class="st0" d="M-151.3,590.7c-0.8-1-1.5-2.1-2.4-3.1c-0.6-0.7-1.5-1.6-2.3-1.6c-2.7-0.1-3.1-2.9-3.1-5.4
		c0.4-0.4,0.1-1.3,0.2-3.3c-0.1,0.1,0.1-0.3,0.2-0.8c0.9-3.8-0.9-6.6-4.7-7.1c-2.1-0.2-2.2-1.8-2.4-3.4c-0.1-1.1-0.4-2.8-1.1-3.2
		c-2.4-1.4-5-2.4-7.7-3.3c-2.5-0.9-4.2-2.6-4.1-4.9c0.1-2.1-0.8-2.7-2.7-1.7c-2,1-3.9,2.1-5.5,3c-2.6,0.9-5-1.4-5.2-3.2
		c-4.5,0.7-8.5-2.6-8.5-6.9c0-0.4,0-0.8,0.2-1c2.1-2.9,3.1-6.8,7.4-7.8c0.8-0.2,1.1-2.2,1.7-3.4c-1-0.2-1.9-0.8-2.8-0.7
		c-2.3,0.1-4.4,0.2-5.6-2.5c-0.5-1.3-1.9-2.1-3.2-3.3c-2.2-0.5-4.3-1.6-6.2-1.6c-0.6-0.2-1.1-0.4-1.6-0.7c-2.2-1.5-3.6-1.3-4.9,0.9
		c-0.4,0.6-0.9,1.2-1.3,1.8c-1,1.6-0.9,3,0.7,4.3c0.4,0.4,0.6,1.4,0.6,2.1s-0.5,1.4-0.9,2.5c-0.5,0.3-1.2,0.4-2.1,0.4
		c-0.6,2.6,0,4.5,1.6,6.2c1.5,1.9,3.3,3.7,4.5,5.8c2.1,3.7,4,7.5,5.9,11.3c0.2,0.5,0.3,1.1,0.6,1.6c0.9,1.4,1.5,3.1,2.8,4.1
		c2.3,1.8,4.9,3.1,7.4,4.6c0.8,0.5,1.5,1,2.3,1.5c0.9,0.6,2.5,1.8,2.8,1.6c0.7-0.6,2.5-3,3.3-4.6c0.1,0.2,0.2,0.4,0.3,0.6
		c0.1,0.3-0.3,0.8-0.3,1.2c0,1.2-0.1,2.5,0.1,3.7c0.3,1.5,1,2.9,1.4,4.4c0.6,2.5,1.1,5,1.7,8c1.2-0.8,1.7-1.3,2.3-1.5
		c1.2-0.4,2.7-1.1,3.8-0.8c2.5,0.7,5.5,0.4,8-0.7c-0.3,1.6,0.3,2.8,1.7,3.8c2.7,1.7,5.5,3.4,8.3,4.9s2.9,1.7,1.6,4.5
		c-0.2,0.6-0.2,1.9,0.2,2.2c1.7,1.3,5.3,0.7,6.6-0.8C-150.2,596.6-150,592.2-151.3,590.7z"/>
	<path class="st0" d="M13,434.7c1.2,2.3,2.7,4.4,3.9,6.2c0.5-0.5,1.3-1.7,2.4-2.6c2.1-1.9,2.1-2.8,0-4.8c-0.7-0.6-1.4-2.3-1.1-2.6
		c2.1-2.4,1.4-4.6-0.2-6.8c-0.5-0.7-1.5-1.6-2.2-1.6c-1.5,0.1-1.9,1.3-2,2.9c-0.2,2-0.9,3.9-1.2,5.9C12.5,432.4,12.5,433.8,13,434.7
		z"/>
	<path class="st0" d="M54.9,400c-2.8,0.2-4.5,2.6-3.4,5.3c0.3,0.8,1.4,2.1,1.7,2c2.3-0.9,4.7,0.2,7.3-1.5c2.5-1.6,3.1-3.5,4.3-6.2
		c-1.3-0.2-2.4-0.5-3.3-0.5C59.3,399.3,57.1,399.9,54.9,400z"/>
	<path class="st0" d="M114.3,154.8c-0.1,2.7-2.5,5.8,1.6,7.9c0.6-0.9,1.3-1.7,2-2.6c0.9-1.1,1.8-2.3,2.8-3.2c0.9-0.8,2.1-1.1,3-1.8
		c1.1-0.9,1.5-2,0.2-3.1c-0.7-0.6-1.4-1.1-2.5-2c-1.3,2.2-2.5,4.1-3.9,6.4c-0.4-1.7-0.7-2.9-1.1-4.7c-2,0.7-3.8,1.3-5.6,1.9
		c0.1,0.2,0.1,0.5,0.2,0.7C112,154.4,113.1,154.6,114.3,154.8z"/>
	<path class="st0" d="M365.8,378.7c-1.3-6-2.4-11.9-3.7-18.4c-0.8,1.2-1.7,1.9-1.8,2.7c-0.1,2-0.3,4.1,0.3,5.9
		c1.1,3.1,0.9,6.1,0.7,9.3c-0.3,3.5-0.1,7.1-0.1,10.4c0.9,0,1.8,0,3-0.1c-3.4-3.3-2.6-6.7-0.7-10.3
		C364.4,378.4,365.2,378.6,365.8,378.7z"/>
	<path class="st0" d="M47.7,195.6c1,1,2.4,1.6,3.8,0.4c1.1-1,2.1-2.1,2.9-2.8c-1.5-2.4-2.8-4.5-4.1-6.7c-3.4,0.8-3.5,1-2.8,4.5
		c0.1,0.6-0.2,1.3-0.2,1.9C47.3,193.8,47.2,195.1,47.7,195.6z"/>
	<path class="st0" d="M289.9,547.7c-0.3-0.2-0.6-0.5-0.9-0.6c-1.9-0.8-3.8-1.7-5.8-2.4c-1.2-0.4-2.6-0.9-3.8-0.6
		c-3,0.6-5.7,0.5-8.3-1.3c-0.8-0.6-3.2-2.5-5.3-3.2c0.2-0.8,0.3-2,0.5-3.8c0-1-0.8-2.2-1.6-2.9c-2-1.8-4.8-2.9-4.5-6.3
		c0.1-0.4-0.4-0.8-0.7-1.2c-1.7-1.9-3.2-4.2-6.3-4.3c-0.8,0-1.5-0.9-2.2-1.5c-1.5-1.4-3.1-2.8-4.4-4.4c-1.6-2-3.8-2.5-6.1-2.5
		c-0.3,0.3-0.5,0.7-0.9,0.9c1.1,0.8,2.3,1.4,3.2,2.3c2,1.9,4,3.8,5.6,6c2.7,3.9,5,8,7.7,11.8c1.3,1.8,3,3.3,4.8,4.6
		c1.4,1,2.4,1.7,3.1,2.1c2,1.6,5.7,4.8,7,5c4.8,0.9,9.7,1.4,14.5,2.1c1.5,0.2,2.9,0.5,4.4,0.8C289.9,548.1,290,547.9,289.9,547.7z"
		/>
	<path class="st0" d="M-228.8,485c-2.5,0-5.1,0.2-7.6,0.7c-0.4,0.1-2.1,0.4-3.9,0.8c0.1-0.3,0.3-0.6,0.4-0.9
		c-0.1-1.4-0.3-2.9-0.4-4.4c-0.1-1.6-1.2-1.9-2.4-1.5c-0.5,0.2-1,1.5-0.8,2c0.7,1.8,0.7,2.7-1.6,3c-0.8,0.1-1.8,1.3-1.9,2.1
		c-0.1,0.6,0.9,1.7,1.7,2c0.9,0.3,1.6,0.5,2.2,0.4c1.8,0.5,4.1,1,5.8,1.2c1.1,1.4,2.5,2.9,2.5,3.2c0.9,0.6,1.8,1.2,2.7,1.8
		c0.4,0.3,0.7,0.7,1.1,1c2.2,1.5,4.6,1.2,4.9-0.6c0.5-2.5,0.4-6.1,0.7-9.5C-226.9,485.6-227.8,484.9-228.8,485z"/>
	<path class="st0" d="M309,529.5c-2.1,0.4-4.2,1.1-5.5-1.1c-3.9,3.9-0.6,7.5-0.2,11.2c1.6-6.5,1.6-6.5,3-6.2
		c-0.3,2.3,1.2,3.3,2.7,4.3c0.3-0.1,0.5-0.3,0.8-0.4c-0.8-2-1.7-4.1-2.6-6.2C307.8,530.6,308.4,530,309,529.5z"/>
	<path class="st0" d="M18.1,349.1c1.6-1.9,1.1-3.5,0.1-5.2c-4.6,1.7-6.1,4.9-4.4,9.1c0.3,0.7,1.1,1.1,1.7,1.6
		c0.3-0.6,0.6-1.1,0.9-1.7C17,351.6,17.3,350.1,18.1,349.1z"/>
	<path class="st0" d="M376.4,226.1c2.8,1.5,3.9,1,5.7-2.4c-2.8-1.1-5.4-2.1-8-3c-0.5-0.2-1.2,0.1-1.8,0.1c0.1,0.7-0.1,1.8,0.3,2.2
		C373.7,224.2,375,225.3,376.4,226.1z"/>
	<path class="st0" d="M-145.9,512.7c-0.2-0.3-0.3-0.6-0.6-0.8c-0.1-0.3-3.9-0.7-4.1-0.7c-1.9,0.3-5.9,0.6-7.2,1.7
		c-0.1,0.1-0.2,0.2-0.3,0.2c0.4-0.9,0.7-2.1,0.3-2.6c-1.4-1.9-3.2-3.5-4.9-5.2c-0.1-0.1-0.6,0-0.7,0.1c-0.4-0.3-0.9-0.6-1.3-0.8
		c0,0,0-0.1,0.1-0.1c-2.3-1.6-4.5-3-6.6-4.6c-1.5-1.2-2.9-1.1-4.6-0.4c-0.9,0.4-2.1,0.3-3.2,0.2c-1.4-0.1-2.9-0.5-4.3-0.8
		c-1.1-0.3-2.2-0.5-3.2-1c-1.4-0.7-2.4-1.8-4.3-1.1c-2,0.8-1.8,2.2-1.7,3.8c0,0.7-0.9,1.4-1.4,2.1c-0.6-0.6-1.3-1.1-1.7-1.8
		c-0.4-0.7-0.4-1.5-0.5-2.3c-0.3,0-0.6,0-0.9,0c-0.1,1.2-0.8,2.9-0.3,3.7c1.6,2.3,2.1,6.3,6.4,5.3c0.3-0.1,0.9,0.1,1.1,0.4
		c1.1,1.7,2.8,1.4,4.4,1.5c0.9,0.1,2.2,0.9,2.3,1.5c0.2,2.3-0.3,4.7,0.1,7c0.4,1.8,1.4,3.7,2.7,5c0.4,0.4,2.6-0.6,3.8-1.4
		c0.6-0.4,0.9-1.6,0.9-2.5c-0.1-1.2-0.5-2.4-0.7-3.2c2.8-0.6,5.6-1.1,8.1-1.8c0.8-0.2,3.1-0.7,4.2-1.3c0.2,0.2,0.5,0.5,0.5,0.8
		c0.4,1.6,0.6,3.3,0.9,4.9c-0.3,0.2-0.6,0.3-0.8,0.3c0.9,1,1.5,2.7,2.6,3c1.1,0.4,2.6-0.5,3.9-0.9c0-0.1-0.1-0.2-0.1-0.3
		c1.8-0.4,4.7-1.1,5.6-1.6c0.7-0.3,2.5,0.1,3.1-0.3c-0.1,0.2-0.3,0.3-0.5,0.5c0.7,0.3,1.8,1,2,0.8c1.2-1.4,2.6-2.8,3.2-4.5
		C-143.3,515-144.9,513.5-145.9,512.7z M-166.3,509.7c-0.1-0.1-0.3-0.2-0.4-0.3C-166.5,509.5-166.4,509.6-166.3,509.7L-166.3,509.7z
		"/>
	<path class="st0" d="M-208.2,472.5c0.1,0.3,0.9,0.4,1.3,0.4c1.2-0.1,2.4-0.3,3.7-0.5c-8.9-6.1-14.2-8.1-16.9-6.2
		c1.3,0.4,2.3,0.9,3.4,1.1C-213.3,468.1-210,468.9-208.2,472.5z"/>
	<path class="st0" d="M359.9,236.4c-2.1-0.1-3.3,1.4-3.7,3.9c2.6,0.3,5.1,0.5,8.2,0.8C363.2,238.4,362,236.6,359.9,236.4z"/>
	<path class="st0" d="M252.4,507.1c-1.4-2-2.5-4.3-3.7-6.4c-1.5,4,1.5,7.8,7.3,9.5C254.5,508.9,253.2,508.2,252.4,507.1z"/>
	<path class="st0" d="M-192.1,478.5c1.6-0.5,3.2-1.1,5.6-1.9c-2.4-0.9-4.1-1.7-5.7-2.3c-0.3-0.1-1.2,0.4-1.3,0.7
		c-0.3,1-0.3,2.1-0.2,3.1C-193.7,478.3-192.6,478.6-192.1,478.5z"/>
	<path class="st0" d="M-185.1,696.3c2.3,0,4.2,2.8,6.8,1.3c-2.6-2-5.1-3.7-7.8-5.7C-185.7,693.4-185.4,696.3-185.1,696.3z"/>
	<path class="st0" d="M332.8,529.3c2,1.7,4.2,2.6,6.8,2.2C339.3,527.7,336.6,526.8,332.8,529.3z"/>
	<path class="st0" d="M43.8,412.7c1.6-2,1.2-6.2-0.6-7.6C41.9,407.4,42.1,410.7,43.8,412.7z"/>
	<path class="st0" d="M461.4,255.3c-1.6-0.4-3.1-0.7-4.6-1.1c0,1.3,0,2.5,0,3.8c1.6-0.4,3.1-0.7,4.6-1.1
		C461.4,256.3,461.4,255.8,461.4,255.3z"/>
	<path class="st0" d="M48.6,354.6c-2-0.8-3.5,0-4.8,2.1c1.5,0.1,3.1,0.4,4.6,0.4c0.5-0.1,1.1-0.7,1.6-1.1
		C49.5,355.5,49.2,354.8,48.6,354.6z"/>
	<path class="st0" d="M13.3,412.1c0.8,1.2,1.4,2.2,2,3.1c0.4-1.2,1-2.3,1-3.5c-0.1-0.8-1-1.5-1.6-2.3
		C14.3,410.2,13.9,410.9,13.3,412.1z"/>
	<path class="st0" d="M275.6,477.2c1.9,0,2.9-1.2,3.4-3.4c-2,0.1-3.8-0.2-4.5,1.8C274.4,476,275.2,477.2,275.6,477.2z"/>
	<path class="st0" d="M30.9,420c-2.1,0-3.8,0-5.5-0.1c0,0.3-0.1,0.5-0.1,0.7c1.5,0.7,3,1.5,4.8,2.3C30.4,421.8,30.7,420.9,30.9,420z
		"/>
	<path class="st0" d="M-160.5,682.4c-1,0-2.1,0-3,0.3c-1,0.3-1.8,0.9-2.7,1.4c0.1,0.1,0.3,0.2,0.6,0.5c1.1,0,2.3,0.2,3.4,0.1
		c0.9-0.1,1.8-0.3,2.6-0.6c0.2-0.1,0.4-0.9,0.3-1.2C-159.5,682.6-160.1,682.4-160.5,682.4z"/>
	<path class="st0" d="M305.6,466.2c0.8-2.2,1.4-4.1,2.3-6.7C304.3,461.4,303.6,463.7,305.6,466.2z"/>
	<path class="st0" d="M41.5,398.5c-0.1-0.3-0.2-0.7-0.4-1.1c-0.1-0.8-0.3-1.8-0.3-3c0.1-0.2,0.1-0.4,0.2-0.6
		c-0.6-0.4-1.3-0.8-1.9-1.1c-1.1-0.6-2.2-0.9-3.1-1.6s-2-1.4-2.9-1.5c-0.1-0.2-0.2-0.4-0.3-0.6c-1.1,0.4-2.2,0.7-3.2,1.1
		c-0.5,0.2-1.1,0.6-1.4,1.1c-0.1,0.1,0.3,1,0.6,1.1c0.3,0,0.6,0.1,0.9,0.1c2.1,4.9,3.4,7.6,5.7,8.3c1.6,0.2,2.4,0.4,2.9,0.5
		c0.5,0.3,1,0.4,1.2,0.3C40.4,400.8,41.7,399.4,41.5,398.5z"/>
	<path class="st0" d="M22.3,354c0.4-0.1,0.8-0.2,1.1-0.3c0-1.1,0-2.1,0-3.1c-0.8,0.2-1.6,0.5-2.4,0.7
		C21.4,352.2,21.9,353.1,22.3,354z"/>
	<path class="st0" d="M119.3,499.8c0,0.2-0.1,0.4-0.1,0.7c-0.3-0.4-0.6-0.8-1-1.1c0.1-0.5,0.2-1,0.4-1.5c-0.3-0.2-0.5-0.4-0.8-0.6
		c-3.2,0.6-6.4,1.3-9.7,1.8c-0.8,0.1-1.7-0.2-2.5-0.5c-0.6-0.2-1.2-0.5-1.8-0.8c-0.4-0.3-0.9-0.5-1.5-0.6c-0.1-0.1-0.3-0.1-0.4-0.2
		c-0.1-1.1-0.5-2.2-1.2-3c-0.1-1.2-0.8-2.2-1.6-3.2c-0.4-0.4-0.8-0.7-1.2-1c-0.3-0.9-0.8-1.6-1.6-2.2c-1.7-2.4-3.3-4.7-5-7.1
		c-2.6,0.7-4.8,3.6-4.2,6.1c0,0.1,0.2,0.2,0.3,0.4c-0.6,1-0.8,2.2-0.6,3.4l-0.1,0.1c-1.4,1.6-2.4,3.5-3.4,5.4
		c-0.6,1.1-1.2,2.3-1.7,3.4c-0.9,0.5-1.8,1-2.8,1.6c-0.6-1.9-1.3-3.7-2.1-5.7c-0.3,0.4-0.5,0.5-0.6,0.8c-0.3,3.8-2.1,5.2-6,4.7
		c-0.5,0-1.2,0.4-1.7,0.7c-1.9,1.1-6.7,0.8-8.5-0.4c-0.7-0.5-2.5-0.8-2.6-0.6c-0.4,0.9-1.1,2.4-1.3,3.3c-0.8,0.1-1.6,0.4-2.1,0.8
		c-1.1-0.9-1.8-1.7-1.7-3.3c0-0.9-1.1-1.9-1.7-2.8c-0.1,0.1-0.2,0.1-0.3,0.2c0.2-1,0.1-2.1-0.2-3c0-0.4-0.2-0.9-0.5-1.5
		c-1.2-2,0-8.4,2.1-9.5c1.6-0.8,1.8-2,1.7-3.4c-0.1-1.6-0.1-3.3-0.5-4.9c-0.3-1-1-2.3-1.9-2.8c-5.1-2.8-10.4-5.5-15.7-8.1
		c-1.1-0.5-2.5-0.2-3.7-0.3c0,0.1,0,0.1,0,0.2c-1.1,0-2.3,0.4-3.2,1c-0.6-0.5-1.4-0.9-2.2-1.3c-1.8-0.8-3.4-0.9-5.2,0.3
		c-4.3,3-8.5,6.2-13.1,8.6c-1.5,0.8-2.6,1.6-3.4,2.6c-0.4-0.1-0.7-0.1-1.1-0.1c-0.5,0-1,0.1-1.5,0.2l0,0c-1.9-1.8-3.9-3.4-6-4.9
		c-3-2.3-6.1-4.4-9.2-6.5c-2.4-1.7-4.8-3.5-7.4-5c-0.4-0.3-0.9-0.4-1.4-0.4c-0.5-0.9-1.2-1.6-2.2-2.2c0-0.1,0-0.2,0.1-0.3
		c-1.4-0.9-3.4-2.3-5.9-4c0,0.2,0,0.3,0,0.5c-0.5-0.9-1.2-1.6-2.2-2.1c0.5-0.4,0.9-0.9,0.9-1.2c-0.2-2.9,1.4-4.1,3.7-4.9
		c1.3-0.5,2.8-0.7,4-1.4c1.8-1.1,4-2.1,5.1-3.7c1.2-1.6,2.5-2.5,4.2-3.2c0.7-0.3,1.7-1,1.8-1.6c0.7-4.3-2-7.4-6.2-7.5
		c-0.7,0-1.4-0.1-1.9-0.5c-1.7-1.3-2.7-0.5-3.4,1.2c-0.8,2.1-2.1,3.7-4.2,4.7c-3.4,1.6-4.8,4.6-4.4,8c0.4,3.2-1.1,5-3.3,6.6
		c-1.8,1.3-4,2.3-5.5,3.8c-4,4.1-6.4,9.2-9.3,14c-0.3,0.6-0.4,1.2-0.7,2l0,0c-0.4,1.2-0.3,2.5,0.4,3.9c0.3,0.5,0.6,1,1,1.4
		c0.8,3,0,6.1-0.2,9c0.1,0,0.1,0,0.2,0.1c-0.3,0.7-0.4,1.5-0.3,2.3c-0.9,0.9-1.7,2.3-1.7,3.4c0,0.6,0.2,1,0.5,1.2
		c-0.5,1.9,0.1,4.1,1.7,5.4c1.2,1.1,2.1,1.6,3,1.4c0.1,1.2,0.6,2.3,1.4,3.1c0.4,0.6,0.9,1.1,1.5,1.3c0,1.3,0.4,2.5,1.3,3.4l-0.1,0.1
		c1.8,1.4,3,2.4,4.2,3.3l0,0c0.9,1.3,2.4,2.3,4,3.1c1.3,1.1,2.8,2.1,4.2,2.9c0.3,0.2,1-0.1,1.6-0.4c0.7,0.2,1.4,0.2,2.1,0.1
		c0.3,0.2,0.7,0.4,0.9,0.4c2.5-0.2,5-0.6,7.5-1.1c0.3-0.1,0.7-0.4,1-0.7c0.6,0.1,1.2,0.2,1.8,0.2c0.4,0.8,1,1.3,1.7,1.1
		c2.5-0.6,4.7-1.9,7-3l0,0c0.8,0,1.5-0.2,2.2-0.5h0.1c0,0,0,0,0-0.1c0.6-0.3,1-0.7,1.4-1.2c0,0.2,0.1,0.4,0.1,0.6
		c0.2,0,0.4,0,0.7-0.1c1-3.6,2.3-7.2,3.1-10.8c0.1-0.4-0.1-0.9-0.3-1.4c0.4-1,0.5-2.2,0.3-3.4c3-3.9,3.4-3.9,8.4-2.9
		c2.3,0.5,4.8,1.3,7,1c3.3-0.5,6.4-0.8,9.5,0.7c0.8,0.4,1.7,0.3,3,0.6c0-0.1-0.1-0.1-0.1-0.2c0.4,0.1,0.8,0.2,1.3,0.2
		c0.9,2.4,1.8,4.8,2.8,7.3c-1.6,0.3-2.5,0.5-4.1,0.9c1.1,1.1,1.8,2.7,2.7,3.7c-0.3,1.2-0.2,2.5,0.3,3.7c-1.6,1.5-2,4-0.8,6
		c0.8,1.2,1.8,2.3,2.4,3.1c0.1,0,0.1,0,0.2,0c0.1,0.8,0.5,1.7,1.1,2.4c0,0,0,0.1-0.1,0.1c-0.6,1.8-1.7,2.1-3.5,1.6
		c-1.3-0.4-2.7-0.4-4.1-0.6v0.1c-0.5-0.1-0.9-0.2-1.5-0.2s-1.2,0.1-1.7,0.3c-0.4-0.1-0.8-0.1-1.2-0.2c-0.6-0.2-1.2-0.4-2-0.4
		c-1.3,0-2.4,0.4-3.2,1.1H17c0,0,0,0,0,0.1c-1.6,1.5-2,4.1-1.1,6.1c-0.1,3.1,2,6.4,5.4,7.6c0-0.1,0-0.2,0-0.2
		c0.2,0.2,0.4,0.4,0.7,0.6c-0.1,0.3-0.1,0.7-0.1,1.1c0.1,1.2,0.7,1.3,1.3,1.1c0.2,0.5,0.5,0.9,0.9,1.2c0,0.6,0.2,1.2,0.4,1.7
		c0.1,0.4,0.2,0.9,0.3,1.3c0,0.2,0,0.3,0,0.5c0,0,0,0-0.1,0c0,0.1,0.1,0.3,0.1,0.4c0,0.4,0.1,0.7,0.2,1c0.8,3.7,1.4,7.2,2.2,10.6
		c0.5,2.3-0.1,4.1-1.1,6.2c-1.6,3.2-1.1,7-2.6,11l0,0c-0.7,0.5-0.9,1.4-0.3,2.4c1.7,3.4,3.5,6.6,5.2,10c0.8,1.7,1.1,3.5,1.5,5.3
		c0.9,3.9,1.7,7.8,2.8,11.7c0.3,1.1,1.4,2,2.4,2.6l0,0c0.7,1.5,1.2,2.8,1.9,4c1.5,2.7,2.8,5.2,2.4,8.6c-0.5,4.2,2.5,5.8,6.5,4.4
		c2.3-0.8,4.9-2,7.2-1.7c5.8,0.7,10.1-1.6,13.8-5.5c2.8-3.1,5.5-6.3,7.9-9.6c0.6-0.9,0.9-2,1-2.9c0.7-0.9,1.1-2.1,0.8-3.5
		c0.1,0,0.1,0,0.2,0c-1.5-3.2,0.7-4,2.6-4.7c5.2-1.8,4.7-5.2,3.3-9.7c-0.2-0.8-0.9-1.5-0.9-2.3c0-1,0-2.5,0.6-3
		c3.3-2.7,6.7-5.2,10.2-7.5c2.2-1.4,4.2-3.1,4.3-5.7c0.2-2.6-0.1-5.1-0.3-7.6c0.1-0.3,0.1-0.7,0.1-1c-0.1-1.5-0.8-3-1.9-3.9
		c0-0.2,0-0.4,0-0.5c-0.3-1.4-1.4-2.8-1.2-4c0.7-3.1-2.6-5.8-0.8-8.9c0.5-0.5,0.9-1.1,1.2-1.7c0.6-0.2,1.1-0.9,1.6-2
		c0.6-1.4,1.7-2.7,2.5-4.1c0.2-0.4,0.3-0.9,0.3-1.4c0.4-0.2,0.7-0.5,1-0.9v0.1c3.4-2.9,6.6-5.4,9.5-8c2-1.7,3.9-3.4,5.7-5.2
		c4.4-4.6,6.7-10.5,8.9-16.3c0.4-1,0.4-2.3,0.6-3.5C120,496.3,119.6,496.8,119.3,499.8z M85,567.4c-0.1,1.2-1.3,3-2.2,3.1
		c-1.3,0.2-2.4-1.1-2.3-2.9c0-0.9-0.5-2-1.2-2.7c-1.6-1.6-3.2-1-4.7-0.3c0.5-0.6,0.9-1.2,1.2-1.9c0.9-0.9,1.4-2.5,1.7-4.4
		c0.1-0.7-0.1-1.5-0.1-1.7c0-2.2-0.1-3.6-0.3-4.5c0.6-0.6,1-1.3,1.2-2c0.2,0.1,0.5,0.2,0.7,0.4c1.1,0.7,1.9,2,2.9,3
		c0.2,0.2,0.4,0.5,0.6,0.7c-0.4,0.7-0.6,1.5-0.6,2.3c0,0.7,0.2,1.4,0.5,2c-0.1,0.4-0.1,1,0.2,1.9c0.2,1,0.9,1.9,1.3,2.9
		C84.4,564.5,85.2,566,85,567.4z"/>
	<path class="st0" d="M-48.7,132.9c-0.6-0.1-1.4,0.1-1.9,0.4c-5.5,3.2-11.5,5.5-15.6,10.6c-0.6,0.7-1.4,1.2-2.1,1.8
		c-0.2-0.1-0.4-0.3-0.6-0.4c0.6-2.5,1.2-5,2-7.4c1-2.8,0.2-5.2-1.3-7.8c-0.9,0.9-1.7,1.6-2.4,2.3c-2.3,2.5-2.4,2.6-4.9,0.2
		c-3.2-3.1-6.6-5-11.1-2.9c-0.5,0.2-1,0.2-1.5,0.3c-2.1,0.6-2.7-0.8-3.1-2.3c-0.4-1.8,1.1-1.8,2.2-1.9c4.9-0.7,9.8-1.4,14.8-1.8
		c6.6-0.5,7.2-0.6,10.2-6.4c0.3-0.6,0.2-2-0.3-2.5c-2.7-3.1-5.9-5.9-8.4-9.2c-3.9-5.2-8.8-7.6-15.2-7.8c-5.6-0.2-11.1-2.3-16.8-0.4
		c-2.7,0.9-4.2,2-5.2,4.6c-1.8,4.8-1.2,5.2-6.6,4.2c-0.7-0.1-1.4,0.1-2-0.1c-1.9-0.6-2.9,0.3-3.9,1.8c-1.6,2.5-3.3,4.8-5,7.2
		c-2.9,4-3.2,9.8-0.6,14c1.4,2.3,2.8,4.6,4.2,6.9c-0.1,0.1-0.3,0.2-0.4,0.3c-5-4.4-10.1-8.8-15.3-13.3c-2.2,3.1-4.3,6.3-6.8,9.8
		c-0.9-1.7-1.6-2.8-2-3.9c-0.8-1.9-2.1-2.5-4-2.3c-5.7,0.5-11.1,1.8-15.7,5.6c-1.9,1.6-2.9,3-2.2,5.5c0.8,2.9,0.9,5.5-2.8,6.5
		c-0.5,0.1-0.8,0.8-1.2,1.2c-2.4,3-4.9,6-7.3,9.1c-3.5,4.6-3.2,6.7,1.2,10.1c0.6,0.4,1.1,0.7,1.6,1.2c0.4,0.4,1,1,0.9,1.4
		c-0.4,2.4-0.2,5-2.9,6.7c-5.2,3.2-10.3,6.8-15.4,10.2c-2.5,1.6-2.6,4.9-0.6,7.1c3.3,3.7,7.9,4.4,12.2,5.7c0.9,0.2,1.7,0.6,2.6,1
		c-3.4,1.2-6.3,2.3-9.3,3.5c-1.5,0.6-1.9,1.5-0.9,2.9c1.4,2,2.8,4.1,4.2,6.2c1,1.5,2.3,1.8,4.1,1.6c3.8-0.5,7.6-0.6,11.4-0.8
		c5.5-0.4,8.4,3.7,11.8,6.9c0.3,0.3,0.5,1,0.4,1.4c-0.3,2.6,1,4.5,2.5,6.3c0.5,0.6,0.8,1.4,1.1,2.2c1.3,4,2.3,8.1,3.9,11.9
		c1.9,4.3,2.9,8.4,0.3,12.9c-1,1.6,0.3,2.7,2.3,2.4c0.5-0.1,1.3-0.4,1.6-0.1c2.3,2.4,4.5,4.9,6.7,7.3c-0.2,0.2-0.3,0.4-0.5,0.6
		c-0.5-0.1-1,0-1.4-0.2c-5.9-2.6-6.6-0.8-6.5,5.1c0,0.2,0,0.5,0,0.7c0.4,2.7,2.3,3.6,4.6,2.1c1.5-1,3.1-2,4.7-3.1
		c1.3,4-0.2,8.9-3,10.9c-1.9,1.4-4.3,7.1-3.9,9c0.4,1.8,0.5,3.7,0.8,5.5c0.2,1.2,0.4,2.5,1,3.5c1.5,2.4,2.4,4.9,2.5,7.9
		c0.1,2.1,1.2,4.3,2.1,6.3c1.6,3.5,3.3,6.9,5.2,10.2c0.9,1.4,2.4,3.5,3.7,3.5c3.1,0.1,5.1,1.3,7,3.5c1.2,1.4,3.8,1.1,4.2-0.4
		c0.9-3.4,2.6-6.6,1.7-10.4c-0.2-1.1,0.3-2.7,1-3.5c2.6-2.9,4.4-6,4.1-10.1c0-0.8,0.4-1.6,0.7-2.4c1.5-3.9,5.4-4.4,8.6-5.7
		c4-1.5,7.1-3.8,9-7.7c0.8-1.8,1.9-3.6,3.1-5.1c0.8-0.8,2-1.7,3.1-1.8c9.6-0.9,15.5-7.5,22-13.8c-3.2-0.3-6-0.7-8.8-1
		c-0.2-0.2-0.4-0.4-0.6-0.6c3.4-2.4,2.6-5.8,2.8-9.1c1.6,1.8,2.9,3.6,4.1,5.4c0.9,1.4,2,1.5,3.4,0.9c1.4-0.5,1.3-1.5,1.2-2.8
		c-0.3-4.3-2.6-7.4-5.9-9.9c-0.6-0.5-0.5-1.8-0.7-2.7c0.8,0,1.7-0.3,2.5-0.1c0.9,0.2,1.6,0.8,2.4,1.3c0.2-0.2,0.4-0.3,0.6-0.5
		c-0.4-1.3-0.5-2.6-1.1-3.7c-2.1-4.1-2.1-4.1,2.4-4.9c3.2-0.6,4.1-2.8,2.3-5.4c-0.5-0.7-0.9-1.6-1.5-2.6c1-0.2,1.5-0.3,2.1-0.4
		c3.1-0.3,3.1-0.4,2.1-3.3c-0.2-0.5-0.3-0.9-0.5-1.4c-0.6-1.9-2.3-3.8,0.6-5.3c0.4-0.1,0.4-1,0.4-1.6c0.3-3.9-0.2-7.5-3.4-10.2
		c-1.4-1.1-1.9-2.7,0-3.9c1.8-1.3,3.8-2.4,6-3.8c-0.1-0.5-0.4-1.4-0.8-2.3c-1.4-2.8-1.6-5.8-1.8-8.9c-0.5-8.7,1.7-16.8,4.1-25
		c0.4-1.1,0.5-2.2,0.7-3.3c-1.9-0.4-3.4-0.7-5.3-1c0.5-0.6,0.6-0.8,0.8-0.9c0.4-0.2,0.9-0.4,1.4-0.5c3.4-0.8,6.7-1.6,7.7-5.7
		c0.1-0.5,0.7-0.9,1.1-1.3c2.5-2.7,5.1-5.4,7.5-8.1c0.7-0.7,1.3-1.6,1.4-2.5C-40.4,137.6-44,133.4-48.7,132.9z"/>
	<path class="st0" d="M-211.9,502.7L-211.9,502.7L-211.9,502.7c-0.6-0.4-1.3-0.5-2.1-0.5c-2.5,0.2-5,0.4-7.5,0.8
		c-0.5,0-1,0.4-1.4,0.7c0.4,0.4,0.8,1,1.3,1.2c1,0.3,1.9,0.4,2.9,0.6c0.4,0.1,0.9,0.1,1.3,0c1.1-0.3,4.2-0.6,5.4-0.9
		c0.2-0.1,0.4,0.1,0.5,0.3c0.2,0.5,0.4,0.9,0.7,1.4c0.3,0,0.6-0.1,0.9-0.1c0-0.7,0.4-1.6,0.1-2
		C-210.2,503.4-211.2,503.1-211.9,502.7z"/>
	<path class="st0" d="M480.6,292.8c-1.8-4.2-5.2-5.8-9.9-5.2v3.8c-0.3,0.1-0.5,0.2-0.8,0.4c-0.6-1.1-1.7-2.3-1.5-3.3
		c0.3-2.1-0.5-3.5-1.9-4.8c-1.4-1.3-2.7-2.7-4.1-4c-1.3-1.2-2.7-2.3-4.2-3.6c-0.2-0.4-0.4-0.8-0.7-1.1c-3.9-3-7.8-5.9-13.2-5
		c-1,0.2-2.1-0.1-3.2-0.3c-2-0.4-4-1-6.8-1.6c0.1,1.8-0.1,3.3,0.4,4.5c1.4,3.7,1.4,3.8-2.7,5.6c-1.1-1.5-2.2-3-3.3-4.6
		c-0.8-1.3-1.8-1.6-3.3-1.5c-1.8,0.2-3.7-0.3-5.6-0.3c-2.7,0-5.4-0.1-8,0.4c-1.5,0.3-2.6,0.3-3.9-0.5c-2.1-1.2-1.7-3-1.6-4.8
		c0.1-3.4-0.9-5.1-4.2-5.5c-3.3-0.3-6.7,0.3-10.1,0.4c-1.2,0-2.8,0.3-3.5-0.3c-3-2.5-6.4-4.7-8-8.6c-0.4-0.9-1.6-1.9-2.7-2.2
		c-6.2-1.6-12.4-3.1-18.7-4.5c-3.3-0.8-5.6,1.6-4.8,4.9c0.4,1.9,0.9,3.8,1.3,5.3c-2.1,0.2-4-0.2-5.3,0.6c-1.3,0.8-2.1,0.9-3.3,0.3
		c-1.2-0.6-2.9-1.6-3.6-1.1c-2.9,1.9-5.2,1.2-7.4-0.9c-0.1-0.1-0.3,0.1-0.6,0.1c-0.8,2.3-1.6,4.7-2.5,7.4c-1.7-1.3-3.3-2.1-4.2-3.4
		c-1.8-3-4.7-5.5-2.8-9.8c1.2-2.8-1.9-9.3-4.7-10.1s-5.8-0.8-8.8-1.2c-0.1,2.1-0.2,4-0.3,6.2c-3.6-0.5-7-0.8-10.3-1.4
		c-0.6-0.1-1.1-1.4-1.5-2.1c-0.5-0.7-0.7-2-1.3-2.2c-2.1-0.6-4.5-1.3-6.6-1.1s-4,1.6-6.2,2.6c-0.3-1-0.7-2.6-1.1-4.1
		c-4.1,1.5-6.1-2.6-9.7-3c0.5-1,0.7-1.6,1.2-2.1c2.3-2.1,4.7-4.2,7-6.2c1.3-1.2,3-2.5,3.5-4.1c2.1-6-3.5-13.2-10-13.5
		c-2.7-0.1-5,0.3-7.1,2.7c0.7-5.3-2.6-6.7-7.4-7.6c1.8-1.3,2.8-2.1,3.9-2.9c-1.1-1-1.8-1.9-2.7-2.4c-0.5-0.3-1.6-0.4-2.1,0
		c-4.2,2.7-7.1,6.2-7.5,11.3c-0.1,1.7-1,2.4-2.6,2.1c-2.2-0.4-3.8,0.6-5.2,2.2c-1.1,1.2-2.3,2.3-3.4,3.4c-0.5-0.3-0.7-0.4-0.9-0.6
		c-2.7-2.4-6.6-1.8-8.5,1.2c-0.4,0.6-1.4,1.2-2.2,1.3c-3.6,0.3-6.4,2-8.7,4.7c-0.6,0.7-1.6,1-2.4,1.6c-1,0.7-2.1,1.4-2.8,2.4
		c-1.7,2.3-2,4.8-0.3,7.3c0.3,0.4,0.2,1.1,0.4,1.7c-1,0.3-1.7,0.6-2.5,0.7c-2.9,0.2-5.8,0.4-8.7,0.5c-3.9,0.1-5.4,1.5-4.9,5.2
		s1.3,7.2,2,10.9c0.1,0.5,0.2,1.1,0.3,1.6c-0.3,0-0.6,0.1-0.7,0c-1-0.9-2.1-1.9-3.1-2.9c-1.7-1.6-4.8-1.9-7.1-0.6
		c-3.1,1.7-3.4,2.4-2.8,5.6c0.2,0.9,0.2,1.8,0.4,2.7c-3.5-0.7-3.6-1.1-3.3-4.1s1.5-5.9-0.6-8.9c-0.4,4.7-0.4,4.6-3.5,9.6
		c-0.4,0.6-0.3,2,0.1,2.6c2.3,3.3,2.3,6.5,0.9,10c-0.2,0.5-0.4,1.1-0.4,1.7c0,1.9-0.6,4.1,2.3,4.8c0.3,0.1,0.7,1.4,0.5,2
		c-0.5,2-0.8,3.8,0.2,5.7c0.3,0.6,0.2,1.9-0.3,2.5c-1.9,2.5-2.3,5.6-5,7.9c-2,1.7-3,1.5-4.8,0.6c0.1-0.4,0-0.6,0.1-0.7
		c1.4-2.7,3.1-5.2,4.2-8.1c0.7-2,1.6-4.8,0.7-6.2c-1.9-3.1-1.7-6-1.6-9.2c0.1-3.1,0.5-6.5-0.7-9.2c-1.3-3-0.7-5.2,0.3-7.9
		c1.7-4.5,0.8-6.2-3.7-7.7c-2.8-0.9-3.7-0.5-4.2,2.4c-0.7,4.4-2.5,8.1-5,11.7c-0.7,1.1-1,2.8-0.8,4.2c0.2,2.9,0.8,5.7,1.3,8.9
		c4.2,2,5.6,6.8,2.4,10.5c-1.3-1.1-2.6-2.2-3.9-3.4c-4.2-3.7-8.2-7.5-14.1-8.4c-0.9-0.1-1.8,0.1-2.7,0.2c0.2,0.9,0.3,1.8,0.6,2.7
		c0.3,1.1,1.3,2.3,1,3.1c-0.6,1.7-1.8,3.1-2.9,4.8c-1.3-1.6-2.2-2.7-3.2-3.9v0.8c-2.5,0.6-5,1.2-7.4,1.8c-0.5,0.1-1.2,0.4-1.4,0.9
		c-1.5,2.3-3.2,1.4-5.1,0.5c0.6-1.3,1.2-2.6,1.9-4.1c-0.7,0.1-1,0-1.2,0.2c-4.3,2.7-8.6,5.4-12.8,8.2c-0.6,0.4-1.1,1.4-1.1,2.1
		c0.1,2.6-1.7,3.3-3.7,3.9c-2.2,0.6-3-1-3.5-2.4c-0.5-1.4-1.1-3.2,0.8-4.4c0.6-0.4,1.6-1.2,1.5-1.5c-0.2-0.9-0.8-1.9-1.6-2.3
		c-1.4-0.7-2.9-1-4-1.3c-0.2,2.3-0.4,4.4-0.5,6.4c0,0.7,0.1,1.6,0.5,2.1c2,2.7,0.7,4.8-0.6,7.5c-0.8-0.6-1.3-1.2-2-1.6
		c-0.8-0.4-2.1-1-2.4-0.7c-1.9,1.5-3.7,3.1-5.1,4.9c-0.5,0.7,0.3,2.3,0.3,3.4c0,0.8,0.1,2-0.4,2.3c-0.8,0.5-2,0.7-2.9,0.5
		c-1.2-0.3-2.1-1.3-3.2-1.8c-0.7-0.3-1.5-0.3-2.2-0.4v2.2c0.1,1.4,0.3,2.8,0.4,4.6c-5.8-2.2-6.7-3.1-6.5-7.1
		c0.2-3.7-0.6-6.8-3.6-9.2c-0.3-0.3-0.5-0.8-1.1-1.8c1.7,0,3.1-0.3,4.3,0.1c2.6,0.9,5.1,2.1,7.6,3.2c2.8,1.2,5.2,0.5,7.3-1.8
		c1.9-2.1,2.4-5,0.6-7.2c-2.1-2.6-4.9-4.7-7.3-6.9c-1.9-1.8-4-3.2-6.7-3.6c-2.7-0.3-4.8-1.6-6.5-3.8c-0.3-0.4-0.9-0.8-1.2-1.1
		l-0.1,0.1c-0.8-0.6-1.8-1-3-1c-0.6,0-1.2,0.1-1.7,0.3c-0.3-1.1-0.8-2.2-1.1-3.3c0.7-0.5,1.4-1.1,2.3-1.9c-3.5-2.3-5.9-6.5-10.9-3.8
		c-0.5,0.2-1.2,0.3-1.7,0.2c-3-0.7-4.5,1.1-5.7,3.5c-0.7,1.5-1.6,2.8-3.6,2.6c-4.1-0.3-7,1.9-9.4,4.8c-6.3,7.5-12,15.4-16,24.5
		c-3.5,8-8.2,15-15.9,19.7c-1.6,0.9-3,3.3-3,5.1c-0.1,4.8,0.3,9.8,1,14.6c0.5,3.4,4.3,4.5,6.9,2.2c1.1-1,2.1-2.1,3-3.3
		c1.1-1.4,2.1-2.3,3.5-0.3l0,0c0.1,1,0.5,2.1,1.1,2.9c0,1,0.2,2.1,0.7,3.2c1.4,3.5,2.3,7.1,3.6,10.6c0.2,0.5,1.4,1.2,1.5,1.1
		c2.2-1.7,4.3-3.5,6.3-5.4c0.4-0.4,0.4-1.2,0.5-1.9c0.2-1.4,0.4-2.9,0.6-4.4c0.3-2,0.5-3.7,2.7-4.9c2.4-1.3,2.8-5.5,1.1-7.6
		c-1.8-2.4-2.5-4.8-1.8-7.9c0.7-3.2,2.2-5.7,4.5-8c2.8-2.8,5.9-5.3,5.8-10c-0.1-1.5,1.4-4,2.7-4.5c3.4-1.4,3.5-3.6,3-6.5
		c-0.2-1-0.1-2,0-3c0.9-6.2-3.9-8.8-7.1-12.4c-0.1,0-0.2,0.1-0.3,0.1c-0.4-0.2-0.8-0.4-1.3-0.5c0.7-0.8,2.6-1.5,3.9-2.2
		c1.5,2.9,4.4,2.6,6.8,3.5c1.6,0.6,2.4,0.3,3-1c0.7-1.6,0.8-3.5,1.8-4.9c1.1-1.5,2.6-3.1,4.3-3.7c0.8-0.3,2.7,1.4,3.5,2.6
		c0.7,0.9,0.4,2.5,0.6,4.2c-0.1,0.4-0.1,0.8-0.1,1.2c-0.2,0.6-0.3,1.3-0.2,1.9c-0.8,1.2-1,2.7-0.4,3.8c0.5,1,1.3,1.9,2.2,2.7
		c1.2,1.2,1.4,2.4,0.5,3.8c-1.5,2.2-1.3,4.3-0.1,6.4c1.4,2.4,1.7,4.8,0.5,7.5c-0.4,1.1,0.3,2.6,0.5,3.9c0.2,1.3,0.8,2.7,0.6,4
		c-0.3,1.5,0.1,2.5,1,3.5c2.7,2.9,2.7,3.8,0.2,6.9c-2.1,2.8-4.3,5.4-6.5,8.2c0.8,1,1.5,1.9,2.2,2.7c-1.5,1.9-2.4,3.1-2.9,4.4
		c-0.8-0.4-1.7-0.6-2.5-0.6c-2.4-1-5.3-1.2-8.2,0.2c-1.6,0.8-1.9,2.7-0.6,3.6c1,0.7,2.1,1.5,3.1,2.2c-0.1,0.1-0.1,0.2-0.2,0.3
		c-0.3,0.4-0.5,0.9-0.6,1.4c-0.5,0.3-0.8,1-1.3,2.2c-0.3,0.6-0.8,1.4-1.4,1.7c-0.2,0-0.3,0-0.5,0.1c-0.6-0.1-1.4-0.7-1.8-1.2
		c-1.5-1.7-2.4-1.8-3.4,0.3c-0.5,1-0.6,2.2-1.1,3.9c1.1-0.2,1.5-0.3,1.7-0.4c0.5,0,1,0,1.5,0c-0.2,0.4-0.3,0.7-0.4,1.1
		c-0.9,0.5-1.9,1.1-2.1,1.8c-0.2,0.8,1.1,2,1.9,2.9c0.6,0.7,1.3,1.3,2,2s1.4,1.7,2.1,2.3c0,1,0.3,2.1,0.8,2.9
		c-0.6,1-0.8,2.2-0.4,3.8c0.2,1-0.2,2.1-0.4,3.5c0.1,0,0.1,0,0.2,0c-0.1,1.1,0.1,2.1,0.7,3c0.2,1.6-0.5,2.5-1.3,3.7
		c-0.7,1.2-1.2,2.5-1.8,3.8h-4.3l0,0c-1.2,0-2.5,0.6-3.5,0.2c-0.8-0.3-1.5-0.5-2.2-0.4l-1.7-1.7h-0.1c-2.5-1.4-4.9-2.5-7.1-3.8
		c-2.6-1.4-4.7-0.2-6.7,1.1c-1.3,0.8-1.3,2.1-0.4,3.2c1.8,2.3,3.7,4.3,7.1,3.2c0.7-0.3,1.4-0.3,2.1-0.3l3.1,0.9
		c-0.3,0.5-0.6,1-0.9,1.5c0.9,0.2,1.9,0.7,2.7,0.5c2.6-0.6,5.1-1.3,7.7-2v0.8h3.5c0.2,0.3,0.4,0.6,0.5,0.6c2.7,0.1,5.2,2.1,8.1,0.2
		c0.9-0.6,1.8-0.9,2.6-1c0.3,0.6,0.6,1.1,1,1.6c1.2,2.5,2.3,4.9,3.4,7.4v1.8h0.4l-0.1,0.1c2.4,1.1,3-0.3,3.7-1.3
		c0.5-0.8,0.9-1.4,1.3-1.8c0.7,0,1.4-0.2,2.1-0.6c0.5,0.2,1.1,0.5,2,1c0.4,0.3,0.9,0.4,1.4,0.5c2.7,0.9,2.8,1,1.2,3.4
		c0.6,1,1.1,1.9,1.8,3c1.4-0.7,2.8-1.4,4.2-2.1c-3.1-3.1-2.4-4.8,1.6-6.3c1.2-0.5,2.5-1.1,3.7-1.8c0,0.1,0.1,0.1,0.1,0.2
		c0.5,1.1,1.4,1.7,2.4,2.1c-0.1,0.1-0.2,0.2-0.2,0.3c-0.8,1.8-1.4,3.6-2.2,5.6c1.5,1.7,7.1,4.7,10,5.4c0.1,0.5,0.2,1.1,0.4,1.6
		c-0.1,0-0.2-0.1-0.3-0.1c0.8,2.7,1.3,5,4.2,5.9c0.4,0.1,0.7,0.2,1,0.3c0.1,0.4,0.4,0.9,0.6,1.3c0.3,1.2,0.9,2.3,2,3
		c0.5,2,2,3.7,4.7,3.7c1.5,0,2.6-0.5,3.4-1.3c1.6-0.5,2.1,0.2,2.8,2.5c0.6-1.5,1-2.9,1.7-4c1.2-1.8-0.2-3-1.1-4.1
		c-0.1-0.2-0.4-0.2-0.7-0.1c0-1-0.2-2.1-0.7-3c-0.8-1.6-1.5-3-2.1-4.5c-0.4-1-0.4-2.3-1-3.2c-1.2-1.5-1.3-2.8,0.1-4.1
		c1-0.9,2.1-1.7,3.1-2.6c0.4-0.3,0.9-0.6,1.1-0.9c0.1-0.2,0.1-0.4,0.1-0.6c0.3-0.2,0.6-0.6,0.9-0.9c0.6,0.5,1.3,0.4,2.1-0.2
		c2.3-1.5,4.7-1.1,7-0.7c2.7,0.4,1.7,2.6,1.8,4.2c0.1,1.3-0.3,2.6-2.1,2.2c-2.9-0.7-3.1,2-3.7,3.4c-0.4,0.9,0.8,2.7,1.6,3.8
		c0.8,1.2,2,2,3.3,3.2c0.7-0.3,1.5-0.4,2.2-0.4c0.1,0.6,0.3,1.1,0.6,1.6c0,0.1-0.1,0.1-0.1,0.2c0.7,1.2,1.3,2.4,2,3.7
		c-0.5,0.3-0.8,0.6-1.2,0.7c-1,0.2-2,0.4-3.2,0.6c0.5,3.1,3,5.3,2.4,8.6c-0.3,1.5,0.8,1.8,2.1,1.1c0.9-0.6,1.8-1.1,2.8-1.5
		c3.3-1.4,6.2,0.6,8.6,2.1c2.1,1.3,5.3,2,6.2,5.2c0.1,0.6,1.9,1.3,2.4,1c1.7-0.9,3.2-2,4.6-3.3s2.7-2.8,4-4.3
		c0.9,0.2,1.9,0.3,2.7,0.7c0.1,0.1,0.2,0.1,0.3,0.2c0.1,0,0.2,0.1,0.3,0.1c0,0,0.1,0,0.1,0.1c1.2,0.8,2.6,0.9,3.8,0.5
		c0,0.1,0,0.1,0,0.1c0.2-0.1,0.3-0.2,0.5-0.3c0.7-0.3,1.3-0.7,1.9-1.3c0.5-0.4,1.1-0.8,1.5-1.2c1.8-1.5,3.6-0.9,4,1.4
		c0.1,0.7,0.1,1.4,0.2,2c2.4-0.6,4.5-1.1,6.6-1.7c0.1,0,0.1-0.1,0.2-0.1c0.8,0.1,1.6,0.1,2.4-0.2c1,2.5,2.3,4.9,4.9,5.8
		c2.4,0.9,4,2.5,4.7,4.5c0.7,2.1,2,4.6,0.1,7c-0.3,0.3-0.1,1.6,0.3,1.9c1.7,1.3,3.5,2.4,5.4,3.4c2.6,1.4,5.6,2.3,8,4.1
		c3.5,2.5,7.2,2.9,11.1,3.1c-0.1,0.5-0.4,1.2-0.4,1.9c-0.7,1.7-0.8,2.8,1.2,3.1c0.9,0.1,2.1,0.5,2.4,1.1c1,2.3,3.1,2.2,5,2.5
		c2.2,0.4,2.1,1.4,1.1,2.9c-0.4,0.6-0.9,1.3-1.7,2.3c1-0.3,1.4-0.5,2-0.7c0.5,1.1,0.9,2,1.6,3.4c0.3-1.5,0.4-2.4,0.6-3.2
		c0.2-0.6,0.5-1.5,0.9-1.6c2.8-0.4,3.1-3,3.5-4.8c0.6-2.7,2.1-3.8,4.3-4.6c0.6-0.2,1.2-0.7,1.6-1c0.4-0.9,0.8-1.6,1.3-2.2h0.1
		c0.9,0.5,1.9,1,2.5,1.8c1.5,1.9,1.1,4.8-0.3,6.7c-0.7,1-1.2,2.2-1.9,3.6c3.5-0.1,4,2.4,4.8,4.1c1,2.1,1.8,2.9,3.3,2.4
		c-0.2,1.9-0.5,4.9-0.4,5.2c0.7,1.7,1.7,3.4,2.7,5.3c0.9-0.1,2.3-0.3,3.7-0.4c1.9-0.2,3.4,0.5,4.1,2.2c1.1,2.6,2.3,7,3.3,10
		c-1.1-0.2-2.2-0.6-2.7-0.7c-4.5-0.1-6.3,1.2-5.9,3.9c0.2,1.4,0.7,2.7,1.4,4c1,2,2.8,2.8,4.8,2c-0.1,0.9,0.4,2.2,0.2,3.2
		c0.2,0.2,0.4,0.3,0.6,0.5c3-2.4,5.9-4.9,8.9-7.3c0.3-0.2,0.4-0.6,0.5-0.9c1.5-3.8-1-10-4-11.4c0,0.1,0,0.2,0,0.3
		c-0.5-0.6-1-1.2-1.2-1.4c-1.3-1.4-3.1-2.8-4.8-4.1c-0.5-3.9,3.9-7.4,7.3-9.9h0.1c2.4,0.2,4.8,0,5.2,2.5c3.3-1.5,6.4-3.8,9.8-4.5
		c6.8-1.4,11.8-4.8,15.3-10.7c1.3-2.2,2.9-4.2,4.3-6.3c0.5-0.7,1.1-1.9,0.8-2.5c-1-2.3-0.3-4.8-0.6-7c-0.5-3-2.6-5.9-4.5-8.4
		c-1.8-2.3-2.1-3,0.2-4.8c1.8-1.4,3.7-2.8,5.6-4.2c-1.7-1.1-3.1-1.5-5-0.2c-2.7,1.9-3.4-1.6-5.2-2.5c-0.7-0.4-1-1.9-1.3-2.9
		c-0.1-0.3,0.5-0.8,0.9-1.1c2.4-1.7,4.8-3.4,7.3-4.9c0.9-0.5,2.5-0.7,3.3-0.3c1.4,0.7,0.6,1.9-0.2,2.9c-0.3,0.4-0.2,1.1-0.1,1.6
		c0,0.1,0.8,0.3,1.1,0.1c2.4-1.5,4.8-2.9,7.2-4.5c-0.1,1.2,0,3,0,3.5c0.1,1.1,0.7,2.2,0.5,3.1c-0.3,1.6,0.3,2.6,1.6,2.4
		c1.8-0.3,3.5-1.2,5.2-1.8c-0.2-0.3-0.5-0.5-0.8-0.7c0.2-1.3,0.1-3.7,0.8-3.9c4.1-1.6,4.3-5.5,6-8.6c-1.7,0-2.6,0.1-3.6,0
		c1.1-0.9,2.1-1.6,3.3-1.8c2-0.4,2.6-1.3,2.7-2.3c0.4,0.1,0.8,0.1,1.2,0.1c0,0.2,0.1,0.4,0.1,0.6c1.1,0.1,2.3-0.1,3,0.4
		c1.2,1,2.2,1,3.4,0.1c1.2-1,2.6-1.8,3.5-3.1c3.5-4.8,7-9.6,10.3-14.4c1-1.5,1.7-3.4,2.1-5.1c1-4.1,0.5-8.3,2.7-12.2
		c1.2-2.2-1.2-6.7-3.6-7.6c-0.8-0.3-2.3,0-2.8,0.6c-1.4,1.6-3.1,1-3.7,0c-1.3-2.4-3.4-3.1-6-3.4c0.4-0.7,0.6-1.1,0.9-1.4
		c5.5-6.1,11.1-12.3,16.7-18.4c0.5-0.6,1.3-1.2,2-1.3c3.8-0.4,7.7-0.9,11.6-1c2.3-0.1,4.5,0.3,6.6-1.4c1.9-1.6,4.9-0.2,5.4,2.1
		c0.1,0.5,1.1,1.3,1.6,1.3c2.1-0.3,4.2-0.8,6.9-1.3c-3.1-2.6-0.9-4.2,0.3-5.9c2.4-3.6,4.8-7,9.8-7.5c1.6-0.2,2.3,0.1,2.7,1.6
		c0.4,1.3,0.9,2.6,1.4,3.8c0.3,0.1,0.6,0.2,0.9,0.3c1.9-2.5,4.3-4.8,5.7-7.4c1.2-2.4,2.4-3,5.4-2.4c-1.3,3.1-2,6.3-3.8,8.8
		c-3.4,4.6-7.4,8.6-11.2,12.9c-0.6,0.7-1.3,1.9-2.1,2.1c-4.1,1-4.7,4.7-5.9,7.6c-1.8,4.5-0.2,8.9,0.4,13.4c0.4,2.9,1,5.6,1.6,8.4
		c0.3,0.1,0.7,0.2,1,0.3c0.9-1.6,2.1-3.2,2.6-4.9s1-2.8,2.9-3.2c0.6-0.1,1.5-0.8,1.6-1.3c0.1-3.2,1.9-5,4.8-6
		c-0.2-2.8-0.8-5.2,2.5-6.5c1.5-0.6,1.1-5.6-0.4-6.2c-2.1-1-2-2.3-1.1-4.1c1.1-2.1,2.1-4.3,3.2-6.3c0.3-0.5,0.9-0.9,1.4-1
		c1.7-0.4,3.5-0.6,5.8-1c1.1,0.8,1.1,0.8,3.4-0.6c3.7-2.2,3.7-2.2,7,0.3c0.1,0.1,0.3,0,0.6,0c4.4-6.2,11.1-9.3,17.7-12.7
		c0.7-0.4,1.8,0.1,2.6,0.1h2.8c-0.2-1-0.2-2.1-0.6-3c-1.3-3.1-2.7-6-4.2-9.2c1-0.1,1.9-0.1,3.1-0.2c0.4-3.7,0.8-7.4,1.3-11.1
		c0.5-0.1,0.9-0.2,1.3-0.2c0.4-0.1,0.9-0.1,1.4-0.2c0.1,3.5,0.1,3.3,3.5,3.6c1.1,0.1,2.9,0.8,3.1,1.5c0.5,2.3,2.2,3,3.9,3.9
		c1.3,0.7,2.7,1.3,4,1.9c0.3-1.4,0.7-2.8,0.7-4.2c-0.1-2,0.7-2.9,2.6-3.1c0.7,0,1.6,0,1.9-0.4C479.8,294.8,480.9,293.5,480.6,292.8z
		"/>
</g>
<g id="Layer_1_1_">
</g>
<g id="Year">
	<path d="M-90.5,199.3v-3.6c1.4-2.1,2.7-3.9,3.8-5.6c1.1-1.6,2-3.1,2.7-4.5c0.7-1.3,1.3-2.5,1.7-3.6c0.4-1.1,0.6-2.1,0.6-3.1
		c0-1.1-0.2-1.8-0.6-2.3s-0.9-0.7-1.5-0.7c-0.7,0-1.3,0.3-1.7,0.8c-0.4,0.5-0.6,1.2-0.6,2v1.8h-4.3v-1.2c0-1,0.2-1.9,0.5-2.7
		s0.7-1.6,1.3-2.2c0.6-0.6,1.3-1.1,2.1-1.5c0.8-0.4,1.8-0.5,2.9-0.5c0.9,0,1.8,0.2,2.5,0.5c0.8,0.3,1.4,0.8,2,1.3
		c0.5,0.6,1,1.2,1.3,1.9c0.3,0.7,0.4,1.4,0.4,2.2c0,1.1-0.1,2.1-0.3,3.1c-0.2,1-0.6,2.1-1.2,3.4c-0.6,1.3-1.5,2.8-2.6,4.5
		c-1.1,1.7-2.6,3.8-4.3,6.3h8.1v3.8h-12.8V199.3z"/>
	<path d="M-74,179.7c0-2.5,0.5-4.4,1.5-5.5c1-1.2,2.7-1.7,5-1.7s4,0.6,5,1.7c1,1.2,1.5,3,1.5,5.5v12.7c0,2.5-0.5,4.4-1.5,5.5
		c-1,1.2-2.7,1.7-5,1.7s-4-0.6-5-1.7c-1-1.2-1.5-3-1.5-5.5V179.7z M-65.4,178.5c0-1.7-0.7-2.5-2.1-2.5s-2.1,0.8-2.1,2.5v15
		c0,1.7,0.7,2.5,2.1,2.5s2.1-0.8,2.1-2.5V178.5z"/>
	<path d="M-52.8,178.3h-3.6v-2.5c1-0.5,2-1.1,2.9-1.6c0.9-0.6,1.7-1.2,2.5-1.8h2.3v27h-4.1V178.3z"/>
	<path d="M-37,191.7v2.1c0,0.7,0.2,1.3,0.6,1.7c0.4,0.4,0.9,0.6,1.5,0.6c0.7,0,1.3-0.2,1.7-0.7c0.4-0.5,0.6-1.3,0.6-2.5v-6
		c0-0.9-0.2-1.5-0.6-1.9s-0.8-0.6-1.3-0.6c-0.7,0-1.3,0.2-1.6,0.6c-0.4,0.4-0.7,0.9-0.8,1.4h-3.5c0-1,0.1-2,0.1-3s0.1-2,0.1-3
		c0-1.1,0-2.2,0.1-3.4c0-1.2,0-2.6,0-4.2H-29l-0.1,3.8h-7.2l-0.3,5.7l0.1,0.1c0.6-0.7,1.1-1.1,1.6-1.3c0.5-0.2,1.1-0.3,1.9-0.3
		c1.8,0,3,0.6,3.8,1.8c0.7,1.2,1.1,2.9,1.1,5.2v3.7c0,2.8-0.5,4.9-1.4,6.2c-1,1.4-2.5,2-4.8,2c-0.9,0-1.8-0.1-2.6-0.3
		c-0.8-0.2-1.5-0.6-2.1-1c-0.6-0.4-1-1.1-1.4-1.9s-0.5-1.7-0.5-2.8v-2L-37,191.7L-37,191.7z"/>
	<path d="M-16.9,191.1v-3.4h9v3.4H-16.9z"/>
	<path d="M3.6,199.3v-3.6c1.4-2.1,2.7-3.9,3.8-5.6s2-3.1,2.7-4.5c0.7-1.3,1.3-2.5,1.7-3.6c0.4-1.1,0.6-2.1,0.6-3.1
		c0-1.1-0.2-1.8-0.6-2.3s-0.9-0.7-1.5-0.7c-0.7,0-1.3,0.3-1.7,0.8c-0.4,0.5-0.6,1.2-0.6,2v1.8H3.7v-1.2c0-1,0.2-1.9,0.5-2.7
		s0.7-1.6,1.3-2.2c0.6-0.6,1.3-1.1,2.1-1.5c0.8-0.4,1.8-0.5,2.9-0.5c0.9,0,1.8,0.2,2.5,0.5c0.8,0.3,1.4,0.8,2,1.3
		c0.5,0.6,1,1.2,1.3,1.9c0.3,0.7,0.4,1.4,0.4,2.2c0,1.1-0.1,2.1-0.3,3.1c-0.2,1-0.6,2.1-1.2,3.4c-0.6,1.3-1.5,2.8-2.6,4.5
		c-1.1,1.7-2.6,3.8-4.3,6.3h8.1v3.8H3.6V199.3z"/>
	<path d="M20,179.7c0-2.5,0.5-4.4,1.5-5.5c1-1.2,2.7-1.7,5-1.7s4,0.6,5,1.7c1,1.2,1.5,3,1.5,5.5v12.7c0,2.5-0.5,4.4-1.5,5.5
		c-1,1.2-2.7,1.7-5,1.7s-4-0.6-5-1.7c-1-1.2-1.5-3-1.5-5.5V179.7z M28.6,178.5c0-1.7-0.7-2.5-2.1-2.5s-2.1,0.8-2.1,2.5v15
		c0,1.7,0.7,2.5,2.1,2.5s2.1-0.8,2.1-2.5V178.5z"/>
	<path d="M41.2,178.3h-3.6v-2.5c1-0.5,2-1.1,2.9-1.6c0.9-0.6,1.7-1.2,2.5-1.8h2.3v27h-4.1V178.3z"/>
	<path d="M61.1,179.9v-1.4c0-1.7-0.7-2.5-2-2.5c-1.4,0-2.1,0.8-2.1,2.5v6.2c0.3-0.3,0.6-0.6,0.8-0.8c0.3-0.2,0.5-0.4,0.8-0.6
		c0.3-0.1,0.6-0.3,0.9-0.3c0.3-0.1,0.7-0.1,1.2-0.1c0.7,0,1.3,0.1,1.9,0.3c0.6,0.2,1.1,0.5,1.5,1c0.4,0.4,0.8,1,1,1.7
		s0.4,1.5,0.4,2.5v3.2c0,2.8-0.5,4.9-1.5,6.2s-2.7,1.9-5,1.9s-4-0.6-5-1.7c-1-1.2-1.5-3-1.5-5.5v-12.7c0-2.5,0.5-4.4,1.5-5.5
		c1-1.2,2.7-1.7,5-1.7c0.9,0,1.7,0.1,2.4,0.4c0.7,0.3,1.3,0.7,1.9,1.2c0.5,0.5,0.9,1.2,1.2,1.9c0.3,0.7,0.4,1.5,0.4,2.4v1.6h-3.8
		V179.9z M57.1,193.6c0,1.7,0.7,2.5,2.1,2.5s2.1-0.8,2.1-2.5v-4.4c0-0.9-0.2-1.5-0.5-1.9c-0.4-0.4-0.8-0.6-1.4-0.6
		c-0.4,0-0.8,0.1-1.3,0.4c-0.4,0.3-0.8,0.6-1.1,0.8L57.1,193.6L57.1,193.6z"/>
</g>
<g id="Divisons">
	<path d="M98.7,178.3h-3.6v-2.5c1-0.5,2-1.1,2.9-1.6c0.9-0.6,1.7-1.2,2.5-1.8h2.3v27h-4.1L98.7,178.3L98.7,178.3z"/>
	<path d="M114.8,192.2v1.4c0,1.7,0.7,2.5,2,2.5c1.4,0,2.1-0.8,2.1-2.5v-6.3c-0.3,0.3-0.6,0.6-0.8,0.8s-0.5,0.4-0.8,0.6
		c-0.3,0.1-0.6,0.3-0.9,0.3c-0.3,0.1-0.7,0.1-1.2,0.1c-0.7,0-1.3-0.1-1.9-0.3c-0.6-0.2-1.1-0.5-1.5-1c-0.4-0.4-0.8-1-1-1.7
		c-0.3-0.7-0.4-1.5-0.4-2.5v-3.2c0-2.8,0.5-4.9,1.5-6.2s2.7-1.9,5-1.9s4,0.6,5,1.7c1,1.2,1.5,3,1.5,5.5v12.7c0,2.5-0.5,4.4-1.5,5.5
		c-1,1.2-2.7,1.7-5,1.7c-0.9,0-1.7-0.1-2.4-0.4s-1.3-0.7-1.9-1.2c-0.5-0.5-0.9-1.2-1.2-1.9c-0.3-0.7-0.4-1.5-0.4-2.4v-1.6h3.8V192.2
		z M118.9,178.5c0-1.7-0.7-2.5-2.1-2.5s-2.1,0.8-2.1,2.5v4.4c0,0.9,0.2,1.5,0.5,1.9c0.4,0.4,0.8,0.6,1.4,0.6c0.4,0,0.8-0.1,1.3-0.4
		c0.4-0.3,0.8-0.6,1.1-0.8v-5.7H118.9z"/>
	<path d="M135.3,172.8h6.8c2.4,0,4.2,0.7,5.4,2s1.8,3.3,1.8,6.1v10.4c0,2.8-0.6,4.8-1.8,6.1c-1.2,1.3-3,2-5.4,2h-6.8V172.8z
		 M139.9,195.6h1.6c1.2,0,2.1-0.3,2.6-0.8s0.7-1.5,0.7-2.9v-11.6c0-1.4-0.2-2.4-0.7-2.9s-1.3-0.8-2.6-0.8h-1.6V195.6z"/>
	<path d="M154.3,199.3v-26.5h4.6v26.5H154.3z"/>
	<path d="M173.3,172.8h4.5l-5.6,26.5h-4.6l-5.6-26.6h4.5l3.3,18.5h0.1L173.3,172.8z"/>
	<path d="M180.9,199.3v-26.5h4.6v26.5H180.9z"/>
	<path d="M198.9,179.3c0-0.6-0.2-1-0.3-1.4c-0.2-0.4-0.4-0.7-0.6-0.9c-0.2-0.2-0.5-0.4-0.8-0.5s-0.5-0.1-0.8-0.1
		c-0.7,0-1.3,0.2-1.7,0.7s-0.6,1.1-0.6,1.9s0.2,1.5,0.7,2.1c0.5,0.6,1,1.3,1.7,1.9s1.4,1.3,2.2,1.9c0.8,0.7,1.6,1.4,2.2,2.2
		c0.7,0.8,1.3,1.7,1.7,2.6c0.5,0.9,0.7,2,0.7,3.2c0,1.1-0.2,2.1-0.5,2.9c-0.4,0.8-0.8,1.6-1.5,2.1c-0.6,0.6-1.4,1-2.3,1.3
		c-0.9,0.3-1.9,0.4-2.9,0.4s-2-0.2-2.8-0.6s-1.5-0.9-2.1-1.6c-0.6-0.7-1-1.5-1.3-2.3c-0.3-0.9-0.5-1.8-0.6-2.8l4.3-0.6
		c0.1,1.4,0.4,2.4,0.9,3c0.5,0.7,1.1,1,1.8,1c0.8,0,1.4-0.2,1.9-0.6c0.5-0.4,0.7-1,0.7-1.8c0-0.9-0.2-1.7-0.7-2.4s-1-1.4-1.7-2
		s-1.4-1.3-2.2-1.9c-0.8-0.6-1.6-1.3-2.2-2.1c-0.7-0.8-1.3-1.6-1.7-2.6c-0.5-1-0.7-2.1-0.7-3.4c0-2.1,0.6-3.8,1.8-4.9
		c1.2-1.1,3-1.7,5.2-1.7c0.9,0,1.8,0.2,2.5,0.5c0.7,0.3,1.4,0.8,1.9,1.3c0.5,0.6,1,1.3,1.3,2c0.3,0.8,0.5,1.6,0.6,2.6L198.9,179.3z"
		/>
	<path d="M207.5,199.3v-26.5h4.6v26.5H207.5z"/>
	<path d="M217.1,179.2c0-0.9,0.1-1.8,0.4-2.7c0.3-0.8,0.7-1.6,1.3-2.2c0.6-0.6,1.3-1.1,2.2-1.5c0.9-0.4,1.9-0.5,3.1-0.5
		s2.2,0.2,3.1,0.5c0.9,0.4,1.6,0.8,2.2,1.5c0.6,0.7,1,1.3,1.3,2.2c0.3,0.8,0.4,1.7,0.4,2.7v13.7c0,0.9-0.1,1.8-0.4,2.7
		c-0.3,0.8-0.7,1.6-1.3,2.2c-0.6,0.6-1.3,1.1-2.2,1.5c-0.9,0.4-1.9,0.5-3.1,0.5s-2.2-0.2-3.1-0.5c-0.9-0.4-1.6-0.8-2.2-1.5
		c-0.6-0.6-1-1.3-1.3-2.2c-0.3-0.8-0.4-1.7-0.4-2.7V179.2z M221.7,192.8c0,1,0.2,1.7,0.5,2.2s1,0.7,1.9,0.7s1.6-0.2,1.9-0.7
		c0.3-0.5,0.5-1.2,0.5-2.2v-13.5c0-1-0.2-1.7-0.5-2.2s-1-0.7-1.9-0.7s-1.6,0.2-1.9,0.7c-0.3,0.5-0.5,1.2-0.5,2.2V192.8z"/>
	<path d="M235.5,199.3v-26.5h4.2l5.6,15.2h0.1v-15.2h4.1v26.5h-4l-5.8-16.6h-0.1v16.6H235.5z"/>
	<path d="M262.3,179.3c0-0.6-0.2-1-0.3-1.4c-0.2-0.4-0.4-0.7-0.6-0.9c-0.2-0.2-0.5-0.4-0.8-0.5s-0.5-0.1-0.8-0.1
		c-0.7,0-1.3,0.2-1.7,0.7s-0.6,1.1-0.6,1.9s0.2,1.5,0.7,2.1c0.5,0.6,1,1.3,1.7,1.9s1.4,1.3,2.2,1.9c0.8,0.7,1.6,1.4,2.2,2.2
		c0.7,0.8,1.3,1.7,1.7,2.6c0.5,0.9,0.7,2,0.7,3.2c0,1.1-0.2,2.1-0.5,2.9c-0.4,0.8-0.8,1.6-1.5,2.1c-0.6,0.6-1.4,1-2.3,1.3
		c-0.9,0.3-1.9,0.4-2.9,0.4s-2-0.2-2.8-0.6s-1.5-0.9-2.1-1.6c-0.6-0.7-1-1.5-1.3-2.3c-0.3-0.9-0.5-1.8-0.6-2.8l4.3-0.6
		c0.1,1.4,0.4,2.4,0.9,3c0.5,0.7,1.1,1,1.8,1c0.8,0,1.4-0.2,1.9-0.6c0.5-0.4,0.7-1,0.7-1.8c0-0.9-0.2-1.7-0.7-2.4s-1-1.4-1.7-2
		s-1.4-1.3-2.2-1.9c-0.8-0.6-1.6-1.3-2.2-2.1c-0.7-0.8-1.3-1.6-1.7-2.6c-0.5-1-0.7-2.1-0.7-3.4c0-2.1,0.6-3.8,1.8-4.9
		c1.2-1.1,3-1.7,5.2-1.7c0.9,0,1.8,0.2,2.5,0.5c0.7,0.3,1.4,0.8,1.9,1.3c0.5,0.6,1,1.3,1.3,2c0.3,0.8,0.5,1.6,0.6,2.6L262.3,179.3z"
		/>
</g>
<g id="Nations">
	<path d="M302.5,179.9v-1.4c0-1.7-0.7-2.5-2-2.5c-1.4,0-2.1,0.8-2.1,2.5v6.2c0.3-0.3,0.6-0.6,0.8-0.8c0.3-0.2,0.5-0.4,0.8-0.6
		c0.3-0.2,0.6-0.3,0.9-0.3s0.7-0.1,1.2-0.1c0.7,0,1.3,0.1,1.9,0.3c0.6,0.2,1.1,0.5,1.5,1c0.4,0.4,0.8,1,1,1.7s0.4,1.5,0.4,2.5v3.2
		c0,2.8-0.5,4.9-1.5,6.2s-2.7,1.9-5,1.9s-4-0.6-5-1.7c-1-1.2-1.5-3-1.5-5.5v-12.7c0-2.5,0.5-4.4,1.5-5.5c1-1.2,2.7-1.7,5-1.7
		c0.9,0,1.7,0.1,2.4,0.4s1.3,0.7,1.9,1.2c0.5,0.5,0.9,1.2,1.2,1.9c0.3,0.7,0.4,1.5,0.4,2.4v1.6h-3.8V179.9z M298.4,193.6
		c0,1.7,0.7,2.5,2.1,2.5s2.1-0.8,2.1-2.5v-4.4c0-0.9-0.2-1.5-0.5-1.9c-0.4-0.4-0.8-0.6-1.4-0.6c-0.4,0-0.8,0.1-1.3,0.4
		c-0.4,0.3-0.8,0.6-1.1,0.8v5.7H298.4z"/>
	<path d="M317.3,192.9h-8v-3.4l7.7-16.8h4.4v16.8h2.4v3.4h-2.4v6.4h-4.2L317.3,192.9L317.3,192.9z M317.4,189.6v-10.4h-0.1
		l-4.5,10.4H317.4z"/>
	<path d="M335.5,199.3v-26.5h4.2l5.6,15.2h0.1v-15.2h4.1v26.5h-4l-5.8-16.6h-0.1v16.6H335.5z"/>
	<path d="M356.6,199.3h-4.4l4.9-26.6h5.7l4.9,26.6h-4.5l-0.8-5.9h-5L356.6,199.3z M358,189.5h3.7l-1.8-11.4h-0.1L358,189.5z"/>
	<path d="M371.5,176.7h-4.4v-4h13.4v4h-4.4v22.6h-4.6V176.7z"/>
	<path d="M383.8,199.3v-26.5h4.6v26.5H383.8z"/>
	<path d="M393.5,179.2c0-0.9,0.1-1.8,0.4-2.7c0.3-0.8,0.7-1.6,1.3-2.2c0.6-0.6,1.3-1.1,2.2-1.5c0.9-0.4,1.9-0.5,3.1-0.5
		s2.2,0.2,3.1,0.5c0.9,0.4,1.6,0.8,2.2,1.5c0.6,0.7,1,1.3,1.3,2.2c0.3,0.8,0.4,1.7,0.4,2.7v13.7c0,0.9-0.1,1.8-0.4,2.7
		c-0.3,0.8-0.7,1.6-1.3,2.2c-0.6,0.6-1.3,1.1-2.2,1.5c-0.9,0.4-1.9,0.5-3.1,0.5s-2.2-0.2-3.1-0.5c-0.9-0.4-1.6-0.8-2.2-1.5
		c-0.6-0.6-1-1.3-1.3-2.2c-0.3-0.8-0.4-1.7-0.4-2.7V179.2z M398,192.8c0,1,0.2,1.7,0.5,2.2s1,0.7,1.9,0.7s1.6-0.2,1.9-0.7
		c0.3-0.5,0.5-1.2,0.5-2.2v-13.5c0-1-0.2-1.7-0.5-2.2s-1-0.7-1.9-0.7s-1.6,0.2-1.9,0.7c-0.3,0.5-0.5,1.2-0.5,2.2V192.8z"/>
	<path d="M411.9,199.3v-26.5h4.2l5.6,15.2h0.1v-15.2h4.1v26.5h-4l-5.8-16.6H416v16.6H411.9z"/>
	<path d="M438.6,179.3c0-0.6-0.2-1-0.3-1.4c-0.2-0.4-0.4-0.7-0.6-0.9c-0.2-0.2-0.5-0.4-0.8-0.5s-0.5-0.1-0.8-0.1
		c-0.7,0-1.3,0.2-1.7,0.7s-0.6,1.1-0.6,1.9s0.2,1.5,0.7,2.1c0.5,0.6,1,1.3,1.7,1.9s1.4,1.3,2.2,1.9c0.8,0.7,1.6,1.4,2.2,2.2
		c0.7,0.8,1.3,1.7,1.7,2.6c0.5,0.9,0.7,2,0.7,3.2c0,1.1-0.2,2.1-0.5,2.9c-0.4,0.8-0.8,1.6-1.5,2.1c-0.6,0.6-1.4,1-2.3,1.3
		c-0.9,0.3-1.9,0.4-2.9,0.4s-2-0.2-2.8-0.6s-1.5-0.9-2.1-1.6c-0.6-0.7-1-1.5-1.3-2.3c-0.3-0.9-0.5-1.8-0.6-2.8l4.3-0.6
		c0.1,1.4,0.4,2.4,0.9,3c0.5,0.7,1.1,1,1.8,1c0.8,0,1.4-0.2,1.9-0.6c0.5-0.4,0.7-1,0.7-1.8c0-0.9-0.2-1.7-0.7-2.4s-1-1.4-1.7-2
		s-1.4-1.3-2.2-1.9c-0.8-0.6-1.6-1.3-2.2-2.1c-0.7-0.8-1.3-1.6-1.7-2.6c-0.5-1-0.7-2.1-0.7-3.4c0-2.1,0.6-3.8,1.8-4.9
		c1.2-1.1,3-1.7,5.2-1.7c0.9,0,1.8,0.2,2.5,0.5c0.7,0.3,1.4,0.8,1.9,1.3c0.5,0.6,1,1.3,1.3,2c0.3,0.8,0.5,1.6,0.6,2.6L438.6,179.3z"
		/>
</g>
<rect x="78.4" y="168.5" width="3" height="36"/>
<rect x="279.5" y="168.5" width="3" height="36"/>
</svg>
