<?xml version="1.0" encoding="utf-8"?>
<!-- Generator: Adobe Illustrator 19.1.0, SVG Export Plug-In . SVG Version: 6.00 Build 0)  -->
<svg version="1.1" id="Layer_1" xmlns="http://www.w3.org/2000/svg" xmlns:xlink="http://www.w3.org/1999/xlink" x="0px" y="0px"
	 viewBox="156 95 923.8 603" style="enable-background:new 156 95 923.8 603;" xml:space="preserve">
<style type="text/css">
	.st0{fill:#FF00FF;}
	.st1{fill:#CECFCB;}
</style>
<g id="Fellows_1_">
	<g id="Afghanistan_1_">
		<path id="XMLID_78_" class="st0" d="M750.2,442.7c2-2.4,2.1-4.2-0.4-5.7c-0.3-0.2-0.6-0.9-0.6-1.3c0.1-2.7,0.2-5.4,0.6-8
			c0.1-0.5,1.2-1.2,1.8-1.1c3.6,0.3,5.6-2.2,7.5-4.3c1.3-1.4,2.3-2.3,4.1-2.1c1.2,0.1,2.4,0.5,3.7,0.6c1.8,0.2,3.6,0.2,4.9-1.5
			c0.5-0.6,1.2-1.1,1.9-1.6c1.2-0.9,1.8-0.3,2.1,0.9c0.2,0.7,0.4,1.5,0.3,2.2c-0.7,3.2,1.3,7.2-3.3,9.3c-1.1,0.5-1.6,2.6-1.9,4
			c-0.5,2.2-1.9,3-3.8,3.3c-2.2,0.4-3.8,1.5-4.2,3.9c-0.1,0.5-0.5,1.2-1,1.3C758.1,444.1,754.4,444.4,750.2,442.7z"/>
	</g>
	<g id="Algeria_1_">
		<path id="XMLID_77_" class="st0" d="M603.1,422c1-0.2,1.9-0.4,2.9-0.5c1.6-0.1,3.6-0.6,4.5,0.2c1,0.8,1.7,3.4,1.1,4.4
			c-2.4,4.2-0.4,6.7,1.7,10.4c2.8,4.8,2.9,10.7,1.8,16.3c-0.5,2.8,1,5.8,3.7,6.7c0.7,0.2,1.2,1,1.8,1.5c-0.5,0.5-0.9,1.1-1.5,1.5
			c-4.1,2.7-8.2,5.4-12.3,8.1c-0.3,0.2-0.7,0.5-1,0.7c-3.4,2-4.7,1.8-7.8-0.5c-7.5-5.5-15.2-10.8-22.8-16.2c-1.5-1.1-3-2.1-4.5-3.2
			c-3.1-2.3-2.9-4.8,0.5-6.5c2.6-1.3,5.4-2.5,7.9-3.9c1-0.6,1.6-1.8,2.6-2.4c1.2-0.9,2.5-1.7,4-2.2c1.6-0.5,2.2-1.1,1.7-2.8
			c-0.5-1.7-1.1-3.4-1.2-5.1c0-1,0.6-2.7,1.4-3c4.6-1.9,9.1-4.1,14.3-3.9c0.3,0,0.7,0,1,0C603.1,421.8,603.1,421.9,603.1,422z"/>
	</g>
	<g id="Argentina_1_">
		<path id="XMLID_76_" class="st0" d="M424.8,646.5c-2.4,1.7-4.1,3.4-4.4,6.3c-0.1,0.8-1.1,1.7-2,2.1c-1.9,1-3.5,2.4-3.3,4.5
			c0.2,1.4,1.5,2.8,2.7,3.8c1.8,1.5,1.9,2.6,0.3,4.3c-1.3,1.4-2.2,3-3.3,4.5c-0.4,0.6-0.6,1.5-1.2,1.9c-3,1.9-3.2,4.5-2.2,7.6
			c0.1,0.4,0.1,0.8,0.2,1.2c-1.5,0-2.9,0.1-4.3,0c-3.1-0.3-3.7-1-4-4.2c-0.1-0.6-0.4-1.2-0.9-1.6c-2-1.5-2.3-3.5-1-5.7
			c0.8-1.4,1.2-3,1.7-4.5c0.2-0.7,0.2-1.5,0.5-2.2c1.6-3.4,1.7-6.9,1.5-10.5c-0.4-5.6-1.2-11.2,0.1-16.8c0.2-0.9,0.6-1.7,0.8-2.6
			c0.3-1.5,0.5-2.9,0.9-4.4c0.4-1.6,0.8-3.2,1.1-4.9c0.7-3.6,2.8-6.9,1.3-10.8c-0.8-2.2-1.4-4.4,0-6.7c0.4-0.7,0.3-1.8,0.5-2.7
			c0.2-1.2,0.2-2.7,0.8-3.6c2.2-3.1,3.2-6.4,3.5-10.3c0.2-2.6,2.6-5.1,4.2-7.4c0.4-0.5,1.8-0.5,2.7-0.3s1.7,1,2.5,1.5
			c2.9-2.1,2.8-1.9,5.8,0.5c2.8,2.2,5.9,4,9,5.7c1.9,1,2.2,1.9,1.2,3.7c-1.6,2.7-1.3,3,1.7,3.7c4.8,1.1,6.4,0.3,8.3-4.2
			c0.1-0.2,0.3-0.3,0.7-0.6c1.1,1.9,0.4,3.1-1.1,4.3c-2,1.6-3.9,3.3-5.8,5.1c-3.7,3.4-3.8,8.1-4.5,12.6c-0.4,2.4-0.3,4.2,2,6.1
			c3.2,2.7,2,8.4-1.9,10c-2,0.8-4.3,1.3-6.5,1.3c-2.4,0-3.9,0.5-3.6,3.3c0,0.1,0,0.2,0,0.2c-0.4,4.3-0.8,4.5-5,3.6
			c-0.6-0.1-2.1,0.6-2.1,0.9c0.1,1.5,0.4,2.9,1,4.3C422.8,646.1,423.9,646.2,424.8,646.5z"/>
	</g>
	<g id="Australia_1_">
		<path class="st0" d="M988.1,596.1c-0.5-2.1-0.9-4-2.5-5.5c-1.6-1.6-3.6-2.9-3.8-5.6c0-0.3-0.8-0.6-1.2-1c-0.8-0.7-1.7-1.3-2.3-2.1
			c-1-1.3-1.6-3.4-2.9-4.1c-4.2-2.1-6.4-5.4-7-9.9c-0.2-1.3-0.5-2.6-1-3.8c-0.3-0.7-1.1-1.8-1.5-1.7c-2.7,0.6-2.3-1.5-2.8-3
			c-0.6-2-1.3-3.9-2-5.9c-0.3,0-0.7,0.1-1.1,0.1c-0.3,2.4-0.5,4.8-0.9,7.2c-0.5,2.9-1,5.7-1.8,8.5c-0.4,1.7-1.8,2.5-3.5,1.5
			c-3.5-1.9-7-3.9-10.3-6.1c-0.6-0.3-0.9-1.7-0.7-2.4c0.6-2,1.5-3.9,2.3-5.9c-1.6,0-3.1,0.2-4.5,0c-2.2-0.3-4-0.5-6.4-0.1
			c-4,0.7-5.2,3.3-6.6,6.2c-0.3,0.7-1.6,1.5-2.3,1.4c-1.1-0.1-2.1-1.1-3.2-1.6c-0.7-0.3-1.6-0.8-2.2-0.6c-3.3,1.1-6.1,3.6-7,6.5
			c-0.9,2.7-1.9,1.6-3.3,1.2c-0.6,1.4-1,2.9-1.8,4.1c-1.6,2.2-3.5,3.8-6.3,4.5c-3.8,1-7.7,2.1-11.1,4.1c-4,2.3-6.3,5.8-3,10.5
			c0.4,0.6,0.8,1.7,0.5,2.1c-2,2.7-0.1,4.9,0.7,7.2c1.2,3.5,2.4,6.9,3.3,10.4c0.3,1.2-0.2,2.6-0.4,3.9c-0.1,1.1-0.7,2.4-0.3,3
			c0.6,0.9,2,1.7,3.1,1.7c2-0.1,4.3-0.3,5.8-1.4c2.3-1.6,4.4-2.1,7-1.8c2.4,0.2,4.7,0.2,6-2.4c0.3-0.7,1.2-1.2,2-1.4
			c4.4-1.3,8.8-2.5,13.2-3.5c5.5-1.2,11.8,2.3,14.1,7.4c0.3,0.6,0.6,1.3,1.1,2.5c1.9-2,3.4-3.8,5-5.5c0.2,0.1,0.5,0.2,0.8,0.3
			c-0.3,1.7-0.5,3.3-0.7,5c0.3-0.2,0.9-0.4,1.2-0.5c1.5,2.8,3.2,5.2,4.3,7.9c1.4,3.4,4.5,3.9,7.3,5c2.1,0.8,3.3-0.3,4.7-1.4
			c0.3-0.3,0.9-0.4,1.3-0.5c1.7,3.6,3,3.8,6,1.2c1.1-1,2.6-1.6,4.1-2c1.5-0.3,2.3-1,2.6-2.5c0.4-2.2,1-4.4,1.9-6.4
			c1.5-3.1,3.6-6,4.7-9.2C988.4,606.7,989.2,601.5,988.1,596.1z"/>
		<path class="st0" d="M974.2,641.8c-2.1-0.2-4.3-0.1-6.7-0.1c0.6,1.9,1.2,4,2,6c0.2,0.6,1.2,1.4,1.7,1.3c2.2-0.3,4.6-3.3,4.3-5.6
			C975.4,642.8,974.7,641.8,974.2,641.8z"/>
	</g>
	<g id="Austria_1_">
		<path id="XMLID_74_" class="st0" d="M616.8,384.5c1.6-0.2,3.3-0.1,4.8-0.6c1.1-0.3,2.2-1.3,2.9-2.2c1-1.1,1.4-2.5,3.5-1.8
			c1.2,0.4,2.8-0.3,4.2-0.3c0.6,0,1.5,0.2,1.6,0.6c0.2,0.5,0,1.3-0.2,2c-0.1,0.3-0.6,0.4-0.6,0.7c-0.4,1.4-0.2,2.8-2.1,3.5
			c-2.4,0.8-4.7,1-6.7-0.3c-1.6-1-3-1.3-4.8-0.7c-0.7,0.3-1.7-0.1-2.6-0.2C616.8,385,616.8,384.7,616.8,384.5z"/>
	</g>
	<g id="Bangladesh_1_">
		<path id="XMLID_73_" class="st0" d="M821.5,454.4c2.3,1.2,5,2.6,7.9,4.2c-0.4,0.5-1.1,1.1-1.5,1.8c-0.4,0.7-0.4,1.6-0.6,2.4
			c-0.6,0.5-1.5,0.9-2.2,1.6c-1.3,1.4-2.5,1.3-3-0.6c-0.5-1.7-0.7-3.6-0.9-5.3C821.2,457.1,821.4,455.8,821.5,454.4z"/>
	</g>
	<g id="Belgium_1_">
		<path id="XMLID_71_" class="st0" d="M598.8,369.5c1.8-0.2,3.2-0.8,4.5-0.4c1,0.3,2,1.4,2.5,2.4c0.3,0.5-0.5,2.2-0.9,2.2
			c-1.1,0-2.5-0.2-3.4-0.8C600.5,372.1,599.9,370.8,598.8,369.5z"/>
	</g>
	<g id="Brazil_1_">
		<path id="XMLID_70_" class="st0" d="M456.9,514.5c1.2,2.2,2.4,4.1,3.4,6.1c0.2,0.4-0.2,1.3-0.6,1.7c-1.3,1.7-0.5,2.6,1.1,2.7
			c2,0.1,3.3,0.7,3.8,2.7c3.7-1.5,7.7-0.2,10.2,3c0.3,0.4,1.1,0.6,1.7,0.7c1.6,0.2,3.3,0.4,4.9,0.6c1.4,0.2,2.9,0,4.1,0.5
			c2.1,0.8,4.1,1.9,6.1,2.9c1.3,0.7,2.4,1.8,3.8,2.2c3.3,1,5,3,4.4,6.4c-0.4,2.1-1.6,4.1-2.8,5.9c-2.3,3.4-4.9,6.5-7.2,9.8
			c-0.4,0.6-0.5,1.5-0.7,2.4c-0.7,4.5-1,9.1-2.3,13.4c-0.9,3-3.1,5.7-5,8.4c-0.5,0.7-1.6,0.9-2.5,1.3c-3.9,1.6-7.9,3-11.6,5
			c-2.4,1.3-3.8,3.6-3.7,6.6c0,1-0.4,2.1-0.8,3.1c-2.2,4.5-4.1,9.3-8.2,12.7c-1,0.8-1.5,2.3-2,3.3c-0.5-1.1-0.8-2.3-1.6-3.1
			c-1.9-1.8-4-3.4-6.2-4.9c-2.4-1.7-2.6-2.6-0.4-4.6c1.6-1.5,3.4-2.9,5.1-4.3c2.5-2,2.7-3.1,0.9-5.6c-0.2-0.3-0.7-0.7-0.7-1
			c0.1-3.2-2.4-4.9-4.1-7.1c-1-1.3-1.7-2.6-3.7-2.2c-0.3,0.1-1.3-0.9-1.3-1.3c0-2.1,0.3-4.3,0.3-6.4c0-1.6,0-3.3-0.3-4.9
			c-0.5-2.4-1.7-4.1-4.6-3.7c-1.4,0.2-2.2-0.6-2-2.2c0.3-2.6-0.4-4.4-3.3-5.2c-2.5-0.7-4.9-1.9-7.3-3c-1.5-0.7-2.4-1.7-2.2-3.7
			c0.3-3-0.5-3.5-3.5-2.7c-0.6,0.2-1.1,0.4-1.6,0.7c-0.4,0.2-0.8,0.5-1.3,0.8c-3.7,2.5-6.2,1.8-7.6-2.3c-0.5,0.2-1.1,0.3-1.5,0.5
			c-1.4,0.9-2.6,0.6-3.5-0.6c-1-1.4-1.9-2.9-2.9-4.3c-0.2-0.3-0.3-0.7-0.2-0.9c0.9-1.7,1.5-3.7,2.9-5c1.2-1.2,3.1-2,4.9-2.3
			c2-0.3,2.9-1.2,2.8-3c0-2.5-0.3-5-0.3-7.6c0-1,0.4-1.9,0.7-2.9c0.2-0.6,0.5-1.2,1-2.4c1.6,0.5,3.6,0.7,5.2,1.6
			c2.8,1.7,4.5-0.2,6.5-1.3c1.9-1,1.4-2.8,1.1-4.4c-0.1-0.3,0-0.6,0-0.8c3.3-1.1,6.5-2.1,10.1-3.2c0.1,0.9,0.7,2,0.4,3
			c-0.6,2.2,0.5,3.8,1.6,5.2c0.5,0.6,1.7,1.1,2.3,1c2.4-0.6,4.7-1.5,7-2.2c0.9-0.3,1.9-0.4,2.8-0.2c4.3,1,4.5,0.9,6.8-2.8
			C456,515.6,456.4,515.1,456.9,514.5z"/>
	</g>
	<g id="Burma_1_">
		<path id="Burma__x28_Myanmar_x29__1_" class="st0" d="M846.1,484.4c1.6-2.1,0.3-3.9-0.9-5.5c-1.7-2.1-2-3.9-0.1-5.9
			c0.6-0.7,1.3-1.2,2-1.7c1.7-1.2,3.4-2.3,4.8-3.2c-1.5-1.3-3-2.1-3.5-3.3c-0.8-1.8-1.3-3.6-3.5-4.3c-0.5-0.2-1.1-1.4-1-1.9
			c0.4-1.2,1-2.4,1.8-3.4c1.7-2,1.4-5-1.3-6.9c-0.2,2.3-1.4,3-3.3,3.4c-1.1,0.2-2.1,1.8-2.8,3c-1.1,1.9-1.4,4.4-2.9,5.7
			c-2.7,2.3-2.5,5.5-3.8,8.2c-0.2,0.4,0.3,1.3,0.7,1.8c1,1.5,2.3,2.7,3,4.3c0.7,1.5,0.9,3.3,1.3,4.9c0.2,0.8,0.1,2,0.5,2.2
			c0.7,0.3,1.8,0.2,2.5-0.2c4.4-2.2,4.4-2.2,5.9,2.7l0.1,0.1c0,0.6,0.1,1.5,0.3,2.6c0.6,2.3,1.2,4.7,1.8,7c0.4-0.1,0.7-0.2,1-0.3
			c-0.6-2.3-1.3-4.7-1.9-7C846.5,485.7,846.3,484.9,846.1,484.4z"/>
	</g>
	<g id="Cameroon_1_">
		<path id="XMLID_68_" class="st0" d="M632.1,518.3c-5.1-0.1-9.5-0.2-13.9-0.3c-0.2,0-0.6,0.1-0.7-0.1c-1.3-2.1-3.2-4.2-3.6-6.5
			c-0.4-2.1,1.7-3.6,4.1-3.7c2.3-0.1,3.7-1.2,4.6-3.5c1-2.7,2.6-5.2,4-7.7c0.4-0.7,1.1-1.3,2-2.2c0.4,1.2,0.6,1.9,0.8,2.7
			c-3.4,1.7-3.5,1.9-1.1,4.7c1.5,1.8,1.8,3.3,0.5,5.3c-1.4,2.2-1.2,4.5,0.4,6.7C630.3,515.2,631.1,516.7,632.1,518.3z"/>
	</g>
	<g id="Canada_1_">
		<path class="st0" d="M445.5,361.1c-1.4-2.8-3.4-6.1-6-7.5c-2.8-1.5-5.1-3.5-7.6-5.3c-1.4-1-2.2-2-1.5-3.9c0.3-0.7-0.1-1.8-0.5-2.6
			c-1-2.3-2.2-4.6-3.4-6.9c-1.1-2.2-2.2-4.4-3.7-7.2c-0.9,1.9-1.3,3.2-2.1,4.3c-1.3,1.8-2.7,3.5-4.2,5.1c-0.3,0.4-1.5,0.5-1.7,0.3
			c-1.7-2.5-5.2-3.6-4.9-7.5c0.1-1.6-0.1-3.2-0.5-4.7c-0.2-0.7-0.9-1.8-1.6-1.9c-1.7-0.4-2.6-1.3-3.7-2.6c-1.5-1.7-3.6-4.2-5.3-4.1
			c-2.5,0.1-4.7-0.3-7-0.9c-1.9-0.5-3.1,0.2-2.9,2.2c0.2,2.9,0.8,5.8,0.9,8.7c0.1,1.7,0,3.6-0.8,5.1c-1.1,2.1-1.1,3.4,0.5,5.3
			c2.9,3.4,4.7,8.7,0.2,13.5c-1.5,1.5-3.2,2.8-4.6,3.9c0.6,2.6,1.4,5,1.6,7.4c0.2,1.9-0.3,3.9-1.1,5.7c-0.9,2-2.3,1.9-4,0.5
			c-3.6-3.1-4.9-7.3-5.2-11.8c-0.3-3.9-0.1-3.5-4.2-4.3c-3.9-0.7-7.1-2.6-10-5.1c-2.7-2.2-5.4-4.4-9.1-3.8c-2,0.4-2.7-0.2-3.1-2
			c-0.2-1-0.7-1.9-0.9-2.9c-0.4-1.9-1.2-3.1-3.2-3.7c-0.7-0.2-1.5-1.7-1.6-2.6c-0.5-5.7,1.9-10.6,4.6-15.3c0.7-1.2,1.4-2.7,2.5-3.3
			c2.2-1.1,3.2-2.7,3.7-5.1c0.2-1,1.6-2.4,2.5-2.4c4.1-0.2,5.1-3.1,6.3-6.1c1.2-3.2,2.6-6.2,4-9.6c2.5,2,4.8,1.9,6.9,0
			c1.8-1.7,4.9-3.1,4-5.8c-1.2-3.5-0.4-6.4,0.2-9.7c0.5-2.6-2.7-5.4-6.4-6.3c-2.8-0.7-3.5-0.2-3.5,2.7c0.1,5.2-1.7,9.8-4.3,14.1
			c-0.3,0.5-0.8,0.8-1.2,1.2c-2-2.3-3.2-4.6-2.5-7.6c0.5-2.3-0.3-4-2.4-5.3c-1,1.5-2,2.8-3.4,4.7c-0.1-1.5-0.3-2.3-0.2-3
			c0.3-2.9,0-5.3-3.6-5.9c-0.3-0.1-0.6-1.4-0.5-2.1c0.1-0.9,1.2-2,0.9-2.7c-1.6-3.9-3.4-7.7-5.4-11.4c-0.5-1-2.1-1.8-3.4-0.3
			c-3.4,4.1-3.3,10.9-0.1,15.1c1.5,1.9,2.7,4.3,3,6.6c0.2,2.4,0.3,5.4-2.9,6.8c-0.5,0.2-0.6,1.3-0.9,2s-0.5,1.4-0.8,2.1
			c-0.3,0-0.5-0.1-0.8-0.1c0-1.5,0.1-2.9,0-4.4c-0.2-2.1-2-3-3.6-3.2c-1.9-0.2-1.8,1.6-1.8,2.9c0,1.5-0.8,2-2.2,2.1
			c-3.5,0.3-7.1,1.6-10-1.6c-0.1-0.1-0.4-0.2-0.5-0.2c-3.2,0.9-4.2-1.6-5.8-3.5c-1.5-1.9-5.2-1.9-6.9-0.3c-1,0.9-0.9,1.7-0.1,2.8
			c0.5,0.7,1,1.9,0.7,2.5c-0.4,1.1-1.5,1.9-2.6,3.3c-1.8-4.6-5-3.3-8.1-2.6c-0.9,0.2-1.8,0.4-2.7,0.3c-2-0.3-4-0.8-6.4-1.4
			c0.8-1,1.2-1.4,1.5-1.9c0.6-0.8,1.6-2.3,1.4-2.5c-0.9-0.9-2.1-2-3.3-2.2c-5.2-0.6-9.7-2.6-13.8-5.8c-1.8-1.4-3.2-1.7-5,0.1
			c-0.7,0.7-2.2,0.9-3.3,1.3c-0.3-0.9-0.6-1.8-0.9-2.7c0-0.2-0.2-0.3-0.7-0.7c-0.6,1-1.3,2-2.2,3.4c-2-2.7-3.6-4.9-5.4-7.4
			c-0.7,1.4-1.1,2.5-1.7,3.4c-0.6,0.8-1.6,2.1-2.5,0.5c-1.2-2.2-2.6-1.6-4.1-0.7c-1.4,0.8-2.6,1.8-3.9,2.7c-0.6,0.4-1.5,0.9-2,0.7
			c-3.4-1.2-5.4,0.7-7.1,3.1c-1.2,1.7-2.5,1.7-4,0.8c-1.5-0.9-2.7-2.3-4.2-3.1c-1.1-0.7-2.5-0.8-3.7-1.1c-0.2,1.1-0.7,2.2-0.7,3.3
			c0,11.4,0,22.8,0,34.2c0,5.5,0,11,0.1,16.5c0,0.9,0.9,2,1.6,2.6c1.7,1.5,3.7,2.8,5.4,4.2c0.7,0.6,1.2,1.5,1.8,2.2
			c1.4-1.2,2.4-2.2,3.7-3c0.5-0.3,1.8-0.2,2.1,0.2c3,4.1,6.7,7.8,8.6,12.7c0.5,1.4,2,2.8,3.3,3.8c2.6,2,2.9,3,1.6,6.1
			c-0.4,1-0.6,3,0,3.4c2.8,2.1,2,6.5,5.5,8c0.3,0.2,0.2,1.4,0.3,2.1c0.2,2.4,1,4.1,3.4,5c1.9,0.7,3.7,1.8,5.1,3.1
			c2.6,2.3,5.4,3.2,9,3.2c21-0.2,41.9-0.1,62.9-0.1c1.8,0,3.6-0.4,5.2-0.6c0.6,0.6,1.2,1.4,2.1,1.8c1.8,0.8,3.7,1.7,5.6,1.9
			c2.7,0.3,5.7,1.2,8.1-1.4c0.6-0.7,2.5-0.8,3.4-0.4c2.3,1,4.4,2.4,6.6,3.7c0.3,0.2,0.6,0.6,0.6,1c0.2,4.1,2.9,5.1,6.3,5.2
			c3,0.2,4.9,1.8,6.2,4.4c0.7,1.3,0.1,2.4-1.1,2.3c-3-0.4-3.5,1.3-3.8,3.6c-0.1,0.6-0.8,1.2-1.2,1.8c-0.4,0.7-0.8,1.4-1.4,2.3
			c3.1-1,5.8-1.7,8.7-2.6c-2.1-1.5-0.8-2.3,0.5-2.8c1.3-0.5,2.9-0.6,4.3-1c1.1-0.3,2.5-0.4,3.2-1.1c2.3-2.3,5-3,8-2.5
			c2.9,0.4,4.7-1.1,6.4-3c0.7-0.8,0.9-2,1.4-3.2c-1,0-1.7-0.1-2.9-0.2c2.7-3.4,5-6.5,7.5-9.4c1.2-1.4,2.9-2.6,4.5-3.7
			c0.7-0.5,1.8-0.9,2.7-0.9c2.7,0,5.4,0.4,8,0.3c2.4-0.1,5-0.3,7.2-1.1c2.3-0.9,4.1-2.7,6.3-3.8C445,366.1,446.8,363.7,445.5,361.1z
			"/>
		<path class="st0" d="M358.9,147.3c1.9,4.6,4.8,6.3,9.8,5.5c0.5-0.1,1.1-0.3,1.7-0.2c2.7,0.4,5.4,1,8.7,1.6c-1.7,2.4-2.7,4-3.9,5.4
			c-0.3,0.4-1.3,0.6-1.9,0.5c-1.7-0.3-3.3-0.8-5-1.2c-2.2-0.6-2.5,0.5-2.3,2.4c0.3,2.9,1.4,5.4,3,7.8c2.2,3.1,1.4,6.2-1.5,8.7
			c-1.5,1.2-2.7,2.8-3.7,4.5c-0.4,0.6,0.1,2.2,0.6,2.5c4.2,2.1,4.2,6.5,6.1,9.8c-0.1,0.2-0.3,0.3-0.4,0.6c-2.3-1.6-4.6-3.2-6.9-4.8
			c-0.2,0.2-0.5,0.3-0.7,0.5c0.1,1.2,0.1,2.4,0.4,3.6c0.7,3,1,5.7-2.8,7.1c-1.8,0.6-1.7,5,0,5.2c3.3,0.4,6.3,2.6,9.9,1.3
			c3.3-1.2,6.4-0.8,9.4,0.8c0.7,0.4,2.1,0.6,2.7,0.2c1.9-1.4,3.7-3.1,5.3-4.9c0.9-1,0.6-2.1-1.1-2.4c-0.9-0.2-1.8-0.6-2.7-0.9
			c0.4-1.3,0.7-2.6,1.3-3.8c0.7-1.3,2-2.4,2.4-3.7c0.7-2.2,1.7-4,3.6-5.5c2.8-2.3,4.3-5.1,2.6-9c-0.6-1.5-0.4-3.4-0.6-5.6
			c-0.3-0.2-0.9-0.8-2.2-1.8c2.2-0.5,3.9-0.8,5.5-1.3c1.1-0.4,2.2-1,3.2-1.7c1.3-0.9,2.6-1.8,3.8-2.9c1.1-1,2.4-1.9,3.1-3.2
			c1-1.6,1.3-3.6,2.1-5.3c1.2-2.4,2.4-4.8,3.9-7.1c2.4-3.7,5-7.3,7.8-11.4c-1.4-0.2-2.1-0.3-2.7-0.3c-2.4-0.2-2.8-0.7-1.4-2.7
			c1.1-1.5,2.4-2.9,3.9-3.7c4.5-2.2,6.8-6.4,9.6-10.2c0.3-0.4,0.4-1.1,0.4-1.7c0.4-4.9-2.7-8-6.4-9.5c-5.7-2.4-11.9-3.6-17.8-5.5
			c-2.7-0.8-5-0.6-7.4,0.8c-1.9,1.1-3.9,2.7-5.9,0.2c-0.1-0.2-0.5-0.2-0.7-0.2c-6-0.3-15,2.4-15.3,11.2c-0.1,1.8-0.7,3.6-1.1,5.4
			c-0.3,0-0.5,0-0.8,0c-0.5-0.7-0.8-1.5-1.4-2.2c-1-1.2-2.1-2.2-3.1-3.3c-0.9,1.1-2.3,2.1-2.8,3.4c-1.6,3.7-4.7,5.5-8.2,6.7
			c-6.2,2-6,5-4.5,10C355.6,140.6,357.5,143.9,358.9,147.3z"/>
		<path class="st0" d="M414.5,291.8c1.7-1.2,3.3-0.6,4.9,1.6c1.5,2,3.1,3.9,5.1,6.5c1.8-3.2,3.2-5.5,4-7.8c0.6-1.2,0.8-3-1-3.3
			c-2.2-0.4-3-2-4.1-3.6c-0.9-1.3-1.9-2.5-3.1-3.4c-2-1.5-4.4-2.5-6.5-4c-2.8-2-2.7-2.2,0-4.2c0.8-0.6,1.9-1.9,1.7-2.6
			c-1.1-4.4-2.7-8.5-7.6-10.4c-1.6-0.6-3-2.3-3.9-3.8c-1-1.7-1.9-2.3-3.7-1.4c-1.6,0.9-2.6,0.6-2.8-1.5c-0.1-0.9-0.4-1.9-1-2.5
			c-2.2-2.1-4.4-4.1-6.8-5.9c-0.4-0.3-1.6,0.1-2.2,0.5c-1.6,1-3,2.3-4.6,3.3c-1.4,0.9-2.5,0.5-2.3-1.3c0.5-4-1.5-7.1-3-10.4
			c-0.8-1.7-1.7-1.7-3.3-0.9c-2.8,1.4-4.6,3.4-5.2,6.5c-0.2,0.8-0.7,1.6-1.2,2.9c-2.5-3.5-3-6.6-1.5-10.1c-4-0.1-6.6,1.5-7.8,5.3
			c-0.8,2.7-1.3,5.5-1.5,8.3c-0.2,3-0.7,6.4,3.8,7c-0.2,0.6-0.2,0.9-0.4,1.2c-1.9,3.2-1.4,4.3,2.1,5.4c2.2,0.7,4.3,1.8,6.6,2.3
			c5.5,1.1,11.1,4.2,16.3-0.5c1.6,0.9,3.3,1.5,4.4,2.7c1.3,1.4,2.6,3.2,2.7,5c0.1,1.5,0.6,2,1.6,2.6c1.8,1.2,3.7,2.4,5.4,3.9
			c2.6,2.3,3,6.2,1.4,9.2c-1.4,2.6-3.1,5-2.4,8.2c0.1,0.4-1,1.5-1.6,1.6c-2.3,0.4-4.6,0.5-6.9,0.8c-2.1,0.2-2.5,1.9-2.5,3.4
			c0.1,1.6,1.5,2.1,3,1.7c2-0.5,4.1-1,6.7-1.7c1.8,2.4,6.8,2.9,7.1,7.8c3.8,3.4,8,6,13.9,6.8c-2.3-3.3-4.4-6.1-6.4-8.9
			c0.2-0.2,0.3-0.3,0.5-0.5c2,1.3,3.9,2.7,5.9,3.9c0.9,0.5,1.9,0.7,2.9,1c0.3-1.1,1-2.3,0.8-3.3c-0.5-2.9-1.1-5.8-3.9-7.8
			c-1.6-1.1-2.7-2.7-3.9-4.2C412.9,295.5,413.1,292.8,414.5,291.8z"/>
		<path class="st0" d="M327.6,267.8c0.1-0.9-0.3-1.9-0.9-2.6c-0.8-1-2.1-1.6-3.1-2.5c-2.5-2.1-4.9-4.1-5.2-7.8c-0.2-3-0.6-6-1.6-8.8
			c-0.6-2-2.2-3.6-3.6-5.2c-0.4-0.5-1.7-0.7-2.2-0.4c-0.5,0.2-0.7,1.4-0.6,2.1c0.2,1.6,0.7,3.3,0.9,4.9c0.3,1.9,0.2,3.9-1.5,5.5
			c-2-3.1-1.1-7.4-4.1-9.9c-0.4,0.3-0.6,0.4-0.8,0.6c-2.4,2.8-2.4,2.8-5,0.1c-0.6-0.6-2-0.7-3-0.5c-1.3,0.2-2.5,1-4.2,1.7
			c0.3-1.6,0.6-2.4,0.6-3.3c0-0.6-0.4-1.4-0.9-1.8c-0.4-0.3-1.3-0.1-1.8,0.2c-4.1,2.6-7.4,6-8.5,11.1c-0.4,1.6-0.4,2.6,1.3,3.1
			c2,0.6,3.9,1,6.5,1.7c-1.7,0.9-3,1.5-4.2,2.3c-0.5,0.4-0.9,1.1-1.3,1.6c0.6,0.5,1.2,1.4,1.8,1.4c1.9,0.1,3.8,0.1,5.7-0.2
			c2.7-0.4,4.8,0.7,7,1.8c0,0.4-0.1,0.7-0.2,1.1c-1.5,0.3-3.1,0.7-4.7,1c-1.5,0.2-3,0.2-4.4,0.7c-0.9,0.4-1.6,1.3-2.4,2
			c1.1,1.2,2,3.1,3.3,3.5c2.4,0.6,4.4,1.2,5.5,3.6c0.3,0.5,1.1,1.3,1.6,1.2c3.6-0.5,7.4-0.5,10.5-1.9c4.1-1.9,7.6-2.8,11.8-0.6
			c1.2,0.6,2.9,0.3,4.3,0.4c0-1.3-0.1-2.6-0.2-4.3c0.4-0.1,1.1-0.3,1.7-0.6C326.4,268.7,327.6,268.2,327.6,267.8z"/>
		<path class="st0" d="M348.2,170.6c0.2,0,0.4,0.2,1,0.5c-0.5,0.9-0.9,1.6-1.2,2.1c-1.5,3.8-0.6,7.4,1.9,10.2
			c1.9,2.1,4.8,2.7,7.6,1.8c1-0.3,2.1-1.1,2.6-2c2.2-3.6,4.2-7.3,6.2-11c0.3-0.6,0.5-1.8,0.2-2.2c-2.4-2.8-2.9-6.2-3.4-9.5
			c-0.4-2.5-1.4-4.3-3.6-5.6c-4-2.3-7-5.5-8-10.2c-0.1-0.5-0.3-1.2-0.6-1.3c-1.2-0.3-2.5-0.7-3.8-0.6c-0.4,0.1-0.7,1.5-1,2.3
			c-0.3,0.8-0.5,1.5-1,2.2c-0.5,0.6-1.4,0.9-1.6,1.5c-2,5.2-4.2,10.3-2,15.9C342.7,167.8,343.8,171.1,348.2,170.6z"/>
		<path class="st0" d="M369.6,227.6c2.4-0.5,5-0.2,7.5-0.3c0.6,0,1.2,0,1.7-0.2c3-1.1,4.2-2.9,3.9-5.6c-0.4-3.2-2.6-6-5.3-6
			s-5.5,0.4-8,1.3c-2.2,0.8-4.3,1-6.7,0.8c-3.1-0.3-4.9-2.2-6.6-4.3c-0.8-1.1-1.6-2.3-2.4-3.5c0.7-3.7-0.4-5.8-2.6-5.5
			c-2.5,0-4.2-0.8-6-2.7c-0.9-1-3.4-1.2-4.9-0.7c-1.4,0.4-1,3.4,0.7,4.9c0.9,0.8,2.1,1.4,3.2,1.8c3.6,1.1,6.1,4.1,6.3,7.9
			c0.1,2.1,0.2,4.2,0.6,6.2c0.2,1,0.8,2.3,1.6,2.8C357.9,227.5,363.4,228.9,369.6,227.6z"/>
		<path class="st0" d="M266.4,252.6c1.9,1.5,3.6,3.2,5.8,5.2c2.3-1.3,5.7-2,5.4-6c0-0.5,0.4-0.9,0.6-1.4c2.1-5.1,5.9-8.6,10-11.9
			c0.6-0.5,1.3-1.5,1.1-2.1c-0.8-3-3.9-5.2-7-5.4c-1.3-0.1-2.9,0-3.9-0.7c-2.8-2-5.7-1.2-8.6-0.8c-1.9,0.3-2.7,1.1-1.6,3
			c1.1,1.9,0.9,3.8,0.1,5.9c-1.3,3.3-2.1,6.8-3.3,10.2C264.4,250.4,264.9,251.5,266.4,252.6z"/>
		<path class="st0" d="M287.7,220.9c1.6,0.3,3.4,0.4,5.1,0.3c2.5-0.1,5-0.5,7.5-0.7c0.1,0.3,0.3,0.6,0.3,0.8c-1.3,1.2-2.8,2.2-4,3.5
			c-0.4,0.5-0.7,1.5-0.5,2.1c0.2,0.4,1.2,0.9,1.8,0.8c1.1-0.2,2.3-0.5,3.2-1.2c3-2.3,6.3-3.6,10-4c3.5-0.4,4-1.1,4.5-4.5
			c0.1-1,0-2.1-0.2-3.2c-0.3-2.1-1.3-2.5-3.1-1.6c-0.5,0.2-1,0.5-1.7,0.8c-0.3-0.8-0.6-1.5-0.8-2.2c-0.4-1.9-0.8-3.9-1.3-5.8
			c-0.2-0.6-0.8-1.4-1.4-1.5c-0.4-0.1-1.4,0.7-1.5,1.2c-0.3,1.4-0.6,2.9-0.3,4.2c0.7,2.6,1.8,5.2,2.9,8.1c-3.3,0-5.7-0.5-7.2-3.1
			c-1.6-2.9-3.9-4.8-7-6.1c-2.8-1.1-3.8-0.9-5,2.1c-1,2.4-1.7,4.9-2.6,7.3C285.9,219.6,286.4,220.7,287.7,220.9z"/>
		<path class="st0" d="M336,254.9c3.3-1.3,5-7.6,2.5-10.2c-2.1-2.2-2.9-3.8-1.1-6.6c1.1-1.7,0.1-2.6-1.9-2.4c-0.9,0.1-2,0.2-2.9,0
			c-1.2-0.3-2.2-1.4-3.3,0.1c-1.1,1.5-1.7,3-0.6,4.8c0.6,1,1,2.2,1.6,3.6c-1.1,0-1.7-0.1-2.4,0.2c-0.8,0.1-1.5,0.3-2.3,0.4
			c0.3,0.8,0.5,1.7,1,2.3c2,2.4,4,4.9,6.2,7.1C333.5,254.8,335.2,255.2,336,254.9z"/>
		<path class="st0" d="M433.1,388.3c-1,0.8-1.8,1.8-2.8,2.1c-2.6,0.8-5,0.4-6.9-1.6c-1.2-1.3-2-6.7-1.2-8.2c1.1-2.1,0.7-2.8-1.5-2.8
			c-3.7,0-6.4,2-8.7,4.6c-0.2,0.2-0.2,0.7-0.3,1.1c3.6,1,3.6,1,3.7,4.9c0,0,0,0.1,0,0.2c0,2.2,0.8,3.5,3.3,3.2c1.5-0.1,3,0,5,0
			c-1.3,2.3-4.7,2.6-3.5,5.6c3.7-1.9,7.2-3.5,10.7-5.3c0.8-0.4,1.5-0.7,2.2-1.2C434.4,390,434.2,389.1,433.1,388.3z"/>
		<path class="st0" d="M344.7,249.2c0.6-0.7,1.4-1.2,1.9-2c0.9-1.4,1.3-3.4,2.5-4.2c2.9-1.8,3.7-4.8,5.2-7.4
			c0.7-1.2,0.5-2.1-0.9-2.5c-2.2-0.6-4.4-1.2-7.3-2c-1.1,1.3-2.5,2.5-3.2,3.9c-1.9,3.9-0.9,8,0.2,11.9
			C343.3,247.8,344.2,248.4,344.7,249.2z"/>
		<path class="st0" d="M327.4,209c-3,0.4-2.6,2.4-2.6,4.5c0,1.9,0.7,2.8,2.7,2.4c1.4-0.3,1.8,0.5,1.8,1.7c0,0.7,0,1.5,0,2.2
			c0,1.8,0.7,3.1,2.7,3.1c1.8,0,3.5-0.5,3.7-2.8c0.3-2.3,0.5-4.6,0.8-6.9c0,0-0.1,0-0.2,0c0-1.1,0.2-2.2-0.1-3.2
			c-0.5-1.3-1.1-3.1-2.1-3.5c-1.2-0.4-2.9,0.3-4.3,0.8C328.9,207.6,328.3,208.9,327.4,209z"/>
		<path class="st0" d="M276.5,212.2c3.8-2.4,7.6-4.7,10.5-7.9c2.3-2.5,1.5-6.1,1.2-9.1c-4.8-0.4-7.7,1.4-10.1,5.2
			C275.9,204.2,276.6,208,276.5,212.2z"/>
		<path class="st0" d="M453.2,383.9c-0.8-2.4-1.9-4.6-2.9-6.9c-0.1-0.2-0.8-0.4-1.1-0.3c-2.2,0.6-3.4-0.3-4-2.5
			c-0.7,0.2-1.3,0.4-2.2,0.7c0.7-2,1.2-3.7,1.8-5.4c-0.4-0.2-0.9-0.3-1.3-0.6c-2,4.4-4.1,8.8-6.2,13.4c3.4,0.4,6.2,0.8,9,1
			c1,0.1,2,0.1,2.9-0.3c1.1-0.4,1.6-0.3,1.8,1c0.1,0.7,0.5,1.4,0.7,2.1C452.2,385.3,453.4,384.4,453.2,383.9z"/>
		<path class="st0" d="M318.5,184c4.7-0.8,7,1.9,9.6,4.2c0.7,0.6,1.8,0.7,2.9,1.1c0-8.1-6.4-15.7-13.7-16.1c0.3,1.4,0,3.1,0.8,4
			C319.8,179.1,321.2,180.9,318.5,184z"/>
		<path class="st0" d="M381.5,307.9c-0.4-0.4-0.7-0.8-1.1-1.1c-0.7-0.5-1.7-0.9-1.9-1.5c-1.1-3-5.5-6.4-8.6-6.5
			c-0.4-0.7-0.7-1.3-1.1-2c-0.3,0.1-0.5,0.1-0.7,0.1c-0.5,3.5-1,7.1-1.4,10.4c0.9,0.9,1.7,1.9,2.8,3.1c1.3-1.2,2.7-2.2,3.8-3.4
			c1.2-1.5,1.9-1.6,3.3-0.1c0.8,0.9,2.3,1.3,3.6,1.8C380.5,308.8,381,308.2,381.5,307.9z"/>
		<path class="st0" d="M382,239.2c0.2,0.9,0.8,1.8,1.5,2.5c0.5,0.5,1.4,0.9,2.1,0.9c1.6,0,3.2-0.4,4.8-0.6c0,0.2,0.1,0.3,0.1,0.5
			c0.5-0.3,1.2-0.4,1.4-0.8c0.2-0.4,0-1.2-0.3-1.6c-1.8-2.3-3.7-4.5-7-4.6c-0.9,0-2.6-0.1-2.7,0.2
			C381.7,236.8,381.7,238.1,382,239.2z"/>
		<path class="st0" d="M338.5,189.7c1-1,2.5-1.7,3-2.9c1.2-2.5-0.2-4.7-1.9-6.5c-0.8-0.9-2.2-1.1-3.4-1.6c-0.3,1-0.7,1.9-1.1,2.8
			c0.4,2,0.7,3.8,1.3,5.5C336.8,188,337.8,188.8,338.5,189.7z"/>
		<path class="st0" d="M344.8,225.7c1-0.3,1.8-1.7,3-3c-1.4-2.1-2.4-4.1-3.9-5.3c-0.9-0.7-3.6,3-3.7,5
			C340.1,223.8,343.1,226.2,344.8,225.7z"/>
		<path class="st0" d="M300,195c1.4,0.5,4.9-3.1,4.5-4.7c-0.3-1.1-1.7-1.9-2.6-2.8c-2.4,0.5-5.4,2.8-4.9,4.4
			C297.4,193.1,298.7,194.5,300,195z"/>
		<path class="st0" d="M333.7,271.9c0.9,0.6,1.9,0.9,2.8,1.4c0.1-0.2,0.2-0.5,0.3-0.6c0.9,0.3,1.7,0.8,2.5,1c0.5,0.2,1.4,0.3,1.7,0
			c0.3-0.4,0.3-1.3,0.1-1.8c-0.4-0.8-1-1.6-1.5-2.3c-2.9-4.1-3.2-4.1-6.1-0.2C332.8,270.4,332.7,271.2,333.7,271.9z"/>
		<path class="st0" d="M258.6,372.7c3.7,1.8,5.6,6.1,10.2,6.8C267.7,375.6,262.2,371.9,258.6,372.7z"/>
		<path class="st0" d="M394.8,281.2c0.1-0.3-1-1.1-1.5-1.7c-0.9,1.1-1.9,2.3-3.1,3.7c0.9,1.1,1.6,2.4,2.1,2.3
			C394.7,285.1,394.3,282.8,394.8,281.2z"/>
		<path class="st0" d="M314.8,238.9c0.5,1.1,1.3,2,2.3,3.5c0.6-1.6,1.2-2.7,1.4-3.7c0-0.6-0.5-1.8-1-1.9c-1-0.3-2.1,0-3.1,0.1
			C314.5,237.6,314.5,238.3,314.8,238.9z"/>
		<path class="st0" d="M304.7,182.3c0-0.4,0-0.8,0.1-1.2c-1.2-0.6-2.5-1.8-3.3-1.5c-1.1,0.4-1.8,2-2.6,3.1c0.3,0.3,0.5,0.7,0.7,1
			C301.3,183.2,303,182.8,304.7,182.3z"/>
		<path class="st0" d="M346.6,193.8c-0.5-0.6-0.9-1.5-1.5-1.7c-1.1-0.4-2.4-0.3-3.8-0.5c0,2.8,1.7,2.8,3.3,2.9
			C345.3,194.6,345.9,194.1,346.6,193.8z"/>
		<path class="st0" d="M374,316.5c1.3-1.1,2.3-2,3.8-3.3C374.4,312.9,373.7,313.5,374,316.5z"/>
		<path class="st0" d="M246,357.8c0.1,0.9,0.3,1.9,0.5,2.9c0.4,0,0.8-0.1,1.4-0.3c-0.2-0.9-0.4-1.9-0.6-2.9
			C246.8,357.6,246,357.8,246,357.8z"/>
	</g>
	<g id="Chile_1_">
		<path id="Chile_3_" class="st0" d="M412.3,691.7c-0.1-1.3,0-2.7-0.1-4c-0.2-1.8-2.4-2.3-4.3-3.2c-1.7-1-3.7-1.7-5.1-3.1
			c-1.2-1.2-2.1-3-2.5-4.6c-0.4-1.7-1-4.3-0.1-5.4c2.5-3.3,2.2-7.1,3.3-10.6c1.2-3.9,0.3-8-0.1-12.1c-0.4-4,0.2-8.2,1-12.2
			c0.7-3,1.8-5.8,1.4-8.9c-0.1-0.7,0.5-1.5,0.7-2.3c0.7-2.8,2.1-5.7,2-8.5c-0.2-3.4-2-6.8,0.1-10.3c0.1-0.1,0-0.3,0-0.5
			c-0.6-2.9,0.8-5.3,2.4-7.4c1.4-1.7,1.9-3.4,1.7-5.5c-0.2-2-0.1-3.8,2.1-4.8c0.6-0.3,0.8-1.4,1.1-1.9c-4.8-3.7-2.7-10-6.2-14.7
			c-0.4,1.4-1,2.3-0.9,3c1.1,5.7-0.3,11.2-1,16.8c-0.6,5.2-1.6,10.3-2.2,15.5c-0.5,3.4-0.4,6.8-0.9,10.1c-0.4,2.4-1.4,4.7-2.2,7.1
			c-1.1,3.4-3.2,6.6-1.7,10.5c0.2,0.5-0.2,1.1-0.3,1.7c-0.7,3.9-1.5,7.7-2.2,11.6c0.2,0.1,0.4,0.1,0.6,0.2c0.1-0.4,0.1-1,0.4-1.3
			c0.5-0.6,1.1-1.1,1.7-1.7c0.4,0.7,1.1,1.4,1.1,2.2c0.1,1.1-0.4,2.1-0.5,3.2c-0.2,2-0.6,3.7-3.2,2.8c-0.9,2.7-1.7,5.3-2.5,7.9
			c0.8,0.4,1.6,0.8,2.7,1.3c-0.7,0.9-1.3,1.7-1.7,2.3c-0.8,1.6-1.8,3.2-1.8,4.8c0,4.1,0.6,8.1,1,12.1c0,0.4,0.1,1,0.4,1.2
			c2.4,2.2,4.9,4.4,7.4,6.5c-1.3-0.7-2.8,0.3-4.2-0.6c0.1,0.4,0,0.6,0.1,0.7c3.4,4.6,8.2,7,13.6,8.4c0.6,0.1,1.5-0.6,2.2-1
			c0.1-0.3,0.2-0.7,0.4-0.9C411.7,696.6,412.3,693.9,412.3,691.7z"/>
	</g>
	<g id="Colombia_1_">
		<path id="XMLID_67_" class="st0" d="M414.4,508.8c0.3,3.9,0.5,7.4,0.8,11c-1-0.1-2.4-0.4-3.7-0.5c-1.5-0.2-2.3,0.2-2.7,2
			c-0.4,2.2-0.1,4.2,0.6,6.3c0.8,2.4,0.2,2.9-2.3,2.3c-0.4-0.1-0.9-0.3-1.2-0.2c-3.2,1.1-5.1-0.6-6.8-3c-1.7-2.3-4.3-2.9-6.9-3.6
			c-1.6-0.5-3.3-1.2-4.7-2.1c-0.4-0.3-0.5-2.1-0.2-2.3c4.6-2.9,3.7-7.1,2.7-11.2c-0.6-2.5,0.5-4.1,1.8-5.7c0.7-0.9,1.6-1.7,2.2-2.7
			c1.2-2.3,2.8-3.5,5.5-3.6c1,0,2-0.8,3.1-1.3c-0.8,1.6-1.7,3.1-2.3,4.7c-0.3,0.7-0.1,1.7,0.2,2.3c0.7,1.5,1.5,2.9,2.6,4.2
			c0.6,0.7,1.7,1,2.6,1.4c1.2,0.5,2.5,1,3.7,1.5c0.8,0.3,1.6,0.6,2.5,0.7C412.9,508.9,413.8,508.8,414.4,508.8z"/>
	</g>
	<g id="Costa_Rica_1_">
		<path id="XMLID_65_" class="st0" d="M374.4,501.6c-1.9-1.6-3.8-3.1-6.1-5.1c2.9-0.2,5.1-0.1,6.6,2c0.5,0.7,0.3,1.9,0.4,2.9
			C375,501.5,374.7,501.5,374.4,501.6z"/>
	</g>
	<g id="Egypt_1_">
		<path id="XMLID_64_" class="st0" d="M678.4,448.5c-1-1.8-2.1-3.6-3.1-5.4c-0.2,0.1-0.4,0.1-0.6,0.2c0.4,1.3,0.5,2.8,1.2,4
			c2.1,4.1,4.4,8,6.4,12.1c0.8,1.7,1.2,3.6,1.8,5.6c-0.5,0-1.2,0.2-2,0.2c-7.5,0-15,0-22.4,0c-3,0-3.2-0.2-3.2-3.3c0-4,0.1-8,0-12
			c-0.1-2.4-0.3-4.8-0.7-7.1c-0.6-3.6,1-5.5,4.3-4.1c3.7,1.5,7.2,1.2,10.9,0.7c2.5-0.3,8.6-3.9,10.9-3c1.1,0.4-0.7,7.2-0.5,8.8
			c0.1,1.1-1.7,2.1-2.2,3.2C679,448.3,678.7,448.4,678.4,448.5z"/>
	</g>
	<g id="Finland_1_">
		<path id="XMLID_61_" class="st0" d="M646.2,272.3c0.5,0.6,1,1.3,1.6,1.7c0.7,0.5,1.5,0.8,2.3,1c0.9,0.2,2.1,0,2.9,0.5
			c1.9,1.3,3.2,0.5,4.1-1.2c0.8-1.5,1.2-3.2,2-4.8c0.5-1,1.2-2.1,2.1-2.8c0.6-0.5,2-0.7,2.3-0.4c0.8,0.9,1.6,2.1,1.7,3.2
			c0.1,1.7-0.2,3.5-0.7,5.2c-0.7,2.7,0.4,4.7,2.1,6.4c1.1,1.1,1.4,2.2,0.5,3.5c-1.4,2.1-1.3,4.2-0.1,6.3c1.4,2.4,1.8,5,0.5,7.6
			c-0.3,0.6-0.5,1.4-0.3,1.9c1.3,2.6,2,5.1,1.5,8.1c-0.1,0.7,1,1.8,1.8,2.5c1.5,1.3,1.6,2.7,0.5,4.2c-2.3,3.1-4.7,6.1-7,9.1
			c-0.3,0.4-0.8,0.7-1.2,0.8c-3,0.9-6,1.7-9,2.6s-6.5-1.7-6.8-4.9c-0.2-2.6-0.7-5.1-0.7-7.7c0.1-1.7,0.6-3.7,1.6-5.1
			c2.4-3.3,5.2-6.3,7.9-9.3c1.8-2,1.9-3.9-0.3-5.5c-2.2-1.7-3.4-3.8-3-6.4c0.9-6.1-1-10.9-5.8-14.6c-0.5-0.4-0.7-1-1.1-1.5
			C645.8,272.6,646,272.4,646.2,272.3z"/>
	</g>
	<g id="France_1_">
		<path id="XMLID_60_" class="st0" d="M586.8,379.5c0.1-1.1,0.1-1.9,0.1-2.6c3.5-1,7.2-1.6,8.6-5.7c0.5-1.4,1.8-1.6,2.8-0.4
			c2.9,3.8,7,5.5,11.3,7.2c0.4,0.2,0.9,1.3,0.8,1.7c-0.9,1.9-1.8,3.8-3,5.5c-1,1.4-1.8,2.4-0.1,4c0.7,0.6,0.7,2.1,1,3.2
			c0.2,1.1,0.1,2.3,0.5,3.4c0.8,2.5-0.2,3.6-2.9,3.4c-1.9-0.2-3.7,0.1-5.6,0.1c-0.3,0-0.8,0.1-0.9,0.3c-3.1,4.7-6.9,0.8-10.4,0.8
			c-1.8,0-2.3-1.3-1.6-3.2c2.3-6.4,0-11.8-6.1-14.9c-0.6-0.3-1-1.1-1.5-1.7c0.7-0.5,1.4-1.3,2.1-1.4
			C583.3,379,584.9,379.3,586.8,379.5z"/>
	</g>
	<g id="Germany_1_">
		<path id="XMLID_59_" class="st0" d="M620.1,383.2c-2.9-0.3-5.5-0.4-8-0.8c-0.3-0.1-0.9-1.7-0.6-2.3c1.2-2.3,0.1-2.8-1.9-3.4
			c-0.9-0.2-2-1.4-2.1-2.2c-0.5-2.9-1.2-5.9,0.9-8.8c0.9-1.3,0.7-3.4,1.2-5c0.2-0.7,1-1.6,1.5-1.7c2.2-0.1,2.9-1.2,2.7-3.2
			c-0.1-0.6,0.1-1.5,0.5-1.7c0.4-0.2,1.2,0.1,1.8,0.3c0.7,0.3,1.5,0.7,1.8,1.3c1.1,1.8,2.5,1.4,4.1,0.8c2.5-1.1,5.2,0.8,5.4,3.6
			c0.2,2.4,0.4,4.8,1,7.1c0.4,1.6,0,2.3-1.4,2.7c-0.9,0.3-1.7,0.7-2.5,1.1c-2.6,1.5-2.7,2.8-1.1,5.2c0.7,1,1.6,2.5,1.3,3.3
			C623.8,381.5,622.6,383.6,620.1,383.2z"/>
	</g>
	<g id="Greece_1_">
		<path class="st0" d="M651.9,411.5c1.2,0.7,5.3-2.9,6.4-2.3c-1-3,0.2-2.1,1.2-3.5c-1.6-0.1-7.4,0.5-8.8,1c-1.8,0.6-3.8,1.4-5.1,2.7
			c-2.4,2.4,0.1,10,3.5,12c1-1.8,1.8-3.4,2.4-4.5C650.9,414.4,652.6,414.6,651.9,411.5z"/>
		<path class="st0" d="M650.3,425.3c1.1,0.2,2.3,0.7,2.9,0.6c2.2-0.2,4.1-0.7,6.3-1c-0.9-0.2-2-0.5-3.6-1
			C653.7,424.5,652.1,424.9,650.3,425.3z"/>
	</g>
	<g id="Hong_Kong_1_">
		<path id="XMLID_57_" class="st0" d="M889.8,463.8c-0.5,2.2-1.5,3.4-3.4,3.4c-0.4,0-1.5-1.7-1.4-2.1
			C886.3,464.9,887.8,464.2,889.8,463.8z"/>
	</g>
	<g id="Hungary_1_">
		<path id="XMLID_56_" class="st0" d="M649,380.8c-1.3,2.4-2,4-3.1,5.4c-0.7,0.9-1.9,1.5-2.9,2s-2.2,0.8-3.3,0.9
			c-1,0.1-2.2,0.2-3-0.2c-1.4-0.8-3.2-1.8-2.7-4c0.4-2.1,2.1-2,3.7-2.3s3.2-0.9,4.8-1.2C644.5,381.1,646.5,381,649,380.8z"/>
	</g>
	<g id="India_1_">
		<path id="XMLID_55_" class="st0" d="M786.4,437c-1-1.8-2-3.2-2.7-4.8c-0.7-1.6-0.2-2.7,1.8-2.3c2.4,0.5,4.6,0.3,6.5-1.5
			c1-0.9,3,0.3,2.9,2.1c0,1.7,1.2,3.5-0.2,5.4c-0.5,0.7,0.7,3,1.6,4.2c0.9,1.1,2.3,1.8,3.6,2.7c-0.2,0.5-0.4,0.9-0.5,1.2
			c-1.4,2.9-1.3,3.2,1.4,4.6c5.5,2.8,11.2,5.3,17.4,6.1c0.8,0.1,2.3,2.5,2,3c-1.3,2.2,0.1,4.1,0.5,5.9c0.5,2.1,0.5,3.4-2.1,3.5
			c-1.3,0.1-2.3,0.6-2.6,2.2c-0.2,0.8-1,1.6-1.7,2.2c-3.5,3.1-7.1,6.1-10.7,9.1c-0.7,0.6-1.5,1-2.4,1.3c-2.3,0.7-3.1,2.2-3.1,4.5
			c0,2.5-0.3,5.1-0.4,7.6c-0.1,3.7-2.6,5.9-4.9,8.2c-0.3,0.3-1.5,0.2-2-0.2c-0.6-0.3-1-1.1-1.3-1.8c-1.7-4.3-3.3-8.7-4.9-13
			c-1.2-3.2-2.6-6.4-3.6-9.8c-0.6-2.2-0.7-4.6-0.9-6.9c-0.3-2.5-0.8-2.9-3.1-2c-3,1.2-5-0.2-5.3-3.5c-0.1-0.9-1.1-1.7-1.7-2.5
			c-0.3-0.5-0.6-0.9-0.9-1.4c0.5-0.3,1-0.7,1.6-0.9c0.7-0.2,1.5,0,2.2-0.1c2.6-0.1,3.1-0.9,2-3.2c-0.6-1.2-1.1-2.4-1.6-3.6
			c-0.9-2-0.3-3.4,2-3.5c2.1-0.1,3.4-1.2,4.4-2.8c1.7-2.9,3.4-5.8,5.2-8.7C785.5,438.1,786,437.5,786.4,437z"/>
	</g>
	<g id="Iran_1_">
		<path id="XMLID_53_" class="st0" d="M706.4,412.5c2.8,4.1,5.6,2.8,8.2,0.8c4,7.6,11.2,12,19.8,5.9c1.3-0.9,3.7-1.4,5.1-0.9
			c3.2,1.2,6.1,3.1,9,5c0.5,0.3,0.6,1.8,0.5,2.7c-0.3,2.3-1.2,4.6-1.1,6.8c0.1,2,1.3,3.9,1.9,5.9c0.2,0.7,0.5,1.6,0.2,2.1
			c-1.2,2.5-0.9,4.3,1.2,6.1c2.1,1.8,2.1,1.8,2.5,4.4c-1.2,1.5-2.2,2.8-3.3,3.9c-0.5,0.5-1.4,0.8-2.1,0.8c-2-0.2-4-0.5-5.9-1.1
			c-1-0.3-2.1-1.2-2.5-2.1c-0.8-1.6-1.7-1.7-3.2-1.4c-5.7,1.2-10.9-1.2-13.4-6.5c-1-2.2-2.4-3.5-4.8-3.5c-2,0-2.9-1.1-2.9-2.9
			c0-2.5-1.2-4-3.3-5.1c-2.6-1.4-2.8-3.1-1.6-5.8c0.4-0.9,0.2-2.6-0.5-3.5C707.6,421,706.2,417.4,706.4,412.5z"/>
	</g>
	<g id="Iraq_1_">
		<path id="XMLID_52_" class="st0" d="M715.3,441.5c-1,0.5-2,0.8-2.6,1.3c-2.2,2.1-4.1,2.4-6.6,0.7c-0.8-0.6-1.5-1.3-2.4-1.8
			c-3.1-2-6.2-3.8-9.2-5.8c-0.8-0.5-1.6-1.4-1.9-2.3c-0.1-0.6,0.7-1.8,1.3-2.1c3.5-1.4,4.5-4.1,5-7.6c0.2-1.3,1.9-3.2,3.1-3.4
			c1.5-0.3,3.9,0.3,4.9,1.5c1.5,1.8,3.9,3.7,1.8,6.9c-1.2,1.8,0.3,4,1.9,4.9c2.7,1.4,4,3.3,4,6.3
			C714.7,440.6,715.1,441.1,715.3,441.5z"/>
	</g>
	<g id="Ireland_1_">
		<path id="XMLID_51_" class="st0" d="M571.1,353.3c-0.6,2.8-0.1,4.3,2.4,4.8c0.5,0.1,1,1.6,0.9,2.5c-0.2,2.6-3.5,5.5-6.1,5.7
			c-1.5,0.1-2.1-0.3-1.8-2c0.3-1.6,0.1-3.3,0.2-5c0.1-1,0.3-2.1,0.8-2.8C568.3,355.4,569.5,354.7,571.1,353.3z"/>
		<path class="st0" d="M575.1,355.5c-0.4-1.1-1-2.1-1.6-3.2c-0.5,0.2-1.1,0.4-1.6,0.6c0.5,1.2,0.9,2.4,1.3,3.6
			C573.9,356.2,575.1,355.6,575.1,355.5z"/>
	</g>
	<g id="Israel_1_">
		<path id="XMLID_49_" class="st0" d="M683,436.5c-0.5-0.5-0.9-0.8-0.8-0.9c0.4-0.7,0.8-1.3,1.2-2c0.3,0.2,0.8,0.5,0.8,0.6
			C684,434.9,683.6,435.6,683,436.5z"/>
	</g>
	<g id="Italy_1_">
		<path id="XMLID_48_" class="st0" d="M636.4,408.6c-2.6,0.6-4.3,1.5-1.8,5c-0.5,0.5-1,1-1.3,1.4c-2-3.6-3.6-7.1-7.9-9.1
			c-3.1-1.4-6.2-3.8-7.3-7.6c-0.7-2.4-3.1-3.5-5.3-2.4c-1.6,0.8-3,0.1-3.2-1.2c-0.2-1.3,0.4-3.4,1.3-3.9c3-1.7,6.3-3.3,9.6-4.1
			c1.5-0.4,3.5,1.1,5.2,1.8c-0.3,0.6-0.4,1.4-0.8,1.7c-2.7,1.8-3.1,4.5-1.2,7C627.3,401.7,630.9,406.2,636.4,408.6z"/>
	</g>
	<g id="Jamaica_1_">
		<path id="XMLID_47_" class="st0" d="M395.9,477.8c-2.1,0.5-3.5,0.9-4.8,1.3c-0.4,0.1-1.4-0.1-1.4-0.3c-4.1-0.6-5.7-1.3,0.2-2.1
			c0.1-0.2,0.9-0.5,1.1-0.5C392.4,476.6,393.8,477.2,395.9,477.8z"/>
	</g>
	<g id="Japan_1_">
		<path class="st0" d="M955.5,407.6c-0.5,0.7-0.6,1.6-0.8,2.5c-0.3,1.8-0.1,4-1,5.4c-1.4,2.2-3.4,4.9-5.7,5.5
			c-2.2,0.5-2.7,1.5-3.6,3c-0.4,0.7-1.5,1.6-2.2,1.5c-4.3-0.6-7.6,1-10.1,4.8c1.1-0.3,2.1-0.6,3-1c1.6-0.4,3.1-0.9,4.6-1.1
			c0.8,0,2,0.5,2.2,1.1c0.7,2.2,1.9,1.7,2.9,0.6c1.7-1.8,3.6-2.3,6-2.4c3.2-0.2,4.3-1.5,4.8-4.6c0.4-2.5,0.6-5.3,1.8-7.5
			c1.4-2.6,1.3-4.9,0.5-7.4C957.5,406.5,956.4,406.6,955.5,407.6z"/>
		<path class="st0" d="M967.3,397.2c-3.4,0.2-5.2-2.2-7.1-4.3c-0.2,0.2-0.4,0.3-0.4,0.3c-0.1,0.2-0.1,0.5-0.2,0.7
			c-0.7,2.5-0.2,5.6-3.9,6.4c-0.5,0.1-0.7,2-0.8,3.1c0,0.3,0.7,0.7,1.1,1.1c0.6-0.6,1.3-1.1,1.7-1.8c0.7-1.4,1.5-1.4,2.8-0.7
			c0.7,0.4,1.8,0.7,2.4,0.4c1.7-0.9,3.2-2.1,4.6-3.4C967.7,398.7,967.3,397.2,967.3,397.2z"/>
		<path class="st0" d="M930.3,430.9c-0.7,1-2.1,2-1.9,2.7c0.3,1.6,1.4,3,2.1,4.5C933.2,436.2,933.4,433.4,930.3,430.9z"/>
	</g>
	<g id="Jordan_1_">
		<path id="XMLID_45_" class="st0" d="M684,436c1.6-0.3,2.7-0.3,3.7-0.7c1.1-0.4,2-1.1,3-1.7c1.4,2,1.3,2.1-0.6,2.8
			c-1.1,0.4-2.3,0.9-3.3,1.3c0.5,1.5,1.5,3.4,1.1,3.7c-1.4,1.3-3.3,2-5,3c-0.2-0.2-0.4-0.4-0.6-0.6C682.9,441.1,683.5,438.4,684,436
			z"/>
	</g>
	<g id="Kuwait_1_">
		<path id="XMLID_44_" class="st0" d="M715.7,447.3c-0.5-0.4-1-0.8-1.5-1.2c-0.3-0.3-2.5-1.2-2.4-1.5c0.3-0.9,2.2-1.5,3.2-2
			c-0.2,1.7-0.1,3.3,1,4.7C716,447.3,715.9,447.3,715.7,447.3z"/>
	</g>
	<g id="Lebanon_1_">
		<path id="XMLID_42_" class="st0" d="M684.6,433.3c-0.6-0.2-0.9-0.6-0.9-0.7c0-0.8,0.8-3.9,0.9-4.7c0.3,0,0.2,2.5,0.2,2.5
			C684.9,431.1,684.7,432.2,684.6,433.3z"/>
	</g>
	<g id="Libya_1_">
		<path id="XMLID_41_" class="st0" d="M621.7,434c2.4,0.6,4.8,1.2,7.2,1.8c0.4,0.1,0.9,0.3,1.1,0.6c2,4,6.6,3.3,9.7,5.4
			c1.2,0.8,3.3-1.1,3.5-2.9c0.5-4.1,3.5-5.5,7.1-3.3c1.5,0.9,3.2,1.4,4.8,2.1c0,9.8,0,19.5,0,29.3c0,4.1-1.7,5.1-5.5,3.2
			c-5-2.6-10.1-5.1-15.1-7.8c-1.7-0.9-3.2-1-4.9,0c-0.8,0.5-2.2,0.5-3,0.1c-2.9-1.4-5.8-2.8-8.4-4.6c-1.5-1-2.5-2.5-2-4.9
			c0.6-2.5,0.5-5.3,0.4-7.9c-0.1-3.5,0.2-6.6,3.5-8.7C620.7,435.9,621,434.9,621.7,434z"/>
	</g>
	<g id="Macedonia_1_">
		<path id="XMLID_38_" class="st0" d="M647.7,402.7c0.9,1,1.5,1.6,2,2.1c-1.2,0.7-2.3,1.6-3.5,2.1c-0.3,0.1-1-0.9-1.6-1.3
			C645.6,404.8,646.5,403.9,647.7,402.7z"/>
	</g>
	<g id="Malawi_1_">
		<path id="XMLID_37_" class="st0" d="M680.7,567.6c0.9-3.5-0.7-5.2-2.9-6.7c-0.4-0.2-0.8-0.8-0.8-1.2c0.2-3.2,0.6-6.3,0.9-10.1
			c1.6,1.8,2.6,3.5,2.1,5.3c0.1,2.5,0.5,4.8,2,7.1C683.6,563.2,683.3,566,680.7,567.6z"/>
	</g>
	<g id="Malaysia_1_">
		<path class="st0" d="M881.8,517.3c-0.4,0.2-0.8,0.5-1.2,0.8c-1.1,1-2.2,1.9-3.3,2.9c0.2,0.1,0.8,0.6,1.3,0.5
			c2.9-0.3,5.7-0.8,8.6-1.2c0.3,0,0.7-0.4,0.9-0.7c1.1-2.3,2.1-4.7,3.1-7c-2.8,1.5-5.6,3-8.5,4.4
			C882.5,517.2,882.1,517.2,881.8,517.3z"/>
		<path class="st0" d="M895.4,508.1c-0.5-0.3-1.6-0.4-1.8-0.1c-0.9,1.4-1.6,3-2.4,4.6c1.2,0.1,2.4-0.1,3.4,0.2
			c2.4,0.6,3.6-0.3,3.8-2.4C897.3,509.6,896.4,508.7,895.4,508.1z"/>
		<path class="st0" d="M854.6,509.5c-0.6,0.3-1.5,0-2.5-0.1c-0.8,4.5,3.5,9.5,8.4,10.8c-0.8-3.2-1.5-6.4-2.5-9.4
			C857.5,509.5,856.4,508.5,854.6,509.5z"/>
	</g>
	<g id="Mexico_1_">
		<path id="XMLID_36_" class="st0" d="M301.9,459.4c-0.7-0.9-1.8-1.8-1.9-2.8c-0.1-2.2-1.4-3.2-3.1-4.1c-2-1.1-3.7-2.1-2.7-5
			c0.2-0.7-1.1-2.1-1.9-2.9c-1.9-1.8-4.3-6.4-4.5-9.6c2.2,0.4,4.3,0.6,6.2,1.2c4.3,1.4,8.4,3.7,13.2,3c1-0.1,2-0.3,2.8-0.7
			c2.1-1.2,3.8-0.9,5.4,0.7c2,2,3.9,4.1,6,5.9c0.5,0.4,1.9,0.4,2.4,0c2-1.5,3.1-1.6,4.5,0.3s2.4,4,3.8,5.9c0.9,1.3,2,2.6,3.3,3.4
			c1.4,0.8,1.9,1.6,1.5,3.2c-1.7,6,0,11.4,3.7,16.1c1.6,1.9,4.1,3.1,6.9,2.5c1.5-0.3,2.9-0.8,4.4-1.1c2.2-0.5,3.5-1.6,4-3.9
			c0.7-2.8,4.8-4.6,7.4-3.3c0.5,0.2,1,1,1,1.4c-0.1,3.1-3.5,6.7-6.6,7.1c-4.1,0.5-4.1,0.5-3.4,4.1c-1.4,1-2.7,2-4.3,3.2
			c-2.8-1.9-6.1-3-9.9-1.6c-0.6,0.2-1.4-0.3-2.1-0.5c-4.8-1.9-9.6-3.8-14.3-5.9c-1.9-0.8-3.6-2-5.2-3.4c-0.7-0.7-0.8-2.1-1-3.2
			c-0.2-1,0-2.3-0.5-3.1c-1.8-2.7-3.8-5.2-5.8-7.8c-2.4-3-4.9-5.9-7.3-8.9c-1.5-1.8-3.1-3.6-4.6-5.5c-0.6-0.8-1.3-1.9-1.4-2.9
			c-0.4-2.3-2-3.3-4-4c-1.9-0.6-2.3,0.3-2,1.9c0.3,1.4,0.6,2.8,1.4,4c1.8,2.9,4.1,5.5,5.9,8.3c1.4,2.3,2.4,4.8,3.6,7.2
			C302.6,458.9,302.3,459.2,301.9,459.4z"/>
	</g>
	<g id="Nepal_1_">
		<path id="XMLID_34_" class="st0" d="M817.4,452.7c-1.3-0.2-2.1-0.3-2.9-0.6c-4.4-1.7-8.7-3.4-13.1-5.2c-1.2-0.5-2.1-1.4-1.2-2.7
			c0.8-1.2,1.7-2.8,3.5-1.7c1.8,1.1,3.5,2.6,5.4,3.5c2.6,1.3,5.4,2,8,3.2c0.7,0.3,1.3,1.3,1.5,2.1
			C818.7,451.7,817.7,452.3,817.4,452.7z"/>
	</g>
	<g id="Netherlands_1_">
		<path id="XMLID_33_" class="st0" d="M601.3,367.4c1.1-2.5,1-5.7,4.2-7c0.7-0.3,1.8-0.4,2.5,0c0.4,0.2,0.4,1.5,0.2,2.2
			c-0.7,2-1.6,4-2.4,5.8C604.4,368.1,603.1,367.8,601.3,367.4z"/>
	</g>
	<g id="New_Zeland_1_">
		<path class="st0" d="M1037.6,642.6c-1.4,4.2-4.6,6.9-8.2,9.3c-1.8,1.2-3.2,3.1-4.6,4.8c-0.4,0.5-0.4,2.1,0,2.5
			c3.7,3.1,7.8,1.9,9.4-2.7c0.8-2.4,1.4-4.9,4.3-5.6c0.2,0,0.4-0.3,0.5-0.5c0.9-1.7,1.9-3.3,2.7-5c0.4-0.9,0.5-1.8,0.7-2.3
			c-1.4-0.8-2.4-1.4-3.6-2.1C1038.5,641.4,1037.9,641.9,1037.6,642.6z"/>
		<path class="st0" d="M1048.4,630.2c-2.1-1.3-4.2-2.9-4.8-5.7c-0.2-0.9-1-1.5-1.5-2.3c-0.2,0.1-0.5,0.3-0.7,0.4
			c2,4.2,6.2,8.1,1.6,13.3c3.7,1.2,3.5,3.9,2.5,6.8c2.8-1.1,3.5-3.6,4.6-5.7c0.5-0.9,1-1.7,1.5-2.5c0.7-1,1.5-2.1,2.3-3.1
			C1051.6,630.9,1049.7,631,1048.4,630.2z"/>
	</g>
	<g id="Nigeria_1_">
		<path id="XMLID_31_" class="st0" d="M603.6,488.6c2.6,0.5,4.5,0.6,6.2,1.2c2.8,1.1,5.6,0.7,8.5,0.5c2.7-0.1,5.5,1,8.2,1.7
			c1.1,0.3,1.6,1,0.8,2.3c-1.9,3.2-3.8,6.3-5.5,9.6c-0.9,1.7-2,2.8-4,2.8c-2.2,0-3.6,1.1-4.5,3.2c-1.4,3.3-6,3.7-8.1,0.8
			c-1.3-1.7-2.6-3.2-5-3.2c-0.5,0-1.2-1-1.4-1.6c-0.3-0.7-0.2-1.5-0.1-2.2c0.9-4.2,2.5-8.3,2.8-12.6
			C601.5,490,603.1,489.1,603.6,488.6z"/>
	</g>
	<g id="Oman_1_">
		<path id="XMLID_30_" class="st0" d="M736.4,458.7c2.1,1,4.1,1.9,6,2.8c2.8,1.4,3.1,2.6,1.7,5.2c-2.9,5.4-6.8,9.5-12.5,12
			c-2.3,1-2.6,0.9-4.1-2.2c-1-2.1,0.1-2.8,1.7-3.1c3.3-0.8,5.9-2.3,6.1-6.1c0.1-1,0-2.1-0.3-3.1C734.7,462,735.2,460.2,736.4,458.7z
			"/>
	</g>
	<g id="Pakistan_1_">
		<path id="XMLID_28_" class="st0" d="M755.9,452.1c-1.6-2.7-3-5-4.3-7.1c2.1-0.1,4.5-0.1,6.9-0.4c2.5-0.3,5.1-0.4,5.7-4
			c0.1-0.9,2-1.9,3.2-2.3c2-0.7,3.5-1.2,4.3-3.7s3.1-4.5,4.6-6.7c0.4-0.6,0.7-1.4,0.6-2c-0.7-2.6,0.7-3.3,2.8-3.6
			c1.3-0.3,2.6-0.6,3.9-0.9c2-0.4,3.5-0.1,4.5,2c0.5,1.1,2,1.8,3.2,2.8c-0.9,1.7-2.4,2.1-4.3,1.9c-1-0.1-2-0.4-3-0.3
			c-1.5,0.1-2.3,1-1.8,2.6c0.7,1.8,1.5,3.5,2.5,5.9c-1.7,2.8-3.6,6.3-5.8,9.6c-0.7,1.1-2.3,1.5-3.5,2.3c-1.3,0.8-2.6,1.6-3.8,2.6
			c-0.2,0.2-0.2,1.1,0,1.5c0.7,1.5,1.5,2.9,2.2,4.4c0.7,1.3,0,1.8-1.2,2c-1.6,0.3-3.1,1-4.7,1.1c-0.7,0.1-1.8-0.6-2.1-1.2
			c-1.3-2.8-3.4-3.3-6.2-2.8c-2,0.3-4,0.3-6,0.3c-0.7,0-1.3-0.6-2-0.9c0.5-0.6,0.9-1.3,1.5-1.8C754,453,754.8,452.7,755.9,452.1z"/>
	</g>
	<g id="Philippines_1_">
		<g id="Philippines_3_">
			<path class="st0" d="M912.1,488.5c-1.1-0.4-2.1-1-3.2-1.2c-2.8-0.6-3.9-3.1-1.9-5.2c1.9-2,1.2-3.4-0.3-4.9
				c-1.3-1.3-2.1-0.8-2.4,0.7c-0.4,1.9-0.9,4-0.7,5.9c0.1,1.4,0.9,3.4,2,3.9c1.8,0.9,4.2,0.8,6.3,1.2
				C911.9,488.7,912,488.6,912.1,488.5z"/>
			<path class="st0" d="M907.2,484.1c0.4,0.7,0.9,1.4,1.5,1.9c0.4,0.4,1.2,0.7,1.7,0.5c0.8-0.3,1.4-1,2.1-1.5
				c-0.1-0.1-0.1-0.1-0.1-0.2c-0.4,0.2-0.9,0.3-1.3,0.6c-1,0.6-2,0.2-2-0.9s-0.6-1.3-1.5-1.3C906.9,483.2,906.9,483.6,907.2,484.1z"
				/>
			<path class="st0" d="M910.8,490.9c0,0.4,0.6,0.4,0.9,0.4c0.3,0,0.3-0.1,0.2-0.3c-0.2-0.3-0.3-0.5-0.6-0.7
				c-0.2-0.1-0.5-0.3-0.7-0.2c-0.3,0.1-0.6,0.4-0.8,0.6c0,0,0,0,0,0.1c0.2-0.1,0.3-0.1,0.5-0.2C910.4,490.4,910.7,490.4,910.8,490.9
				z"/>
			<path class="st0" d="M912.2,489.1c0.4,0.4,0.7,1,1.1,1.2c0.9,0.6,1.3,3,0.6,5.1c-0.6,2-0.4,3.3,0.1,4.8c0.4,1.3,0.7,0.8,0.8-0.7
				c0.1-1.9,0.3-3.9,0.2-5.8c0-1.4-0.3-3.3-0.7-3.8c-0.6-0.9-1.4-0.8-2.1-1.2C912.3,488.9,912.3,489,912.2,489.1z"/>
			<path class="st0" d="M918,500.9c-3.2,1.1-6.1,2-9.2,2.9c0.1,0.2,0.2,0.5,0.3,0.7c0.3-0.1,0.6-0.1,0.9-0.2c2.8-1,2.9-0.8,3.5,2
				c0.3,1,1.4,1.8,2.1,2.7c0.3-0.1,0.5-0.3,0.8-0.4C915.3,505.7,920.2,504,918,500.9z"/>
			<path class="st0" d="M911.2,499.1c2.6-5.2,1.9-7.5-2-7c-0.1,0-0.3,0.2-0.2,0.3c1.4,2.1,1.9,4,1.7,6.6
				C910.7,499.3,911.1,499.3,911.2,499.1z"/>
		</g>
	</g>
	<g id="Poland_1_">
		<path id="XMLID_27_" class="st0" d="M628.3,360.4c-0.7-2.2,1-3.1,2.9-3.9c1.2-0.5,2.4-1.1,3.6-1.8c1.5-0.8,2.7-0.5,4.4,0.3
			c1.9,0.9,4.3,1,6.4,1.3c0.6,0.1,1.2,0,1.7,0c3.6,0,5.8,2.4,4.4,5.7c-1.2,2.6-0.1,4.7,0.2,6.9c0.5,3.1-2.3,6.2-5.3,6.9
			c-4.1,1-6.8-1-9.7-3.1c-0.5-0.3-1-0.6-1.5-0.8C630.2,370,627.8,366.3,628.3,360.4z"/>
	</g>
	<g id="Portugal_1_">
		<path id="XMLID_24_" class="st0" d="M568.4,404.4c1.8,0.4,3.3,0.6,4.9,1c-0.4,1.4-0.9,2.7-1.1,4.1c-0.4,3-0.6,6-1.1,9
			c-0.1,0.8-1.2,1.4-1.8,2.1c-0.3-0.8-0.7-1.6-0.9-2.4c-0.1-0.4,0.2-0.9,0-1.2c-1.9-3-0.4-5.9-0.1-8.8
			C568.5,406.9,568.4,405.7,568.4,404.4z"/>
	</g>
	<g id="Romania_1_">
		<path id="XMLID_23_" class="st0" d="M644.9,389.7c1.1-1.8,2.1-3.2,2.9-4.7c1.3-2.3,3.4-3.1,5.9-2.5c1.2,0.3,2.8,0.2,3.9-0.3
			c1.7-0.8,2.7-0.5,3.7,1c1.3,2,2.5,3.8,2.1,6.4c-0.1,0.8,1,1.8,1.2,2.8c0.3,1.1,0.3,2.2,0.1,3.3c-0.1,0.3-1.5,0.2-2.3,0.3
			c-1,0.1-2,0.1-2.9,0.4c-5.5,2-9.6,0.6-12.7-4.4C646.3,391.2,645.5,390.4,644.9,389.7z"/>
	</g>
	<g id="Saudi_Arabia_1_">
		<path id="XMLID_22_" class="st0" d="M701.5,478.8c-0.8-1.3-1.5-2.7-2.5-4c-1-1.4-2.4-2.5-3.3-4c-1.1-1.6-2.2-3.3-2.6-5.1
			c-0.6-2.5-1.2-4.8-3.5-6.3c-0.8-0.6-1.4-1.6-1.9-2.5c-1.8-3-3.5-6-5.3-9c-1-1.5-0.6-2.1,1-2.7c1.8-0.7,3.6-1.6,5.3-2.5
			c2.2-1.3,0.3-2.7-0.1-4c2.8-2.2,5.3-2.6,8.2-0.7c3,1.9,5.7,4.3,8.6,6.3c1,0.7,2.5,1.4,3.6,1.3c5.5-0.5,7.9,3.8,11,6.9
			c0.8,0.8,0.7,2.6,1.3,3.7c1.3,2.3,2.7,4.4,4.3,6.5c0.4,0.5,1.2,0.8,1.9,1c1.3,0.3,2.7,0.4,3.9,0.8c1.1,0.4,2.7,0.8,3.1,1.7
			c0.7,1.4-1.3,4.8-2.8,5.3c-3.6,1-7.2,1.9-10.8,2.7c-2.5,0.5-4.9,0.9-6.4,3.3c-0.4,0.6-1.4,1-2.1,1c-2.1-0.1-4.3-0.5-6.4-0.6
			c-1.4-0.1-2.7,0.2-4.1,0.2C701.7,478.4,701.6,478.6,701.5,478.8z"/>
	</g>
	<g id="Scotland_2_">
		<path id="Scotland_3_" class="st0" d="M582.1,350.2c0.4-0.1,0.6-0.1,1-0.2c0.3-0.1,0.6-0.1,0.8-0.1c-0.5-0.6-0.7-0.9-1.1-1.5
			c-0.5-1,0.9-2.9,1.5-4.4c0.1,0,0.1-0.1,0.1-0.2c0.9-3,0.5-3.5-2.6-3c-0.6,0.1-1.1,0-2,0c0.7-1.6,1.2-3,2.1-5.1
			c-1.9,0.6-3.6,0.6-4.3,1.4c-3,3.5-2.5,8.7,0.7,12c0.3,0.4,0.6,1.2,0.4,1.6c-0.2,0.5-0.2,0.3-0.2,0.6c0.9-0.2,1.8-0.7,2.8-0.9
			C581.5,350.4,581.9,350.2,582.1,350.2z"/>
	</g>
	<g id="Serbia_1_">
		<path id="XMLID_20_" class="st0" d="M649,402.3c-1.3-0.7-1.9-1.3-2.6-1.5c-4.3-1.4-4.6-1.7-4.9-6.2c-0.1-1.1-0.3-2.3-0.4-3.4
			c0-0.5,0.1-1.2,0.4-1.5c0.4-0.3,1.2-0.2,1.6,0c0.6,0.3,1.2,0.9,1.7,1.5c1.9,2.5,4,4.9,4.8,8C649.7,400.1,649.2,401,649,402.3z"/>
	</g>
	<g id="Singapore_1_">
		<path id="XMLID_19_" class="st0" d="M860.5,519.7c0.7,0,1.1,0.2,1.2,0.8c0,0.1-0.3,0.4-0.4,0.4
			C860.7,520.8,860.7,520.2,860.5,519.7z"/>
	</g>
	<g id="South_Korea_1_">
		<path id="XMLID_17_" class="st0" d="M920.1,427.8c0-2.9-0.2-5.9,0.1-8.9c0.1-0.9,1.6-1.8,2.6-2.2c0.5-0.2,1.7,0.6,2.2,1.3
			c0.7,0.9,1.1,2.1,1.4,3.2C927.6,425.5,925,428.3,920.1,427.8z"/>
	</g>
	<g id="Spain_1_">
		<path id="XMLID_16_" class="st0" d="M597.9,404.3c-1,0.7-2,1.6-3.2,2.1c-2.9,1.2-5,4.4-4.8,7.6c0.1,1-0.3,2.2-0.9,2.9
			c-1.9,2.2-3.7,4.7-7.2,4.4c-0.7-0.1-1.7-0.2-2.2,0.2c-2.2,2-3.7,0.8-5.6-0.7c-1.5-1.1-1.9-1.9-1.6-3.6c0.7-3.6,1.4-7.3,1.8-10.9
			c0.1-0.8-0.9-1.9-1.6-2.4c-0.9-0.6-2.3-0.7-3.3-1.3c-0.8-0.5-1.2-1.5-1.8-2.2c1-0.6,2-1.8,3-1.8c4.6,0.1,9.1,0.3,13.7,0.8
			c1.4,0.2,2.6,1.5,3.9,1.9c2.7,0.8,5.4,1.3,8.2,1.9c0.4,0.1,0.8,0.2,1.1,0.3C597.7,403.8,597.8,404.1,597.9,404.3z"/>
	</g>
	<g id="Sri_Lanka_1_">
		<path id="XMLID_15_" class="st0" d="M799.7,500.6c0.9,1.3,2.1,2.5,2.4,3.9c0.2,0.9-0.4,2.6-1.3,3.2c-1.5,0.9-2-0.6-2.1-1.8
			c-0.2-1.7,0-3.4,0-5.1C799.1,500.7,799.4,500.6,799.7,500.6z"/>
	</g>
	<g id="Saint_Lucia_1_">
		<path id="XMLID_14_" class="st0" d="M423,485.5c-0.5-0.3-0.9-0.4-1.3-0.6c-0.1-0.1-0.2-0.3-0.2-0.3c0.2-0.2,0.3-0.4,0.6-0.5
			c0.1,0,0.3,0,0.3,0.1C422.6,484.5,422.7,484.9,423,485.5z"/>
	</g>
	<g id="Sudan_1_">
		<path id="XMLID_11_" class="st0" d="M689.9,477.1c-5,1.7-4.4,5.9-5.1,9.5c-0.3,1.7-1.2,3.4-2.1,4.9c-1.2,2-2.8,3.9-4.5,6.4
			c-0.3-1.5-0.6-2.5-0.7-3.6c-0.1-1.3-0.4-2.3-2-2.1c-1.4,0.1-1.7,0.8-1.5,2.2c0.3,2.3-1.7,3.7-4,3.2c-0.7-0.2-1.6-0.3-2.1,0.1
			c-3.1,2.4-6.1,1.4-8.9-0.4c-1.7-1-2.9-0.8-3.9,1c-0.5,0.9-1,1.7-1.7,2.7c-1.6-3.8-3.7-7-4.2-10.4c-0.3-2.1,1.8-4.6,2.8-6.9
			c0.4-0.9,1.3-1.6,1.4-2.5c0.2-2.4,0-4.8,0.1-7.2c0-0.7,0.5-1.9,0.9-2c2-0.5,2.1-1.9,2-3.4c-0.1-1.7,0.8-2.3,2.4-2.3
			c8.4,0,16.8,0,25.2,0c1.9,0,2.6,0.8,2.5,2.8C686.6,471.9,687,474.7,689.9,477.1z"/>
	</g>
	<g id="Switzerland_1_">
		<path id="XMLID_10_" class="st0" d="M616.7,386.8c-1.3,0.7-2.4,1.2-3.4,1.8c-2.2,1.4-3.7,1-5.8-1.7c1.1-1.8,2.5-2.9,4.8-3.3
			C615.4,383,615,386.1,616.7,386.8z"/>
	</g>
	<g id="Syria_1_">
		<path id="XMLID_6_" class="st0" d="M698.5,421.1c-0.3,1.5-0.6,2.8-0.8,4.1c-0.2,1.9-0.7,3.5-2.6,4.5c-2.3,1.2-4.5,2.8-6.9,4.1
			c-0.9,0.5-2.1,0.3-3.2,0.4c0.1-1,0.3-2.1,0.3-3.1c0.1-1,0.4-2.2,0-3.1c-1.1-2.4-0.1-5,2.4-5.6c1.4-0.3,2.9-0.2,4.4-0.3
			C694.4,421.7,696.6,421.4,698.5,421.1z"/>
	</g>
	<g id="Thailand_1_">
		<path id="XMLID_4_" class="st0" d="M849.1,491.6c-0.4-2.8-0.8-5.6-1.4-8.4c-0.3-1.6-0.7-3.3-1.6-4.7c-1-1.6-1.6-3.2-0.3-4.5
			c1.2-1.2,2.9-2.2,4.5-2.8c0.9-0.4,2.9,2.7,2.8,4.1c-0.1,0.7-0.2,1.5-0.2,2.2c0,0.2,0.2,0.4,0.4,0.7c1.6-0.5,3.1-1.1,4.7-1.4
			c2.6-0.5,3.7,0.4,4.3,2.9c0.3,1,0.8,1.9,1.3,2.9c1.2,2.3,0.6,3.6-1.9,3.6c-2.8,0-4.9,0.7-5.6,3.8c-0.1,0.3-1.8,0.7-2.3,0.3
			c-2.8-2.2-3-2.2-3.9,1.2C849.6,491.5,849.4,491.5,849.1,491.6z"/>
	</g>
	<g id="Turkey_1_">
		<path id="Turkey_3_" class="st0" d="M703.9,409.1c-1.3-3.2-2.9-4.1-5.9-2.7c-4.4,2.1-8.7,1.9-12.8-0.6c-4-2.4-7.8-2.1-11.7,0.3
			c-1.1,0.7-2.7,0.7-4.1,1.1c-0.9,0.3-1.8,0.4-2.7,0.8c-0.7,0.3-1.5,0.7-2.2,1.1c0.2-0.9,0.3-1.9,0.5-3.1c-1.5-0.6-3.4-1.9-4-1.4
			c-1,0.9-1.3,2.7-2,4.5c0.5,0.9,0.9,1.7,1.3,2.4c-0.7,1,0.4,2.2,0.2,3.1c-0.5,1.7,0.2,2.7,0.8,4.1c1.1,2.6,3.5,2.5,5.4,3.3
			c0.9,0.4,2.1-0.1,3.2-0.1c1.4,0,3-0.4,3.9,0.2c1.6,1.1,3.2,1.3,4.6,0.5c2.2-1.3,4.2-1.4,6,0.3c3-3.6,7-1.4,10.4-2.3
			c3.5-0.9,7.1-1.2,10.6-1.8c0-2.3,0-4.8,0-7.6C705.1,410.8,704.4,410.1,703.9,409.1z"/>
	</g>
	<g id="United_Arab_Emirates_1_">
		<path id="XMLID_3_" class="st0" d="M736,456.3c-0.5,1.4-1,2.8-1.6,4.1c-0.5,1-1.2,2.8-1.9,2.8c-2.2,0-4.5-0.1-6.4-2
			c3.8-0.8,7.3-2.1,9.5-5.7C735.7,455.8,735.8,456.1,736,456.3z"/>
	</g>
	<g id="United_Kingdom_1_">
		<path id="United_Kingdom_3_" class="st0" d="M594.1,363.1c-0.1-0.1-0.3-0.3-0.4-0.3c-2.7-0.6-2.8-3.1-3.7-5.1
			c-0.5-1.2-1.5-2.1-2.3-3.1c-1-1.3-2.2-2.5-3.3-3.8c-0.3,0.1-0.6,0.2-1,0.3c-0.5,0.1-1,0.2-1.4,0.3c-0.2,0-1.4,0.5-1.6,0.5
			c-1,0.2-1.3,0.2-2,0.4c0.2,1,1.2,1.7,2.1,2.4c0.7,0.5,1.7,1,2.1,1.7c0.5,0.7,0.8,1.9,0.6,2.7c-0.1,0.4-1.4,0.8-2.2,0.8
			c-2,0-2.3,1.1-1.7,2.6c0.9,2.3-1.6,4.6,0.2,6.9c0.1,0.1-0.5,0.9-0.9,1.4c-0.5,0.6-1,1.2-1.4,1.7c4.6-0.8,9.4-1.5,14.1-2.3
			C593,369.9,595.1,364.5,594.1,363.1z"/>
	</g>
	<g id="United_States_1_">
		<path class="st0" d="M414.1,387c-0.2-0.6-0.7-1.5-1.2-1.6c-0.9-0.1-1.9,0.1-2.7,0.5c-0.5,0.3-0.8,1.2-1,1.9
			c-1.5,4.1-4,5.9-8.3,5.9c-0.9,0-1.8,0-2.7,0c-2.6,0.1-4.1,1.3-5.1,3.7c-0.4,0.9-1.7,2.1-2.5,2.1c-2.7-0.1-4.3,1.1-6.1,3
			c-3.2,3.4-7.7,4.2-10.9,2.4c0.8-1.5,1.8-3,2.3-4.6c0.8-2.5-1.7-2.4-3.1-3c0.3-1.2,0.8-2.3,0.9-3.4c0.1-1.6-1.7-3-3-2.4
			c-1.2,0.5-3.7,5.2-3.6,6.6c0.1,1.6,0.3,3.4-0.2,4.9c-0.3,1-1.8,1.6-2.7,2.3c-0.5-0.8-1.3-1.5-1.4-2.3c-0.3-2.4,0-4.9-0.3-7.3
			c-0.3-2.9,0.8-5.2,3.6-6.1c1.5-0.5,3.1-0.7,4.7-1.1c0-0.2,0-0.4,0-0.6c-1.1-0.1-2.4-0.5-3.4-0.2c-2.2,0.6-3.9,0.1-5.6-1.2
			c-0.6-0.4-1.9-0.8-2.3-0.5c-2.4,2-5.1,1-8.3,0.8c1.7-1.8,3.2-3.3,4.4-4.6c-3.5-1.1-6.9-2.2-10.2-3.1c-1.4-0.4-2.8-0.8-4.3-0.8
			c-21.7,0-43.4,0-65.1,0c-1,0-2,0.1-2.9,0.2c0,2.5,0,4.6,0,7.2c-2-1.3-1.6-4.5-4.6-3.9c0,0.5,0,1,0.1,1.5c1.1,4.5,1.4,9.2,0.4,13.8
			c-0.6,2.6-1,5.2-0.1,7.8c0.3,0.8-0.1,1.7-0.1,2.5c-0.1,0.8-0.3,1.7,0,2.4c2.4,4.8,4.7,9.6,7.3,14.3c0.8,1.5,2.3,2.5,3.7,3.6
			c1.7,1.3,3.8,2.2,5.2,3.8c1.9,2,3.7,3.2,6.5,2.3c0.5-0.2,1.2,0,1.7,0.2c2.9,1.2,5.7,2.7,8.7,3.5c2.2,0.6,4.9,0.7,7,0
			c3.5-1.2,5.1-1.4,7.8,1.2c1.6,1.4,2.9,3.2,4.5,4.6c0.5,0.4,1.7,0.6,2.3,0.3c2.6-1.5,4.2-1.3,5.9,1.1c1.4,2,2.7,4.1,3.9,6.3
			c0.9,1.8,2.1,2.7,4.4,2.5c-1-4.1,1.2-6.3,4.5-7.8c0.2-0.1,0.4-0.3,0.6-0.5c3.6-2.8,7.5-2.8,11.5-1.3c1.4,0.5,2.1,0.3,3.3-0.6
			c1.4-1.1,3.3-2,5-2.2c2.4-0.2,4.9,0.3,7.4,0.4c4,0.2,6.4,2.7,6.5,6.6c0.1,2.8,2.6,6.5,5.5,7.6c0-2,0.3-3.9-0.1-5.7
			c-0.6-2.8-1.9-5.4-2.5-8.1c-0.3-1.5-0.3-3.9,0.6-4.8c3.4-3.3,7-6.5,10.9-9.3c2-1.4,2.6-2.6,2.1-4.9c-0.5-2.5-0.8-5.1-1.1-7.6
			c-0.1-0.5,0.3-1,0.6-1.9c0.7,1.4,1.3,2.4,1.8,3.4c0.2,0,0.5-0.1,0.7-0.2c-0.2-1.3-0.3-2.6-0.5-3.9c0.3,0.1,0.5,0.3,0.7,0.4
			c0.8-0.7,2-1.1,2.3-1.9c1.2-3.4,3.3-5.6,6.9-6.2c1.3-0.2,2-0.9,2.2-2.5c0.3-2.6,1.2-5.1,4.3-6.1c1.4-0.4,2.7-1.3,3.9-2.1
			c0.5-0.3,0.9-1.2,0.8-1.7C415.2,390.7,414.7,388.8,414.1,387z"/>
		<path class="st0" d="M250.7,347.1c-1.2-0.8-2.4-1.7-3-2.9c-2.3-4.1-4.1-8.5-7.6-11.9c-2.1-1.9-2.7-2.5-4.3-0.2
			c-1.9,2.6-2.6,1.7-4.2-0.3c-1.5-1.8-3.3-3.6-5.4-4.4c-1.9-0.7-2.4-1.5-2.4-3.3c0-6.6,0-13.1,0-19.7c0.1-11,0.1-22,0-33
			c0-1.1-0.5-2.8-1.3-3.3c-2.2-1.3-4.4-3.5-7.5-1.9c-0.4,0.1-1-0.1-1.5-0.2c-3.5-1-7-2.1-10.5-3c-0.9-0.2-1.9-0.1-2.9-0.1
			c-2,0.1-3.8-0.3-5.3-2c-0.6-0.7-2.2-1.1-3-0.8c-1.8,0.7-2.6,0.2-3.5-1.4c-1.7-2.9-4-3-6.2-0.6c-0.7,0.8-1.8,1.4-2.8,1.7
			c-4.1,1.1-7.4,3.3-10.2,6.2c-0.6,0.6-1,1.4-1.1,2.2c-0.8,4.1-2.9,6.5-7.3,6.8c-0.6,0-1.6,0.9-1.8,1.6c-0.2,0.6,0.5,1.6,1,2.2
			c1.2,1.3,2.6,2.3,3.8,3.6c1.8,2,3.6,4,5.2,6.2c1,1.4,1.6,3,2.4,4.5c-3.7,1.4-4.8,1-6.6-1.4c-0.3-0.4-1.3-0.6-1.9-0.4
			c-1,0.3-2,0.9-2.9,1.4c-4.9,2.7-4.8,2.6-2,7.2c1.5,2.5,3.5,2.9,6.1,2.9c2.6-0.1,5.2-0.2,7.5-1.6c0.4-0.3,1,0,1.6,0
			c-0.2,1.2-0.7,2.3-0.4,3c1,2,1.3,3.8-1,5.1c-1.6,0.9-3.3,1.7-5,2.5c-0.1,0.1-0.3,0-0.5-0.1c-1.6-0.7-2.5,0-3.1,1.5
			c-0.4,1.1-1,2.1-1.6,3.1c-1.2,1.9-2.1,3.7-0.1,5.8c0.5,0.5,0.4,1.5,0.6,2.3c0.6,2.6,2.9,4.3,5.4,3.8c2-0.3,3.3,0.8,3.3,2.9
			c0,1.1,0,2.1,0,2.8c2.1-0.1,4.2-0.9,5.2-0.2c2,1.5,3.6,0.8,5.5,0.4c0.6-0.1,1.1-0.3,1.9-0.5c-0.5,1.5-1.2,2.6-1.2,3.8
			c0,3.1-1.7,5.1-3.9,6.9c-1.8,1.5-3.6,3.1-5.6,4.4c-2.3,1.5-4.8,2.8-7.2,4.2c0.2,0.3,0.3,0.6,0.3,0.7c0.7-0.2,1.4-0.4,2-0.7
			c3-1.3,6-2.6,8.9-4.1c1-0.5,1.7-1.5,2.5-2.3c0.5-0.5,0.7-1.2,1.2-1.6c2.8-2.4,5.7-4.8,8.6-7.2c0.8-0.7,1.5-1.5,2.1-2.4
			c0.3-0.5,0.6-1.4,0.3-1.8c-1.3-1.9-0.4-2.9,1-4.2c1.1-0.9,1.7-2.4,2.6-3.6s1.7-2.5,2.8-3.5c0.4-0.4,1.4-0.3,2.1-0.5
			c-0.2,0.7-0.2,1.8-0.7,2.2c-2,1.6-1.9,3.9-2.1,6.1c0,0.4,1.1,1.3,1.3,1.2c2.2-0.9,4.3-2,6.4-3.2c0.3-0.2,0.5-0.8,0.6-1.3
			c0.9-3.8,2.3-4.3,5.7-2.2c2.1,1.3,4.6,2.8,7,2.8c4.4,0.1,8.1,1.5,11,4.4c3.3,3.3,6.9,5.4,11.6,5.4c1.6,0,2.4,0.8,2.9,2.2
			c0.6,1.4,1.4,2.8,2.1,4.2c0.9,1.8,2,3.4,2.7,5.2c0.7,1.7,1.8,2.6,3.6,2.8C252.7,349.6,252.3,348.3,250.7,347.1z"/>
		<path class="st0" d="M194.4,339.6c-1.2,0.5-2.5,0.9-3.7,1.5c-0.3,0.2-0.6,1.2-0.4,1.6c0.1,0.3,1.2,0.7,1.5,0.5
			c1.1-0.8,2.1-1.8,3.2-2.7C194.8,340.2,194.6,339.9,194.4,339.6z"/>
		<path class="st0" d="M192.6,411c1.9,0.9,2.8,3,5.1,3.4C197.2,412.4,194.4,410.6,192.6,411z"/>
	</g>
	<g id="Yemen_1_">
		<path id="XMLID_1_" class="st0" d="M702.1,483.7c0.3-1.3,0.4-2.5,0.9-3.5c0.3-0.6,1.2-1.2,1.8-1.3c1.8,0,3.7,0.1,5.4,0.4
			c2.4,0.4,4.3,0.4,5.8-2.1c0.9-1.5,7.7-3.4,9-2.3c1.2,1,2.4,2.9,2.4,4.3c0,1.3-1.4,3.3-2.6,3.8c-5.8,2.6-11.9,5-17.8,7.3
			c-1.6,0.6-2.9,0.1-3.4-1.8C703.1,486.9,702.6,485.3,702.1,483.7z"/>
	</g>
</g>
<g id="No_Fellows_1_">
	<path class="st1" d="M620.2,176.2c1.9,5.3,3.4,10.8,7.8,14.8c0.6,0.5,0.9,2.3,0.5,2.9c-1.4,2.1-1.1,3.8,0.7,5.4
		c0.8,0.6,1.1,1.7,1.9,2.3c0.8,0.6,1.8,1.2,2.7,1.2c0.4,0,1-1.4,1.2-2.3c0.6-2.5,1-5.2,1.7-7.7c0.5-1.9,2-3.6,2.1-5.4
		c0.3-4,1.7-7.1,5.2-9.1c0.7-0.5,1.3-1,2-1.5c-0.6-0.9-0.9-1.4-1.2-1.7c-3-4.1-6.1-8.1-9.2-12.1c-0.5-0.6-1.6-1.2-2.2-1
		c-0.9,0.4-1.8,1.2-2.1,2.1c-0.5,1.4-0.5,2.9-2.6,3c-2,0.2-2.9-0.7-3.4-2.5c-0.3-1.2-1.1-1.5-2.2-0.7c-0.8,0.6-1.6,1.2-2.5,1.7
		c-1.5,1-2,2.2-1.6,4C619.5,171.8,619.4,174.1,620.2,176.2z"/>
	<path class="st1" d="M727.1,255c1.7,0.7,3.4,1.4,3.5,3.7c0,0.4,0.7,1,1.1,1.1c2.4,0.3,4.7,0.5,7.1,0.8c0.1-0.3,0.2-0.5,0.4-0.7
		c-0.5-0.8-0.9-1.5-1.5-2.2c-3.9-4.6-4-9.5-1.4-14.8c1.9-3.9,3.5-7.9,5.3-11.8c0.4-1,0.9-2,1.5-2.8c4.4-5.7,9.3-10.8,15.9-14
		c2.3-1.2,4.5-2.6,6.7-3.9c3.6-2.1,4.1-4.1,1.8-7.7c-3.6,0.4-4,0.8-6.8,3.2c-1.1,1-2.5,2.2-3.9,2.4c-5.1,0.7-9.1,3.1-12.7,6.4
		c-2.1,2-4.3,4-6.5,5.8c-1.2,1-1.6,2.1-1.4,3.7c0.1,1.3-0.3,2.9-1,4.1c-1.2,2.1-2.8,4-4.4,6.2c2.2,0.9,1.8,2,0.8,3.4
		c-2,2.9-4.7,5.7-4.1,9.8c0,0.5-0.7,1.2-1.2,1.7C724.4,251.2,724.7,253.9,727.1,255z"/>
	<path class="st1" d="M829.3,157.4c2.2,1.4,2.6,3.7,3,6c0.5,2.4,0.8,4.9,1.9,7.1c2,3.9,5.6,6,9.5,7.7c2.8,1.2,5.9-0.7,6.3-3.6
		c0.7-5.7,0.5-11.2-2.2-16.5c-2.6-5-4.9-10.2-7.3-15.4c-0.3,0.1-0.6,0.2-1,0.3c0,0-0.1,0-0.2,0c-5.8,2.5-7.6,8.2-10.6,12.8
		C828.5,156.1,828.9,157.1,829.3,157.4z"/>
	<path class="st1" d="M717.1,560.3c-1.9,2.6-3.9,5.2-7.2,6.2c-4,1.3-4.7,2.2-3.6,6.3c0.7,2.7,0.5,5-1.2,7.3c-1.6,2-0.7,9.4,1.1,11.1
		c0.2,0.1,0.4,0.3,0.6,0.4c2.3,1.5,5.8,0.3,6.6-2.6c2.4-8.4,4.7-16.8,6.9-25.2c0.5-1.9,0.6-4.1-1.5-5.9
		C718.1,558.9,717.5,559.6,717.1,560.3z"/>
	<path class="st1" d="M553.8,300.6c0.4-0.5,0.4-1.7,0.1-2.5c-0.6-2-1.6-3.9-2.7-6.7c-1.1-0.5-2.7-0.4-4.3,1.1
		c-1.3,1.4-2.7,2-4.6,0.8c-0.4-0.3-1.5-0.1-2,0.2c-3.3,2-3.3,2-5.9-0.6c-0.2-0.2-0.5-0.6-0.7-0.6c-1.2,0.1-2.5-0.1-3.5,0.4
		c-0.7,0.3-1.2,1.6-1.2,2.5c0,0.5,1.2,1,1.9,1.5c0.9,0.7,1.7,1.3,2.6,2c-0.8,0.7-1.6,1.4-2.4,2.1c-0.1,0.1-0.1,0.3-0.2,0.5
		c1.1,1.4,5.4,1.3,2.3,4.7c5.2,2.4,10.1,3.3,14.9-0.4C550.1,304,552,302.4,553.8,300.6z"/>
	<path class="st1" d="M645.1,168.2c0.8,1,3.1,1.6,4.6,1.4c2.9-0.3,6.6-0.4,8.3-2.2c4.2-4.4,3.3-8.2-1.9-11.7
		c-0.6-0.5-1.3-0.8-1.9-1.2c-3.1-1.7-3.7-3.1-5.7,1.4c-0.1,0.3-0.3,0.6-0.5,0.9c-0.7-0.5-1.2-0.7-1.5-0.9c-1.7-2.5-3.5-2.5-6-0.9
		c-4.2,2.5-4.7,2.6-2,6.6C640.2,164,643.1,165.7,645.1,168.2z"/>
	<path class="st1" d="M894,513.9c-0.6-0.1-1.6,0.2-1.9,0.6c-0.9,1.4-1.8,2.9-2.3,4.4c-0.7,2.1-2.2,2.7-4.2,2.7c-1,0-2.2-0.3-2.9,0.1
		c-2.6,1.5-5.1,1.1-7.5-0.5c-2,4.2,1.9,6.5,2.5,9.7c0,0.3,1,0.5,1.5,0.6c2.3,0.3,4.7,0.5,7,0.9c1.6,0.2,3.7,1.5,4.7,0.9
		c1.3-0.7,1.4-3,2.2-4.6c0.6-1.2,1.5-2.2,2.1-3.3c0.8-1.4,1.3-3,2-4.8c-0.5-1.5-1.1-3.5-1.9-5.5C895.1,514.6,894.5,514,894,513.9z"
		/>
	<path class="st1" d="M949.7,223c0.4,0.3,0.8,0.8,1.1,1.3c0.7,1.2,1.5,1.1,2.7,0.7c2.1-0.7,4.3-1.3,6.4-1.2c5.4,0.2,6-0.1,6.8-5.4
		c0.1-0.5,0-1.5-0.4-1.7c-3.9-2.1-7.1-5.7-12-5.2c-2.5-0.3-5-0.1-5.8,2.2C947.4,216.8,946.3,220.3,949.7,223z"/>
	<path class="st1" d="M979.8,549.6c-2-1.6-4-3.3-6-4.9c-1.6-1.2-2.1-2.5-0.2-4c-1.8-1-3.8-1.4-4.6-2.6c-2.3-3.5-6-4.1-9.3-5.4
		c-1.1-0.4-1.8-0.3-2,0.6c-0.4-0.2-0.8-0.3-1.2-0.3c0-0.6-0.9-1.3-1.5-1.7c-0.9-0.5-1.9-0.6-2.8-1c-3.9-1.6-5.1-1.3-8.1,1.7
		c-1.5,1.5-3.2,1.4-4.4-0.4c-0.4-0.6-0.7-1.3-1-2c-1.2,0.8-2.3,1.5-3.4,2.3c0.4,2.5,2.4,1.2,3.7,1.7c2.8,1.1,5.5,2.3,8.2,3.4
		c3.8,1.6,4.9,5,2.7,8.2c2.1,0.1,4.3,0.3,6.7,0.5c0.4,0,0.8-0.1,1.1-0.3c0,0.1,0,0.2,0,0.3c0.1,0.7,1.2,1.7,2,1.9
		c0.8,0.1,2.3-0.3,2.7-0.9c2.4-3.5,6.5-3.9,9-0.4c2.3,3.3,5.4,4.7,9.5,4.7C980.5,550.4,980.2,549.9,979.8,549.6z"/>
	<path class="st1" d="M861,185.5c2.7-0.9,3.8-4.3,2-6.6c-1.5-1.9-3.1-3.7-4.7-5.5c-2-2.2-3.6-1.8-4.5,1.1c-0.9,3.1-1.8,6.3-2.6,9.4
		c-0.4,1.6-0.8,3.1-1.3,5.3C854,187.9,857.5,186.7,861,185.5z"/>
	<path class="st1" d="M447.3,610.2c-5.5-3.6-5.7-5.6-7,3c-0.8,5.2-0.7,5.2,4.2,7c3.7,1.4,6.8-0.5,6.8-4
		C451.9,612.8,449.2,611.6,447.3,610.2z"/>
	<path class="st1" d="M447.8,588.8c-0.8-1-1.5-2.1-2.4-3.1c-0.6-0.7-1.5-1.6-2.3-1.6c-2.7-0.1-3.1-2.9-3.1-5.4
		c0.4-0.4,0.1-1.3,0.2-3.3c-0.1,0.1,0.1-0.3,0.2-0.8c0.9-3.8-0.9-6.6-4.7-7.1c-2.1-0.2-2.2-1.8-2.4-3.4c-0.1-1.1-0.4-2.8-1.1-3.2
		c-2.4-1.4-5-2.4-7.7-3.3c-2.5-0.9-4.2-2.6-4.1-4.9c0.1-2.1-0.8-2.7-2.7-1.7c-2,1-3.9,2.1-5.5,3c-2.6,0.9-5-1.4-5.2-3.2
		c-4.5,0.7-8.5-2.6-8.5-6.9c0-0.4,0-0.8,0.2-1c2.1-2.9,3.1-6.8,7.4-7.8c0.8-0.2,1.1-2.2,1.7-3.4c-1-0.2-1.9-0.8-2.8-0.7
		c-2.3,0.1-4.4,0.2-5.6-2.5c-0.5-1.3-1.9-2.1-3.2-3.3c-2.2-0.5-4.3-1.6-6.2-1.6c-0.6-0.2-1.1-0.4-1.6-0.7c-2.2-1.5-3.6-1.3-4.9,0.9
		c-0.4,0.6-0.9,1.2-1.3,1.8c-1,1.6-0.9,3,0.7,4.3c0.4,0.4,0.6,1.4,0.6,2.1c0,0.7-0.5,1.4-0.9,2.5c-0.5,0.3-1.2,0.4-2.1,0.4
		c-0.6,2.6,0,4.5,1.6,6.2c1.5,1.9,3.3,3.7,4.5,5.8c2.1,3.7,4,7.5,5.9,11.3c0.2,0.5,0.3,1.1,0.6,1.6c0.9,1.4,1.5,3.1,2.8,4.1
		c2.3,1.8,4.9,3.1,7.4,4.6c0.8,0.5,1.5,1,2.3,1.5c0.9,0.6,2.5,1.8,2.8,1.6c0.7-0.6,2.5-3,3.3-4.6c0.1,0.2,0.2,0.4,0.3,0.6
		c0.1,0.3-0.3,0.8-0.3,1.2c0,1.2-0.1,2.5,0.1,3.7c0.3,1.5,1,2.9,1.4,4.4c0.6,2.5,1.1,5,1.7,8c1.2-0.8,1.7-1.3,2.3-1.5
		c1.2-0.4,2.7-1.1,3.8-0.8c2.5,0.7,5.5,0.4,8-0.7c-0.3,1.6,0.3,2.8,1.7,3.8c2.7,1.7,5.5,3.4,8.3,4.9s2.9,1.7,1.6,4.5
		c-0.2,0.6-0.2,1.9,0.2,2.2c1.7,1.3,5.3,0.7,6.6-0.8C448.9,594.7,449.1,590.3,447.8,588.8z"/>
	<path class="st1" d="M612.1,432.8c1.2,2.3,2.7,4.4,3.9,6.2c0.5-0.5,1.3-1.7,2.4-2.6c2.1-1.9,2.1-2.8,0-4.8
		c-0.7-0.6-1.4-2.3-1.1-2.6c2.1-2.4,1.4-4.6-0.2-6.8c-0.5-0.7-1.5-1.6-2.2-1.6c-1.5,0.1-1.9,1.3-2,2.9c-0.2,2-0.9,3.9-1.2,5.9
		C611.6,430.5,611.6,431.9,612.1,432.8z"/>
	<path class="st1" d="M654,398.1c-2.8,0.2-4.5,2.6-3.4,5.3c0.3,0.8,1.4,2.1,1.7,2c2.3-0.9,4.7,0.2,7.3-1.5c2.5-1.6,3.1-3.5,4.3-6.2
		c-1.3-0.2-2.4-0.5-3.3-0.5C658.4,397.4,656.2,398,654,398.1z"/>
	<path class="st1" d="M713.4,152.9c-0.1,2.7-2.5,5.8,1.6,7.9c0.6-0.9,1.3-1.7,2-2.6c0.9-1.1,1.8-2.3,2.8-3.2c0.9-0.8,2.1-1.1,3-1.8
		c1.1-0.9,1.5-2,0.2-3.1c-0.7-0.6-1.4-1.1-2.5-2c-1.3,2.2-2.5,4.1-3.9,6.4c-0.4-1.7-0.7-2.9-1.1-4.7c-2,0.7-3.8,1.3-5.6,1.9
		c0.1,0.2,0.1,0.5,0.2,0.7C711.1,152.5,712.2,152.7,713.4,152.9z"/>
	<path class="st1" d="M964.9,376.8c-1.3-6-2.4-11.9-3.7-18.4c-0.8,1.2-1.7,1.9-1.8,2.7c-0.1,2-0.3,4.1,0.3,5.9
		c1.1,3.1,0.9,6.1,0.7,9.3c-0.3,3.5-0.1,7.1-0.1,10.4c0.9,0,1.8,0,3-0.1c-3.4-3.3-2.6-6.7-0.7-10.3
		C963.5,376.5,964.3,376.7,964.9,376.8z"/>
	<path class="st1" d="M646.8,193.7c1,1,2.4,1.6,3.8,0.4c1.1-1,2.1-2.1,2.9-2.8c-1.5-2.4-2.8-4.5-4.1-6.7c-3.4,0.8-3.5,1-2.8,4.5
		c0.1,0.6-0.2,1.3-0.2,1.9C646.4,191.9,646.3,193.2,646.8,193.7z"/>
	<path class="st1" d="M889,545.8c-0.3-0.2-0.6-0.5-0.9-0.6c-1.9-0.8-3.8-1.7-5.8-2.4c-1.2-0.4-2.6-0.9-3.8-0.6
		c-3,0.6-5.7,0.5-8.3-1.3c-0.8-0.6-3.2-2.5-5.3-3.2c0.2-0.8,0.3-2,0.5-3.8c0-1-0.8-2.2-1.6-2.9c-2-1.8-4.8-2.9-4.5-6.3
		c0.1-0.4-0.4-0.8-0.7-1.2c-1.7-1.9-3.2-4.2-6.3-4.3c-0.8,0-1.5-0.9-2.2-1.5c-1.5-1.4-3.1-2.8-4.4-4.4c-1.6-2-3.8-2.5-6.1-2.5
		c-0.3,0.3-0.5,0.7-0.9,0.9c1.1,0.8,2.3,1.4,3.2,2.3c2,1.9,4,3.8,5.6,6c2.7,3.9,5,8,7.7,11.8c1.3,1.8,3,3.3,4.8,4.6
		c1.4,1,2.4,1.7,3.1,2.1c2,1.6,5.7,4.8,7,5c4.8,0.9,9.7,1.4,14.5,2.1c1.5,0.2,2.9,0.5,4.4,0.8C889,546.2,889.1,546,889,545.8z"/>
	<path class="st1" d="M370.3,483.1c-2.5,0-5.1,0.2-7.6,0.7c-0.4,0.1-2.1,0.4-3.9,0.8c0.1-0.3,0.3-0.6,0.4-0.9
		c-0.1-1.4-0.3-2.9-0.4-4.4c-0.1-1.6-1.2-1.9-2.4-1.5c-0.5,0.2-1,1.5-0.8,2c0.7,1.8,0.7,2.7-1.6,3c-0.8,0.1-1.8,1.3-1.9,2.1
		c-0.1,0.6,0.9,1.7,1.7,2c0.9,0.3,1.6,0.5,2.2,0.4c1.8,0.5,4.1,1,5.8,1.2c1.1,1.4,2.5,2.9,2.5,3.2c0.9,0.6,1.8,1.2,2.7,1.8
		c0.4,0.3,0.7,0.7,1.1,1c2.2,1.5,4.6,1.2,4.9-0.6c0.5-2.5,0.4-6.1,0.7-9.5C372.2,483.7,371.3,483,370.3,483.1z"/>
	<path class="st1" d="M908.1,527.6c-2.1,0.4-4.2,1.1-5.5-1.1c-3.9,3.9-0.6,7.5-0.2,11.2c1.6-6.5,1.6-6.5,3-6.2
		c-0.3,2.3,1.2,3.3,2.7,4.3c0.3-0.1,0.5-0.3,0.8-0.4c-0.8-2-1.7-4.1-2.6-6.2C906.9,528.7,907.5,528.1,908.1,527.6z"/>
	<path class="st1" d="M617.2,347.2c1.6-1.9,1.1-3.5,0.1-5.2c-4.6,1.7-6.1,4.9-4.4,9.1c0.3,0.7,1.1,1.1,1.7,1.6
		c0.3-0.6,0.6-1.1,0.9-1.7C616.1,349.7,616.4,348.2,617.2,347.2z"/>
	<path class="st1" d="M975.5,224.2c2.8,1.5,3.9,1,5.7-2.4c-2.8-1.1-5.4-2.1-8-3c-0.5-0.2-1.2,0.1-1.8,0.1c0.1,0.7-0.1,1.8,0.3,2.2
		C972.8,222.3,974.1,223.4,975.5,224.2z"/>
	<path class="st1" d="M453.2,510.8c-0.2-0.3-0.3-0.6-0.6-0.8c-0.1-0.3-3.9-0.7-4.1-0.7c-1.9,0.3-5.9,0.6-7.2,1.7
		c-0.1,0.1-0.2,0.2-0.3,0.2c0.4-0.9,0.7-2.1,0.3-2.6c-1.4-1.9-3.2-3.5-4.9-5.2c-0.1-0.1-0.6,0-0.7,0.1c-0.4-0.3-0.9-0.6-1.3-0.8
		c0,0,0-0.1,0.1-0.1c-2.3-1.6-4.5-3-6.6-4.6c-1.5-1.2-2.9-1.1-4.6-0.4c-0.9,0.4-2.1,0.3-3.2,0.2c-1.4-0.1-2.9-0.5-4.3-0.8
		c-1.1-0.3-2.2-0.5-3.2-1c-1.4-0.7-2.4-1.8-4.3-1.1c-2,0.8-1.8,2.2-1.7,3.8c0,0.7-0.9,1.4-1.4,2.1c-0.6-0.6-1.3-1.1-1.7-1.8
		c-0.4-0.7-0.4-1.5-0.5-2.3c-0.3,0-0.6,0-0.9,0c-0.1,1.2-0.8,2.9-0.3,3.7c1.6,2.3,2.1,6.3,6.4,5.3c0.3-0.1,0.9,0.1,1.1,0.4
		c1.1,1.7,2.8,1.4,4.4,1.5c0.9,0.1,2.2,0.9,2.3,1.5c0.2,2.3-0.3,4.7,0.1,7c0.4,1.8,1.4,3.7,2.7,5c0.4,0.4,2.6-0.6,3.8-1.4
		c0.6-0.4,0.9-1.6,0.9-2.5c-0.1-1.2-0.5-2.4-0.7-3.2c2.8-0.6,5.6-1.1,8.1-1.8c0.8-0.2,3.1-0.7,4.2-1.3c0.2,0.2,0.5,0.5,0.5,0.8
		c0.4,1.6,0.6,3.3,0.9,4.9c-0.3,0.2-0.6,0.3-0.8,0.3c0.9,1,1.5,2.7,2.6,3c1.1,0.4,2.6-0.5,3.9-0.9c0-0.1-0.1-0.2-0.1-0.3
		c1.8-0.4,4.7-1.1,5.6-1.6c0.7-0.3,2.5,0.1,3.1-0.3c-0.1,0.2-0.3,0.3-0.5,0.5c0.7,0.3,1.8,1,2,0.8c1.2-1.4,2.6-2.8,3.2-4.5
		C455.8,513.1,454.2,511.6,453.2,510.8z M432.8,507.8c-0.1-0.1-0.3-0.2-0.4-0.3C432.6,507.6,432.7,507.7,432.8,507.8L432.8,507.8z"
		/>
	<path class="st1" d="M390.9,470.6c0.1,0.3,0.9,0.4,1.3,0.4c1.2-0.1,2.4-0.3,3.7-0.5c-8.9-6.1-14.2-8.1-16.9-6.2
		c1.3,0.4,2.3,0.9,3.4,1.1C385.8,466.2,389.1,467,390.9,470.6z"/>
	<path class="st1" d="M959,234.5c-2.1-0.1-3.3,1.4-3.7,3.9c2.6,0.3,5.1,0.5,8.2,0.8C962.3,236.5,961.1,234.7,959,234.5z"/>
	<path class="st1" d="M851.5,505.2c-1.4-2-2.5-4.3-3.7-6.4c-1.5,4,1.5,7.8,7.3,9.5C853.6,507,852.3,506.3,851.5,505.2z"/>
	<path class="st1" d="M407,476.6c1.6-0.5,3.2-1.1,5.6-1.9c-2.4-0.9-4.1-1.7-5.7-2.3c-0.3-0.1-1.2,0.4-1.3,0.7
		c-0.3,1-0.3,2.1-0.2,3.1C405.4,476.4,406.5,476.7,407,476.6z"/>
	<path class="st1" d="M414,694.4c2.3,0,4.2,2.8,6.8,1.3c-2.6-2-5.1-3.7-7.8-5.7C413.4,691.5,413.7,694.4,414,694.4z"/>
	<path class="st1" d="M931.9,527.4c2,1.7,4.2,2.6,6.8,2.2C938.4,525.8,935.7,524.9,931.9,527.4z"/>
	<path class="st1" d="M642.9,410.8c1.6-2,1.2-6.2-0.6-7.6C641,405.5,641.2,408.8,642.9,410.8z"/>
	<path class="st1" d="M1060.5,253.4c-1.6-0.4-3.1-0.7-4.6-1.1c0,1.3,0,2.5,0,3.8c1.6-0.4,3.1-0.7,4.6-1.1
		C1060.5,254.4,1060.5,253.9,1060.5,253.4z"/>
	<path class="st1" d="M647.7,352.7c-2-0.8-3.5,0-4.8,2.1c1.5,0.1,3.1,0.4,4.6,0.4c0.5-0.1,1.1-0.7,1.6-1.1
		C648.6,353.6,648.3,352.9,647.7,352.7z"/>
	<path class="st1" d="M612.4,410.2c0.8,1.2,1.4,2.2,2,3.1c0.4-1.2,1-2.3,1-3.5c-0.1-0.8-1-1.5-1.6-2.3
		C613.4,408.3,613,409,612.4,410.2z"/>
	<path class="st1" d="M874.7,475.3c1.9,0,2.9-1.2,3.4-3.4c-2,0.1-3.8-0.2-4.5,1.8C873.5,474.1,874.3,475.3,874.7,475.3z"/>
	<path class="st1" d="M630,418.1c-2.1,0-3.8,0-5.5-0.1c0,0.3-0.1,0.5-0.1,0.7c1.5,0.7,3,1.5,4.8,2.3
		C629.5,419.9,629.8,419,630,418.1z"/>
	<path class="st1" d="M438.6,680.5c-1,0-2.1,0-3,0.3c-1,0.3-1.8,0.9-2.7,1.4c0.1,0.1,0.3,0.2,0.6,0.5c1.1,0,2.3,0.2,3.4,0.1
		c0.9-0.1,1.8-0.3,2.6-0.6c0.2-0.1,0.4-0.9,0.3-1.2C439.6,680.7,439,680.5,438.6,680.5z"/>
	<path class="st1" d="M904.7,464.3c0.8-2.2,1.4-4.1,2.3-6.7C903.4,459.5,902.7,461.8,904.7,464.3z"/>
	<path class="st1" d="M640.6,396.6c-0.1-0.3-0.2-0.7-0.4-1.1c-0.1-0.8-0.3-1.8-0.3-3c0.1-0.2,0.1-0.4,0.2-0.6
		c-0.6-0.4-1.3-0.8-1.9-1.1c-1.1-0.6-2.2-0.9-3.1-1.6s-2-1.4-2.9-1.5c-0.1-0.2-0.2-0.4-0.3-0.6c-1.1,0.4-2.2,0.7-3.2,1.1
		c-0.5,0.2-1.1,0.6-1.4,1.1c-0.1,0.1,0.3,1,0.6,1.1c0.3,0,0.6,0.1,0.9,0.1c2.1,4.9,3.4,7.6,5.7,8.3c1.6,0.2,2.4,0.4,2.9,0.5
		c0.5,0.3,1,0.4,1.2,0.3C639.5,398.9,640.8,397.5,640.6,396.6z"/>
	<path class="st1" d="M621.4,352.1c0.4-0.1,0.8-0.2,1.1-0.3c0-1.1,0-2.1,0-3.1c-0.8,0.2-1.6,0.5-2.4,0.7
		C620.5,350.3,621,351.2,621.4,352.1z"/>
	<path class="st1" d="M718.4,497.9c0,0.2-0.1,0.4-0.1,0.7c-0.3-0.4-0.6-0.8-1-1.1c0.1-0.5,0.2-1,0.4-1.5c-0.3-0.2-0.5-0.4-0.8-0.6
		c-3.2,0.6-6.4,1.3-9.7,1.8c-0.8,0.1-1.7-0.2-2.5-0.5c-0.6-0.2-1.2-0.5-1.8-0.8c-0.4-0.3-0.9-0.5-1.5-0.6c-0.1-0.1-0.3-0.1-0.4-0.2
		c-0.1-1.1-0.5-2.2-1.2-3c-0.1-1.2-0.8-2.2-1.6-3.2c-0.4-0.4-0.8-0.7-1.2-1c-0.3-0.9-0.8-1.6-1.6-2.2c-1.7-2.4-3.3-4.7-5-7.1
		c-2.6,0.7-4.8,3.6-4.2,6.1c0,0.1,0.2,0.2,0.3,0.4c-0.6,1-0.8,2.2-0.6,3.4l-0.1,0.1c-1.4,1.6-2.4,3.5-3.4,5.4
		c-0.6,1.1-1.2,2.3-1.7,3.4c-0.9,0.5-1.8,1-2.8,1.6c-0.6-1.9-1.3-3.7-2.1-5.7c-0.3,0.4-0.5,0.5-0.6,0.8c-0.3,3.8-2.1,5.2-6,4.7
		c-0.5,0-1.2,0.4-1.7,0.7c-1.9,1.1-6.7,0.8-8.5-0.4c-0.7-0.5-2.5-0.8-2.6-0.6c-0.4,0.9-1.1,2.4-1.3,3.3c-0.8,0.1-1.6,0.4-2.1,0.8
		c-1.1-0.9-1.8-1.7-1.7-3.3c0-0.9-1.1-1.9-1.7-2.8c-0.1,0.1-0.2,0.1-0.3,0.2c0.2-1,0.1-2.1-0.2-3c0-0.4-0.2-0.9-0.5-1.5
		c-1.2-2,0-8.4,2.1-9.5c1.6-0.8,1.8-2,1.7-3.4c-0.1-1.6-0.1-3.3-0.5-4.9c-0.3-1-1-2.3-1.9-2.8c-5.1-2.8-10.4-5.5-15.7-8.1
		c-1.1-0.5-2.5-0.2-3.7-0.3c0,0.1,0,0.1,0,0.2c-1.1,0-2.3,0.4-3.2,1c-0.6-0.5-1.4-0.9-2.2-1.3c-1.8-0.8-3.4-0.9-5.2,0.3
		c-4.3,3-8.5,6.2-13.1,8.6c-1.5,0.8-2.6,1.6-3.4,2.6c-0.4-0.1-0.7-0.1-1.1-0.1c-0.5,0-1,0.1-1.5,0.2l0,0c-1.9-1.8-3.9-3.4-6-4.9
		c-3-2.3-6.1-4.4-9.2-6.5c-2.4-1.7-4.8-3.5-7.4-5c-0.4-0.3-0.9-0.4-1.4-0.4c-0.5-0.9-1.2-1.6-2.2-2.2c0-0.1,0-0.2,0.1-0.3
		c-1.4-0.9-3.4-2.3-5.9-4c0,0.2,0,0.3,0,0.5c-0.5-0.9-1.2-1.6-2.2-2.1c0.5-0.4,0.9-0.9,0.9-1.2c-0.2-2.9,1.4-4.1,3.7-4.9
		c1.3-0.5,2.8-0.7,4-1.4c1.8-1.1,4-2.1,5.1-3.7c1.2-1.6,2.5-2.5,4.2-3.2c0.7-0.3,1.7-1,1.8-1.6c0.7-4.3-2-7.4-6.2-7.5
		c-0.7,0-1.4-0.1-1.9-0.5c-1.7-1.3-2.7-0.5-3.4,1.2c-0.8,2.1-2.1,3.7-4.2,4.7c-3.4,1.6-4.8,4.6-4.4,8c0.4,3.2-1.1,5-3.3,6.6
		c-1.8,1.3-4,2.3-5.5,3.8c-4,4.1-6.4,9.2-9.3,14c-0.3,0.6-0.4,1.2-0.7,2l0,0c-0.4,1.2-0.3,2.5,0.4,3.9c0.3,0.5,0.6,1,1,1.4
		c0.8,3,0,6.1-0.2,9c0.1,0,0.1,0,0.2,0.1c-0.3,0.7-0.4,1.5-0.3,2.3c-0.9,0.9-1.7,2.3-1.7,3.4c0,0.6,0.2,1,0.5,1.2
		c-0.5,1.9,0.1,4.1,1.7,5.4c1.2,1.1,2.1,1.6,3,1.4c0.1,1.2,0.6,2.3,1.4,3.1c0.4,0.6,0.9,1.1,1.5,1.3c0,1.3,0.4,2.5,1.3,3.4l-0.1,0.1
		c1.8,1.4,3,2.4,4.2,3.3l0,0c0.9,1.3,2.4,2.3,4,3.1c1.3,1.1,2.8,2.1,4.2,2.9c0.3,0.2,1-0.1,1.6-0.4c0.7,0.2,1.4,0.2,2.1,0.1
		c0.3,0.2,0.7,0.4,0.9,0.4c2.5-0.2,5-0.6,7.5-1.1c0.3-0.1,0.7-0.4,1-0.7c0.6,0.1,1.2,0.2,1.8,0.2c0.4,0.8,1,1.3,1.7,1.1
		c2.5-0.6,4.7-1.9,7-3l0,0c0.8,0,1.5-0.2,2.2-0.5h0.1c0,0,0,0,0-0.1c0.6-0.3,1-0.7,1.4-1.2c0,0.2,0.1,0.4,0.1,0.6
		c0.2,0,0.4,0,0.7-0.1c1-3.6,2.3-7.2,3.1-10.8c0.1-0.4-0.1-0.9-0.3-1.4c0.4-1,0.5-2.2,0.3-3.4c3-3.9,3.4-3.9,8.4-2.9
		c2.3,0.5,4.8,1.3,7,1c3.3-0.5,6.4-0.8,9.5,0.7c0.8,0.4,1.7,0.3,3,0.6c0-0.1-0.1-0.1-0.1-0.2c0.4,0.1,0.8,0.2,1.3,0.2
		c0.9,2.4,1.8,4.8,2.8,7.3c-1.6,0.3-2.5,0.5-4.1,0.9c1.1,1.1,1.8,2.7,2.7,3.7c-0.3,1.2-0.2,2.5,0.3,3.7c-1.6,1.5-2,4-0.8,6
		c0.8,1.2,1.8,2.3,2.4,3.1c0.1,0,0.1,0,0.2,0c0.1,0.8,0.5,1.7,1.1,2.4c0,0,0,0.1-0.1,0.1c-0.6,1.8-1.7,2.1-3.5,1.6
		c-1.3-0.4-2.7-0.4-4.1-0.6v0.1c-0.5-0.1-0.9-0.2-1.5-0.2c-0.6,0-1.2,0.1-1.7,0.3c-0.4-0.1-0.8-0.1-1.2-0.2c-0.6-0.2-1.2-0.4-2-0.4
		c-1.3,0-2.4,0.4-3.2,1.1h-0.1c0,0,0,0,0,0.1c-1.6,1.5-2,4.1-1.1,6.1c-0.1,3.1,2,6.4,5.4,7.6c0-0.1,0-0.2,0-0.2
		c0.2,0.2,0.4,0.4,0.7,0.6c-0.1,0.3-0.1,0.7-0.1,1.1c0.1,1.2,0.7,1.3,1.3,1.1c0.2,0.5,0.5,0.9,0.9,1.2c0,0.6,0.2,1.2,0.4,1.7
		c0.1,0.4,0.2,0.9,0.3,1.3c0,0.2,0,0.3,0,0.5c0,0,0,0-0.1,0c0,0.1,0.1,0.3,0.1,0.4c0,0.4,0.1,0.7,0.2,1c0.8,3.7,1.4,7.2,2.2,10.6
		c0.5,2.3-0.1,4.1-1.1,6.2c-1.6,3.2-1.1,7-2.6,11l0,0c-0.7,0.5-0.9,1.4-0.3,2.4c1.7,3.4,3.5,6.6,5.2,10c0.8,1.7,1.1,3.5,1.5,5.3
		c0.9,3.9,1.7,7.8,2.8,11.7c0.3,1.1,1.4,2,2.4,2.6l0,0c0.7,1.5,1.2,2.8,1.9,4c1.5,2.7,2.8,5.2,2.4,8.6c-0.5,4.2,2.5,5.8,6.5,4.4
		c2.3-0.8,4.9-2,7.2-1.7c5.8,0.7,10.1-1.6,13.8-5.5c2.8-3.1,5.5-6.3,7.9-9.6c0.6-0.9,0.9-2,1-2.9c0.7-0.9,1.1-2.1,0.8-3.5
		c0.1,0,0.1,0,0.2,0c-1.5-3.2,0.7-4,2.6-4.7c5.2-1.8,4.7-5.2,3.3-9.7c-0.2-0.8-0.9-1.5-0.9-2.3c0-1,0-2.5,0.6-3
		c3.3-2.7,6.7-5.2,10.2-7.5c2.2-1.4,4.2-3.1,4.3-5.7c0.2-2.6-0.1-5.1-0.3-7.6c0.1-0.3,0.1-0.7,0.1-1c-0.1-1.5-0.8-3-1.9-3.9
		c0-0.2,0-0.4,0-0.5c-0.3-1.4-1.4-2.8-1.2-4c0.7-3.1-2.6-5.8-0.8-8.9c0.5-0.5,0.9-1.1,1.2-1.7c0.6-0.2,1.1-0.9,1.6-2
		c0.6-1.4,1.7-2.7,2.5-4.1c0.2-0.4,0.3-0.9,0.3-1.4c0.4-0.2,0.7-0.5,1-0.9v0.1c3.4-2.9,6.6-5.4,9.5-8c2-1.7,3.9-3.4,5.7-5.2
		c4.4-4.6,6.7-10.5,8.9-16.3c0.4-1,0.4-2.3,0.6-3.5C719.1,494.4,718.7,494.9,718.4,497.9z M684.1,565.5c-0.1,1.2-1.3,3-2.2,3.1
		c-1.3,0.2-2.4-1.1-2.3-2.9c0-0.9-0.5-2-1.2-2.7c-1.6-1.6-3.2-1-4.7-0.3c0.5-0.6,0.9-1.2,1.2-1.9c0.9-0.9,1.4-2.5,1.7-4.4
		c0.1-0.7-0.1-1.5-0.1-1.7c0-2.2-0.1-3.6-0.3-4.5c0.6-0.6,1-1.3,1.2-2c0.2,0.1,0.5,0.2,0.7,0.4c1.1,0.7,1.9,2,2.9,3
		c0.2,0.2,0.4,0.5,0.6,0.7c-0.4,0.7-0.6,1.5-0.6,2.3c0,0.7,0.2,1.4,0.5,2c-0.1,0.4-0.1,1,0.2,1.9c0.2,1,0.9,1.9,1.3,2.9
		C683.5,562.6,684.3,564.1,684.1,565.5z"/>
	<path class="st1" d="M550.4,131c-0.6-0.1-1.4,0.1-1.9,0.4c-5.5,3.2-11.5,5.5-15.6,10.6c-0.6,0.7-1.4,1.2-2.1,1.8
		c-0.2-0.1-0.4-0.3-0.6-0.4c0.6-2.5,1.2-5,2-7.4c1-2.8,0.2-5.2-1.3-7.8c-0.9,0.9-1.7,1.6-2.4,2.3c-2.3,2.5-2.4,2.6-4.9,0.2
		c-3.2-3.1-6.6-5-11.1-2.9c-0.5,0.2-1,0.2-1.5,0.3c-2.1,0.6-2.7-0.8-3.1-2.3c-0.4-1.8,1.1-1.8,2.2-1.9c4.9-0.7,9.8-1.4,14.8-1.8
		c6.6-0.5,7.2-0.6,10.2-6.4c0.3-0.6,0.2-2-0.3-2.5c-2.7-3.1-5.9-5.9-8.4-9.2c-3.9-5.2-8.8-7.6-15.2-7.8c-5.6-0.2-11.1-2.3-16.8-0.4
		c-2.7,0.9-4.2,2-5.2,4.6c-1.8,4.8-1.2,5.2-6.6,4.2c-0.7-0.1-1.4,0.1-2-0.1c-1.9-0.6-2.9,0.3-3.9,1.8c-1.6,2.5-3.3,4.8-5,7.2
		c-2.9,4-3.2,9.8-0.6,14c1.4,2.3,2.8,4.6,4.2,6.9c-0.1,0.1-0.3,0.2-0.4,0.3c-5-4.4-10.1-8.8-15.3-13.3c-2.2,3.1-4.3,6.3-6.8,9.8
		c-0.9-1.7-1.6-2.8-2-3.9c-0.8-1.9-2.1-2.5-4-2.3c-5.7,0.5-11.1,1.8-15.7,5.6c-1.9,1.6-2.9,3-2.2,5.5c0.8,2.9,0.9,5.5-2.8,6.5
		c-0.5,0.1-0.8,0.8-1.2,1.2c-2.4,3-4.9,6-7.3,9.1c-3.5,4.6-3.2,6.7,1.2,10.1c0.6,0.4,1.1,0.7,1.6,1.2c0.4,0.4,1,1,0.9,1.4
		c-0.4,2.4-0.2,5-2.9,6.7c-5.2,3.2-10.3,6.8-15.4,10.2c-2.5,1.6-2.6,4.9-0.6,7.1c3.3,3.7,7.9,4.4,12.2,5.7c0.9,0.2,1.7,0.6,2.6,1
		c-3.4,1.2-6.3,2.3-9.3,3.5c-1.5,0.6-1.9,1.5-0.9,2.9c1.4,2,2.8,4.1,4.2,6.2c1,1.5,2.3,1.8,4.1,1.6c3.8-0.5,7.6-0.6,11.4-0.8
		c5.5-0.4,8.4,3.7,11.8,6.9c0.3,0.3,0.5,1,0.4,1.4c-0.3,2.6,1,4.5,2.5,6.3c0.5,0.6,0.8,1.4,1.1,2.2c1.3,4,2.3,8.1,3.9,11.9
		c1.9,4.3,2.9,8.4,0.3,12.9c-1,1.6,0.3,2.7,2.3,2.4c0.5-0.1,1.3-0.4,1.6-0.1c2.3,2.4,4.5,4.9,6.7,7.3c-0.2,0.2-0.3,0.4-0.5,0.6
		c-0.5-0.1-1,0-1.4-0.2c-5.9-2.6-6.6-0.8-6.5,5.1c0,0.2,0,0.5,0,0.7c0.4,2.7,2.3,3.6,4.6,2.1c1.5-1,3.1-2,4.7-3.1
		c1.3,4-0.2,8.9-3,10.9c-1.9,1.4-4.3,7.1-3.9,9c0.4,1.8,0.5,3.7,0.8,5.5c0.2,1.2,0.4,2.5,1,3.5c1.5,2.4,2.4,4.9,2.5,7.9
		c0.1,2.1,1.2,4.3,2.1,6.3c1.6,3.5,3.3,6.9,5.2,10.2c0.9,1.4,2.4,3.5,3.7,3.5c3.1,0.1,5.1,1.3,7,3.5c1.2,1.4,3.8,1.1,4.2-0.4
		c0.9-3.4,2.6-6.6,1.7-10.4c-0.2-1.1,0.3-2.7,1-3.5c2.6-2.9,4.4-6,4.1-10.1c0-0.8,0.4-1.6,0.7-2.4c1.5-3.9,5.4-4.4,8.6-5.7
		c4-1.5,7.1-3.8,9-7.7c0.8-1.8,1.9-3.6,3.1-5.1c0.8-0.8,2-1.7,3.1-1.8c9.6-0.9,15.5-7.5,22-13.8c-3.2-0.3-6-0.7-8.8-1
		c-0.2-0.2-0.4-0.4-0.6-0.6c3.4-2.4,2.6-5.8,2.8-9.1c1.6,1.8,2.9,3.6,4.1,5.4c0.9,1.4,2,1.5,3.4,0.9c1.4-0.5,1.3-1.5,1.2-2.8
		c-0.3-4.3-2.6-7.4-5.9-9.9c-0.6-0.5-0.5-1.8-0.7-2.7c0.8,0,1.7-0.3,2.5-0.1c0.9,0.2,1.6,0.8,2.4,1.3c0.2-0.2,0.4-0.3,0.6-0.5
		c-0.4-1.3-0.5-2.6-1.1-3.7c-2.1-4.1-2.1-4.1,2.4-4.9c3.2-0.6,4.1-2.8,2.3-5.4c-0.5-0.7-0.9-1.6-1.5-2.6c1-0.2,1.5-0.3,2.1-0.4
		c3.1-0.3,3.1-0.4,2.1-3.3c-0.2-0.5-0.3-0.9-0.5-1.4c-0.6-1.9-2.3-3.8,0.6-5.3c0.4-0.1,0.4-1,0.4-1.6c0.3-3.9-0.2-7.5-3.4-10.2
		c-1.4-1.1-1.9-2.7,0-3.9c1.8-1.3,3.8-2.4,6-3.8c-0.1-0.5-0.4-1.4-0.8-2.3c-1.4-2.8-1.6-5.8-1.8-8.9c-0.5-8.7,1.7-16.8,4.1-25
		c0.4-1.1,0.5-2.2,0.7-3.3c-1.9-0.4-3.4-0.7-5.3-1c0.5-0.6,0.6-0.8,0.8-0.9c0.4-0.2,0.9-0.4,1.4-0.5c3.4-0.8,6.7-1.6,7.7-5.7
		c0.1-0.5,0.7-0.9,1.1-1.3c2.5-2.7,5.1-5.4,7.5-8.1c0.7-0.7,1.3-1.6,1.4-2.5C558.7,135.7,555.1,131.5,550.4,131z"/>
	<path class="st1" d="M387.2,500.8L387.2,500.8L387.2,500.8c-0.6-0.4-1.3-0.5-2.1-0.5c-2.5,0.2-5,0.4-7.5,0.8c-0.5,0-1,0.4-1.4,0.7
		c0.4,0.4,0.8,1,1.3,1.2c1,0.3,1.9,0.4,2.9,0.6c0.4,0.1,0.9,0.1,1.3,0c1.1-0.3,4.2-0.6,5.4-0.9c0.2-0.1,0.4,0.1,0.5,0.3
		c0.2,0.5,0.4,0.9,0.7,1.4c0.3,0,0.6-0.1,0.9-0.1c0-0.7,0.4-1.6,0.1-2C388.9,501.5,387.9,501.2,387.2,500.8z"/>
	<path class="st1" d="M1079.7,290.9c-1.8-4.2-5.2-5.8-9.9-5.2v3.8c-0.3,0.1-0.5,0.2-0.8,0.4c-0.6-1.1-1.7-2.3-1.5-3.3
		c0.3-2.1-0.5-3.5-1.9-4.8s-2.7-2.7-4.1-4c-1.3-1.2-2.7-2.3-4.2-3.6c-0.2-0.4-0.4-0.8-0.7-1.1c-3.9-3-7.8-5.9-13.2-5
		c-1,0.2-2.1-0.1-3.2-0.3c-2-0.4-4-1-6.8-1.6c0.1,1.8-0.1,3.3,0.4,4.5c1.4,3.7,1.4,3.8-2.7,5.6c-1.1-1.5-2.2-3-3.3-4.6
		c-0.8-1.3-1.8-1.6-3.3-1.5c-1.8,0.2-3.7-0.3-5.6-0.3c-2.7,0-5.4-0.1-8,0.4c-1.5,0.3-2.6,0.3-3.9-0.5c-2.1-1.2-1.7-3-1.6-4.8
		c0.1-3.4-0.9-5.1-4.2-5.5c-3.3-0.3-6.7,0.3-10.1,0.4c-1.2,0-2.8,0.3-3.5-0.3c-3-2.5-6.4-4.7-8-8.6c-0.4-0.9-1.6-1.9-2.7-2.2
		c-6.2-1.6-12.4-3.1-18.7-4.5c-3.3-0.8-5.6,1.6-4.8,4.9c0.4,1.9,0.9,3.8,1.3,5.3c-2.1,0.2-4-0.2-5.3,0.6s-2.1,0.9-3.3,0.3
		c-1.2-0.6-2.9-1.6-3.6-1.1c-2.9,1.9-5.2,1.2-7.4-0.9c-0.1-0.1-0.3,0.1-0.6,0.1c-0.8,2.3-1.6,4.7-2.5,7.4c-1.7-1.3-3.3-2.1-4.2-3.4
		c-1.8-3-4.7-5.5-2.8-9.8c1.2-2.8-1.9-9.3-4.7-10.1s-5.8-0.8-8.8-1.2c-0.1,2.1-0.2,4-0.3,6.2c-3.6-0.5-7-0.8-10.3-1.4
		c-0.6-0.1-1.1-1.4-1.5-2.1c-0.5-0.7-0.7-2-1.3-2.2c-2.1-0.6-4.5-1.3-6.6-1.1s-4,1.6-6.2,2.6c-0.3-1-0.7-2.6-1.1-4.1
		c-4.1,1.5-6.1-2.6-9.7-3c0.5-1,0.7-1.6,1.2-2.1c2.3-2.1,4.7-4.2,7-6.2c1.3-1.2,3-2.5,3.5-4.1c2.1-6-3.5-13.2-10-13.5
		c-2.7-0.1-5,0.3-7.1,2.7c0.7-5.3-2.6-6.7-7.4-7.6c1.8-1.3,2.8-2.1,3.9-2.9c-1.1-1-1.8-1.9-2.7-2.4c-0.5-0.3-1.6-0.4-2.1,0
		c-4.2,2.7-7.1,6.2-7.5,11.3c-0.1,1.7-1,2.4-2.6,2.1c-2.2-0.4-3.8,0.6-5.2,2.2c-1.1,1.2-2.3,2.3-3.4,3.4c-0.5-0.3-0.7-0.4-0.9-0.6
		c-2.7-2.4-6.6-1.8-8.5,1.2c-0.4,0.6-1.4,1.2-2.2,1.3c-3.6,0.3-6.4,2-8.7,4.7c-0.6,0.7-1.6,1-2.4,1.6c-1,0.7-2.1,1.4-2.8,2.4
		c-1.7,2.3-2,4.8-0.3,7.3c0.3,0.4,0.2,1.1,0.4,1.7c-1,0.3-1.7,0.6-2.5,0.7c-2.9,0.2-5.8,0.4-8.7,0.5c-3.9,0.1-5.4,1.5-4.9,5.2
		s1.3,7.2,2,10.9c0.1,0.5,0.2,1.1,0.3,1.6c-0.3,0-0.6,0.1-0.7,0c-1-0.9-2.1-1.9-3.1-2.9c-1.7-1.6-4.8-1.9-7.1-0.6
		c-3.1,1.7-3.4,2.4-2.8,5.6c0.2,0.9,0.2,1.8,0.4,2.7c-3.5-0.7-3.6-1.1-3.3-4.1c0.3-3,1.5-5.9-0.6-8.9c-0.4,4.7-0.4,4.6-3.5,9.6
		c-0.4,0.6-0.3,2,0.1,2.6c2.3,3.3,2.3,6.5,0.9,10c-0.2,0.5-0.4,1.1-0.4,1.7c0,1.9-0.6,4.1,2.3,4.8c0.3,0.1,0.7,1.4,0.5,2
		c-0.5,2-0.8,3.8,0.2,5.7c0.3,0.6,0.2,1.9-0.3,2.5c-1.9,2.5-2.3,5.6-5,7.9c-2,1.7-3,1.5-4.8,0.6c0.1-0.4,0-0.6,0.1-0.7
		c1.4-2.7,3.1-5.2,4.2-8.1c0.7-2,1.6-4.8,0.7-6.2c-1.9-3.1-1.7-6-1.6-9.2c0.1-3.1,0.5-6.5-0.7-9.2c-1.3-3-0.7-5.2,0.3-7.9
		c1.7-4.5,0.8-6.2-3.7-7.7c-2.8-0.9-3.7-0.5-4.2,2.4c-0.7,4.4-2.5,8.1-5,11.7c-0.7,1.1-1,2.8-0.8,4.2c0.2,2.9,0.8,5.7,1.3,8.9
		c4.2,2,5.6,6.8,2.4,10.5c-1.3-1.1-2.6-2.2-3.9-3.4c-4.2-3.7-8.2-7.5-14.1-8.4c-0.9-0.1-1.8,0.1-2.7,0.2c0.2,0.9,0.3,1.8,0.6,2.7
		c0.3,1.1,1.3,2.3,1,3.1c-0.6,1.7-1.8,3.1-2.9,4.8c-1.3-1.6-2.2-2.7-3.2-3.9v0.8c-2.5,0.6-5,1.2-7.4,1.8c-0.5,0.1-1.2,0.4-1.4,0.9
		c-1.5,2.3-3.2,1.4-5.1,0.5c0.6-1.3,1.2-2.6,1.9-4.1c-0.7,0.1-1,0-1.2,0.2c-4.3,2.7-8.6,5.4-12.8,8.2c-0.6,0.4-1.1,1.4-1.1,2.1
		c0.1,2.6-1.7,3.3-3.7,3.9c-2.2,0.6-3-1-3.5-2.4s-1.1-3.2,0.8-4.4c0.6-0.4,1.6-1.2,1.5-1.5c-0.2-0.9-0.8-1.9-1.6-2.3
		c-1.4-0.7-2.9-1-4-1.3c-0.2,2.3-0.4,4.4-0.5,6.4c0,0.7,0.1,1.6,0.5,2.1c2,2.7,0.7,4.8-0.6,7.5c-0.8-0.6-1.3-1.2-2-1.6
		c-0.8-0.4-2.1-1-2.4-0.7c-1.9,1.5-3.7,3.1-5.1,4.9c-0.5,0.7,0.3,2.3,0.3,3.4c0,0.8,0.1,2-0.4,2.3c-0.8,0.5-2,0.7-2.9,0.5
		c-1.2-0.3-2.1-1.3-3.2-1.8c-0.7-0.3-1.5-0.3-2.2-0.4v2.2c0.1,1.4,0.3,2.8,0.4,4.6c-5.8-2.2-6.7-3.1-6.5-7.1
		c0.2-3.7-0.6-6.8-3.6-9.2c-0.3-0.3-0.5-0.8-1.1-1.8c1.7,0,3.1-0.3,4.3,0.1c2.6,0.9,5.1,2.1,7.6,3.2c2.8,1.2,5.2,0.5,7.3-1.8
		c1.9-2.1,2.4-5,0.6-7.2c-2.1-2.6-4.9-4.7-7.3-6.9c-1.9-1.8-4-3.2-6.7-3.6c-2.7-0.3-4.8-1.6-6.5-3.8c-0.3-0.4-0.9-0.8-1.2-1.1
		l-0.1,0.1c-0.8-0.6-1.8-1-3-1c-0.6,0-1.2,0.1-1.7,0.3c-0.3-1.1-0.8-2.2-1.1-3.3c0.7-0.5,1.4-1.1,2.3-1.9c-3.5-2.3-5.9-6.5-10.9-3.8
		c-0.5,0.2-1.2,0.3-1.7,0.2c-3-0.7-4.5,1.1-5.7,3.5c-0.7,1.5-1.6,2.8-3.6,2.6c-4.1-0.3-7,1.9-9.4,4.8c-6.3,7.5-12,15.4-16,24.5
		c-3.5,8-8.2,15-15.9,19.7c-1.6,0.9-3,3.3-3,5.1c-0.1,4.8,0.3,9.8,1,14.6c0.5,3.4,4.3,4.5,6.9,2.2c1.1-1,2.1-2.1,3-3.3
		c1.1-1.4,2.1-2.3,3.5-0.3l0,0c0.1,1,0.5,2.1,1.1,2.9c0,1,0.2,2.1,0.7,3.2c1.4,3.5,2.3,7.1,3.6,10.6c0.2,0.5,1.4,1.2,1.5,1.1
		c2.2-1.7,4.3-3.5,6.3-5.4c0.4-0.4,0.4-1.2,0.5-1.9c0.2-1.4,0.4-2.9,0.6-4.4c0.3-2,0.5-3.7,2.7-4.9c2.4-1.3,2.8-5.5,1.1-7.6
		c-1.8-2.4-2.5-4.8-1.8-7.9c0.7-3.2,2.2-5.7,4.5-8c2.8-2.8,5.9-5.3,5.8-10c-0.1-1.5,1.4-4,2.7-4.5c3.4-1.4,3.5-3.6,3-6.5
		c-0.2-1-0.1-2,0-3c0.9-6.2-3.9-8.8-7.1-12.4c-0.1,0-0.2,0.1-0.3,0.1c-0.4-0.2-0.8-0.4-1.3-0.5c0.7-0.8,2.6-1.5,3.9-2.2
		c1.5,2.9,4.4,2.6,6.8,3.5c1.6,0.6,2.4,0.3,3-1c0.7-1.6,0.8-3.5,1.8-4.9c1.1-1.5,2.6-3.1,4.3-3.7c0.8-0.3,2.7,1.4,3.5,2.6
		c0.7,0.9,0.4,2.5,0.6,4.2c-0.1,0.4-0.1,0.8-0.1,1.2c-0.2,0.6-0.3,1.3-0.2,1.9c-0.8,1.2-1,2.7-0.4,3.8c0.5,1,1.3,1.9,2.2,2.7
		c1.2,1.2,1.4,2.4,0.5,3.8c-1.5,2.2-1.3,4.3-0.1,6.4c1.4,2.4,1.7,4.8,0.5,7.5c-0.4,1.1,0.3,2.6,0.5,3.9c0.2,1.3,0.8,2.7,0.6,4
		c-0.3,1.5,0.1,2.5,1,3.5c2.7,2.9,2.7,3.8,0.2,6.9c-2.1,2.8-4.3,5.4-6.5,8.2c0.8,1,1.5,1.9,2.2,2.7c-1.5,1.9-2.4,3.1-2.9,4.4
		c-0.8-0.4-1.7-0.6-2.5-0.6c-2.4-1-5.3-1.2-8.2,0.2c-1.6,0.8-1.9,2.7-0.6,3.6c1,0.7,2.1,1.5,3.1,2.2c-0.1,0.1-0.1,0.2-0.2,0.3
		c-0.3,0.4-0.5,0.9-0.6,1.4c-0.5,0.3-0.8,1-1.3,2.2c-0.3,0.6-0.8,1.4-1.4,1.7c-0.2,0-0.3,0-0.5,0.1c-0.6-0.1-1.4-0.7-1.8-1.2
		c-1.5-1.7-2.4-1.8-3.4,0.3c-0.5,1-0.6,2.2-1.1,3.9c1.1-0.2,1.5-0.3,1.7-0.4c0.5,0,1,0,1.5,0c-0.2,0.4-0.3,0.7-0.4,1.1
		c-0.9,0.5-1.9,1.1-2.1,1.8c-0.2,0.8,1.1,2,1.9,2.9c0.6,0.7,1.3,1.3,2,2s1.4,1.7,2.1,2.3c0,1,0.3,2.1,0.8,2.9
		c-0.6,1-0.8,2.2-0.4,3.8c0.2,1-0.2,2.1-0.4,3.5c0.1,0,0.1,0,0.2,0c-0.1,1.1,0.1,2.1,0.7,3c0.2,1.6-0.5,2.5-1.3,3.7
		c-0.7,1.2-1.2,2.5-1.8,3.8H646l0,0c-1.2,0-2.5,0.6-3.5,0.2c-0.8-0.3-1.5-0.5-2.2-0.4l-1.7-1.7h-0.1c-2.5-1.4-4.9-2.5-7.1-3.8
		c-2.6-1.4-4.7-0.2-6.7,1.1c-1.3,0.8-1.3,2.1-0.4,3.2c1.8,2.3,3.7,4.3,7.1,3.2c0.7-0.3,1.4-0.3,2.1-0.3l3.1,0.9
		c-0.3,0.5-0.6,1-0.9,1.5c0.9,0.2,1.9,0.7,2.7,0.5c2.6-0.6,5.1-1.3,7.7-2v0.8h3.5c0.2,0.3,0.4,0.6,0.5,0.6c2.7,0.1,5.2,2.1,8.1,0.2
		c0.9-0.6,1.8-0.9,2.6-1c0.3,0.6,0.6,1.1,1,1.6c1.2,2.5,2.3,4.9,3.4,7.4v1.8h0.4l-0.1,0.1c2.4,1.1,3-0.3,3.7-1.3
		c0.5-0.8,0.9-1.4,1.3-1.8c0.7,0,1.4-0.2,2.1-0.6c0.5,0.2,1.1,0.5,2,1c0.4,0.3,0.9,0.4,1.4,0.5c2.7,0.9,2.8,1,1.2,3.4
		c0.6,1,1.1,1.9,1.8,3c1.4-0.7,2.8-1.4,4.2-2.1c-3.1-3.1-2.4-4.8,1.6-6.3c1.2-0.5,2.5-1.1,3.7-1.8c0,0.1,0.1,0.1,0.1,0.2
		c0.5,1.1,1.4,1.7,2.4,2.1c-0.1,0.1-0.2,0.2-0.2,0.3c-0.8,1.8-1.4,3.6-2.2,5.6c1.5,1.7,7.1,4.7,10,5.4c0.1,0.5,0.2,1.1,0.4,1.6
		c-0.1,0-0.2-0.1-0.3-0.1c0.8,2.7,1.3,5,4.2,5.9c0.4,0.1,0.7,0.2,1,0.3c0.1,0.4,0.4,0.9,0.6,1.3c0.3,1.2,0.9,2.3,2,3
		c0.5,2,2,3.7,4.7,3.7c1.5,0,2.6-0.5,3.4-1.3c1.6-0.5,2.1,0.2,2.8,2.5c0.6-1.5,1-2.9,1.7-4c1.2-1.8-0.2-3-1.1-4.1
		c-0.1-0.2-0.4-0.2-0.7-0.1c0-1-0.2-2.1-0.7-3c-0.8-1.6-1.5-3-2.1-4.5c-0.4-1-0.4-2.3-1-3.2c-1.2-1.5-1.3-2.8,0.1-4.1
		c1-0.9,2.1-1.7,3.1-2.6c0.4-0.3,0.9-0.6,1.1-0.9c0.1-0.2,0.1-0.4,0.1-0.6c0.3-0.2,0.6-0.6,0.9-0.9c0.6,0.5,1.3,0.4,2.1-0.2
		c2.3-1.5,4.7-1.1,7-0.7c2.7,0.4,1.7,2.6,1.8,4.2c0.1,1.3-0.3,2.6-2.1,2.2c-2.9-0.7-3.1,2-3.7,3.4c-0.4,0.9,0.8,2.7,1.6,3.8
		c0.8,1.2,2,2,3.3,3.2c0.7-0.3,1.5-0.4,2.2-0.4c0.1,0.6,0.3,1.1,0.6,1.6c0,0.1-0.1,0.1-0.1,0.2c0.7,1.2,1.3,2.4,2,3.7
		c-0.5,0.3-0.8,0.6-1.2,0.7c-1,0.2-2,0.4-3.2,0.6c0.5,3.1,3,5.3,2.4,8.6c-0.3,1.5,0.8,1.8,2.1,1.1c0.9-0.6,1.8-1.1,2.8-1.5
		c3.3-1.4,6.2,0.6,8.6,2.1c2.1,1.3,5.3,2,6.2,5.2c0.1,0.6,1.9,1.3,2.4,1c1.7-0.9,3.2-2,4.6-3.3c1.4-1.3,2.7-2.8,4-4.3
		c0.9,0.2,1.9,0.3,2.7,0.7c0.1,0.1,0.2,0.1,0.3,0.2c0.1,0,0.2,0.1,0.3,0.1c0,0,0.1,0,0.1,0.1c1.2,0.8,2.6,0.9,3.8,0.5
		c0,0.1,0,0.1,0,0.1c0.2-0.1,0.3-0.2,0.5-0.3c0.7-0.3,1.3-0.7,1.9-1.3c0.5-0.4,1.1-0.8,1.5-1.2c1.8-1.5,3.6-0.9,4,1.4
		c0.1,0.7,0.1,1.4,0.2,2c2.4-0.6,4.5-1.1,6.6-1.7c0.1,0,0.1-0.1,0.2-0.1c0.8,0.1,1.6,0.1,2.4-0.2c1,2.5,2.3,4.9,4.9,5.8
		c2.4,0.9,4,2.5,4.7,4.5c0.7,2.1,2,4.6,0.1,7c-0.3,0.3-0.1,1.6,0.3,1.9c1.7,1.3,3.5,2.4,5.4,3.4c2.6,1.4,5.6,2.3,8,4.1
		c3.5,2.5,7.2,2.9,11.1,3.1c-0.1,0.5-0.4,1.2-0.4,1.9c-0.7,1.7-0.8,2.8,1.2,3.1c0.9,0.1,2.1,0.5,2.4,1.1c1,2.3,3.1,2.2,5,2.5
		c2.2,0.4,2.1,1.4,1.1,2.9c-0.4,0.6-0.9,1.3-1.7,2.3c1-0.3,1.4-0.5,2-0.7c0.5,1.1,0.9,2,1.6,3.4c0.3-1.5,0.4-2.4,0.6-3.2
		c0.2-0.6,0.5-1.5,0.9-1.6c2.8-0.4,3.1-3,3.5-4.8c0.6-2.7,2.1-3.8,4.3-4.6c0.6-0.2,1.2-0.7,1.6-1c0.4-0.9,0.8-1.6,1.3-2.2h0.1
		c0.9,0.5,1.9,1,2.5,1.8c1.5,1.9,1.1,4.8-0.3,6.7c-0.7,1-1.2,2.2-1.9,3.6c3.5-0.1,4,2.4,4.8,4.1c1,2.1,1.8,2.9,3.3,2.4
		c-0.2,1.9-0.5,4.9-0.4,5.2c0.7,1.7,1.7,3.4,2.7,5.3c0.9-0.1,2.3-0.3,3.7-0.4c1.9-0.2,3.4,0.5,4.1,2.2c1.1,2.6,2.3,7,3.3,10
		c-1.1-0.2-2.2-0.6-2.7-0.7c-4.5-0.1-6.3,1.2-5.9,3.9c0.2,1.4,0.7,2.7,1.4,4c1,2,2.8,2.8,4.8,2c-0.1,0.9,0.4,2.2,0.2,3.2
		c0.2,0.2,0.4,0.3,0.6,0.5c3-2.4,5.9-4.9,8.9-7.3c0.3-0.2,0.4-0.6,0.5-0.9c1.5-3.8-1-10-4-11.4c0,0.1,0,0.2,0,0.3
		c-0.5-0.6-1-1.2-1.2-1.4c-1.3-1.4-3.1-2.8-4.8-4.1c-0.5-3.9,3.9-7.4,7.3-9.9h0.1c2.4,0.2,4.8,0,5.2,2.5c3.3-1.5,6.4-3.8,9.8-4.5
		c6.8-1.4,11.8-4.8,15.3-10.7c1.3-2.2,2.9-4.2,4.3-6.3c0.5-0.7,1.1-1.9,0.8-2.5c-1-2.3-0.3-4.8-0.6-7c-0.5-3-2.6-5.9-4.5-8.4
		c-1.8-2.3-2.1-3,0.2-4.8c1.8-1.4,3.7-2.8,5.6-4.2c-1.7-1.1-3.1-1.5-5-0.2c-2.7,1.9-3.4-1.6-5.2-2.5c-0.7-0.4-1-1.9-1.3-2.9
		c-0.1-0.3,0.5-0.8,0.9-1.1c2.4-1.7,4.8-3.4,7.3-4.9c0.9-0.5,2.5-0.7,3.3-0.3c1.4,0.7,0.6,1.9-0.2,2.9c-0.3,0.4-0.2,1.1-0.1,1.6
		c0,0.1,0.8,0.3,1.1,0.1c2.4-1.5,4.8-2.9,7.2-4.5c-0.1,1.2,0,3,0,3.5c0.1,1.1,0.7,2.2,0.5,3.1c-0.3,1.6,0.3,2.6,1.6,2.4
		c1.8-0.3,3.5-1.2,5.2-1.8c-0.2-0.3-0.5-0.5-0.8-0.7c0.2-1.3,0.1-3.7,0.8-3.9c4.1-1.6,4.3-5.5,6-8.6c-1.7,0-2.6,0.1-3.6,0
		c1.1-0.9,2.1-1.6,3.3-1.8c2-0.4,2.6-1.3,2.7-2.3c0.4,0.1,0.8,0.1,1.2,0.1c0,0.2,0.1,0.4,0.1,0.6c1.1,0.1,2.3-0.1,3,0.4
		c1.2,1,2.2,1,3.4,0.1c1.2-1,2.6-1.8,3.5-3.1c3.5-4.8,7-9.6,10.3-14.4c1-1.5,1.7-3.4,2.1-5.1c1-4.1,0.5-8.3,2.7-12.2
		c1.2-2.2-1.2-6.7-3.6-7.6c-0.8-0.3-2.3,0-2.8,0.6c-1.4,1.6-3.1,1-3.7,0c-1.3-2.4-3.4-3.1-6-3.4c0.4-0.7,0.6-1.1,0.9-1.4
		c5.5-6.1,11.1-12.3,16.7-18.4c0.5-0.6,1.3-1.2,2-1.3c3.8-0.4,7.7-0.9,11.6-1c2.3-0.1,4.5,0.3,6.6-1.4c1.9-1.6,4.9-0.2,5.4,2.1
		c0.1,0.5,1.1,1.3,1.6,1.3c2.1-0.3,4.2-0.8,6.9-1.3c-3.1-2.6-0.9-4.2,0.3-5.9c2.4-3.6,4.8-7,9.8-7.5c1.6-0.2,2.3,0.1,2.7,1.6
		c0.4,1.3,0.9,2.6,1.4,3.8c0.3,0.1,0.6,0.2,0.9,0.3c1.9-2.5,4.3-4.8,5.7-7.4c1.2-2.4,2.4-3,5.4-2.4c-1.3,3.1-2,6.3-3.8,8.8
		c-3.4,4.6-7.4,8.6-11.2,12.9c-0.6,0.7-1.3,1.9-2.1,2.1c-4.1,1-4.7,4.7-5.9,7.6c-1.8,4.5-0.2,8.9,0.4,13.4c0.4,2.9,1,5.6,1.6,8.4
		c0.3,0.1,0.7,0.2,1,0.3c0.9-1.6,2.1-3.2,2.6-4.9s1-2.8,2.9-3.2c0.6-0.1,1.5-0.8,1.6-1.3c0.1-3.2,1.9-5,4.8-6
		c-0.2-2.8-0.8-5.2,2.5-6.5c1.5-0.6,1.1-5.6-0.4-6.2c-2.1-1-2-2.3-1.1-4.1c1.1-2.1,2.1-4.3,3.2-6.3c0.3-0.5,0.9-0.9,1.4-1
		c1.7-0.4,3.5-0.6,5.8-1c1.1,0.8,1.1,0.8,3.4-0.6c3.7-2.2,3.7-2.2,7,0.3c0.1,0.1,0.3,0,0.6,0c4.4-6.2,11.1-9.3,17.7-12.7
		c0.7-0.4,1.8,0.1,2.6,0.1h2.8c-0.2-1-0.2-2.1-0.6-3c-1.3-3.1-2.7-6-4.2-9.2c1-0.1,1.9-0.1,3.1-0.2c0.4-3.7,0.8-7.4,1.3-11.1
		c0.5-0.1,0.9-0.2,1.3-0.2c0.4-0.1,0.9-0.1,1.4-0.2c0.1,3.5,0.1,3.3,3.5,3.6c1.1,0.1,2.9,0.8,3.1,1.5c0.5,2.3,2.2,3,3.9,3.9
		c1.3,0.7,2.7,1.3,4,1.9c0.3-1.4,0.7-2.8,0.7-4.2c-0.1-2,0.7-2.9,2.6-3.1c0.7,0,1.6,0,1.9-0.4C1078.9,292.9,1080,291.6,1079.7,290.9
		z"/>
</g>
</svg>
